<?xml version="1.0" encoding="utf-8"?>
<!-- Generator: Adobe Illustrator 21.1.0, SVG Export Plug-In . SVG Version: 6.00 Build 0)  -->
<svg version="1.1" xmlns="http://www.w3.org/2000/svg" xmlns:xlink="http://www.w3.org/1999/xlink" x="0px" y="0px"
	 viewBox="0 0 612 792" style="enable-background:new 0 0 612 792;" xml:space="preserve">
<style type="text/css">
	.st0{display:none;}
	.st1{display:inline;fill:#444545;}
	.st2{display:inline;fill:#757576;}
	.st3{fill-rule:evenodd;clip-rule:evenodd;}
	.st4{fill-rule:evenodd;clip-rule:evenodd;fill:none;}
	.st5{clip-path:url(#SVGID_2_);}
	.st6{clip-path:url(#SVGID_4_);fill:#232323;}
	.st7{clip-path:url(#SVGID_6_);}
	.st8{clip-path:url(#SVGID_8_);fill:#232323;}
	.st9{clip-path:url(#SVGID_10_);}
	.st10{clip-path:url(#SVGID_12_);fill:#232323;}
	.st11{clip-path:url(#SVGID_14_);}
	.st12{clip-path:url(#SVGID_16_);fill:#232323;}
	.st13{clip-path:url(#SVGID_18_);}
	.st14{clip-path:url(#SVGID_20_);fill:#232323;}
	.st15{fill:none;stroke:#000000;stroke-width:0.5;stroke-miterlimit:10;}
	.st16{fill:none;stroke:#000000;stroke-width:0.5;stroke-miterlimit:10;stroke-dasharray:0.5026,0.5026;}
	.st17{font-family:'Lato-Regular';}
	.st18{font-size:21px;}
	.st19{font-size:12px;}
	.st20{fill:none;}
	.st21{font-size:9px;}
	.st22{font-size:10px;}
	.st23{font-size:8px;}
	.st24{font-size:7px;}
	.st25{fill:none;stroke:#000000;stroke-miterlimit:10;}
	.st26{fill:none;stroke:#000000;stroke-miterlimit:10;stroke-dasharray:1.0034,1.0034;}
	.st27{fill:none;stroke:#000000;stroke-width:0.25;stroke-miterlimit:10;}
	.st28{fill:#070808;}
</style>
<g id="backround" class="st0">
	<rect class="st1" width="612" height="792"/>
</g>
<g id="graphics">
	<g>
		<g>
			<path class="st3" d="M304.6,117.2c-0.1-0.4,0-0.8,0.2-1.1c0.1-0.1,0.1-0.4,0.1-0.5c-0.2-1.1,0.1-2,0.8-2.8
				c0.9-0.9,1.8-1.9,2.7-2.8c2.6-2.5,5.2-5,7.8-7.5c1.7-1.6,3.3-3.1,5-4.7c0.6-0.6,1.2-1.2,1.8-1.8c0.7-0.7,1.4-1.4,2.4-1.7
				c0.7-0.3,1.5-0.3,2.3,0c0.4,0.2,0.8,0.3,1.1,0.7c0.6,0.9,0.8,1.7,0.3,2.7c-0.3,0.7-0.8,1.2-1.4,1.7c-0.6,0.5-1.1,1-1.6,1.5
				c-4.7,4.7-9.4,9.5-14.2,14.2c-1.1,1.1-2.3,2.2-3.5,3.3c-0.2,0.2-0.4,0.3-0.6,0.4c-0.1,0-0.2,0.1-0.2,0.1c-0.2,0.3-0.6,0.4-1,0.4
				c-0.2,0.5-0.4,0.9-1,1.1c0,0,0,0,0,0c-0.2,0.6-1,0.7-1.2,1.3c0,0.1-0.1,0.1-0.1,0.2c-0.8,0.7-1.5,1.5-2.3,2.2
				c-0.6,0.5-1,1-1.5,1.5c-0.7,0.8-1.3,1.6-2,2.4c-0.2,0.2-0.3,0.5-0.4,0.8c-0.5,0.8-1,1.7-1.5,2.5c-0.3,0.4-0.5,0.9-0.9,1.2
				c-0.7,0.5-1,1.2-1.6,1.8c-0.7,0.7-1.3,1.4-2.2,1.8c-0.6,0.3-1.2,0.4-1.8,0.6c-0.8,0.2-1.4-0.3-2.1-0.7c-0.7-0.5-0.9-1.2-1.1-1.9
				c-0.1-0.3,0-0.6,0.1-0.9c0.2-0.5,0.4-1,0.7-1.5c0.8-1.2,1.8-2.2,3-2.9c0.6-0.4,1.2-0.9,1.8-1.3c0.6-0.4,1.1-0.7,1.7-1.1
				c1.4-0.9,2.7-1.9,3.8-3.2c1-1.1,2.1-2.3,3.2-3.4c0.4-0.4,0.9-0.8,1.5-1c0.3-0.1,0.6-0.5,0.7-0.7
				C303.8,117.6,304.1,117.2,304.6,117.2z M305.6,113.3C305.6,113.3,305.6,113.3,305.6,113.3c4.3-4.1,8.6-8.1,12.8-12.2
				c0,0,0.1,0.1,0.1,0.1c-0.1,0.1-0.2,0.2-0.3,0.3c-0.9,0.8-1.8,1.7-2.7,2.5c-3.2,3.1-6.5,6.3-9.7,9.4c-0.1,0.1-0.4,0.2-0.5,0.4
				c-0.4,0.5-0.3,1.7,0.1,2.2c0.7,0.8,1.5,1.5,2.2,2.3c0.1-0.1,0.3-0.2,0.4-0.3c1.4-1.3,2.8-2.7,4.2-4c4.6-4.6,9.3-9.3,13.9-13.9
				c0.7-0.7,1.5-1.5,2.2-2.2c0.5-0.5,0.6-1.2,0.4-1.9c-0.2,0.2-0.4,0.3-0.6,0.4c-1.1,1.1-2.2,2.2-3.4,3.2c-1.1,1-2.2,2.1-3.2,3.1
				c-0.1,0.1-0.2,0.2-0.3,0.2c0.2-0.3,0.4-0.5,0.7-0.8c1.6-1.6,3.3-3.2,4.9-4.8c0.6-0.6,1.2-1.1,1.9-1.7c-0.1-0.1-0.2-0.3-0.3-0.5
				c-0.1,0-0.1,0-0.1,0c-3.3,3.1-6.5,6.2-9.8,9.3c0,0-0.1,0.1-0.1,0.1c0,0,0,0,0,0c0,0,0,0,0,0c3.3-3.2,6.6-6.3,9.9-9.5
				c-0.4-0.4-0.4-0.4-0.8-0.1c-1.2,1.1-2.4,2.3-3.6,3.4c-0.1,0.1-0.2,0.2-0.3,0.2c0,0,0-0.1-0.1-0.1c1.3-1.4,2.8-2.5,4.1-3.9
				c-0.6-0.3-0.6-0.3-0.9,0.1c-0.5,0.5-1,1-1.5,1.5c-1.1,1-2.2,2.1-3.3,3.1c0,0-0.1,0.1-0.2,0.1c0,0,0-0.1-0.1-0.1
				c0.3-0.3,0.6-0.7,1-1c1.1-1,2.1-2,3.2-3c0.3-0.3,0.6-0.7,0.9-1c0,0-0.1-0.1-0.1-0.1c-0.4,0.1-0.6,0.6-0.9,0.8
				c-0.3,0.3-0.6,0.7-0.9,1c-0.3,0.3-0.6,0.6-0.9,0.9c-0.3,0.3-0.6,0.6-1,0.9c-0.3,0.3-0.6,0.6-1,0.9c-0.3,0.3-0.6,0.6-0.9,0.9
				c0,0-0.1-0.1-0.1-0.1c1.6-1.8,3.6-3.2,5.1-5.2c-0.2,0-0.4,0-0.6,0.1c-0.5,0.3-1.1,0.6-1.6,1c-0.7,0.6-1.4,1.4-2.1,2.1
				c-3.1,3-6.2,5.9-9.3,8.9c-2.2,2.1-4.3,4.2-6.4,6.3C306,112.9,305.8,113.1,305.6,113.3z M304.2,119.8c0,0-0.1,0.1-0.1,0.2
				c-0.2-0.1-0.3-0.1-0.5-0.2c-0.1-0.1-0.2-0.3-0.4-0.5c-0.3-0.3-0.4-0.4-0.7-0.2c-0.3,0.2-0.6,0.3-0.9,0.6
				c-0.8,0.8-1.6,1.7-2.5,2.6c0,0,0,0.1-0.1,0.2c0.6-0.6,1.2-1.2,1.8-1.8c-0.3,0.4-0.6,0.8-0.9,1.1c-0.3,0.3-0.6,0.6-0.9,1
				c-0.3,0.3-0.6,0.7-0.9,0.9c-0.4,0.2-0.5,0.6-0.8,0.9c-0.4,0.4-0.8,0.7-1.2,1c-0.8,0.6-1.7,1.2-2.5,1.7c-0.1,0.1-0.3,0.2-0.4,0.2
				c0,0,0-0.1-0.1-0.1c0.4-0.3,0.8-0.6,1.2-0.9c-0.5,0.2-0.9,0.4-1.3,0.7c-0.3,0.2-0.5,0.4-0.7,0.6c-0.3,0.2-0.6,0.4-0.9,0.6
				c-0.2,0.1-0.3,0.3-0.2,0.5c0.2-0.1,0.3-0.1,0.5-0.2c0.4-0.2,1-0.2,1.3-0.8c0.1-0.3,0.5-0.3,0.7,0c0.1,0.1,0.2,0.3,0.3,0.4
				c0.1,0.1,0.2,0.2,0.4,0.3c0.1-0.2,0.2-0.3,0.3-0.5c0.1,0.1,0.2,0.3,0.3,0.4c0.1,0.1,0.1,0.2,0.2,0.2c0.2,0.1,0.2-0.1,0.3-0.2
				c0.1-0.2,0.2-0.4,0.3-0.6c-0.2-0.5-0.2-1.2,0.2-1.6c0.1-0.2,0.3-0.1,0.4,0c0.1,0.1,0.1,0.3,0.1,0.5c0,0-0.1,0-0.1,0
				c0-0.1-0.1-0.2-0.2-0.4c-0.4,0.7-0.4,0.7,0,0.9c0.2-0.2,0.4-0.3,0.6-0.5c0.2-0.1,0.3-0.2,0.3-0.5c0-0.2,0-0.4,0.2-0.5
				c0.3-0.1,0.7-0.3,1-0.4c0.1,0,0.3,0,0.4,0.1c0,0.2,0,0.4-0.1,0.5c-0.1,0.2-0.3,0.3-0.5,0.4c0.1,0.1,0.1,0.2,0.2,0.4
				c0.6-0.8,1.2-1.5,1.9-2.2c0.6-0.7,1.3-1.3,2-2c0.7-0.6,1.4-1.3,2-1.9c0,0,0.1,0.1,0.1,0.1c-0.1,0.1-0.2,0.2-0.3,0.4
				c-1.6,1.6-3.3,3-4.7,4.8c-0.3,0.4-0.8,0.8-1.1,1.3c-0.4,0.6-0.8,1.2-1.2,1.9c-0.3,0.5-0.6,1.1-0.9,1.6c0,0,0,0.1,0,0.2
				c0.1-0.1,0.1-0.1,0.1-0.2c1-1.5,1.8-3.2,3.1-4.6c1-1.1,2.1-2.2,3.1-3.3c0.5-0.5,1-0.9,1.4-1.4c0.2-0.2,0.4-0.6,0.8-0.6
				c0.1,0,0.1-0.1,0.2-0.1c0-0.2-0.1-0.4-0.1-0.5c0.1-0.1,0.3-0.1,0.4-0.2c-0.6-0.5-1.1-1-1.7-1.5
				C303.5,119.2,303.9,119.5,304.2,119.8z M290.2,132.6C290.3,132.6,290.3,132.6,290.2,132.6c0.2,0.2,0.2,0.4,0.3,0.5
				c0.4,0.4,0.8,0.5,1.3,0.3c0.2,0,0.3-0.2,0.4-0.2c0.5,0,0.9-0.3,1.3-0.6c0.1-0.1,0.2-0.1,0.2-0.1c0,0,0.1,0.1,0.1,0.1
				c-0.3,0.3-0.6,0.5-0.9,0.8c0,0,0.1,0.1,0.1,0.1c0.2-0.1,0.4-0.3,0.5-0.4c0.4-0.5,0.8-0.9,1-1.5c0.1-0.4,0.5-0.7,0.5-1.2
				c0.1-0.6-0.1-1-0.5-1.4c-0.5-0.4-1-0.4-1.6-0.2c-0.2,0.1-0.4,0.1-0.6,0.2c-0.1,0-0.2,0-0.2,0.1c-0.4,0.4-0.9,0.9-1.3,1.3
				c-0.3,0.3-0.6,0.6-0.9,0.9c0,0.3,0,0.5-0.1,0.7c-0.1,0.4-0.1,0.7,0.2,1c0,0,0.1,0,0.1,0C290.2,132.8,290.2,132.7,290.2,132.6z
				 M304.5,117.6c-0.5,0-0.7,0.5-0.9,0.9c0.2,0.2,0.4,0.4,0.6,0.6c0.3-0.3,0.6-0.6,0.9-0.9c0,0,0.1,0.1,0.1,0.1
				c-0.3,0.3-0.5,0.6-0.8,0.9c0,0,0.1,0.1,0.1,0.1c0.2-0.2,0.5-0.5,0.7-0.7c0.2-0.3,0.1-0.4-0.2-0.6
				C304.9,117.9,304.7,117.8,304.5,117.6z M291.9,128.8c-0.8,0.1-2.5,1.8-2.7,2.5c0.8-0.8,1.4-1.8,2.4-2.3c-0.6,0.5-1.2,1.1-1.6,1.8
				c0.6-0.6,1.2-1.1,1.8-1.7C291.9,129,291.9,128.9,291.9,128.8z M305.1,116.5c-0.2,0.3,0,0.5,0.1,0.7c0.5,0.7,1.1,1.3,1.9,1.6
				c0-0.1,0-0.3-0.1-0.3C306.4,117.8,305.7,117.2,305.1,116.5z M295.7,131.5c0,0-0.1-0.1-0.1-0.1c-0.1,0.1-0.3,0.2-0.3,0.3
				c-0.6,1.3-1.7,2.3-2.7,3.2C294,134.1,294.6,132.6,295.7,131.5z M287.7,133.2c0.8-1.3,1.6-2.6,2.7-3.7
				C289.2,130.3,287.9,132.3,287.7,133.2z M291.6,133.9c0.2,0.5,0.5,0.7,0.8,0.6c0.4-0.1,0.4-0.3,0.3-0.9
				C292.3,133.7,292,133.8,291.6,133.9z M289.2,132.4c0.7-0.2,0.9-0.6,0.5-1.2c-0.1,0.4-0.4,0.6-0.7,0.4
				C288.6,132,289,132.2,289.2,132.4z M307.3,118.3c-0.7-0.7-1.2-1.4-2-2C305.9,117.1,306.5,117.8,307.3,118.3z M296.4,129
				c-0.2,0-0.4,0-0.6,0c-0.2,0.1-0.3,0.2-0.5,0.4c0,0.3,0.2,0.3,0.5,0.4c0.2,0.1,0.3-0.1,0.4-0.3C296.2,129.4,296.3,129.3,296.4,129
				z"/>
			<path class="st4" d="M305.6,113.3c0.2-0.2,0.3-0.4,0.5-0.6c2.1-2.1,4.3-4.2,6.4-6.3c3.1-3,6.2-5.9,9.3-8.9
				c0.7-0.7,1.4-1.4,2.1-2.1c0.5-0.4,1-0.7,1.6-1c0.2-0.1,0.4-0.1,0.6-0.1c-1.5,1.9-3.5,3.4-5.1,5.2c0,0,0.1,0.1,0.1,0.1
				c0.3-0.3,0.6-0.6,0.9-0.9c0.3-0.3,0.6-0.6,1-0.9c0.3-0.3,0.6-0.6,1-0.9c0.3-0.3,0.6-0.6,0.9-0.9c0.3-0.3,0.6-0.7,0.9-1
				c0.3-0.3,0.4-0.7,0.9-0.8c0,0,0.1,0.1,0.1,0.1c-0.3,0.4-0.6,0.7-0.9,1c-1,1-2.1,2-3.2,3c-0.3,0.3-0.7,0.6-1,1c0,0,0,0.1,0.1,0.1
				c0.1,0,0.1-0.1,0.2-0.1c1.1-1,2.2-2.1,3.3-3.1c0.5-0.5,1-1,1.5-1.5c0.4-0.4,0.4-0.4,0.9-0.1c-1.3,1.4-2.8,2.6-4.1,3.9
				c0,0,0,0.1,0.1,0.1c0.1-0.1,0.2-0.1,0.3-0.2c1.2-1.1,2.4-2.3,3.6-3.4c0.3-0.3,0.4-0.3,0.8,0.1c-3.3,3.2-6.6,6.3-9.9,9.5
				c0,0,0,0,0,0c0,0,0,0,0,0c0,0,0.1,0,0.1-0.1c3.3-3.1,6.5-6.2,9.8-9.3c0,0,0,0,0.1,0c0.1,0.2,0.2,0.4,0.3,0.5
				c-0.7,0.6-1.3,1.2-1.9,1.7c-1.6,1.6-3.3,3.2-4.9,4.8c-0.2,0.2-0.5,0.5-0.7,0.8c0.1-0.1,0.2-0.1,0.3-0.2c1.1-1,2.2-2.1,3.2-3.1
				c1.1-1.1,2.2-2.2,3.4-3.2c0.2-0.2,0.3-0.3,0.6-0.4c0.2,0.8,0.1,1.4-0.4,1.9c-0.7,0.8-1.5,1.5-2.2,2.2c-4.6,4.6-9.3,9.3-13.9,13.9
				c-1.4,1.4-2.8,2.7-4.2,4c-0.1,0.1-0.3,0.2-0.4,0.3c-0.8-0.8-1.5-1.5-2.2-2.3c-0.5-0.5-0.5-1.7-0.1-2.2c0.1-0.2,0.3-0.2,0.5-0.4
				c3.2-3.1,6.5-6.3,9.7-9.4c0.9-0.9,1.8-1.7,2.7-2.5c0.1-0.1,0.2-0.2,0.3-0.3c0,0-0.1-0.1-0.1-0.1
				C314.2,105.2,309.9,109.3,305.6,113.3C305.6,113.3,305.6,113.3,305.6,113.3z M312.3,110.8c0,0,0.1,0.1,0.1,0.1
				c4.9-4.8,10.1-9.4,14.9-14.2c0,0,0,0-0.1-0.1C322.3,101.3,317.3,106.1,312.3,110.8z M319.6,101.5c0,0-0.1-0.1-0.1-0.1
				c-4.3,4.2-8.7,8.3-12.9,12.5c0,0,0,0,0.1,0.1C311,109.8,315.3,105.7,319.6,101.5z M315.7,104.6c-3.4,3.4-7,6.5-10.4,10
				c0,0,0.1,0.1,0.1,0.1C308.9,111.4,312.3,108,315.7,104.6z M316.6,103.4c3.1-2.9,6.2-5.8,9.2-8.8
				C322.6,97.4,319.7,100.4,316.6,103.4z M320.6,104.8C320.6,104.8,320.6,104.8,320.6,104.8c-0.4,0.3-0.8,0.6-1.1,0.9
				c-2.2,2.1-4.4,4.3-6.6,6.4c0,0,0,0,0,0c0,0,0,0,0.1,0.1C315.5,109.8,318.1,107.3,320.6,104.8z M314.9,107
				C314.8,107,314.8,107,314.9,107c-0.2,0-0.3,0.2-0.4,0.3c-0.6,0.6-1.2,1.2-1.8,1.8c-1.8,1.7-3.5,3.4-5.3,5.2
				c-0.1,0.1-0.2,0.2-0.3,0.4c0,0,0.1,0,0.1,0.1C309.7,112.1,312.3,109.6,314.9,107z M327.3,94.6c0,0-0.1-0.1-0.1-0.1
				c-2.6,2.5-5.3,5-7.9,7.6c0,0,0.1,0.1,0.1,0.1C322,99.7,324.7,97.2,327.3,94.6z M316.5,106.5c0,0-0.1-0.1-0.1-0.1
				c-2.5,2.4-5,4.7-7.5,7.1c0,0,0.1,0.1,0.1,0.1C311.6,111.2,314.1,108.9,316.5,106.5z M327.9,95.1C327.9,95.1,327.8,95,327.9,95.1
				c-2.7,2.3-5.3,4.9-7.9,7.4c0,0,0.1,0.1,0.1,0.1C322.7,100.1,325.3,97.6,327.9,95.1z M316.9,107.7
				C316.9,107.6,316.9,107.6,316.9,107.7c-1.8,1.6-3.4,3.3-5.1,4.9c0,0,0,0,0.1,0.1C313.5,111,315.2,109.3,316.9,107.7z
				 M320.8,103.5c0,0-0.1-0.1-0.1-0.1c-2.3,2.1-4.5,4.3-6.8,6.4c0,0,0,0.1,0.1,0.1C316.3,107.8,318.6,105.6,320.8,103.5z
				 M312.2,109.1c-2.2,2.1-4.4,4.1-6.5,6.2c0,0,0,0,0.1,0.1C307.9,113.3,310,111.2,312.2,109.1z M310.6,109.1
				c-1.8,1.6-3.7,3.2-5.2,5c0,0,0.1,0.1,0.1,0.1C307.2,112.5,308.9,110.8,310.6,109.1z M324.6,95.2
				C324.5,95.2,324.5,95.2,324.6,95.2c-1.9,1.8-3.8,3.7-5.7,5.5c0,0,0,0,0,0C320.8,99,322.7,97.1,324.6,95.2z M321.8,103.1
				C321.8,103.1,321.8,103.1,321.8,103.1c1.5-1.4,2.9-2.8,4.4-4.2c0,0,0,0,0,0C324.7,100.3,323.2,101.7,321.8,103.1z M316.3,103.6
				C316.3,103.6,316.3,103.6,316.3,103.6c-1.8,1.7-3.6,3.4-5.4,5.1c0,0,0,0,0.1,0.1C312.8,107.1,314.6,105.4,316.3,103.6z
				 M328.6,97.2c-1.1,0.8-2,1.8-2.9,2.7C326.7,99.1,327.6,98.1,328.6,97.2z M315.1,107.3C315,107.3,315,107.2,315.1,107.3
				c-1.2,1.1-2.4,2.3-3.6,3.4c0,0,0,0,0.1,0.1C312.7,109.6,313.9,108.4,315.1,107.3z M319.7,102.3
				C319.7,102.3,319.7,102.4,319.7,102.3c1.3-1.1,2.5-2.2,3.7-3.4c0,0-0.1-0.1-0.1-0.1C322.1,100,320.9,101.1,319.7,102.3z
				 M315.3,106.5c0.9-0.7,1.8-1.5,2.6-2.4c0,0-0.1-0.1-0.1-0.1C317,104.9,316.1,105.7,315.3,106.5z M320.6,100.2
				c0,0-0.1-0.1-0.1-0.1c-0.8,0.8-1.6,1.6-2.4,2.3c0,0,0,0,0,0C319,101.7,319.8,100.9,320.6,100.2z M324.1,101.5
				C324,101.5,324,101.5,324.1,101.5c-0.9,0.7-1.7,1.5-2.5,2.3c0,0,0.1,0.1,0.1,0.1C322.4,103.1,323.2,102.3,324.1,101.5z"/>
			<path class="st4" d="M304.2,119.8c-0.3-0.3-0.7-0.6-0.8-1.1c0.6,0.5,1.1,1,1.7,1.5c-0.2,0.1-0.4,0.1-0.4,0.2
				c-0.1,0.1,0,0.3,0.1,0.5c0,0-0.1,0.1-0.2,0.1c-0.4,0-0.6,0.3-0.8,0.6c-0.5,0.5-1,0.9-1.4,1.4c-1,1.1-2.1,2.2-3.1,3.3
				c-1.3,1.4-2.1,3-3.1,4.6c0,0-0.1,0.1-0.1,0.2c0-0.1,0-0.1,0-0.2c0.3-0.5,0.6-1.1,0.9-1.6c0.4-0.6,0.8-1.3,1.2-1.9
				c0.3-0.4,0.8-0.8,1.1-1.3c1.4-1.8,3.1-3.2,4.7-4.8c0.1-0.1,0.2-0.2,0.3-0.4c0,0-0.1-0.1-0.1-0.1c-0.7,0.6-1.4,1.2-2,1.9
				c-0.7,0.6-1.3,1.3-2,2c-0.6,0.7-1.2,1.4-1.9,2.2c-0.1-0.2-0.1-0.3-0.2-0.4c0.2-0.1,0.4-0.2,0.5-0.4c0.1-0.1,0.1-0.3,0.1-0.5
				c-0.1,0-0.3-0.1-0.4-0.1c-0.3,0.1-0.7,0.3-1,0.4c-0.2,0.1-0.3,0.3-0.2,0.5c0,0.2-0.1,0.3-0.3,0.5c-0.2,0.1-0.4,0.3-0.6,0.5
				c-0.4-0.2-0.4-0.2,0-0.9c0.1,0.1,0.1,0.2,0.2,0.4c0,0,0.1,0,0.1,0c0-0.2,0-0.4-0.1-0.5c-0.1-0.2-0.2-0.2-0.4,0
				c-0.3,0.4-0.4,1.1-0.2,1.6c-0.1,0.2-0.2,0.4-0.3,0.6c-0.1,0.1-0.1,0.3-0.3,0.2c-0.1,0-0.2-0.1-0.2-0.2c-0.1-0.1-0.2-0.2-0.3-0.4
				c-0.1,0.2-0.2,0.3-0.3,0.5c-0.1-0.1-0.3-0.2-0.4-0.3c-0.1-0.1-0.2-0.3-0.3-0.4c-0.2-0.2-0.6-0.3-0.7,0c-0.3,0.6-0.8,0.6-1.3,0.8
				c-0.2,0.1-0.3,0.1-0.5,0.2c0-0.2,0.1-0.4,0.2-0.5c0.3-0.2,0.6-0.4,0.9-0.6c0.3-0.2,0.5-0.4,0.7-0.6c0.4-0.3,0.8-0.5,1.3-0.7
				c-0.4,0.3-0.8,0.6-1.2,0.9c0,0,0,0.1,0.1,0.1c0.1-0.1,0.3-0.1,0.4-0.2c0.8-0.6,1.7-1.1,2.5-1.7c0.4-0.3,0.8-0.7,1.2-1
				c0.3-0.3,0.4-0.7,0.8-0.9c0.4-0.2,0.6-0.6,0.9-0.9c0.3-0.3,0.6-0.6,0.9-1c0.3-0.4,0.7-0.7,0.9-1.1c-0.6,0.6-1.2,1.1-1.8,1.8
				c0-0.1,0-0.2,0.1-0.2c0.8-0.9,1.6-1.7,2.5-2.6c0.2-0.2,0.6-0.4,0.9-0.6c0.4-0.2,0.5-0.1,0.7,0.2c0.1,0.2,0.2,0.3,0.4,0.5
				c0.1,0.1,0.3,0.2,0.5,0.2C304.1,119.9,304.2,119.8,304.2,119.8z M304,120.6C304,120.6,303.9,120.6,304,120.6
				c-1.8,1.5-3.6,3-5,4.9C300.6,123.9,302.3,122.3,304,120.6z M301.2,122.6c0,0,0.1,0.1,0.1,0.1c0.8-0.8,1.7-1.6,2.5-2.4
				C302.8,121,302,121.9,301.2,122.6z"/>
			<path class="st4" d="M290.2,132.6c0,0.1,0,0.2,0,0.3c-0.1,0-0.1,0-0.1,0c-0.2-0.3-0.3-0.6-0.2-1c0.1-0.2,0-0.4,0.1-0.7
				c0.3-0.3,0.6-0.6,0.9-0.9c0.4-0.4,0.9-0.9,1.3-1.3c0,0,0.1,0,0.2-0.1c0.2-0.1,0.4-0.1,0.6-0.2c0.6-0.2,1.2-0.2,1.6,0.2
				c0.4,0.3,0.6,0.8,0.5,1.4c-0.1,0.5-0.4,0.8-0.5,1.2c-0.2,0.6-0.6,1.1-1,1.5c-0.1,0.2-0.3,0.3-0.5,0.4c0,0-0.1-0.1-0.1-0.1
				c0.3-0.3,0.6-0.5,0.9-0.8c0,0-0.1-0.1-0.1-0.1c-0.1,0-0.2,0.1-0.2,0.1c-0.4,0.3-0.7,0.6-1.3,0.6c-0.2,0-0.3,0.1-0.4,0.2
				c-0.5,0.2-1,0.1-1.3-0.3C290.4,133,290.4,132.8,290.2,132.6C290.3,132.6,290.3,132.6,290.2,132.6z M294.3,130.8
				c-0.4,0.4-0.7,0.7-1.1,1.1c-0.9,0.9-0.9,0.9-1.3,0.9c0.4-0.4,0.8-0.8,1.2-1.1c0,0-0.1-0.1-0.1-0.1c-0.3,0.3-0.6,0.5-0.8,0.8
				c0,0,0-0.1-0.1-0.1c0.7-0.8,1.6-1.5,2.3-2.4c-0.1,0-0.1,0-0.2,0c-0.9,1-1.9,1.9-2.8,2.9c0,0-0.2,0-0.2,0.1c0,0,0-0.1,0-0.1
				c0.4-0.4,0.7-0.8,1.1-1.2c-0.3,0-0.5,0.3-0.7,0.5c-0.2,0.2-0.4,0.4-0.6,0.6c0,0-0.1-0.1-0.1-0.1c0.2-0.2,0.5-0.4,0.7-0.7
				c0.2-0.2,0.4-0.5,0.6-0.7c0,0-0.1-0.1-0.1-0.1c-0.4,0.4-0.8,0.8-1.2,1.2c0,0-0.1,0-0.1-0.1c0.1-0.2,0.1-0.3,0.2-0.5
				c0.2-0.4,0.5-0.7,0.8-1.1c0,0-0.1,0-0.1-0.1c-0.2,0.3-0.5,0.6-0.7,1c0-0.1,0-0.2,0-0.2c0.3-0.3,0.5-0.7,0.8-1
				c0.5-0.5,1.2-0.9,1.9-1.1c0.7-0.2,1.1,0.1,1.1,0.9c0,0.2,0,0.5,0,0.7c0.2-0.3,0.3-0.4,0.2-0.9c0-0.6-0.5-1-1.1-0.9
				c-0.9,0.1-1.5,0.6-2.2,1.1c-0.5,0.4-0.9,1-1.1,1.6c-0.2,0.7,0.2,1.4,1,1.5c0.8,0.1,1.4-0.3,2-0.7c0.3-0.2,0.5-0.5,0.7-0.7
				c0,0-0.1-0.1-0.1-0.1c-0.3,0.3-0.6,0.6-0.9,0.9c0,0-0.1-0.1-0.1-0.1C293.3,131.8,294,131.5,294.3,130.8z"/>
			<path class="st4" d="M304.5,117.6c0.2,0.1,0.4,0.3,0.6,0.4c0.3,0.1,0.4,0.3,0.2,0.6c-0.2,0.3-0.5,0.5-0.7,0.7
				c0,0-0.1-0.1-0.1-0.1c0.3-0.3,0.5-0.6,0.8-0.9c0,0-0.1-0.1-0.1-0.1c-0.3,0.3-0.6,0.6-0.9,0.9c-0.2-0.2-0.4-0.4-0.6-0.6
				C303.9,118.1,304,117.7,304.5,117.6z"/>
			<path class="st4" d="M291.9,128.8c0,0.1,0,0.2-0.1,0.3c-0.6,0.6-1.2,1.2-1.8,1.7c0.4-0.7,1-1.2,1.6-1.8c-1,0.5-1.6,1.5-2.4,2.3
				C289.4,130.6,291.2,128.9,291.9,128.8z"/>
			<path class="st4" d="M305.1,116.5c0.7,0.7,1.3,1.3,1.9,2c0.1,0.1,0.1,0.2,0.1,0.3c-0.8-0.4-1.4-0.9-1.9-1.6
				C305.1,117,304.9,116.8,305.1,116.5z"/>
			<path class="st4" d="M295.7,131.5c-1,1.2-1.6,2.7-3.1,3.4c1-1,2.1-1.9,2.7-3.2c0.1-0.1,0.2-0.2,0.3-0.3
				C295.6,131.4,295.6,131.4,295.7,131.5z"/>
			<path class="st4" d="M287.7,133.2c0.2-1,1.5-2.9,2.7-3.7C289.2,130.6,288.5,131.9,287.7,133.2z"/>
			<path class="st4" d="M291.6,133.9c0.4-0.1,0.7-0.2,1.1-0.3c0.2,0.5,0.1,0.8-0.3,0.9C292.1,134.6,291.8,134.4,291.6,133.9z"/>
			<path class="st4" d="M289.2,132.4c-0.1-0.3-0.5-0.4-0.2-0.8c0.4,0.2,0.6,0,0.7-0.4C290,131.8,289.8,132.2,289.2,132.4z"/>
			<path class="st4" d="M307.3,118.3c-0.8-0.5-1.5-1.2-2-2C306.1,116.9,306.7,117.6,307.3,118.3z"/>
			<path class="st4" d="M296.4,129c-0.1,0.2-0.2,0.4-0.3,0.5c-0.1,0.1-0.1,0.4-0.4,0.3c-0.2-0.1-0.5-0.1-0.5-0.4
				c0.2-0.1,0.4-0.3,0.5-0.4C296,129,296.2,129.1,296.4,129z"/>
			<path class="st3" d="M312.3,110.8c5-4.7,10-9.5,15-14.2c0,0,0,0.1,0.1,0.1c-4.8,4.9-10,9.4-14.9,14.2
				C312.4,110.9,312.3,110.8,312.3,110.8z"/>
			<path class="st3" d="M319.6,101.5c-4.3,4.2-8.6,8.3-12.9,12.5c0,0,0,0-0.1-0.1c4.2-4.2,8.6-8.3,12.9-12.5
				C319.6,101.4,319.6,101.5,319.6,101.5z"/>
			<path class="st3" d="M315.7,104.6c-3.4,3.4-6.8,6.7-10.3,10.1c0,0-0.1-0.1-0.1-0.1C308.7,111.2,312.3,108,315.7,104.6z"/>
			<path class="st3" d="M316.6,103.4c3.1-2.9,6-6,9.2-8.8C322.8,97.5,319.7,100.5,316.6,103.4z"/>
			<path class="st3" d="M320.6,104.8c-2.5,2.5-5.1,5-7.6,7.5c-0.1-0.1-0.1-0.1-0.1-0.1c0,0,0,0,0,0c2.2-2.1,4.4-4.3,6.6-6.4
				C319.8,105.4,320.2,105.1,320.6,104.8C320.6,104.8,320.6,104.8,320.6,104.8z"/>
			<path class="st3" d="M314.9,107c-2.6,2.5-5.2,5.1-7.8,7.6c0,0-0.1,0-0.1-0.1c0.1-0.1,0.2-0.2,0.3-0.4c1.8-1.7,3.5-3.4,5.3-5.2
				c0.6-0.6,1.2-1.2,1.8-1.8C314.6,107.2,314.7,107,314.9,107C314.8,107,314.8,107,314.9,107z"/>
			<path class="st3" d="M327.3,94.6c-2.6,2.5-5.3,5-7.9,7.5c0,0-0.1-0.1-0.1-0.1c2.6-2.5,5.3-5,7.9-7.6
				C327.2,94.6,327.3,94.6,327.3,94.6z"/>
			<path class="st3" d="M316.5,106.5c-2.5,2.4-5,4.7-7.5,7.1c0,0-0.1-0.1-0.1-0.1c2.5-2.4,5-4.7,7.5-7.1
				C316.5,106.4,316.5,106.5,316.5,106.5z"/>
			<path class="st3" d="M327.9,95.1c-2.6,2.5-5.2,5-7.8,7.5c0,0-0.1-0.1-0.1-0.1C322.6,100,325.2,97.5,327.9,95.1
				C327.8,95,327.9,95.1,327.9,95.1z"/>
			<path class="st3" d="M316.9,107.7c-1.7,1.7-3.4,3.3-5.1,5c0,0,0,0-0.1-0.1C313.5,110.9,315.2,109.3,316.9,107.7
				C316.9,107.6,316.9,107.6,316.9,107.7z"/>
			<path class="st3" d="M320.8,103.5c-2.3,2.1-4.5,4.3-6.8,6.4c0,0,0,0-0.1-0.1c2.3-2.1,4.5-4.3,6.8-6.4
				C320.8,103.4,320.8,103.5,320.8,103.5z"/>
			<path class="st3" d="M312.2,109.1c-2.1,2.1-4.3,4.2-6.4,6.3c0,0,0,0-0.1-0.1C307.7,113.2,310,111.2,312.2,109.1z"/>
			<path class="st3" d="M310.6,109.1c-1.7,1.7-3.4,3.4-5.2,5.1c0,0-0.1-0.1-0.1-0.1C307,112.3,308.8,110.7,310.6,109.1z"/>
			<path class="st3" d="M324.6,95.2c-1.9,1.9-3.8,3.7-5.7,5.6c0,0,0,0,0,0C320.7,98.9,322.6,97,324.6,95.2
				C324.5,95.2,324.5,95.2,324.6,95.2z"/>
			<path class="st3" d="M321.8,103.1c1.4-1.4,2.9-2.8,4.3-4.3c0,0,0,0,0,0C324.7,100.3,323.3,101.7,321.8,103.1
				C321.8,103.1,321.8,103.1,321.8,103.1z"/>
			<path class="st3" d="M316.3,103.6c-1.8,1.7-3.5,3.5-5.3,5.2c0,0,0,0-0.1-0.1C312.7,107.1,314.5,105.3,316.3,103.6
				C316.3,103.6,316.3,103.6,316.3,103.6z"/>
			<path class="st3" d="M328.6,97.2c-1,0.9-1.8,1.9-2.9,2.7C326.6,99,327.5,98,328.6,97.2z"/>
			<path class="st3" d="M315.1,107.3c-1.2,1.2-2.4,2.3-3.5,3.5c0,0,0,0-0.1-0.1C312.6,109.5,313.8,108.4,315.1,107.3
				C315,107.2,315,107.3,315.1,107.3z"/>
			<path class="st3" d="M319.7,102.3c1.2-1.2,2.4-2.3,3.6-3.5c0,0,0.1,0.1,0.1,0.1C322.2,100.1,321,101.2,319.7,102.3
				C319.7,102.4,319.7,102.3,319.7,102.3z"/>
			<path class="st3" d="M315.3,106.5c0.8-0.8,1.7-1.7,2.5-2.5c0,0,0.1,0.1,0.1,0.1C317.1,105,316.2,105.8,315.3,106.5z"/>
			<path class="st3" d="M320.6,100.2c-0.8,0.8-1.6,1.5-2.4,2.3c0,0,0,0,0,0c0.8-0.8,1.6-1.6,2.4-2.3
				C320.5,100.1,320.6,100.1,320.6,100.2z"/>
			<path class="st3" d="M324.1,101.5c-0.8,0.8-1.6,1.6-2.5,2.4c0,0,0-0.1-0.1-0.1C322.4,103.1,323.2,102.3,324.1,101.5
				C324,101.5,324,101.5,324.1,101.5z"/>
			<path class="st3" d="M304,120.6c-1.7,1.6-3.3,3.3-5,4.9C300.4,123.7,302.2,122.2,304,120.6C303.9,120.6,304,120.6,304,120.6z"/>
			<path class="st3" d="M301.2,122.6c0.8-0.8,1.6-1.6,2.6-2.3c-0.8,0.8-1.7,1.6-2.5,2.4C301.3,122.7,301.2,122.7,301.2,122.6z"/>
			<path class="st3" d="M294.3,130.8c-0.3,0.7-0.9,1.1-1.4,1.6c0,0,0.1,0.1,0.1,0.1c0.3-0.3,0.6-0.6,0.9-0.9c0,0,0.1,0.1,0.1,0.1
				c-0.2,0.2-0.4,0.5-0.7,0.7c-0.6,0.4-1.2,0.8-2,0.7c-0.7-0.1-1.2-0.7-1-1.5c0.2-0.7,0.6-1.2,1.1-1.6c0.6-0.5,1.3-1,2.2-1.1
				c0.6-0.1,1.1,0.3,1.1,0.9c0,0.5,0,0.6-0.2,0.9c0-0.3,0-0.5,0-0.7c0-0.8-0.4-1.1-1.1-0.9c-0.7,0.2-1.4,0.5-1.9,1.1
				c-0.3,0.3-0.5,0.7-0.8,1c0,0.1,0,0.1,0,0.2c0.2-0.3,0.5-0.6,0.7-1c0,0,0.1,0,0.1,0.1c-0.3,0.4-0.5,0.7-0.8,1.1
				c-0.1,0.1-0.1,0.3-0.2,0.5c0,0,0.1,0,0.1,0.1c0.4-0.4,0.8-0.8,1.2-1.2c0,0,0.1,0.1,0.1,0.1c-0.2,0.2-0.4,0.5-0.6,0.7
				c-0.2,0.2-0.4,0.4-0.7,0.7c0,0,0.1,0.1,0.1,0.1c0.2-0.2,0.4-0.4,0.6-0.6c0.2-0.2,0.4-0.4,0.7-0.5c-0.4,0.4-0.7,0.8-1.1,1.2
				c0,0,0,0.1,0,0.1c0.1,0,0.2,0,0.2-0.1c0.9-1,1.9-1.9,2.8-2.9c0,0,0.1,0,0.2,0c-0.7,0.9-1.5,1.6-2.3,2.4c0,0,0,0.1,0.1,0.1
				c0.3-0.3,0.6-0.5,0.8-0.8c0,0,0.1,0.1,0.1,0.1c-0.4,0.4-0.7,0.7-1.2,1.1c0.4,0,0.4,0,1.3-0.9
				C293.5,131.5,293.9,131.1,294.3,130.8z"/>
		</g>
		<g>
			<path class="st3" d="M297.2,106.7c0.5,0.5,1.1,1.1,1.6,1.6c0.2,0.2,0.3,0.3,0.6,0.2c-0.3-0.7-1-1-1.3-1.7c0.5,0.5,1,0.9,1.4,1.5
				c0.1,0.2,0.2,0.4,0.5,0.3c-0.5-0.6-1-1.1-1.5-1.6c0,0,0.1-0.1,0.1-0.1c0.5,0.5,1,1,1.5,1.5c0,0,0,0,0,0c-0.3-0.4-0.6-0.7-0.9-1.1
				c0,0,0,0,0.1-0.1c0.2,0.1,0.3,0.3,0.5,0.4c0,0,0,0,0.1-0.1c-0.5-0.5-1.1-1.1-1.6-1.6c0.1-0.1,0.1-0.1,0.1-0.1
				c0.7,0.6,1.4,1.3,1.9,2.1c0.1,0.1,0.2,0.2,0.3,0.3c0,0,0.1-0.1,0.1-0.1c-0.7-0.8-1.5-1.6-2.2-2.5c0,0,0,0,0.1-0.1
				c0.6,0.6,1.2,1.3,1.8,1.9c0,0,0.1,0,0.1-0.1c-0.7-0.7-1.3-1.5-2-2.2c0.4,0.1,0.6,0.4,0.9,0.7c0.3,0.3,0.6,0.6,0.9,0.8
				c-2.6-2.7-5.2-5.3-7.8-8c0,0-0.1,0.1-0.1,0.1c0.5,0.5,0.9,1,1.4,1.5c1.2,1.2,2.3,2.4,3.5,3.6c0.2,0.2,0.4,0.5,0.6,0.7
				c0,0,0.1,0.1,0.1,0.1c0.2,0.2,0.3,0.5,0.1,0.8c-0.1,0.1-0.7,0.1-0.9,0c-0.3-0.2-0.6-0.5-0.9-0.7c-1.1-1-2.2-2.1-3.3-3.1
				c-0.4-0.4-0.8-0.8-1.3-1.1c-0.1-0.1-0.1-0.1-0.2-0.2c-0.2-0.4-0.6-0.7-1.1-0.9c0.9,0.9,1.7,1.7,2.5,2.5c0,0,0,0-0.1,0.1
				c-0.6-0.6-1.1-1.1-1.7-1.7c0,0-0.1,0.1-0.1,0.1c0.6,0.6,1.3,1.3,1.9,1.9c0,0,0,0.1,0,0.1c-0.4-0.2-7.2-7.3-7.5-8
				c0.4,0.5,0.8,0.9,1.2,1.4c0.4,0.5,0.9,0.9,1.3,1.3c0,0,0.1-0.1,0.1-0.1c-0.2-0.1-0.3-0.3-0.5-0.4c-0.1-0.1-0.3-0.3-0.4-0.5
				c-0.1-0.2-0.3-0.4-0.4-0.5c-0.1-0.2-0.3-0.3-0.4-0.4c0,0,0-0.1,0.1-0.1c0.1,0.1,0.2,0.1,0.3,0.2c0.3,0.3,0.6,0.7,0.9,1
				c0.2,0.2,0.3,0.3,0.5,0.5c-0.7-0.9-1.6-1.6-2.4-2.4c0,0,0.1-0.1,0.1-0.1c0.1,0.1,0.2,0.1,0.3,0.2c0.3,0.3,0.6,0.6,0.9,0.8
				c1.6,1.6,3.3,3.2,4.9,4.7c1,0.9,2,1.9,2.9,2.8c0.9,0.8,1.7,1.6,2.6,2.4c0.1,0.1,0.2,0.1,0.3,0.2c0.1-0.3-0.1-0.5-0.3-0.7
				c-1.1-1.1-2.1-2.2-3.2-3.3c-1.3-1.4-2.7-2.8-4-4.2c-0.4-0.5-0.9-0.9-1.4-1.3c-0.6-0.6-1.1-1.2-1.7-1.7c-0.2-0.2-0.3-0.4-0.5-0.7
				c0.3-0.2,0.5-0.1,0.8,0c0.5,0.2,0.9,0.5,1.3,0.8c0.5,0.5,1.1,0.9,1.6,1.3c0.5,0.5,1.1,0.9,1.6,1.4c0.7,0.6,1.4,1.3,2.1,1.9
				c1.6,1.6,3.2,3.1,4.8,4.7c0.4,0.4,0.8,1,1.2,1.5c1,1.1,1.1,2.5,1.1,3.9c0,0.2,0.1,0.4,0.1,0.5c1,1.8,2.3,3.4,3.8,4.9
				c0.6,0.6,1.2,1.2,1.8,1.9c1.1,1.1,2.1,2.2,3.2,3.3c1.8,1.7,3.7,3.4,5.8,4.8c1.3,0.9,2.6,1.8,4,2.6c1.1,0.6,2.2,1.4,3.2,2.2
				c0.8,0.6,1.5,1.5,2.1,2.4c0.4,0.6,0.6,1.2,0.7,1.9c0.2,1.1-0.6,2.6-1.7,3.2c-0.6,0.3-1.1,0.4-1.7,0.4c-0.3,0-0.5-0.2-0.8-0.3
				c-0.9-0.5-1.8-1.1-2.4-1.9c-0.4-0.5-0.8-1.1-1.2-1.7c-0.4-0.6-0.9-1.3-1.3-1.9c-0.3-0.5-0.7-1-1-1.5c-0.2-0.4-0.5-0.7-0.7-1
				c-2-3.1-4.4-5.9-7-8.6c-0.8-0.9-1.6-1.7-2.4-2.6c-1-1.1-2.1-2.2-3.2-3.2c-0.6-0.5-1.2-0.9-1.8-1.4c-0.6-0.5-1.3-0.8-2-1.2
				c-0.1-0.1-0.3,0-0.5,0c-1.2,0-2.3-0.2-3.2-0.9c-1-0.9-2.1-1.7-3-2.7c-1.5-1.5-2.8-3.1-4.2-4.6c-1-1.1-1.9-2.2-2.9-3.2
				c-0.6-0.7-1.3-1.4-1.9-2.1c-0.2-0.2-0.3-0.6-0.5-0.9c0.6,0,0.9,0.2,1.3,0.5c1.1,1.1,2.3,2.2,3.4,3.3c0.9,0.8,1.8,1.7,2.6,2.5
				c0.7,0.7,1.4,1.5,2.2,2.2c0.7,0.7,1.3,1.3,2,1.9c0.1,0.1,0.2,0.2,0.2,0.4c0.2,0.3,0.4,0.4,0.8,0.4c0.1-0.3-0.1-0.6-0.2-0.8
				c-0.4-0.5-0.8-1-1.3-1.5c-2.3-2.3-4.5-4.6-6.8-7c-0.8-0.8-1.5-1.6-2.3-2.5c-0.4-0.4-0.4-0.5-0.4-1.1c0.9,0.4,1.4,1.2,2,1.8
				c0.3,0.2,0.5,0.5,0.8,0.7c-0.1-0.3-0.5-0.3-0.5-0.8c1.1,1.1,2.2,2.1,3.2,3.1c0.5,0.4,1,0.8,1.5,1.3c0.8,0.7,1.5,1.5,2.2,2.2
				c0.9,0.9,1.7,1.8,2.5,2.6c0.2,0.2,0.3,0.3,0.7,0.2c0-0.5-0.2-0.7-0.5-1c-0.7-0.7-1.3-1.3-2-2c-0.2-0.2-0.4-0.4-0.6-0.6
				c-0.1-0.1-0.1-0.2-0.1-0.3c0.1,0,0.2,0,0.2,0.1c1,1,1.9,1.9,2.9,2.9c0.3,0.3,0.4,0.7,0.3,1.1c-0.3,0.1-0.6,0-0.9-0.2
				c-1.1-0.8-2.1-1.9-3.1-2.9c-0.2-0.3-0.5-0.5-0.8-0.7c-0.1-0.1-0.2-0.2-0.3-0.3c-0.1-0.1-0.1-0.2-0.2-0.3
				c-1.4-1.1-2.6-2.4-3.9-3.7c-0.9-0.8-1.7-1.7-2.5-2.5c-0.1-0.1-0.3-0.3-0.4-0.4c0,0-0.1,0.1-0.1,0.1c0,0.1,0.1,0.2,0.2,0.3
				c0.8,0.9,1.6,1.7,2.4,2.5c0.3,0.3,0.6,0.4,0.9,0.7c1.2,1.1,2.3,2.2,3.5,3.3c0.1,0.1,0.1,0.1,0.1,0.3c-1.1-1.1-2.2-2.1-3.4-3.2
				c0,0-0.1,0.1-0.1,0.1c0.2,0.2,0.4,0.4,0.6,0.6c1.7,1.8,3.5,3.5,5.2,5.3c0.4,0.4,0.8,0.9,1.2,1.3c0.2,0.3,0.4,0.5,0.4,0.9
				c0,0.3-0.2,0.5-0.5,0.4c-0.1,0-0.2,0-0.3-0.1c-0.4-0.3-1-0.4-1.3-0.9c0,0-0.1,0-0.1,0c1.3,1.3,2.7,2.4,3.9,3.7
				c-0.5-0.9-1.4-1.5-2-2.3c0.9,0.6,1.6,1.5,2.4,2.3c-0.6-0.9-1.4-1.6-2.2-2.4c0.1,0,0.2,0,0.2,0.1c0.7,0.7,1.5,1.5,2.2,2.2
				c0.1,0.1,0.2,0.3,0.5,0.2c-0.9-0.9-1.8-1.8-2.7-2.7c0,0,0.1-0.1,0.1-0.1c0.9,0.8,1.7,1.7,2.6,2.5c-0.2-0.6-0.9-0.8-1.3-1.3
				c-0.4-0.5-0.8-0.9-1.2-1.4c0.1,0.1,0.2,0.1,0.3,0.2c0.5,0.5,1,1,1.5,1.5c0.1,0.1,0.3,0.2,0.5,0.3c-0.8-0.8-1.5-1.5-2.3-2.3
				c0,0,0-0.1,0.1-0.1c0.1,0,0.2,0.1,0.2,0.1c0.4,0.4,0.7,0.8,1.1,1.2c0.3,0.3,0.6,0.6,0.9,0.8c0,0,0-0.1,0.1-0.1
				c-0.4-0.4-0.8-0.8-1.2-1.2c0,0,0.1-0.1,0.1-0.1c0.5,0.2,0.6,0.8,1.1,0.9c-0.2-0.2-0.5-0.5-0.8-0.8c0.6,0,0.6,0.5,0.9,0.6
				c0,0,0,0,0.1-0.1c-0.6-0.6-1.1-1.1-1.7-1.7c0,0,0.1-0.1,0.1-0.1c0.7,0.4,1.1,1.2,1.7,1.6c-0.4-0.7-1-1.2-1.6-1.8c0,0,0,0,0.1-0.1
				c0.6,0.6,1.1,1.1,1.7,1.7c0,0,0,0,0.1-0.1C298.3,108,297.7,107.4,297.2,106.7C297.2,106.8,297.2,106.7,297.2,106.7z M295.1,109.3
				c-0.1-0.1-0.3-0.2-0.4-0.3c-0.6-0.6-1.1-1.3-1.7-1.9c-0.4-0.4-0.8-0.8-1.2-1.1c-0.9-0.9-1.7-1.9-2.7-2.7
				c-0.6-0.6-1.1-1.2-1.8-1.7c-0.5-0.4-0.9-0.9-1.4-1.4c-0.1-0.1-0.3-0.3-0.4-0.4c0,0,0,0.1-0.1,0.1c2.3,2.6,4.5,5.3,7,7.7
				c0-0.1,0-0.1,0-0.2c0.3,0.3,0.5,0.5,0.7,0.7c0.5,0.5,1,1,1.4,1.5c0.3,0.3,0.6,0.6,1,0.9c0,0,0.1-0.1,0.1-0.1
				c-0.6-0.6-1.3-1.3-1.9-1.9c0,0,0.1-0.1,0.1-0.1c0.4,0.4,0.8,0.9,1.3,1.3c0.4,0.4,0.7,0.9,1.2,1.2c0,0,0.1-0.1,0.1-0.1
				C295.9,110.2,295.5,109.8,295.1,109.3c0.5,0.5,1,1,1.5,1.5c0,0,0.1-0.1,0.1-0.1c-0.8-1-1.8-1.9-2.9-2.7
				C294.2,108.5,294.6,108.9,295.1,109.3z M311.7,121.5C311.7,121.5,311.7,121.4,311.7,121.5c0.2,0,0.3,0.1,0.3,0.1
				c0.6,0.5,1.2,1.1,1.8,1.6c0.9,0.7,1.7,1.4,2.6,2.1c0.7,0.6,1.3,1.2,2,1.8c0.3,0.2,0.6,0.4,0.9,0.6c0,0,0.1-0.1,0.1-0.1
				c-0.9-0.7-1.8-1.4-2.6-2.1c-0.2-0.1-0.4-0.2-0.5-0.4c-0.1-0.4-0.4-0.5-0.6-0.6c-1.5-1.3-3.1-2.5-4.6-3.8
				c-0.1-0.1-0.3-0.3-0.5-0.3c-0.4-0.1-0.9-0.6-1.1-1c0-0.1-0.2-0.3-0.2-0.3c-0.3,0.1-0.4-0.1-0.5-0.3c-0.8-0.7-1.5-1.5-2.3-2.3
				c1.2,1.2,2.4,2.5,3.5,3.8c-0.3-0.2-0.5-0.4-0.8-0.7c-1.2-1.2-2.5-2.5-3.7-3.7c-0.5-0.5-1-1.2-1.5-1.7c-0.9-1-1.9-2-2.9-3
				c0,0,0-0.1,0-0.1c0.1,0,0.2,0,0.3,0c0,0,0-0.1,0-0.1c-0.3-0.1-0.6-0.3-0.9-0.4c0.1-0.1,0.2-0.1,0.2-0.2c0,0,0-0.1,0-0.1
				c-0.2,0-0.3,0-0.6,0c0.1,0.2,0.2,0.2,0.2,0.3c0.8,0.9,1.7,1.7,2.5,2.6c0.6,0.6,1.1,1.2,1.6,1.8c0.5,0.5,0.9,1.1,1.4,1.6
				c0.3,0.3,0.6,0.5,0.8,0.7c0.8,0.8,1.6,1.6,2.4,2.4c0.1,0.1,0.1,0.1,0.1,0.2c0,0,0,0,0,0c-1-1-1.9-1.9-2.9-2.9
				c0.1,0.2,0.2,0.3,0.3,0.5c1.2,1.3,2.4,2.6,3.6,3.9c1.3,1.5,2.6,3.1,3.8,4.6c0.4,0.5,0.7,1,1.1,1.5c0.6,0.6,1.3,1.2,1.9,1.8
				c0,0,0.1,0.1,0.1,0.1c0,0-0.1,0-0.1,0.1c-0.6-0.6-1.1-1.1-1.7-1.7c0,0-0.1,0-0.1,0.1c0.1,0.1,0.2,0.3,0.3,0.4
				c0.5,0.7,1.3,1.1,1.8,1.7c0.1,0.1,0.2,0.1,0.4,0.2c-0.4-0.6-0.4-0.6,0-1c-0.2-0.1-0.5-0.1-0.7-0.2c-0.3-0.1-0.3-0.3,0-0.5
				c0,0,0.1-0.1,0.2-0.1c-0.2-0.3-0.5-0.6-0.9-0.7c-0.2,0-0.4-0.2-0.4-0.3c-0.1-0.5-0.5-0.8-0.7-1.3c0,0,0-0.1,0-0.1
				c0.1,0,0.2-0.1,0.3-0.1c0.1-0.6-0.2-0.9-0.6-1.2c-0.3-0.2-0.5-0.4-0.8-0.6c-0.1-0.1-0.1-0.2-0.2-0.2c0,0,0.1,0,0.1-0.1
				c0.5,0.5,1,0.9,1.5,1.4c0.1,0.1,0.2,0.2,0.3,0.2c0.5,0.4,1.1,0.7,1.2,1.4c0,0.2,0.2,0.5,0.4,0.6c0.5,0.1,0.6,0.5,0.8,0.8
				c0,0,0.1,0,0.1,0c0.3-0.6-0.1-1-0.5-1.3c-1.5-1.2-2.9-2.5-4.4-3.7c0,0.1-0.1,0.2-0.1,0.3c-0.2-0.4-0.5-0.7-0.6-1
				c-0.2,0.1-0.3,0.1-0.4,0.1c0,0-0.1-0.2-0.1-0.2c0.3-0.3,0-0.3-0.1-0.4C312,121.8,311.8,121.6,311.7,121.5z M322.3,129.9
				c-0.9-0.7-1-0.8-2-1c-0.5-0.1-1,0-1.4,0.5c-0.4,0.4-0.5,0.9-0.3,1.4c0.2,0.6,0.6,1.2,1.1,1.7c0.2,0.2,0.5,0.4,0.7,0.6
				c0.3,0.2,0.6,0.4,0.9,0.5c0.6,0.1,1.2,0,1.6-0.5c0.3-0.3,0.5-0.7,0.3-1.2c-0.1-0.2,0.1-0.4,0-0.5
				C322.9,130.9,322.6,130.4,322.3,129.9z M300.1,106.3c0,0,0.1-0.1,0.1-0.1c-1.5-1.5-2.9-3-4.4-4.5c0,0,0.1-0.1,0.1-0.1
				c0.7,0.6,1.3,1.3,2,2c0.7,0.7,1.2,1.5,2,2c-2.4-2.5-4.7-5.1-7.3-7.3c0.9,0.9,1.8,1.9,2.7,2.8c0,0-0.1,0.1-0.1,0.1c-1-1-2-2-3-3
				c-1-1-2.1-2-3.3-2.8C292.9,98.8,296.5,102.6,300.1,106.3z M320.1,133.4c-0.7-0.7-1.4-1.4-2.1-2.2c-0.3-0.4-0.6-0.8-1.1-1
				c0,0.1,0,0.1,0.1,0.1c0.3,0.5,0.8,0.9,1.2,1.3c0.5,0.4,0.9,0.9,1.3,1.4c0,0-0.1,0.1-0.1,0.1c-0.5-0.5-1.1-1.1-1.6-1.6
				c0,0-0.1,0.1-0.1,0.1c0.2,0.3,0.4,0.6,0.6,0.8c0.7,0.5,1.3,1.2,1.7,2.1c-0.2-0.1-0.3-0.2-0.4-0.2c0.3,0.5,0.7,0.9,1.3,1.2
				c-0.4-0.2-0.6-0.5-0.6-1c0-0.1-0.1-0.2-0.1-0.2C319.7,133.7,319.7,133.7,320.1,133.4z M305,115.8c-1.6-2-4.5-5-4.9-5.1
				c0.3,0.3,0.5,0.6,0.8,0.9c0.4,0.4,0.7,0.7,1,1.1C302.9,113.8,303.9,114.8,305,115.8z M299.4,109c-0.6,0.1-0.8,0.4-0.8,0.9
				c0.1,0.8,0.4,1.3,1,1.3c-0.2-0.4-0.6-0.6-0.7-1.1C298.8,109.7,299.2,109.5,299.4,109z M322.5,134c-0.1,0.5-0.4,0.7-0.7,1.1
				c0.2-0.1,0.5-0.1,0.8-0.2c0.1-0.3,0.2-0.5,0.2-0.8c0-0.3-0.2-0.4-0.4-0.3c-0.3,0.2-0.6,0.3-0.7,0.7
				C322.3,134.7,322.1,134,322.5,134z M321.6,128.2C321.5,128.2,321.5,128.3,321.6,128.2c0.2,0.3,0.4,0.4,0.6,0.6
				c0.8,0.6,1.8,1.2,2.3,2.2c0,0.1,0.1,0.1,0.2,0.1C323.8,129.9,322.8,128.9,321.6,128.2z M296.2,101.3
				C296.2,101.3,296.2,101.3,296.2,101.3c1,1.2,2.2,2.3,3.3,3.4C298.6,103.4,297.3,102.4,296.2,101.3z M293.2,103.7
				c0.2,0.5,1.6,1.8,1.9,1.9C294.5,104.9,293.8,104.3,293.2,103.7z M299.9,110.5c0,0-0.1,0.1-0.1,0.1c0.1,0.1,0.2,0.3,0.3,0.4
				c0.4,0.4,0.9,0.8,1.3,1.3c0.1,0.1,0.2,0.2,0.3,0.3c0.2,0.4,0.3,0.5,0.7,0.6C301.6,112.2,300.6,111.5,299.9,110.5z M324,131.5
				c0.2-0.2,0.1-0.4,0-0.5c-0.5-0.4-0.9-0.9-1.4-1.3c-0.1-0.1-0.3-0.2-0.4-0.3C322.6,130.2,323.6,130.6,324,131.5z M323.5,131.5
				c-0.1,0.5,0,0.9,0.3,1.1c0.1,0.1,0.5-0.1,0.7-0.2c0,0,0,0,0-0.1c-0.3,0-0.5-0.1-0.6-0.4C323.9,131.8,323.7,131.7,323.5,131.5z
				 M284.1,98.1c0,0.5,0.1,0.6,0.5,0.4c-0.4-0.5-0.8-1-1.4-1.2C283.4,97.6,283.6,98,284.1,98.1z M318.5,128.6
				c-0.2,0.2-0.4,0.2-0.7,0c-0.3-0.2-0.5-0.1-0.8,0.1C317.7,129.1,318.3,129.1,318.5,128.6z M289.9,95.5
				C289.9,95.5,290,95.4,289.9,95.5c-0.6-0.7-1.2-1.4-2.1-1.7C288.5,94.4,289.2,94.9,289.9,95.5z M318.8,126.6
				c0.7,0.5,1.4,1,2.2,1.5C320.9,127.8,319.9,127.1,318.8,126.6z"/>
			<path class="st4" d="M311.7,121.5c0.2,0.1,0.3,0.3,0.5,0.4c0.1,0.1,0.4,0.2,0.1,0.4c0,0,0.1,0.2,0.1,0.2c0.1,0,0.2,0,0.4-0.1
				c0.2,0.3,0.4,0.6,0.6,1c0-0.1,0.1-0.2,0.1-0.3c1.5,1.2,2.9,2.5,4.4,3.7c0.4,0.3,0.8,0.7,0.5,1.3c0,0-0.1,0-0.1,0
				c-0.2-0.3-0.3-0.7-0.8-0.8c-0.2,0-0.4-0.3-0.4-0.6c-0.1-0.7-0.7-1.1-1.2-1.4c-0.1-0.1-0.2-0.1-0.3-0.2c-0.5-0.5-1-0.9-1.5-1.4
				c0,0-0.1,0-0.1,0.1c0.1,0.1,0.1,0.2,0.2,0.2c0.2,0.2,0.5,0.4,0.8,0.6c0.4,0.3,0.7,0.6,0.6,1.2c-0.1,0-0.2,0.1-0.3,0.1
				c0,0.1,0,0.1,0,0.1c0.2,0.4,0.5,0.8,0.7,1.3c0,0.1,0.3,0.3,0.4,0.3c0.4,0.1,0.7,0.3,0.9,0.7c-0.1,0-0.1,0.1-0.2,0.1
				c-0.3,0.2-0.3,0.4,0,0.5c0.2,0.1,0.5,0.2,0.7,0.2c-0.3,0.4-0.3,0.4,0,1c-0.2-0.1-0.3-0.1-0.4-0.2c-0.6-0.6-1.3-1-1.8-1.7
				c-0.1-0.1-0.2-0.3-0.3-0.4c0,0,0.1,0,0.1-0.1c0.6,0.6,1.1,1.1,1.7,1.7c0,0,0.1,0,0.1-0.1c0,0,0-0.1-0.1-0.1
				c-0.6-0.6-1.3-1.1-1.9-1.8c-0.4-0.4-0.7-1-1.1-1.5c-1.3-1.5-2.5-3.1-3.8-4.6c-1.2-1.3-2.4-2.6-3.6-3.9c-0.1-0.1-0.3-0.3-0.3-0.5
				c1,1,1.9,1.9,2.9,2.9c0,0,0,0,0,0c0-0.1-0.1-0.1-0.1-0.2c-0.8-0.8-1.6-1.6-2.4-2.4c-0.3-0.3-0.6-0.5-0.8-0.7
				c-0.5-0.5-0.9-1.1-1.4-1.6c-0.5-0.6-1.1-1.2-1.6-1.8c-0.8-0.9-1.7-1.8-2.5-2.6c-0.1-0.1-0.1-0.1-0.2-0.3c0.3,0,0.4,0,0.6,0
				c0,0,0,0.1,0,0.1c-0.1,0.1-0.1,0.1-0.2,0.2c0.3,0.1,0.6,0.3,0.9,0.4c0,0,0,0.1,0,0.1c-0.1,0-0.2,0-0.3,0c0,0.1,0,0.1,0,0.1
				c1,1,1.9,2,2.9,3c0.5,0.6,1,1.2,1.5,1.7c1.2,1.3,2.4,2.5,3.7,3.7c0.2,0.2,0.5,0.5,0.8,0.7c-1.1-1.3-2.3-2.5-3.5-3.8
				c0.8,0.8,1.5,1.5,2.3,2.3c0.1,0.1,0.2,0.4,0.5,0.3c0,0,0.2,0.2,0.2,0.3c0.1,0.4,0.7,0.9,1.1,1c0.2,0.1,0.3,0.2,0.5,0.3
				c1.5,1.3,3.1,2.5,4.6,3.8c0.2,0.2,0.5,0.3,0.6,0.6c0,0.2,0.3,0.3,0.5,0.4c0.9,0.7,1.8,1.4,2.6,2.1c0,0-0.1,0.1-0.1,0.1
				c-0.3-0.2-0.6-0.4-0.9-0.6c-0.7-0.6-1.3-1.2-2-1.8c-0.8-0.7-1.7-1.4-2.6-2.1c-0.6-0.5-1.2-1-1.8-1.6
				C311.9,121.6,311.8,121.5,311.7,121.5C311.7,121.4,311.7,121.5,311.7,121.5z"/>
			<path class="st4" d="M322.3,129.9c0.3,0.5,0.6,0.9,0.9,1.4c0.1,0.1,0,0.4,0,0.5c0.2,0.5-0.1,0.9-0.3,1.2c-0.4,0.5-1,0.6-1.6,0.5
				c-0.3,0-0.6-0.3-0.9-0.5c-0.3-0.2-0.5-0.4-0.7-0.6c-0.5-0.5-0.9-1.1-1.1-1.7c-0.2-0.5-0.1-1,0.3-1.4c0.4-0.4,0.8-0.6,1.4-0.5
				C321.2,129.1,321.4,129.2,322.3,129.9z M319.8,129.8C319.8,129.8,319.7,129.9,319.8,129.8c0.9,0.9,1.8,1.8,2.7,2.6
				c0,0-0.1,0.1-0.1,0.1c-0.2-0.2-0.4-0.3-0.6-0.5c-0.2-0.2-0.4-0.4-0.6-0.6c-0.2-0.2-0.3-0.4-0.7-0.4c0.6,0.6,1.2,1.2,1.9,1.7
				c0.6-0.3,0.8-0.5,0.6-1c-0.2-0.6-0.3-1.2-0.8-1.6c-0.4-0.3-0.7-0.6-1.1-0.8c-0.3-0.1-0.6-0.2-1-0.2c-0.1,0-0.2,0.1-0.2,0.1
				c0,0.1,0,0.2,0.1,0.3c0.1,0.1,0.1,0.1,0.2,0.2c0.8,0.7,1.5,1.4,2.3,2.1c0.1,0.1,0.1,0.1,0.2,0.2
				C321.6,131.5,320.8,130.5,319.8,129.8z M321.8,133.2c-0.2-0.5-0.9-1.1-1.4-1.2c0.4,0.3,0.7,0.6,1.1,0.9c0,0,0,0.1-0.1,0.1
				c-0.1-0.1-0.3-0.1-0.4-0.3c-0.5-0.4-0.9-0.8-1.4-1.2c-0.1-0.1-0.2-0.2-0.3-0.4c-0.2-0.4-0.2-0.8-0.2-1.2c-0.4,0-0.3,0.3-0.3,0.5
				c0,1,1.1,2.3,2.2,2.6C321.2,133,321.5,133.1,321.8,133.2z"/>
			<path class="st4" d="M295,109.3c0.4,0.4,0.8,0.9,1.2,1.3c0,0-0.1,0.1-0.1,0.1c-0.5-0.3-0.8-0.9-1.2-1.2c-0.4-0.4-0.9-0.8-1.3-1.3
				c0,0-0.1,0.1-0.1,0.1c0.6,0.6,1.3,1.3,1.9,1.9c0,0-0.1,0.1-0.1,0.1c-0.3-0.3-0.7-0.6-1-0.9c-0.5-0.5-1-1-1.4-1.5
				c-0.2-0.2-0.5-0.5-0.7-0.7c0,0.1,0,0.1,0,0.2c-2.5-2.4-4.7-5.1-7-7.7c0,0,0-0.1,0.1-0.1c0.1,0.1,0.3,0.2,0.4,0.4
				c0.5,0.5,0.9,1,1.4,1.4c0.7,0.5,1.2,1.2,1.8,1.7c1,0.8,1.8,1.8,2.7,2.7c0.4,0.4,0.8,0.7,1.2,1.1c0.6,0.6,1.2,1.3,1.7,1.9
				C294.7,109.2,294.9,109.2,295,109.3L295,109.3z"/>
			<path class="st4" d="M300.1,106.3c-3.7-3.7-7.2-7.5-11.1-11c1.2,0.8,2.2,1.8,3.3,2.8c1,1,2,2,3,3c0,0,0.1-0.1,0.1-0.1
				c-0.9-0.9-1.8-1.9-2.7-2.8c2.6,2.3,4.9,4.8,7.3,7.3c-0.8-0.5-1.4-1.3-2-2c-0.7-0.7-1.3-1.3-2-2c0,0-0.1,0.1-0.1,0.1
				c1.5,1.5,2.9,3,4.4,4.5C300.2,106.3,300.2,106.3,300.1,106.3z"/>
			<path class="st4" d="M320.1,133.4c-0.4,0.3-0.4,0.3-0.1,0.8c0.1,0.1,0.1,0.2,0.1,0.2c0,0.4,0.2,0.7,0.6,1
				c-0.5-0.3-0.9-0.7-1.3-1.2c0.1,0.1,0.2,0.1,0.4,0.2c-0.4-0.9-1-1.5-1.7-2.1c-0.3-0.2-0.4-0.5-0.6-0.8c0,0,0.1-0.1,0.1-0.1
				c0.5,0.5,1.1,1.1,1.6,1.6c0,0,0.1-0.1,0.1-0.1c-0.4-0.5-0.9-0.9-1.3-1.4c-0.4-0.4-0.9-0.8-1.2-1.3c0,0,0-0.1-0.1-0.1
				c0.5,0.2,0.8,0.6,1.1,1C318.7,132,319.4,132.7,320.1,133.4z"/>
			<path class="st4" d="M305,115.8c-1.1-1-2.1-2-3-3.2c-0.3-0.4-0.7-0.7-1-1.1c-0.3-0.3-0.6-0.6-0.8-0.9
				C300.5,110.8,303.4,113.8,305,115.8z"/>
			<path class="st4" d="M299.4,109c-0.1,0.4-0.6,0.6-0.5,1.2c0.1,0.5,0.4,0.7,0.7,1.1c-0.5,0.1-0.9-0.5-1-1.3
				C298.6,109.4,298.8,109.1,299.4,109z"/>
			<path class="st4" d="M322.5,134c-0.4,0-0.2,0.8-0.8,0.5c0.1-0.4,0.4-0.5,0.7-0.7c0.2-0.1,0.4,0,0.4,0.3c0,0.3-0.1,0.5-0.2,0.8
				c-0.3,0.1-0.5,0.1-0.8,0.2C322.1,134.7,322.4,134.4,322.5,134z"/>
			<path class="st4" d="M321.6,128.2c1.2,0.7,2.3,1.7,3.1,2.9c-0.1,0-0.2,0-0.2-0.1c-0.5-1-1.5-1.5-2.3-2.2
				C321.9,128.6,321.7,128.5,321.6,128.2C321.5,128.3,321.5,128.2,321.6,128.2z"/>
			<path class="st4" d="M296.2,101.3c1.1,1.1,2.3,2.2,3.3,3.4C298.4,103.6,297.3,102.4,296.2,101.3
				C296.2,101.3,296.2,101.3,296.2,101.3z"/>
			<path class="st4" d="M293.2,103.7c0.6,0.6,1.3,1.3,1.9,1.9C294.8,105.5,293.4,104.2,293.2,103.7z"/>
			<path class="st4" d="M295.1,109.3c-0.4-0.4-0.8-0.8-1.2-1.2c1,0.8,2,1.7,2.9,2.7c0,0-0.1,0.1-0.1,0.1
				C296.1,110.4,295.5,109.8,295.1,109.3L295.1,109.3z"/>
			<path class="st4" d="M299.9,110.5c0.8,0.9,1.7,1.7,2.4,2.7c-0.4-0.2-0.5-0.3-0.7-0.6c-0.1-0.1-0.2-0.2-0.3-0.3
				c-0.4-0.4-0.9-0.8-1.3-1.3c-0.1-0.1-0.2-0.2-0.3-0.4C299.8,110.6,299.8,110.6,299.9,110.5z"/>
			<path class="st4" d="M324,131.5c-0.4-0.9-1.3-1.3-1.8-2.1c0.1,0.1,0.3,0.2,0.4,0.3c0.5,0.4,0.9,0.9,1.4,1.3
				C324.1,131.2,324.2,131.3,324,131.5z"/>
			<path class="st4" d="M323.5,131.5c0.2,0.2,0.3,0.3,0.4,0.4c0.1,0.3,0.3,0.4,0.6,0.4c0,0.1,0,0.1,0,0.1c-0.2,0.1-0.6,0.3-0.7,0.2
				C323.5,132.3,323.4,132,323.5,131.5z"/>
			<path class="st4" d="M284.1,98.1c-0.5,0-0.7-0.5-0.9-0.8c0.6,0.2,1,0.7,1.4,1.2C284.2,98.6,284.1,98.5,284.1,98.1z"/>
			<path class="st4" d="M318.5,128.6c-0.2,0.5-0.8,0.6-1.5,0.1c0.3-0.1,0.5-0.2,0.8-0.1C318,128.8,318.3,128.8,318.5,128.6z"/>
			<path class="st4" d="M289.9,95.5c-0.7-0.6-1.4-1.1-2.1-1.7C288.7,94.1,289.3,94.8,289.9,95.5C290,95.4,289.9,95.5,289.9,95.5z"/>
			<path class="st4" d="M318.8,126.6c1.1,0.4,2.1,1.1,2.2,1.5C320.3,127.6,319.5,127.1,318.8,126.6z"/>
			<path class="st3" d="M319.8,129.8c1,0.7,1.8,1.6,2.8,2.4c-0.1-0.1-0.1-0.2-0.2-0.2c-0.8-0.7-1.5-1.4-2.3-2.1
				c-0.1-0.1-0.2-0.1-0.2-0.2c0-0.1-0.1-0.2-0.1-0.3c0-0.1,0.2-0.2,0.2-0.1c0.3,0,0.7,0,1,0.2c0.4,0.2,0.8,0.5,1.1,0.8
				c0.5,0.4,0.6,1,0.8,1.6c0.1,0.5,0,0.7-0.6,1c-0.6-0.6-1.2-1.1-1.9-1.7c0.4-0.1,0.5,0.2,0.7,0.4c0.2,0.2,0.4,0.4,0.6,0.6
				c0.2,0.2,0.4,0.3,0.6,0.5c0,0,0.1-0.1,0.1-0.1C321.6,131.6,320.6,130.7,319.8,129.8C319.7,129.9,319.8,129.8,319.8,129.8z
				 M320.2,129.6c0.8,0.7,1.6,1.5,2.5,2.3C322.5,131.4,320.7,129.8,320.2,129.6z"/>
			<path class="st3" d="M321.8,133.2c-0.3-0.1-0.5-0.1-0.8-0.2c-1.1-0.2-2.1-1.6-2.2-2.6c0-0.2-0.1-0.5,0.3-0.5c0,0.4,0,0.9,0.2,1.2
				c0.1,0.1,0.2,0.3,0.3,0.4c0.4,0.4,0.9,0.8,1.4,1.2c0.1,0.1,0.3,0.2,0.4,0.3c0,0,0-0.1,0.1-0.1c-0.4-0.3-0.7-0.6-1.1-0.9
				C320.9,132,321.6,132.7,321.8,133.2z"/>
			<path class="st4" d="M320.2,129.6c0.6,0.2,2.3,1.8,2.5,2.3C321.8,131,321,130.3,320.2,129.6z"/>
		</g>
	</g>
	<g>
		<path class="st3" d="M306,640.6c-0.4-0.5-0.4-1.1-0.4-1.7c0-0.2,0.1-0.5,0.1-0.7c0.1-0.3,0.1-0.6,0.2-0.9c0-1.7,0.1-3.4,0.1-5.1
			c0-1.2-0.1-2.4-0.2-3.6c-0.1-1-0.4-1.8-1-2.4c-0.8-0.8-1.4-1.7-2.1-2.7c-0.5-0.9-0.8-1.8-0.8-3c0-1.8,0.1-3.6,0.3-5.4
			c0.2-1.8,0.4-3.7,0.7-5.5c0-0.4,0.1-0.7,0.1-1.1c0-0.4,0.1-0.7,0.4-0.7c0.6-0.1,1.2-0.3,1.8-0.3c1.3-0.1,2.6,0,4,0.2
			c0.1,0,0.3,0.1,0.4,0.1c0.2,0.1,0.4,0.3,0.4,0.7c0.3,2.6,0.7,5.2,1,7.8c0.2,1.6,0.2,3.3,0.1,4.9c-0.2,1.7-0.7,3-1.7,4
			c-0.4,0.4-0.7,0.9-1.1,1.3c-0.4,0.5-0.6,1.2-0.7,2c-0.1,0.8-0.2,1.7-0.2,2.5c-0.1,2.2,0,4.3,0.2,6.5c0,0.3,0.1,0.5,0.2,0.8
			c0.2,0.6,0.2,1.3,0,1.9c-0.1,0.4,0,0.7,0.3,0.8c0.2,0.1,0.4,0.1,0.7,0.2c0.5,0.2,0.9,0.3,1.4,0.5c0.2,0.1,0.5,0.2,0.5,0.6
			c0.1,0.4,0,0.6-0.2,0.8c-0.2,0.1-0.4,0.2-0.6,0.3c-1.8,0.5-3.7,0.6-5.6,0.2c-0.4-0.1-0.8-0.2-1.1-0.5c-0.4-0.3-0.4-0.8,0-1.1
			c0.3-0.2,0.7-0.4,1-0.5c0.4-0.2,0.8-0.3,1.2-0.5C305.6,641,305.8,640.8,306,640.6z M306.5,607.6c-0.9,0.1-1.6,0.1-2.2,0.2
			c-0.3,0-0.5,0.1-0.8,0.2c-0.1,0-0.2,0.2-0.3,0.4c-0.2,1.3-0.4,2.6-0.6,4c-0.2,1.5-0.3,2.9-0.4,4.4c-0.1,1-0.1,2.1-0.1,3.1
			c0,1.6,0.4,3,1.2,4c0.6,0.8,1.2,1.6,1.9,2.3c0.4,0.5,0.7,1,0.8,1.7c0,0.3,0.1,0.6,0.1,0.9c0.2,2.7,0.2,5.3,0,8
			c0,0.5-0.1,1-0.2,1.4c-0.2,0.7-0.2,1.3,0.1,2c0.1,0.2,0.1,0.4,0,0.6c-0.1,0.2-0.2,0.3-0.4,0.4c-0.4,0.2-0.8,0.3-1.2,0.5
			c-0.4,0.1-0.7,0.3-1.1,0.4c-0.1,0-0.2,0.2-0.2,0.4c0,0.1,0.1,0.3,0.2,0.4c0,0.1,0.1,0.1,0.2,0.1c0.3,0.1,0.6,0.2,1,0.3
			c1.2,0.2,2.4,0.3,3.7,0.1c0.6-0.1,1.3-0.3,1.9-0.5c0.1,0,0.3-0.2,0.3-0.3c0-0.2-0.1-0.4-0.2-0.6c0-0.1-0.1-0.1-0.2-0.1
			c-0.2-0.1-0.4-0.1-0.7-0.2c-0.5-0.2-0.9-0.3-1.4-0.5c-0.4-0.2-0.5-0.6-0.4-1.1c0.1-0.6,0.1-1.2-0.1-1.8c-0.1-0.2-0.1-0.4-0.1-0.6
			c-0.1-1.4-0.1-2.9-0.2-4.3c0-1.8,0-3.6,0.2-5.4c0.1-1,0.4-1.8,1-2.3c0.3-0.2,0.5-0.5,0.7-0.8c1.2-1.3,1.8-3.1,1.8-5.3
			c0-1.5-0.1-3-0.3-4.5c-0.3-2.2-0.6-4.3-0.9-6.5c-0.1-0.6-0.1-0.7-0.6-0.8C308.3,607.8,307.3,607.7,306.5,607.6z"/>
		<path class="st4" d="M306.5,607.6c0.8,0.1,1.7,0.2,2.7,0.3c0.4,0.1,0.5,0.2,0.6,0.8c0.3,2.2,0.6,4.3,0.9,6.5
			c0.2,1.5,0.3,3,0.3,4.5c0,2.2-0.6,4-1.8,5.3c-0.2,0.3-0.5,0.5-0.7,0.8c-0.6,0.5-0.9,1.3-1,2.3c-0.2,1.8-0.3,3.6-0.2,5.4
			c0,1.4,0.1,2.9,0.2,4.3c0,0.2,0.1,0.4,0.1,0.6c0.2,0.6,0.2,1.2,0.1,1.8c-0.1,0.5,0,0.9,0.4,1.1c0.5,0.2,0.9,0.3,1.4,0.5
			c0.2,0.1,0.4,0.1,0.7,0.2c0.1,0,0.2,0.1,0.2,0.1c0.1,0.2,0.2,0.4,0.2,0.6c0,0.1-0.2,0.3-0.3,0.3c-0.6,0.2-1.3,0.4-1.9,0.5
			c-1.2,0.2-2.4,0.1-3.7-0.1c-0.3-0.1-0.6-0.2-1-0.3c-0.1,0-0.2,0-0.2-0.1c-0.1-0.1-0.2-0.3-0.2-0.4c0-0.1,0.1-0.3,0.2-0.4
			c0.4-0.2,0.7-0.3,1.1-0.4c0.4-0.2,0.8-0.3,1.2-0.5c0.1-0.1,0.3-0.2,0.4-0.4c0.1-0.2,0.1-0.4,0-0.6c-0.3-0.6-0.3-1.3-0.1-2
			c0.1-0.4,0.1-0.9,0.2-1.4c0.2-2.7,0.2-5.3,0-8c0-0.3,0-0.6-0.1-0.9c-0.1-0.7-0.4-1.3-0.8-1.7c-0.6-0.8-1.3-1.6-1.9-2.3
			c-0.8-1.1-1.2-2.4-1.2-4c0-1,0.1-2.1,0.1-3.1c0.1-1.5,0.3-2.9,0.4-4.4c0.2-1.3,0.4-2.6,0.6-4c0-0.2,0.1-0.4,0.3-0.4
			c0.3-0.1,0.5-0.2,0.8-0.2C305,607.7,305.6,607.7,306.5,607.6z M305.3,623.8c0.1,0.2,0.1,0.3,0.2,0.5c0,0.1,0.1,0.2,0.1,0.4
			c0.1,0.3,0.2,0.7,0.3,1c0.1,0.3,0.2,0.4,0.4,0.4c0.4,0,0.7,0,1.1,0c0.4,0,0.8-0.1,1.1-0.4c0.5-0.6,1-1.2,1.5-1.8
			c0.1-0.2,0.2-0.4,0.3-0.6c0.5-1.1,0.7-2.4,0.7-3.7c0-1.6-0.2-3.3-0.4-4.9c-0.3-2-0.6-4-0.8-6c0-0.3-0.1-0.3-0.3-0.3
			c-0.2,0.1-0.5,0.1-0.7,0.2c0.2,1.9,0.4,3.8,0.6,5.7c0,0,0,0,0.1,0c-0.2-1.9-0.4-3.7-0.6-5.6c0,0,0.1,0,0.1,0
			c0.1,1,0.3,1.9,0.4,2.9c0-0.2,0-0.4,0-0.6c-0.1-0.7-0.2-1.4-0.3-2.1c0-0.1,0-0.1,0-0.3c0.1,0.1,0.2,0.2,0.2,0.3
			c0-0.1,0.1-0.1,0.2-0.2c0,0.4,0.1,0.6,0.1,0.9c0.3,2,0.6,4,0.8,6c0.2,1.5,0.3,3,0.2,4.5c0,0.1,0,0.3,0,0.4c0,0-0.1,0-0.1,0
			c-0.1-1.2-0.2-2.5-0.3-3.7c-0.1-1.2-0.2-2.5-0.4-3.7c-0.2-1.2-0.3-2.5-0.5-3.7c0,0-0.1,0-0.1,0c0.5,3.7,1,7.3,1.1,11.1
			c-2.1,0-4.2-0.2-6.3,0.1c0.1,0,0.2,0,0.3,0.1c0,0.8,0.2,1.6,0.4,2.3c-0.1-0.8-0.3-1.5-0.2-2.3c0.1,0,0.3,0,0.4,0
			c0.1,0.5,0.1,1,0.2,1.5C305.1,622.6,305.2,623.2,305.3,623.8z M307.3,638c-0.1-1.1-0.1-2-0.2-3c-0.1-2.3,0-4.6,0.2-6.8
			c0.1-0.7,0.2-1.3,0.5-2c-0.4,0-0.7,0.1-1.1,0.1c-0.4,0-0.7-0.1-1.1-0.1c0.2,0.6,0.4,1.1,0.6,1.6c0.1-0.1,0.2-0.2,0.3-0.2
			c0-0.3,0-0.6-0.1-0.8c0,0,0,0,0.1,0c0,0.1,0.1,0.2,0.1,0.3c0-0.1,0-0.1,0.1-0.2c0,0.1,0,0.1,0.1,0.2c0-0.1,0.1-0.2,0.1-0.3
			c0,0.1,0.1,0.2,0,0.3c0,0.3-0.1,0.5,0.1,0.7c0,0,0,0.2,0,0.3c0,0.1,0,0.3,0,0.4c-0.2,2.8-0.1,5.7,0,8.5c0,0.1,0,0.3,0,0.4
			c0,0.2,0,0.3,0,0.5c-0.1,0-0.2,0-0.3-0.1c0-0.3,0-0.6,0-0.9c0,0,0,0,0,0c0,0.3,0,0.7,0,1C306.8,638,307,638,307.3,638z
			 M305.1,625.6C305.1,625.6,305.1,625.6,305.1,625.6c-0.1-0.4-0.3-0.7-0.5-0.9c-0.2-0.2-0.2-0.7-0.5-0.9c0,0-0.1-0.1-0.1-0.1
			c-0.2-0.2-0.5-0.5-0.7-0.7c0,0-0.1-0.1-0.1-0.2c-0.1-0.2-0.1-0.4-0.2-0.6c-0.1-0.4-0.3-0.8-0.4-1.2c0-0.2,0-0.4,0-0.6
			c-0.2-0.1-0.2-0.1-0.2-0.5c0-0.6,0.1-1.2,0.1-1.8c0-0.3,0-0.6,0-1c0,0,0,0-0.1,0c-0.1,1-0.1,1.9-0.2,2.9c0,0,0,0-0.1,0
			c-0.1-1.2,0.1-2.4,0.2-3.5c0.1-1.2,0.2-2.4,0.3-3.6c-0.1,0.1-0.1,0.3-0.1,0.4c-0.1,0.8-0.2,1.6-0.3,2.4c-0.2,1.4-0.3,2.8-0.3,4.3
			c0,1.2,0.2,2.3,0.8,3.1c0.6,0.8,1.2,1.7,1.8,2.5C305,625.6,305.1,625.6,305.1,625.6z M308.3,642c0.1,0,0.2,0,0.3,0
			c-0.1,0.1-0.1,0.2-0.2,0.3c0.3,0,0.5-0.1,0.7-0.1c0,0,0,0.1,0,0.1c-0.3,0.1-0.7,0.2-1,0.3c0,0,0,0,0,0.1c0.4,0,0.7-0.1,1.1-0.1
			c-1.1,0.4-2.2,0.5-3.4,0.4c1.1,0.3,3.7-0.1,4.2-0.6C309.5,641.9,308.9,641.7,308.3,642z M309.4,619.5c-0.1-3.4-0.5-6.8-0.9-10.1
			C308.8,612.8,309.2,616.1,309.4,619.5z M308.9,619.9c0.1-1.1-0.5-7.9-0.8-9.3C308.4,613.7,308.8,616.8,308.9,619.9z M306,639
			c0,0.7,0.1,1.3,0.5,1.4c0.4,0.2,0.8-0.1,1-0.5c0.2-0.5,0-1.3-0.3-1.6c0,0.2,0.1,0.5,0.1,0.7c0.1,0.7-0.1,1.1-0.6,1.3
			c-0.1,0-0.1,0-0.2,0c-0.2,0-0.3-0.1-0.4-0.4C306.1,639.6,306,639.3,306,639z M304.3,619.6C304.3,619.6,304.3,619.6,304.3,619.6
			c0.1-1.9,0.2-3.7,0.3-5.6c-0.1,0.9-0.2,1.9-0.2,2.8C304.3,617.7,304.3,618.6,304.3,619.6z M304.6,619.5
			C304.6,619.5,304.6,619.5,304.6,619.5c0.1-1.5,0.2-3,0.2-4.5c0,0-0.1,0-0.1,0C304.6,616.5,304.6,618,304.6,619.5z M303,611.6
			C303,611.6,303.1,611.6,303,611.6c0.3-0.9,0.5-2.7,0.4-3.1C303.3,609.5,303.1,610.5,303,611.6z M306.2,637.6
			c0.2-1.1,0.3-3.9,0.2-4.7C306.3,634.5,306.4,636.1,306.2,637.6z M303.8,619.3C303.8,619.3,303.8,619.3,303.8,619.3
			c0.2-1.5,0.3-2.9,0.3-4.4c0,0,0,0,0,0C304,616.3,303.9,617.8,303.8,619.3z M306.9,640.7c0,0,0,0.1,0,0.1c-0.1,0-0.2,0.1-0.2,0.1
			c0.3,0.1,0.6,0.2,0.9,0.3c-0.1-0.3-0.2-0.5-0.2-0.7c-0.3,0-0.6,0.1-1,0.1C306.6,640.7,306.7,640.7,306.9,640.7z M304.9,615.7
			c0,1.3-0.1,2.5-0.1,3.7c0,0,0.1,0,0.1,0C304.9,618.2,304.9,617,304.9,615.7z M308.5,619.1C308.5,619.1,308.6,619.1,308.5,619.1
			c0-1.3-0.1-2.6-0.2-4c0,0,0,0-0.1,0C308.3,616.4,308.4,617.8,308.5,619.1z M307.4,613.6C307.4,613.6,307.4,613.6,307.4,613.6
			c0,1.5,0.1,3.1,0.2,4.6c0,0,0,0,0.1,0C307.5,616.6,307.5,615.1,307.4,613.6z M306.7,631.4C306.7,631.4,306.7,631.4,306.7,631.4
			c0,1.5,0,3,0,4.5c0,0,0,0,0,0C306.8,634.4,306.7,632.9,306.7,631.4z M309.5,612.7C309.5,612.7,309.4,612.7,309.5,612.7
			c0,1,0.2,2.1,0.3,3.1C309.7,614.7,309.7,613.7,309.5,612.7z"/>
		<path class="st3" d="M305.3,623.8c-0.1-0.6-0.2-1.2-0.3-1.8c-0.1-0.5-0.1-1-0.2-1.5c-0.1,0-0.2,0-0.4,0c-0.2,0.8,0.1,1.6,0.2,2.3
			c-0.2-0.7-0.3-1.5-0.4-2.3c-0.1,0-0.2-0.1-0.3-0.1c2.1-0.3,4.2-0.1,6.3-0.1c0-3.8-0.6-7.5-1.1-11.1c0,0,0.1,0,0.1,0
			c0.2,1.2,0.4,2.5,0.5,3.7c0.2,1.2,0.3,2.5,0.4,3.7c0.1,1.2,0.2,2.5,0.3,3.7c0,0,0.1,0,0.1,0c0-0.1,0-0.3,0-0.4
			c0-1.5-0.1-3-0.2-4.5c-0.3-2-0.6-4-0.8-6c0-0.3-0.1-0.6-0.1-0.9c-0.1,0.1-0.1,0.2-0.2,0.2c0-0.1-0.1-0.1-0.2-0.3
			c0,0.1,0,0.2,0,0.3c0.1,0.7,0.2,1.4,0.3,2.1c0,0.2,0,0.4,0,0.6c-0.1-1-0.3-1.9-0.4-2.9c0,0-0.1,0-0.1,0c0.2,1.9,0.4,3.7,0.6,5.6
			c0,0,0,0-0.1,0c-0.2-1.9-0.4-3.8-0.6-5.7c0.2-0.1,0.5-0.1,0.7-0.2c0.1,0,0.2,0,0.3,0.3c0.3,2,0.6,4,0.8,6c0.2,1.6,0.4,3.2,0.4,4.9
			c0,1.3-0.2,2.6-0.7,3.7c-0.1,0.2-0.2,0.4-0.3,0.6c-0.5,0.6-1,1.2-1.5,1.8c-0.3,0.4-0.7,0.4-1.1,0.4c-0.4,0-0.7,0-1.1,0
			c-0.2,0-0.3-0.1-0.4-0.4c-0.1-0.3-0.2-0.7-0.3-1c0-0.1-0.1-0.2-0.1-0.4c-0.1-0.6-0.2-1.1-0.2-1.7c-0.1-0.5-0.1-0.9-0.2-1.4
			C305,622.1,305.2,622.9,305.3,623.8z M306.9,625.5C306.9,625.5,307,625.5,306.9,625.5c0.1-1.5,0.2-3.1,0.3-4.6c0,0-0.1,0-0.1,0
			c0,0.8-0.1,1.5-0.1,2.3c0,0,0,0,0,0c0-0.3,0-0.5,0-0.8c0,0,0,0,0,0c0,0.3,0,0.6,0,1c-0.2-0.9,0-1.8-0.1-2.6
			c-0.1,1.6-0.2,3.2,0,4.8c0.2-0.4-0.1-0.9,0.2-1.2C306.9,624.7,306.9,625.1,306.9,625.5z M305.5,623.1
			C305.5,623.1,305.5,623.1,305.5,623.1c-0.1-0.8-0.2-1.7-0.3-2.5c0,1.6,0.1,3,0.6,4.4c-0.1-0.8-0.2-1.5-0.2-2.2
			c-0.1-0.8-0.1-1.5-0.1-2.3c0,0-0.1,0-0.1,0C305.4,621.4,305.5,622.3,305.5,623.1z M307.3,625.2c0.3-1.5,0.4-3,0.4-4.6
			c0,0,0,0-0.1,0C307.5,622.1,307.4,623.7,307.3,625.2z M306.1,624.6c-0.1-1.3-0.2-2.6-0.3-4c0,0,0,0-0.1,0
			C305.8,622,305.7,623.4,306.1,624.6z M308.5,620.7C308.5,620.7,308.4,620.7,308.5,620.7c-0.2,1.3-0.3,2.6-0.5,4
			C308.3,623.4,308.5,622,308.5,620.7z M306.5,625.3C306.5,625.3,306.5,625.3,306.5,625.3c0.1-1.6,0.1-3.1,0.1-4.7
			C306.4,622.1,306.4,623.7,306.5,625.3z M306.3,620.5c-0.2,0.5-0.2,2.6,0,3.6C306.3,623,306.3,621.8,306.3,620.5z M309.2,620.6
			c-0.2,1.3-0.5,2.6-0.7,3.9C308.8,623.3,309.1,622,309.2,620.6z M307.7,623.8C307.7,623.8,307.7,623.8,307.7,623.8
			c0.1-0.5,0.1-1.1,0.2-1.6c0-0.5,0.2-1.1,0.1-1.6c0,0-0.1,0-0.1,0C307.8,621.7,307.7,622.7,307.7,623.8z M307.2,624.3
			c0.2-1,0.3-3.4,0.2-3.7C307.3,621.8,307.2,623,307.2,624.3z M307.9,623.7c0.2-0.7,0.4-2.5,0.3-3
			C308.1,621.7,308,622.7,307.9,623.7z M306.1,623.7c-0.1-1,0-2.1-0.2-3.1C305.9,621.7,306,622.7,306.1,623.7z M310.3,621.1
			c-0.3,0.9-0.5,1.7-0.8,2.6C310,622.9,310.2,622,310.3,621.1z"/>
		<path class="st3" d="M307.3,638c-0.2,0-0.4,0-0.6,0c0-0.4,0-0.7,0-1c0,0,0,0,0,0c0,0.3,0,0.6,0,0.9c0.1,0,0.2,0,0.3,0.1
			c0-0.2,0-0.4,0-0.5c0-0.1,0-0.3,0-0.4c-0.1-2.8-0.2-5.7,0-8.5c0-0.1,0-0.3,0-0.4c0-0.1,0-0.3,0-0.3c-0.2-0.2-0.2-0.4-0.1-0.7
			c0-0.1,0-0.2,0-0.3c0,0.1-0.1,0.2-0.1,0.3c0-0.1,0-0.1-0.1-0.2c0,0.1,0,0.1-0.1,0.2c0-0.1-0.1-0.2-0.1-0.3c0,0,0,0-0.1,0
			c0,0.3,0,0.5,0.1,0.8c-0.1,0.1-0.2,0.2-0.3,0.2c-0.2-0.5-0.4-1.1-0.6-1.6c0.3,0,0.7,0.1,1.1,0.1c0.3,0,0.7-0.1,1.1-0.1
			c-0.3,0.6-0.4,1.3-0.5,2c-0.2,2.3-0.3,4.5-0.2,6.8C307.1,636,307.2,637,307.3,638z"/>
		<path class="st3" d="M305.1,625.6c0,0-0.1-0.1-0.1-0.1c-0.6-0.8-1.2-1.6-1.8-2.5c-0.6-0.8-0.8-1.9-0.8-3.1c0-1.4,0.1-2.9,0.3-4.3
			c0.1-0.8,0.2-1.6,0.3-2.4c0-0.1,0-0.3,0.1-0.4c-0.1,1.2-0.2,2.4-0.3,3.6c-0.1,1.2-0.3,2.4-0.2,3.5c0,0,0,0,0.1,0
			c0.1-1,0.1-1.9,0.2-2.9c0,0,0,0,0.1,0c0,0.3,0,0.6,0,1c0,0.6-0.1,1.2-0.1,1.8c0,0.3,0,0.3,0.2,0.5c0,0.2-0.1,0.4,0,0.6
			c0.1,0.4,0.2,0.8,0.4,1.2c0.1,0.2,0.1,0.4,0.2,0.6c0,0.1,0,0.2,0.1,0.2c0.2,0.2,0.5,0.5,0.7,0.7c0,0,0.1,0.1,0.1,0.1
			c0.2,0.2,0.2,0.7,0.5,0.9C304.8,624.9,305,625.3,305.1,625.6C305.1,625.6,305.1,625.6,305.1,625.6z"/>
		<path class="st3" d="M308.3,642c0.6-0.3,1.2-0.1,1.8,0.2c-0.5,0.5-3.1,0.9-4.2,0.6c1.1,0.1,2.3,0,3.4-0.4c-0.4,0-0.7,0.1-1.1,0.1
			c0,0,0,0,0-0.1c0.3-0.1,0.7-0.2,1-0.3c0,0,0-0.1,0-0.1c-0.2,0-0.4,0.1-0.7,0.1c0.1-0.1,0.1-0.2,0.2-0.3
			C308.5,642,308.4,642,308.3,642z"/>
		<path class="st3" d="M309.4,619.5c-0.2-3.4-0.6-6.7-0.9-10.1C308.9,612.8,309.3,616.1,309.4,619.5z"/>
		<path class="st3" d="M308.9,619.9c-0.1-3.1-0.5-6.2-0.8-9.3C308.4,612,309,618.8,308.9,619.9z"/>
		<path class="st3" d="M306,639c0.1,0.3,0.1,0.6,0.2,0.9c0.1,0.3,0.2,0.4,0.4,0.4c0.1,0,0.1,0,0.2,0c0.5-0.2,0.7-0.5,0.6-1.3
			c0-0.2-0.1-0.4-0.1-0.7c0.3,0.3,0.4,1.2,0.3,1.6c-0.1,0.4-0.6,0.7-1,0.5C306.1,640.3,305.9,639.8,306,639z"/>
		<path class="st3" d="M304.3,619.6c0-0.9,0-1.9,0.1-2.8c0-0.9,0.1-1.9,0.2-2.8C304.5,615.8,304.4,617.7,304.3,619.6
			C304.3,619.6,304.3,619.6,304.3,619.6z"/>
		<path class="st3" d="M304.6,619.5c0-1.5,0.1-3,0.1-4.5c0,0,0.1,0,0.1,0C304.7,616.5,304.7,618,304.6,619.5
			C304.6,619.5,304.6,619.5,304.6,619.5z"/>
		<path class="st3" d="M303,611.6c0.1-1,0.3-2.1,0.4-3.1C303.5,608.9,303.3,610.7,303,611.6C303.1,611.6,303,611.6,303,611.6z"/>
		<path class="st3" d="M306.2,637.6c0.2-1.5,0.1-3.1,0.2-4.7C306.5,633.8,306.4,636.5,306.2,637.6z"/>
		<path class="st3" d="M303.8,619.3c0.1-1.5,0.2-3,0.3-4.4c0,0,0,0,0,0C304,616.4,303.9,617.8,303.8,619.3
			C303.8,619.3,303.8,619.3,303.8,619.3z"/>
		<path class="st3" d="M306.9,640.7c-0.1,0-0.3,0-0.5-0.1c0.3,0,0.6-0.1,1-0.1c0.1,0.2,0.1,0.4,0.2,0.7c-0.3-0.1-0.7-0.2-0.9-0.3
			c0.1,0,0.1-0.1,0.2-0.1C306.9,640.8,306.9,640.7,306.9,640.7z"/>
		<path class="st3" d="M304.9,615.7c0,1.2,0,2.5,0,3.7c0,0-0.1,0-0.1,0C304.8,618.2,304.9,617,304.9,615.7z"/>
		<path class="st3" d="M308.5,619.1c-0.1-1.3-0.2-2.6-0.3-3.9c0,0,0,0,0.1,0C308.4,616.4,308.5,617.7,308.5,619.1
			C308.6,619.1,308.5,619.1,308.5,619.1z"/>
		<path class="st3" d="M307.4,613.6c0.1,1.5,0.1,3.1,0.2,4.6c0,0,0,0-0.1,0C307.5,616.7,307.4,615.1,307.4,613.6
			C307.4,613.6,307.4,613.6,307.4,613.6z"/>
		<path class="st4" d="M305.3,623.8c-0.1-0.9-0.3-1.7-0.2-2.6c0.1,0.5,0.1,0.9,0.2,1.4c0.1,0.6,0.2,1.1,0.2,1.7
			C305.4,624.1,305.4,623.9,305.3,623.8z"/>
		<path class="st3" d="M306.7,631.4c0,1.5,0,3,0.1,4.5c0,0,0,0,0,0C306.7,634.4,306.7,632.9,306.7,631.4
			C306.7,631.4,306.7,631.4,306.7,631.4z"/>
		<path class="st3" d="M309.5,612.7c0.2,1,0.2,2.1,0.3,3.1C309.6,614.8,309.5,613.7,309.5,612.7
			C309.4,612.7,309.5,612.7,309.5,612.7z"/>
		<path class="st4" d="M306.9,625.5c0-0.4,0-0.8,0-1.3c-0.2,0.4,0,0.8-0.2,1.2c-0.2-1.6-0.1-3.2,0-4.8c0.2,0.9-0.1,1.8,0.1,2.6
			c0-0.3,0-0.6,0-1c0,0,0,0,0,0c0,0.3,0,0.5,0,0.8c0,0,0,0,0,0c0-0.8,0.1-1.5,0.1-2.3c0,0,0.1,0,0.1,0
			C307.2,622.4,307.1,623.9,306.9,625.5C307,625.5,306.9,625.5,306.9,625.5z"/>
		<path class="st4" d="M305.5,623.1c0-0.9-0.1-1.7-0.1-2.6c0,0,0.1,0,0.1,0c0,0.8,0.1,1.5,0.1,2.3c0.1,0.8,0.2,1.5,0.2,2.2
			c-0.5-1.4-0.6-2.9-0.6-4.4C305.3,621.4,305.4,622.3,305.5,623.1C305.5,623.1,305.5,623.1,305.5,623.1z"/>
		<path class="st4" d="M307.3,625.2c0.1-1.5,0.2-3.1,0.3-4.6c0,0,0,0,0.1,0C307.6,622.2,307.5,623.7,307.3,625.2z"/>
		<path class="st4" d="M306.1,624.6c-0.4-1.3-0.3-2.6-0.4-4c0,0,0,0,0.1,0C305.9,622,306,623.3,306.1,624.6z"/>
		<path class="st4" d="M308.5,620.7c0,1.4-0.2,2.7-0.5,4C308.2,623.3,308.3,622,308.5,620.7C308.4,620.7,308.5,620.7,308.5,620.7z"
			/>
		<path class="st4" d="M306.5,625.3c0-1.6-0.1-3.1,0.1-4.7C306.5,622.1,306.5,623.7,306.5,625.3
			C306.5,625.3,306.5,625.3,306.5,625.3z"/>
		<path class="st4" d="M306.3,620.5c0,1.3,0,2.5,0,3.6C306.1,623.1,306.1,621,306.3,620.5z"/>
		<path class="st4" d="M309.2,620.6c-0.1,1.4-0.3,2.7-0.7,3.9C308.7,623.2,308.9,621.9,309.2,620.6z"/>
		<path class="st4" d="M307.7,623.8c0.1-1.1,0.1-2.2,0.2-3.3c0,0,0.1,0,0.1,0c0.1,0.5,0,1.1-0.1,1.6
			C307.8,622.7,307.8,623.3,307.7,623.8C307.7,623.8,307.7,623.8,307.7,623.8z"/>
		<path class="st4" d="M307.2,624.3c0-1.2,0.1-2.5,0.2-3.7C307.5,620.9,307.4,623.3,307.2,624.3z"/>
		<path class="st4" d="M307.9,623.7c0.1-1.1,0.2-2,0.3-3C308.3,621.2,308.2,623.1,307.9,623.7z"/>
		<path class="st4" d="M306.1,623.7c-0.2-1-0.2-2-0.2-3.1C306.1,621.6,306,622.7,306.1,623.7z"/>
		<path class="st4" d="M310.3,621.1c-0.1,1-0.3,1.9-0.8,2.6C309.8,622.8,310.1,621.9,310.3,621.1z"/>
	</g>
	<g>
		<g>
			<defs>
				<rect id="SVGID_5_" x="252.8" y="736.8" width="29.3" height="37.9"/>
			</defs>
			<clipPath id="SVGID_2_">
				<use xlink:href="#SVGID_5_"  style="overflow:visible;"/>
			</clipPath>
			<g class="st5">
				<defs>
					<rect id="SVGID_7_" x="252.8" y="736.8" width="29.3" height="37.9"/>
				</defs>
				<clipPath id="SVGID_4_">
					<use xlink:href="#SVGID_7_"  style="overflow:visible;"/>
				</clipPath>
				<path class="st6" d="M265.8,754.7c-0.7,0-1.4-0.1-2.1-0.3c-1.4-0.4,0-1.2,0.7-1.5c0.6-0.2,1.3-0.3,2.1-0.4c0,0,0.7,0,0.7,0
					c0.5,0,0.9,0.1,1.4,0.1c0,0,0.1,0,0.1,0l0.1-0.3c0,0-0.1,0-0.2,0c-0.4-0.1-0.9-0.2-1.3-0.2c0,0-0.7-0.1-0.7-0.1
					c-1.5-0.1-3,0.1-4,1.1c-1,0.8,1,1.6,1.5,1.8c0.5,0.1,1,0.2,1.6,0.3c0,0,0.1,0,0.1,0L265.8,754.7
					C265.9,754.7,265.8,754.7,265.8,754.7"/>
				<path class="st6" d="M273.3,755.2c-0.2-0.6-0.7-1.1-1.2-1.5c1.1-0.8,1.8-1.9,1-3.2c-1-1.7-3.6-2.3-5.4-3
					c-0.1-1.3-0.4-2.7-1.2-3.7c-0.4-0.5-1-0.8-1.6-0.8c-1,0-0.9,1.1-0.7,1.8c0.4,1.4,1.5,2.2,2.7,2.7c0,0.1,0,0.3,0,0.4
					c0,1.3-0.1,2.6-0.3,3.9c0,0,0,0.1,0,0.1l0.7,0.1c0,0,0-0.1,0-0.1c0.1-0.3,0.1-0.5,0.1-0.8c0.2-1,0.3-2.1,0.2-3.2
					c1.5,0.6,5.1,1.4,5,3.5c-0.1,0.8-0.6,1.4-1.2,1.9c-0.6-0.3-1.2-0.6-1.8-0.7c0.1-0.5,0.2-0.9,0.3-1.4c0-0.2-0.7-0.6-0.7-0.4
					c-0.1,0.4-0.2,0.8-0.2,1.2l0,0l0,0.1c0,0.1-0.4,1.7-0.5,2.3c-0.6,0.1-1.1,0.2-1.5,0.2c-0.1,0-0.1,0-0.2,0
					c0.2-0.6,0.3-1.3,0.5-1.9c0,0,0-0.1,0-0.1l-0.7,0c0,0,0,0.1,0,0.1c-0.1,0.7-0.3,1.3-0.5,1.9c0,0-0.2,0.5-0.2,0.5
					c-0.5,1.5-1,3-1.6,4.4c-0.1,0.2,0.6,0.6,0.7,0.4c0.6-1.6,1.2-3.2,1.6-4.8c0.6,0,1.2,0,1.7-0.1c-0.5,2-1,4.1-1.7,6.1
					c-1.8,0.7-4,1.7-4.1,3.9c0,0.6,0.7,1.1,1.3,1.1c1.5,0,2.2-1.2,2.8-2.5c0.3-0.6,0.6-1.3,0.8-1.9
					C270.5,760.3,274.7,758.8,273.3,755.2 M264.8,744.2c0-0.6,0.9-0.7,1.2-0.3c0.3,0.4,0.4,0.9,0.6,1.3c0.2,0.6,0.3,1.3,0.4,1.9
					C265.8,746.6,264.7,745.6,264.8,744.2 M266.2,762.2c-0.4,1.1-1,2.7-2.2,3.2c-1.8,0.7,0-2,0.6-2.4
					C265,762.7,265.6,762.4,266.2,762.2C266.2,762.1,266.2,762.2,266.2,762.2 M269.3,754.3c0.1-0.5,0.2-0.9,0.3-1.4
					c0.6,0.2,1.1,0.4,1.6,0.6C270.6,753.9,270,754.1,269.3,754.3 M267.6,760.7c0.6-1.9,1.1-3.8,1.5-5.8c0.3-0.1,0.5-0.1,0.8-0.2
					c0.5-0.1,1.2-0.4,1.8-0.8c0.4,0.3,0.7,0.6,0.9,1C274.2,757.9,269.8,759.8,267.6,760.7"/>
				<path class="st6" d="M275,747.3c-2-2-4.6-3.1-7.4-3.1c-2.8,0-5.4,1.1-7.4,3.1c-2,2-3.1,4.6-3.1,7.4c0,2.8,1.1,5.4,3.1,7.4
					c2,2,4.6,3.1,7.4,3.1c2.8,0,5.4-1.1,7.4-3.1c2-2,3.1-4.6,3.1-7.4C278.1,751.9,277,749.3,275,747.3 M267.8,764.5
					c-5.4,0-9.8-4.4-9.8-9.8c0-5.4,4.4-9.8,9.8-9.8c5.4,0,9.8,4.4,9.8,9.8C277.6,760.1,273.2,764.5,267.8,764.5"/>
			</g>
		</g>
	</g>
</g>
<g id="text">
	<text transform="matrix(1 0 0 1 223.3867 48.4976)"><tspan x="0" y="0" class="st17 st18">THE BREUKELEN</tspan><tspan x="37.8" y="28.8" class="st17 st19">BRUNCH MENU</tspan></text>
	<rect x="49.3" y="158.4" class="st20" width="228" height="399.1"/>
	<text transform="matrix(1 0 0 1 123.6826 165.0361)"><tspan x="0" y="0" class="st17 st21">SOUP OF THE DAY</tspan><tspan x="37" y="10.8" class="st17 st21">8</tspan><tspan x="3.4" y="32.4" class="st17 st21">GRANOLA BOWL</tspan><tspan x="-64.1" y="43.2" class="st17 st21"> homemade granola, greek yogurt, berries and honey</tspan><tspan x="37" y="54" class="st17 st21">9</tspan><tspan x="-1.8" y="75.6" class="st17 st21">AVOCADO TOAST *</tspan><tspan x="-54.2" y="86.4" class="st17 st21">served with an egg sunny side up, mixed greens</tspan><tspan x="34.4" y="97.2" class="st17 st21">10</tspan><tspan x="-17.9" y="118.8" class="st17 st21">MORNING MAC &amp; CHEESE*</tspan><tspan x="-34.3" y="129.6" class="st17 st21">cheddar cheese, fried egg &amp; truffle oil</tspan><tspan x="20.1" y="140.4" class="st17 st21">bacon + 2</tspan><tspan x="34.4" y="151.2" class="st17 st21">11</tspan><tspan x="4.3" y="172.8" class="st17 st21">FRENCH TOAST*</tspan><tspan x="-44.4" y="183.6" class="st17 st21">Served with seasonal fresh fruit and cream</tspan><tspan x="34.4" y="194.4" class="st17 st21">11</tspan><tspan x="2.9" y="216" class="st17 st21">VEGGIE NICOISE*</tspan><tspan x="-71.2" y="226.8" class="st17 st21">asparagus, green beans, egg, arugula, rosemary potatoes </tspan><tspan x="-3.7" y="237.6" class="st17 st21">dressed with balsamic</tspan><tspan x="34.4" y="248.4" class="st17 st21">12</tspan><tspan x="-6.9" y="270" class="st17 st21">BISCUITS AND GRAVY</tspan><tspan x="-71.7" y="280.8" class="st17 st21">biscuits, rosemary chicken, gravy, topped with fried eggs</tspan><tspan x="34.4" y="291.6" class="st17 st21">12</tspan><tspan x="-12.1" y="313.2" class="st17 st21">BREUKELEN BREAKFAST</tspan><tspan x="-58.2" y="324" class="st17 st21">Scrambled eggs, arugula, prosciutto and tomatoes</tspan><tspan x="34.4" y="334.8" class="st17 st21">12</tspan><tspan x="-12.5" y="356.4" class="st17 st21">CHICKEN AND WAFFLES</tspan><tspan x="-27.7" y="367.2" class="st17 st21">fried chicken with belgium waffles</tspan><tspan x="34.4" y="378" class="st17 st21">14</tspan></text>
	<rect x="181.5" y="584.8" class="st4" width="246" height="136.2"/>
	<text transform="matrix(1 0 0 1 246.8574 592.2012)"><tspan x="0" y="0" class="st17 st22">MIMOSAS AND BELLINIS</tspan><tspan x="-65.4" y="75" class="st17 st23">FRESH MIMOSA............................................................................................7</tspan><tspan x="-65.4" y="88" class="st17 st23">PEACH BELLINI..............................................................................................7</tspan><tspan x="-65.4" y="103" class="st17 st23">STRAWBERRY BELLINI................................................................................8</tspan></text>
	<rect x="282.1" y="753" class="st4" width="78.5" height="12.8"/>
	<text transform="matrix(1 0 0 1 282.0732 758.1436)" class="st17 st24">* VEGETARIAN OPTION</text>
	<rect x="334.7" y="158.4" class="st20" width="228" height="389.1"/>
	<text transform="matrix(1 0 0 1 412.1455 165.0361)"><tspan x="0" y="0" class="st17 st21">CAPRESE SALAD*</tspan><tspan x="-62.4" y="10.8" class="st17 st21">burrata, prosciutto di parma, arugula, dressed with </tspan><tspan x="19.6" y="21.6" class="st17 st21">balsamic</tspan><tspan x="31.3" y="32.4" class="st17 st21">14</tspan><tspan x="-1" y="54" class="st17 st21">STEAK AND EGGS</tspan><tspan x="-66.2" y="64.8" class="st17 st21">seared chef choice steak, two eggs, herbed fries and </tspan><tspan x="-5.4" y="75.6" class="st17 st21">organic mixed greens</tspan><tspan x="31.3" y="86.4" class="st17 st21">15</tspan><tspan x="-1.2" y="108" class="st17 st21">SALMON NICOISE</tspan><tspan x="-68.5" y="118.8" class="st17 st21">grilled salmon, asparagus, green beans, egg, rosemary </tspan><tspan x="-43" y="129.6" class="st17 st21">potatoes, arugula, dressed with balsamic</tspan><tspan x="31.3" y="140.4" class="st17 st21">16</tspan><tspan x="3.3" y="162" class="st17 st21">THE AMERICAN</tspan><tspan x="-74" y="172.8" class="st17 st21">scrambled eggs, italian sausages, rosemary potatoes and </tspan><tspan x="26.6" y="183.6" class="st17 st21">toast</tspan><tspan x="31.3" y="194.4" class="st17 st21">15</tspan><tspan x="-44" y="216" class="st17 st21">THE BREUKELEN BREAKFAST BURGER</tspan><tspan x="-30.1" y="226.8" class="st17 st21">angus beef, cheese, roast peppers</tspan><tspan x="-68.4" y="237.6" class="st17 st21">lettuce, caramelized onions, tomatoes,  topped with a </tspan><tspan x="-41.6" y="248.4" class="st17 st21">fried egg, served with herb fries &amp; salad</tspan><tspan x="20.8" y="259.2" class="st17 st21">bacon 2</tspan><tspan x="31.3" y="270" class="st17 st21">15</tspan><tspan x="-16.2" y="291.6" class="st17 st21">SMOKED TROUT SALAD*</tspan><tspan x="-60.2" y="302.4" class="st17 st21">smoked trout, fresh mozzarella, scallions, vesuvio </tspan><tspan x="-73.3" y="313.2" class="st17 st21">tomatoes, bread crumbs, arugula, dressed with balsamic</tspan><tspan x="31.3" y="324" class="st17 st21">15</tspan><tspan x="24.4" y="356.4" class="st17 st21">SIDES</tspan><tspan x="-76.8" y="367.2" class="st17 st21">truffle oil herb fries / sauted kale / organic mixed greens </tspan><tspan x="-66.6" y="378" class="st17 st21">/ sauted broccoli / sauted asparagus / kale chips / </tspan></text>
	<g>
		<g>
			<line class="st25" x1="232.4" y1="597.3" x2="232.9" y2="597.3"/>
			<line class="st26" x1="233.9" y1="597.3" x2="379.9" y2="597.3"/>
			<line class="st25" x1="380.4" y1="597.3" x2="380.9" y2="597.3"/>
		</g>
	</g>
</g>
</svg>
