<?xml version="1.0" encoding="utf-8"?>
<!-- Generator: Adobe Illustrator 21.1.0, SVG Export Plug-In . SVG Version: 6.00 Build 0)  -->
<svg version="1.1" xmlns="http://www.w3.org/2000/svg" xmlns:xlink="http://www.w3.org/1999/xlink" x="0px" y="0px"
	 viewBox="0 0 396 612" style="enable-background:new 0 0 396 612;" xml:space="preserve">
<style type="text/css">
	.st0{display:none;}
	.st1{display:inline;fill:#444545;}
	.st2{display:inline;fill:#757576;}
	.st3{fill-rule:evenodd;clip-rule:evenodd;}
	.st4{fill-rule:evenodd;clip-rule:evenodd;fill:none;}
	.st5{clip-path:url(#SVGID_2_);}
	.st6{clip-path:url(#SVGID_4_);fill:#232323;}
	.st7{clip-path:url(#SVGID_6_);}
	.st8{clip-path:url(#SVGID_8_);fill:#232323;}
	.st9{clip-path:url(#SVGID_10_);}
	.st10{clip-path:url(#SVGID_12_);fill:#232323;}
	.st11{clip-path:url(#SVGID_14_);}
	.st12{clip-path:url(#SVGID_16_);fill:#232323;}
	.st13{clip-path:url(#SVGID_18_);}
	.st14{clip-path:url(#SVGID_20_);fill:#232323;}
	.st15{fill:none;stroke:#000000;stroke-width:0.5;stroke-miterlimit:10;}
	.st16{fill:none;stroke:#000000;stroke-width:0.5;stroke-miterlimit:10;stroke-dasharray:0.5026,0.5026;}
	.st17{fill:none;}
	.st18{font-family:'Lato-Regular';}
	.st19{font-size:9px;}
	.st20{font-size:10px;}
	.st21{font-size:21px;}
	.st22{font-size:12px;}
	.st23{fill:none;stroke:#000000;stroke-miterlimit:10;}
	.st24{fill:none;stroke:#000000;stroke-miterlimit:10;stroke-dasharray:1.0034,1.0034;}
	.st25{fill:none;stroke:#000000;stroke-width:0.25;stroke-miterlimit:10;}
	.st26{fill:#070808;}
</style>
<g id="backround" class="st0">
	<rect class="st2" width="396" height="612"/>
</g>
<g id="graphics">
	<g>
		<path class="st3" d="M179.5,90.3c0.4,0,0.9,0,1.3,0c0.4,0,0.7,0.1,1.1,0.2c0.9,0.2,1.7,0.3,2.6,0.5c0.8,0.1,1.5,0.3,2.3,0.4
			c0.7,0.1,1.4,0.1,2,0.4c0.1,0,0.1,0,0.2,0c0.8,0.1,1.7,0.2,2.5,0.3c2.2,0.1,4.4,0.1,6.5,0.2c0.7,0,1.4,0,2.2,0
			c0.4,0,0.8-0.1,1.2-0.1c0.2,0,0.4-0.1,0.6-0.1c0.9,0,1.8-0.2,2.7-0.4c0.1,0,0.2-0.1,0.3-0.2c0.4-0.9,1-1.7,1.8-2.4
			c0.2-0.2,0.5-0.3,0.7-0.4c0.4-0.2,0.9-0.4,1.3-0.6c0.6-0.2,1.2-0.3,1.8-0.3c0.6-0.1,1.2,0,1.8,0c0.4,0,0.8,0.1,1.1,0.1
			c0.6,0.1,1.1,0.2,1.7,0.3c0.4,0.1,0.9,0.3,1.3,0.5c0.2,0.1,0.4,0.2,0.5,0.3c0.8,0.4,1.6,1,2.2,1.6c0.4,0.4,0.6,0.9,0.7,1.4
			c0.1,0.3,0.2,0.7,0.2,1c0,0.6-0.4,1-0.7,1.4c-0.7,0.8-1.4,1.5-2.3,1.9c-1.4,0.7-2.9,1.2-4.5,1.2c-0.1,0-0.2,0-0.3,0
			c-0.5,0-0.9,0.1-1.4,0.1c-0.4,0-0.8-0.1-1.1-0.1c-0.5,0-1-0.2-1.5-0.4c-0.8-0.3-1.5-0.8-2.1-1.3c-0.3-0.2-0.6-0.5-0.7-0.9
			c0-0.2-0.2-0.3-0.3-0.4c-0.1-0.1-0.1-0.2-0.1-0.3c0-0.4-0.2-0.5-0.6-0.5c-0.6-0.1-1.2-0.2-1.8-0.3c-0.8-0.1-1.7-0.1-2.5-0.1
			c-1.8,0-3.7,0-5.5,0.1c-0.1,0-0.2,0-0.4,0.1c-0.2,0.1-0.5,0.2-0.7,0c-0.1,0-0.2,0-0.3,0c-1.6,0.2-3.3,0.4-4.9,0.7
			c-0.2,0-0.4,0-0.6,0.1c-0.6,0.1-1.2,0.3-1.8,0.4c-0.4,0.1-0.8,0.1-1.2,0.2c-1,0.2-2,0.5-3.1,0.7c-0.5,0.1-1,0.1-1.6,0.1
			c-0.1,0-0.2,0-0.3,0c-0.4,0-0.7-0.1-1.1-0.2c-0.3-0.1-0.5-0.2-0.8-0.3c-0.4-0.2-0.7-0.5-0.9-0.8c-0.4-0.5-0.6-1.1-0.4-1.7
			c0-0.2,0.1-0.3,0.2-0.5c0.1-0.2,0.2-0.4,0.2-0.6c0-0.1,0.1-0.2,0.2-0.2C177.7,90.6,178.5,90.2,179.5,90.3z M205.1,94.1
			c0,0,0,0.1,0,0.1c0.1,0.1,0.2,0.2,0.3,0.2c0.3,0,0.7,0.1,1.1,0.1c2.6,0.3,5.2,0.2,7.7,0.1c1.6-0.1,3.3-0.2,4.9-0.4
			c0.1,0,0.2,0,0.2,0c0,0,0-0.1,0-0.1c-0.1,0-0.3,0-0.4,0c-1.1,0.1-2.2,0.2-3.3,0.2c-0.8,0.1-1.7,0.2-2.5,0.2
			c-2.5,0-4.9,0.1-7.3-0.1c-0.1,0-0.3,0-0.4-0.1c1.6,0,3.1,0,4.7,0c1.6,0,3.1,0,4.7-0.1c1.6-0.1,3.1-0.3,4.6-0.4
			c-0.9-0.1-1.8,0-2.8,0.1c-0.9,0-1.8,0.2-2.8,0.1c0.1-0.1,0.1-0.1,0.2-0.1c0.2,0,0.4,0,0.5,0c1.6-0.1,3.3-0.3,4.9-0.2
			c0.1,0,0.1-0.1,0.2-0.1c0,0,0,0,0-0.1c-1.3,0-2.6,0.1-3.9,0.1c0,0,0-0.1,0-0.1c1.3-0.1,2.6-0.1,3.9-0.2c0,0,0-0.1,0-0.1
			c-0.2,0-0.3,0-0.5,0c-0.7,0-1.4,0-2.1,0.1c-0.1,0-0.2,0-0.2,0c0,0,0-0.1,0-0.1c0.1,0,0.2,0,0.2,0c0.8,0,1.6-0.1,2.5-0.1
			c0.1,0,0.2,0,0.2-0.2c-0.4,0-0.9,0-1.3,0.1c-0.9,0.1-1.1,0.1-1.3-0.1c0.5,0,0.9,0,1.3-0.1c0.4,0,0.8,0,1.2-0.2
			c-0.6-0.1-1.2,0.1-1.8,0c0,0,0-0.1,0-0.1c0.6,0,1.2-0.1,1.8-0.1c0,0,0-0.1,0-0.1c-0.3,0-0.5,0-0.8,0c-0.2,0-0.5,0-0.7,0
			c0.5-0.1,1,0,1.5-0.2c-0.3,0-0.5,0-0.8,0c-0.3,0-0.5,0.1-0.8-0.1c0.5-0.2,0.9,0,1.4-0.2c-0.4,0.1-0.8,0.1-1.2,0
			c0.3-0.2,0.7,0.1,1-0.2c-0.4,0-0.7,0-1,0c0,0,0-0.1,0-0.1c0.3,0,0.6,0,0.8,0c0,0,0-0.1,0-0.1c-0.3,0-0.5,0-0.8,0
			c0-0.1,0-0.2,0-0.4c0.2,0,0.3,0,0.5,0c0-0.2-0.2-0.2-0.3-0.1c-0.5,0.1-0.8,0.1-1.1-0.1c0.3-0.1,0.7,0.1,1-0.1c0,0,0-0.1,0-0.1
			c-0.5,0-1,0-1.5,0c0,0,0-0.1,0-0.1c0.4,0,0.8,0,1.2,0c0,0,0-0.1,0-0.1c-0.1,0-0.2-0.1-0.3-0.1c-0.6,0-1.2,0-1.8,0
			c-0.1,0-0.1,0-0.2,0c0,0,0-0.1,0-0.1c0.3,0,0.6,0,0.9,0c0.3,0,0.6,0.1,0.9,0c0,0,0-0.1,0-0.1c-0.5,0-1,0-1.5,0c0,0,0-0.1,0-0.1
			c0.4,0,0.8,0,1.2,0c0,0,0-0.1,0-0.1c-0.5,0-1-0.1-1.6-0.1c0,0,0,0,0-0.1c0.4,0,0.8,0,1.1,0c0,0,0-0.1,0-0.1
			c-0.1,0-0.2-0.1-0.4-0.1c-0.8,0-1.6,0-2.3-0.1c-0.1,0-0.1,0-0.2-0.1c0,0,0-0.1,0-0.1c0.8,0,1.5,0.1,2.3,0.1c0,0,0-0.1,0-0.1
			c-0.2-0.2-0.5,0-0.8-0.1c-0.3,0-0.6,0-0.8,0c-0.3,0-0.6,0-0.8,0c-0.3,0-0.5,0-0.8,0c0.9-0.2,1.9,0.1,2.8-0.1
			c-0.8,0-1.5-0.1-2.3-0.1c0-0.1,0-0.1,0-0.2c-0.4,0-0.7,0-1.1,0.1c-0.4,0-0.7,0-1.1,0.1c0,0,0-0.1,0-0.1c0.4-0.2,0.9,0,1.4-0.2
			c-0.1,0-0.3-0.1-0.4-0.1c-0.3,0-0.6,0-0.9,0.1c-0.7,0.1-1.5,0-2.2,0.2c-0.2,0-0.3,0.1-0.5,0.1c-0.5,0-1,0.1-1.5,0.1
			c-0.1,0-0.2,0-0.3,0.1c0,0,0,0.1,0,0.1c0.7-0.1,1.5-0.2,2.2-0.3c0,0,0,0.1,0,0.1c-0.9,0.2-1.8,0.2-2.7,0.3c0,0,0,0.1,0,0.1
			c0.4,0,0.9-0.1,1.3-0.1c0,0,0,0.1,0,0.1c-0.2,0.1-0.5,0.1-0.7,0.2c0,0,0,0,0,0c0.2,0,0.3,0,0.5,0c-0.5,0.2-1.1,0.1-1.7,0.2
			c0,0,0,0.1,0,0.1c0.3,0,0.6,0,0.9-0.1c0,0,0,0.1,0,0.1c-0.4,0-0.7,0.1-1.1,0.1c0,0,0,0,0,0.1c0.7-0.1,1.3-0.1,2-0.2
			c0,0,0,0.1,0,0.1c-0.7,0.1-1.5,0.1-2.2,0.2c0.4,0.2,0.9-0.1,1.3,0.1c-0.3,0.1-0.5,0.1-0.8,0.1c-0.7,0-0.7,0-0.8,0.2
			c0.4,0,0.8,0,1.1-0.1c0,0,0,0.1,0,0.1c-0.4,0-0.9,0.1-1.3,0.1c0,0,0,0.1,0,0.1c0.4,0,0.9-0.1,1.3-0.1c0,0,0,0.1,0,0.1
			c-0.5,0.1-1,0-1.5,0.1c0,0,0,0.1,0,0.1c0.5,0,1,0,1.5-0.1c0,0,0,0.1,0,0.1c-0.2,0.1-0.5,0.1-0.8,0.1c-0.6,0-0.6,0-0.8,0.1
			c0.4,0,0.7,0,1.1,0c0,0,0,0.1,0,0.1c-0.3,0-0.6,0-0.9,0.1c0,0,0,0.1,0,0.1c0.4,0,0.8,0,1.2,0c0,0,0,0.1,0,0.1c-0.3,0-0.5,0-0.8,0
			c0,0,0,0.1,0,0.1c0.3,0,0.7,0,1,0c0,0,0,0.1,0,0.1c-0.1,0-0.3,0-0.4,0c-0.2,0-0.3,0-0.5,0c0.1,0.1,0.1,0.2,0.2,0.3
			c-0.3-0.1-0.3-0.5-0.7-0.5c-0.3,0-0.5,0-0.8,0.1c0,0,0,0.1,0,0.1c0.1,0,0.2,0,0.4,0c0.2,0,0.4,0.1,0.5,0.1
			c0.3,0.1,0.3,0.3,0.3,0.6c0,0.1,0,0.2,0,0.3c0.1,0.3-0.1,0.5-0.4,0.6c-0.1,0-0.1,0.1-0.2,0.1c0,0,0,0.1,0,0.1
			c1.2-0.4,2.3-0.1,3.5,0c-0.9,0.2-1.8-0.1-2.7,0.1c0.7,0.1,1.4,0.1,2,0.1c0.7,0,1.3,0,2,0.1c-0.1,0.1-0.1,0.1-0.2,0.1
			c-1.3,0-2.6-0.1-4-0.1C205.8,94.1,205.5,94.1,205.1,94.1z M186.8,92.7c0.3,0.3,0.7,0.1,1,0.1c0.3,0,0.7,0,1,0c0,0,0,0.1,0,0.1
			c-0.2,0-0.5,0-0.7,0c-0.2,0-0.2,0-0.4,0.2c0.4,0,0.8-0.1,1.1-0.1c0.6,0,1.3,0,1.9,0c0.2,0,0.3,0.1,0.5,0.1c0,0,0.1-0.1,0.2-0.2
			c0,0.1,0,0.2,0,0.3c0.2,0,0.4,0,0.6,0c0-0.1,0.1-0.2,0.1-0.2c0.2,0,0.3,0.1,0.5,0.1c0.1,0,0.3,0,0.4,0c0.7,0,1.4-0.2,2,0
			c0,0,0.1,0,0.2,0c0.4-0.1,0.8-0.3,1.2-0.3c1.4,0,2.7,0,4.1,0c0.3,0,0.5,0,0.8,0c0,0,0-0.1,0-0.1c-0.4,0-0.8,0-1.1,0
			c-1.3,0-2.5,0-3.8,0c-0.1,0-0.2,0-0.3,0c0,0,0,0,0-0.1c1.5,0,3.1,0,4.6,0c-0.1-0.1-0.2-0.1-0.3-0.1c-1.2,0-2.4,0-3.7-0.1
			c-1.8,0-3.5-0.1-5.3-0.1c-0.3,0-0.6,0-0.9,0c-0.1,0-0.2,0-0.3,0c-0.6-0.3-1.2-0.3-1.8-0.3c-0.7-0.1-1.3,0-2,0
			c-0.2,0-0.5,0-0.7-0.1c0.8-0.2,1.6,0.1,2.4-0.1c-0.3-0.1-0.7-0.1-1-0.1c-0.4,0-0.8,0.1-1.3,0c-0.4-0.1-0.8-0.1-1.2,0.1
			c0.8,0.1,0.8,0.1,0.9,0.5c0.3,0,0.5,0,0.8,0c0,0,0,0,0-0.1c-0.2,0-0.4-0.1-0.6-0.1c0.5-0.1,1.1,0,1.6,0c0.5-0.1,1,0,1.6,0
			c0,0,0,0.1,0,0.1c-0.6,0.1-1.3-0.1-1.9,0.1c0.3,0,0.5,0,0.8,0c0.2,0,0.5,0,0.7,0c0.6,0,0.6,0,0.7,0.1c-0.3,0-0.6,0-0.8,0
			c-0.3,0-0.5,0-0.8,0C187.3,92.6,187.1,92.5,186.8,92.7z M206.6,96.1c0.3,0.4,0.6,0.5,1.1,0.5c1.4,0,2.8,0.1,4.1,0.1
			c1.6,0,3.2-0.1,4.8-0.3c0.1,0,0.2-0.1,0.3-0.1c-0.8,0-1.7,0.1-2.5,0.2c-0.8,0.1-1.7,0.1-2.5,0.1c-0.8,0-1.7,0-2.5-0.1
			c-0.8-0.1-1.7-0.1-2.5-0.3c0.1,0,0.3,0,0.4,0c1,0.1,1.9,0.1,2.9,0.2c1.3,0.1,2.6,0,3.9,0c1-0.1,2.1-0.2,3.1-0.3
			c0.1,0,0.2-0.1,0.2-0.1c-0.1-0.1-0.2,0-0.3,0c-1.4,0.1-2.8,0.3-4.2,0.4c-1.9,0.1-3.8,0-5.6-0.2C207.1,96.1,206.9,96.1,206.6,96.1z
			 M213.8,97.3C213.8,97.3,213.8,97.3,213.8,97.3c-0.8-0.1-1.6-0.1-2.4-0.1c-0.8,0-1.7,0-2.5-0.1c0.3,0,0.6,0,0.9,0c1.3,0,2.7,0,4,0
			c0.1,0,0.3,0,0.4,0c0.4,0,0.8-0.1,1.2-0.3c-1.4,0.1-2.8,0.2-4.2,0.1c0.1-0.1,0.1-0.1,0.2-0.1c1.4,0,2.8,0,4.2-0.2
			c0.2,0,0.4,0,0.7-0.1c0,0,0-0.1,0-0.1c-2.9,0.5-5.8,0.3-8.7,0.1c0.1,0.1,0.1,0.1,0.1,0.1c0.2,0.2,0.5,0.1,0.8,0.1
			c0.8,0,1.5,0,2.3,0.1c0,0,0,0,0.1,0c-0.8,0.2-1.7,0-2.5,0.1c0.5,0.2,1.1,0.4,1.6,0.5c0,0,0.1,0,0.1,0c0.2-0.2,0.5-0.2,0.8-0.1
			c0.2,0,0.3,0,0.5,0c0.3,0,0.7,0,1,0.1C212.8,97.5,213.3,97.4,213.8,97.3z M181.8,91.4c-0.2,0-0.6,0-0.9,0.1
			c-0.6,0.1-1.1,0.3-1.4,0.9c-0.1,0.2-0.2,0.5-0.2,0.7c0.2,0.4,0.5,0.8,0.9,1c0.1,0.1,0.2,0,0.3,0.1c0-0.2,0.1-0.1,0.2-0.1
			c0.4,0,0.7-0.1,1.1-0.1c0.3,0,0.6-0.1,0.9-0.2c0.7-0.1,1-0.7,0.8-1.3c-0.1-0.3-0.2-0.6-0.5-0.7c-0.1,0-0.1-0.1-0.2-0.2
			c-0.1-0.2-0.3-0.3-0.6-0.3C182.2,91.5,182,91.4,181.8,91.4z M207.1,94.8c0.4,0,0.9,0.1,1.3,0.1c1.7,0.1,3.4,0.2,5.1,0
			c1.2-0.1,2.4-0.2,3.5-0.3c0.7-0.1,1.3-0.1,2-0.2c0,0,0.1,0,0.1,0c0,0,0-0.1,0-0.1C215.1,94.7,211.1,95.1,207.1,94.8z M218.5,95.2
			c0,0,0-0.1,0-0.1c-0.9-0.1-1.8,0.1-2.6,0.2c-0.9,0.1-1.8,0.2-2.7,0.2c-0.9,0-1.8,0.1-2.7,0.1c-0.9,0-1.8-0.1-2.7-0.1
			c0.2,0.1,0.5,0.1,0.7,0.1c1.4,0.1,2.8,0.2,4.1,0.1C214.6,95.5,216.5,95.3,218.5,95.2z M205.9,95.5c0.4,0.1,0.8,0.1,1.1,0.2
			c0.3,0,0.7,0.1,1,0.1c0.3,0,0.7,0.1,1,0.1c0.3,0,0.7,0,1,0.1c0.3,0,0.7,0,1,0c0.3,0,0.7,0,1,0c0.4,0,0.7,0,1.1,0
			c0.3,0,0.7,0,1-0.1c0.3,0,0.7-0.1,1-0.1c0.3,0,0.7,0,1-0.1c0.3,0,0.7-0.1,1-0.2c0.3-0.1,0.6,0,0.9-0.2c-0.2,0-0.3,0-0.5,0
			c-0.2,0-0.4,0.1-0.6,0.1c-1,0.1-2.1,0.2-3.1,0.2c-2.3,0.2-4.6,0.1-6.9-0.2c-0.4-0.1-0.9,0-1.3-0.4c0,0-0.1,0-0.2,0
			C205.8,95.3,205.9,95.4,205.9,95.5z M180.4,91.4c0.8-0.2,1.5-0.2,2.3-0.2c0.3,0,0.6,0.1,0.9,0.3c0.1,0.1,0.2,0.1,0.3,0.2
			c0.1,0,0.1,0.1,0.2,0.1c0.3,0,0.7,0,1-0.1c0.2,0,0.3,0,0.5,0c0.4,0,0.8,0,1.1,0.1c0.1,0,0.2,0,0.3,0c0,0,0-0.1,0-0.1
			c-0.4,0-0.7-0.1-1.1-0.1c-0.5,0-1,0-1.5,0c0,0-0.1,0-0.1,0c-0.1-0.3-0.3-0.2-0.5-0.2c-0.1,0-0.2,0-0.2-0.1c0,0,0-0.1,0-0.1
			c0.3,0,0.7,0.1,1,0.1c0,0,0-0.1,0-0.1c-0.4,0-0.8-0.1-1.1-0.1c-0.4,0-0.8,0-1.2,0c-0.3,0-0.6,0-0.8,0c-0.1,0-0.2,0-0.3,0
			c-0.3-0.2-0.6-0.1-0.8-0.1C180.2,91.1,180.3,91.2,180.4,91.4z M206.2,95.7c0,0,0.1,0.1,0.1,0.1c1,0.1,2,0.3,2.9,0.3
			c2.8,0.2,5.7,0,8.5-0.4c0,0,0.1-0.1,0.1-0.1c-1.9,0.1-3.9,0.3-5.8,0.4C210.1,96.2,208.1,96,206.2,95.7z M213,95.3
			C213,95.2,213,95.2,213,95.3c-0.1,0-0.1,0-0.2,0c-2.3,0.1-4.6,0-6.9-0.3c-0.2,0-0.4-0.1-0.5-0.2c0.1,0.1,0.1,0.2,0.3,0.2
			c0.5,0.1,1,0.2,1.6,0.2c1.7,0.2,3.4,0.2,5.2,0.1C212.6,95.3,212.8,95.3,213,95.3z M185.4,93.7c0.8-0.1,1.7-0.1,2.5-0.2
			c0,0,0-0.1,0-0.1c-0.1,0-0.2,0-0.3,0c-0.3,0-0.6,0-1,0c-0.2,0-0.4-0.1-0.5-0.3c-0.1-0.2-0.2-0.2-0.4-0.1c-0.1,0.1-0.2,0.1-0.2,0.1
			C185.4,93.4,185.4,93.6,185.4,93.7z M213.7,95.3c0.7-0.1,1.4-0.1,2-0.2c1-0.1,2-0.3,3-0.2c0.1,0,0.1-0.1,0.2-0.1c0,0,0-0.1,0-0.1
			C217.1,94.8,215.4,95.1,213.7,95.3z M205.2,92.5c-0.3-0.2-2.8-0.2-3.4,0C202.9,92.5,204,92.5,205.2,92.5z M204.3,92.8
			c0,0,0-0.1,0-0.1c-1.1-0.1-2.2,0-3.3,0c1,0.1,2,0.1,3,0.2C204.1,92.8,204.2,92.8,204.3,92.8z M190.4,93.3
			C190.4,93.2,190.4,93.2,190.4,93.3c-0.9,0-1.7-0.3-2.6,0.1C188.7,93.3,189.6,93.3,190.4,93.3z M179.5,91.7c0.2,0,0.3,0.1,0.4,0
			c0.1,0,0.3-0.1,0.3-0.2c0-0.1,0-0.2-0.1-0.3c-0.1,0-0.2,0-0.3,0.1C179.7,91.3,179.6,91.5,179.5,91.7z"/>
		<path class="st4" d="M205.1,94.1c0.3,0,0.7,0,1,0c1.3,0,2.6,0.1,4,0.1c0.1,0,0.1,0,0.2-0.1c-0.7-0.1-1.3-0.1-2-0.1
			c-0.7,0-1.4,0-2-0.1c0.9-0.2,1.8,0.1,2.7-0.1c-1.2,0-2.3-0.3-3.5,0c0,0,0-0.1,0-0.1c0.1,0,0.1-0.1,0.2-0.1
			c0.3-0.1,0.4-0.3,0.4-0.6c0-0.1,0-0.2,0-0.3c0.1-0.3,0-0.5-0.3-0.6c-0.2-0.1-0.4-0.1-0.5-0.1c-0.1,0-0.2,0-0.4,0c0,0,0-0.1,0-0.1
			c0.3,0,0.5,0,0.8-0.1c0.4-0.1,0.4,0.4,0.7,0.5c-0.1-0.1-0.1-0.2-0.2-0.3c0.2,0,0.3,0,0.5,0c0.1,0,0.3,0,0.4,0c0,0,0-0.1,0-0.1
			c-0.3,0-0.7,0-1,0c0,0,0-0.1,0-0.1c0.3,0,0.5,0,0.8,0c0,0,0-0.1,0-0.1c-0.4,0-0.8,0-1.2,0c0,0,0-0.1,0-0.1c0.3,0,0.6-0.1,0.9-0.1
			c0,0,0-0.1,0-0.1c-0.4,0-0.7,0-1.1,0c0.1-0.1,0.1-0.1,0.8-0.1c0.3,0,0.5,0,0.8-0.1c0,0,0-0.1,0-0.1c-0.5,0-1,0-1.5,0.1
			c0,0,0-0.1,0-0.1c0.5-0.1,1,0,1.5-0.1c0,0,0-0.1,0-0.1c-0.4,0-0.9,0.1-1.3,0.1c0,0,0-0.1,0-0.1c0.4,0,0.9-0.1,1.3-0.1
			c0,0,0-0.1,0-0.1c-0.4,0-0.7,0-1.1,0.1c0.1-0.1,0.1-0.1,0.8-0.2c0.3,0,0.5,0,0.8-0.1c-0.4-0.2-0.9,0.1-1.3-0.1
			c0.7-0.1,1.5-0.1,2.2-0.2c0,0,0-0.1,0-0.1c-0.7,0-1.3,0.1-2,0.2c0,0,0,0,0-0.1c0.4,0,0.7-0.1,1.1-0.1c0,0,0-0.1,0-0.1
			c-0.3,0-0.6,0-0.9,0.1c0,0,0-0.1,0-0.1c0.5-0.1,1.1-0.1,1.7-0.2c-0.2,0-0.3,0-0.5,0c0,0,0,0,0,0c0.2-0.1,0.5-0.1,0.7-0.2
			c0,0,0-0.1,0-0.1c-0.4,0-0.9,0.1-1.3,0.1c0,0,0-0.1,0-0.1c0.9-0.2,1.8-0.1,2.7-0.3c0,0,0-0.1,0-0.1c-0.7,0.1-1.5,0.2-2.2,0.3
			c0,0,0-0.1,0-0.1c0.1,0,0.2-0.1,0.3-0.1c0.5,0,1-0.1,1.5-0.1c0.2,0,0.3,0,0.5-0.1c0.7-0.2,1.5-0.1,2.2-0.2c0.3,0,0.6-0.1,0.9-0.1
			c0.1,0,0.3,0,0.4,0.1c-0.5,0.2-1-0.1-1.4,0.2c0,0,0,0.1,0,0.1c0.4,0,0.7,0,1.1-0.1c0.3,0,0.7,0,1.1-0.1c0,0.1,0,0.2,0,0.2
			c0.8,0,1.5,0.1,2.3,0.1c-0.9,0.2-1.9-0.1-2.8,0.1c0.3,0,0.5,0,0.8,0c0.3,0,0.6,0,0.8,0c0.3,0,0.6,0,0.8,0c0.3,0,0.5-0.1,0.8,0.1
			c0,0,0,0.1,0,0.1c-0.8,0-1.5-0.1-2.3-0.1c0,0,0,0.1,0,0.1c0.1,0,0.1,0.1,0.2,0.1c0.8,0,1.6,0,2.3,0.1c0.1,0,0.2,0.1,0.4,0.1
			c0,0,0,0.1,0,0.1c-0.4,0-0.8,0-1.1,0c0,0,0,0.1,0,0.1c0.5,0,1,0.1,1.6,0.1c0,0,0,0.1,0,0.1c-0.4,0-0.8,0-1.2,0c0,0,0,0.1,0,0.1
			c0.5,0,1,0,1.5,0c0,0,0,0.1,0,0.1c-0.3,0.1-0.6,0-0.9,0c-0.3,0-0.6,0-0.9,0c0,0,0,0.1,0,0.1c0.1,0,0.1,0,0.2,0c0.6,0,1.2,0,1.8,0
			c0.1,0,0.2,0.1,0.3,0.1c0,0,0,0.1,0,0.1c-0.4,0-0.8,0-1.2,0c0,0,0,0.1,0,0.1c0.5,0,1,0,1.5,0c0,0,0,0.1,0,0.1
			c-0.3,0.2-0.7,0-1,0.1c0.3,0.1,0.6,0.2,1.1,0.1c0.1,0,0.2-0.1,0.3,0.1c-0.2,0-0.3,0-0.5,0c0,0.1,0,0.2,0,0.4c0.3,0,0.6,0,0.8,0
			c0,0,0,0.1,0,0.1c-0.3,0-0.6,0-0.8,0c0,0,0,0.1,0,0.1c0.3,0.1,0.6,0,1,0c-0.3,0.3-0.7,0-1,0.2c0.4,0.1,0.8,0.1,1.2,0
			c-0.5,0.2-0.9,0-1.4,0.2c0.3,0.1,0.5,0.1,0.8,0.1c0.3,0,0.5,0,0.8,0c-0.5,0.2-1,0.1-1.5,0.2c0.2,0.1,0.5,0.1,0.7,0
			c0.2,0,0.5,0,0.8,0c0,0,0,0.1,0,0.1c-0.6,0-1.2,0.1-1.8,0.1c0,0,0,0.1,0,0.1c0.6,0.1,1.2-0.1,1.8,0c-0.4,0.2-0.8,0.1-1.2,0.2
			c-0.4,0-0.8,0-1.3,0.1c0.2,0.2,0.4,0.2,1.3,0.1c0.4,0,0.9-0.1,1.3-0.1c0,0.2-0.1,0.2-0.2,0.2c-0.8,0-1.6,0.1-2.5,0.1
			c-0.1,0-0.2,0-0.2,0c0,0,0,0.1,0,0.1c0.1,0,0.2,0,0.2,0c0.7,0,1.4,0,2.1-0.1c0.2,0,0.3,0,0.5,0c0,0,0,0.1,0,0.1
			c-1.3,0.1-2.6,0.1-3.9,0.2c0,0,0,0.1,0,0.1c1.3,0,2.6-0.2,3.9-0.1c0,0,0,0,0,0.1c-0.1,0-0.1,0.1-0.2,0.1c-1.6-0.1-3.3,0.2-4.9,0.2
			c-0.2,0-0.4,0-0.5,0c-0.1,0-0.1,0-0.2,0.1c0.9,0.1,1.8-0.1,2.8-0.1c0.9,0,1.8-0.2,2.8-0.1c-1.5,0.1-3.1,0.3-4.6,0.4
			c-1.6,0.1-3.1,0.1-4.7,0.1c-1.6,0-3.1,0-4.7,0c0.1,0,0.3,0.1,0.4,0.1c2.4,0.2,4.9,0.1,7.3,0.1c0.8,0,1.7-0.1,2.5-0.2
			c1.1-0.1,2.2-0.2,3.3-0.2c0.1,0,0.3,0,0.4,0c0,0,0,0.1,0,0.1c-0.1,0-0.1,0-0.2,0c-1.6,0.1-3.3,0.3-4.9,0.4
			c-2.6,0.2-5.2,0.2-7.7-0.1c-0.4,0-0.7,0-1.1-0.1c-0.1,0-0.2-0.1-0.3-0.2C205.1,94.2,205.1,94.2,205.1,94.1z M209.4,89.7
			c0.2-0.1,0.4-0.2,0.6-0.3c-0.1,0-0.2-0.1-0.3-0.1c0.1-0.1,0.2-0.1,0.3-0.1c0,0,0,0,0-0.1c-0.2,0-0.4,0.1-0.6,0.1c0,0,0,0.1,0,0.1
			c0.1,0,0.2,0,0.3,0c0,0,0,0,0,0.1c-0.2,0-0.5,0.1-0.8,0.1C209.1,89.6,209.4,89.4,209.4,89.7z"/>
		<path class="st4" d="M186.8,92.7c0.2-0.1,0.5,0,0.8-0.1c0.3,0,0.5,0,0.8,0c0.3,0,0.5,0,0.8,0c-0.2-0.1-0.2-0.1-0.7-0.1
			c-0.2,0-0.5,0-0.7,0c-0.3,0-0.5,0-0.8,0c0.6-0.2,1.3,0,1.9-0.1c0,0,0-0.1,0-0.1c-0.5,0-1.1-0.1-1.6,0c-0.5,0.1-1.1-0.1-1.6,0
			c0.2,0,0.4,0.1,0.6,0.1c0,0,0,0,0,0.1c-0.3,0-0.5,0-0.8,0c-0.1-0.4-0.1-0.4-0.9-0.5c0.4-0.2,0.9-0.1,1.2-0.1c0.4,0.1,0.8,0,1.3,0
			c0.3,0,0.7,0,1,0.1c-0.8,0.2-1.6-0.1-2.4,0.1c0.2,0,0.5,0.1,0.7,0.1c0.7,0,1.3-0.1,2,0c0.6,0,1.2,0,1.8,0.3c0.1,0,0.2,0,0.3,0
			c0.3,0,0.6,0,0.9,0c1.8,0,3.5,0.1,5.3,0.1c1.2,0,2.4,0,3.7,0.1c0.1,0,0.2,0,0.3,0.1c-1.5,0-3.1,0-4.6,0c0,0,0,0,0,0.1
			c0.1,0,0.2,0,0.3,0c1.3,0,2.5,0,3.8,0c0.4,0,0.8,0,1.1,0c0,0,0,0.1,0,0.1c-0.3,0-0.5,0-0.8,0c-1.4,0-2.7,0-4.1,0
			c-0.4,0-0.8,0.2-1.2,0.3c-0.1,0-0.1,0-0.2,0c-0.7-0.2-1.4-0.1-2,0c-0.1,0-0.3,0-0.4,0c-0.2,0-0.3-0.1-0.5-0.1c0,0,0,0.1-0.1,0.2
			c-0.2,0-0.4,0-0.6,0c0-0.1,0-0.1,0-0.3c-0.1,0.1-0.1,0.2-0.2,0.2c-0.2,0-0.3-0.1-0.5-0.1c-0.6,0-1.3,0-1.9,0
			c-0.4,0-0.8,0.1-1.1,0.1c0.1-0.2,0.1-0.2,0.4-0.2c0.2,0,0.5,0,0.7,0c0,0,0-0.1,0-0.1c-0.3,0-0.7,0-1,0
			C187.5,92.7,187.1,92.9,186.8,92.7z"/>
		<path class="st4" d="M206.6,96.1c0.3,0,0.5,0,0.8,0c1.9,0.2,3.8,0.4,5.6,0.2c1.4-0.1,2.8-0.3,4.2-0.4c0.1,0,0.1,0,0.3,0
			c-0.1,0-0.1,0.1-0.2,0.1c-1,0.1-2.1,0.2-3.1,0.3c-1.3,0.1-2.6,0.2-3.9,0c-1-0.1-1.9-0.2-2.9-0.2c-0.1,0-0.3,0-0.4,0
			c0.8,0.2,1.6,0.3,2.5,0.3c0.8,0.1,1.7,0.1,2.5,0.1c0.8,0,1.7-0.1,2.5-0.1c0.8-0.1,1.6-0.2,2.5-0.2c-0.1,0-0.2,0.1-0.3,0.1
			c-1.6,0.2-3.2,0.4-4.8,0.3c-1.4,0-2.8-0.2-4.1-0.1C207.2,96.6,206.9,96.4,206.6,96.1z"/>
		<path class="st4" d="M213.8,97.3c-0.5,0.1-1,0.2-1.5,0.1c-0.3-0.1-0.7-0.1-1-0.1c-0.2,0-0.3,0-0.5,0c-0.3,0-0.6-0.1-0.8,0.1
			c0,0-0.1,0-0.1,0c-0.6,0-1.1-0.2-1.6-0.5c0.8-0.1,1.7,0.1,2.5-0.1c0,0,0,0-0.1,0c-0.8,0-1.5-0.1-2.3-0.1c-0.3,0-0.5,0.1-0.8-0.1
			c0,0,0-0.1-0.1-0.1c2.9,0.2,5.8,0.4,8.7-0.1c0,0,0,0.1,0,0.1c-0.2,0-0.4,0-0.7,0.1c-1.4,0.3-2.8,0.2-4.2,0.2c-0.1,0-0.1,0-0.2,0.1
			c1.4,0.1,2.8,0,4.2-0.1c-0.4,0.2-0.8,0.3-1.2,0.3c-0.1,0-0.3,0-0.4,0c-1.3,0-2.7,0-4,0c-0.3,0-0.6,0-0.9,0
			c0.8,0.1,1.6,0.1,2.5,0.1C212.1,97.3,212.9,97.3,213.8,97.3C213.8,97.3,213.8,97.3,213.8,97.3z"/>
		<path class="st4" d="M181.8,91.4c0.3,0,0.4,0,0.6,0c0.2,0,0.4,0.1,0.6,0.3c0,0.1,0.1,0.1,0.2,0.2c0.3,0.1,0.4,0.4,0.5,0.7
			c0.2,0.5-0.1,1.2-0.8,1.3c-0.3,0-0.6,0.1-0.9,0.2c-0.4,0-0.7,0.1-1.1,0.1c-0.1,0-0.2-0.1-0.2,0.1c-0.1,0-0.3,0-0.3-0.1
			c-0.4-0.2-0.8-0.6-0.9-1c-0.1-0.2,0.1-0.5,0.2-0.7c0.3-0.6,0.8-0.8,1.4-0.9C181.2,91.5,181.5,91.5,181.8,91.4z M181.6,91.7
			C181.6,91.7,181.6,91.7,181.6,91.7c-0.1,0.1-0.3,0-0.4,0.1c-0.6,0.1-1.2,0.2-1.5,0.8c-0.2,0.5-0.1,1,0.4,1.2
			c0.4,0.2,0.8,0.3,1.3,0.2c0.4-0.1,0.8-0.1,1.2-0.2c0.4-0.1,0.7-0.3,0.8-0.7c0.2-0.5-0.1-1-0.6-1.2C182.4,91.8,182,91.8,181.6,91.7
			z"/>
		<path class="st4" d="M207.1,94.8c4,0.2,8-0.1,12-0.4c0,0,0,0.1,0,0.1c0,0-0.1,0-0.1,0c-0.7,0.1-1.3,0.1-2,0.2
			c-1.2,0.1-2.4,0.2-3.5,0.3c-1.7,0.1-3.4,0.1-5.1,0C208,94.9,207.5,94.9,207.1,94.8z"/>
		<path class="st4" d="M218.5,95.2c-2,0.1-3.9,0.3-5.9,0.4c-1.4,0.1-2.8,0-4.1-0.1c-0.2,0-0.5-0.1-0.7-0.1c0.9,0,1.8,0.1,2.7,0.1
			c0.9,0,1.8,0,2.7-0.1c0.9,0,1.8-0.1,2.7-0.2c0.9-0.1,1.7-0.3,2.6-0.2C218.5,95.1,218.5,95.2,218.5,95.2z"/>
		<path class="st4" d="M205.9,95.5c0-0.1-0.1-0.2-0.2-0.3c0.1,0,0.1,0,0.2,0c0.4,0.4,0.8,0.3,1.3,0.4c2.3,0.3,4.6,0.4,6.9,0.2
			c1-0.1,2.1-0.2,3.1-0.2c0.2,0,0.4-0.1,0.6-0.1c0.2,0,0.3,0,0.5,0c-0.3,0.2-0.6,0.1-0.9,0.2c-0.3,0.1-0.7,0.1-1,0.2
			c-0.3,0-0.7,0.1-1,0.1c-0.3,0-0.7,0.1-1,0.1c-0.3,0-0.7,0.1-1,0.1c-0.4,0-0.7,0-1.1,0c-0.3,0-0.7,0-1,0c-0.3,0-0.7,0-1,0
			c-0.3,0-0.7,0-1-0.1c-0.3,0-0.7-0.1-1-0.1c-0.3,0-0.7-0.1-1-0.1C206.7,95.6,206.3,95.6,205.9,95.5z"/>
		<path class="st4" d="M180.4,91.4c-0.1-0.2-0.1-0.3-0.2-0.5c0.3,0,0.5-0.1,0.8,0.1c0.1,0,0.2,0,0.3,0c0.3,0,0.6,0,0.8,0
			c0.4,0,0.8,0,1.2,0c0.4,0,0.8,0.1,1.1,0.1c0,0,0,0.1,0,0.1c-0.3,0-0.7-0.1-1-0.1c0,0,0,0.1,0,0.1c0.1,0,0.2,0,0.2,0.1
			c0.2,0.1,0.4-0.1,0.5,0.2c0,0,0.1,0,0.1,0c0.5,0,1,0,1.5,0c0.4,0,0.7,0,1.1,0.1c0,0,0,0.1,0,0.1c-0.1,0-0.2,0-0.3,0
			c-0.4,0-0.8,0-1.1-0.1c-0.2,0-0.3,0-0.5,0c-0.3,0-0.7,0.1-1,0.1c-0.1,0-0.1,0-0.2-0.1c-0.1-0.1-0.2-0.1-0.3-0.2
			c-0.3-0.2-0.5-0.2-0.9-0.3C181.9,91.2,181.1,91.2,180.4,91.4z"/>
		<path class="st4" d="M206.2,95.7c1.9,0.2,3.9,0.5,5.8,0.4c1.9-0.1,3.9-0.3,5.8-0.4c0,0,0,0.1-0.1,0.1c-2.8,0.4-5.6,0.6-8.5,0.4
			c-1-0.1-2-0.2-2.9-0.3C206.3,95.9,206.2,95.8,206.2,95.7z"/>
		<path class="st4" d="M213,95.3c-0.2,0-0.4,0.1-0.7,0.1c-1.7,0-3.4,0-5.2-0.1c-0.5,0-1-0.1-1.6-0.2c-0.1,0-0.2-0.1-0.3-0.2
			c0.2,0.1,0.4,0.1,0.5,0.2c2.3,0.3,4.6,0.4,6.9,0.3C212.9,95.2,213,95.2,213,95.3C213,95.2,213,95.2,213,95.3z"/>
		<path class="st4" d="M185.4,93.7c0-0.1,0-0.3,0.1-0.4c0.1,0,0.1-0.1,0.2-0.1c0.2-0.1,0.3-0.1,0.4,0.1c0.1,0.2,0.3,0.3,0.5,0.3
			c0.3,0,0.6,0,1,0c0.1,0,0.2,0,0.3,0c0,0,0,0.1,0,0.1C187,93.6,186.2,93.7,185.4,93.7z"/>
		<path class="st4" d="M213.7,95.3c1.7-0.2,3.4-0.5,5.2-0.6c0,0,0,0.1,0,0.1c-0.1,0-0.1,0.1-0.2,0.1c-1-0.1-2,0.1-3,0.2
			C215,95.2,214.3,95.2,213.7,95.3z"/>
		<path class="st4" d="M205.2,92.5c-1.2,0-2.3,0-3.4,0C202.4,92.3,204.9,92.4,205.2,92.5z"/>
		<path class="st4" d="M204.3,92.8c-0.1,0-0.2,0-0.3,0c-1-0.1-2-0.1-3-0.2c1.1,0,2.2-0.1,3.3,0C204.3,92.7,204.3,92.7,204.3,92.8z"
			/>
		<path class="st4" d="M190.4,93.3c-0.9,0-1.7,0-2.6,0.1C188.7,93,189.6,93.2,190.4,93.3C190.4,93.2,190.4,93.2,190.4,93.3z"/>
		<path class="st4" d="M179.5,91.7c0.1-0.2,0.2-0.3,0.3-0.4c0.1-0.1,0.2-0.1,0.3-0.1c0,0.1,0.1,0.2,0.1,0.3
			c-0.1,0.1-0.2,0.2-0.3,0.2C179.7,91.7,179.6,91.7,179.5,91.7z"/>
		<path class="st3" d="M209.4,89.7c0-0.3-0.3-0.1-0.6-0.2c0.3-0.1,0.5-0.1,0.8-0.1c0,0,0,0,0-0.1c-0.1,0-0.2,0-0.3,0
			c0-0.1,0-0.1,0-0.1c0.2,0,0.4-0.1,0.6-0.1c0,0,0,0,0,0.1c-0.1,0-0.2,0.1-0.3,0.1c0.1,0,0.2,0.1,0.3,0.1
			C209.8,89.5,209.6,89.6,209.4,89.7z"/>
		<path class="st3" d="M181.6,91.7c0.4,0.1,0.8,0.1,1.2,0.3c0.5,0.2,0.8,0.7,0.6,1.2c-0.1,0.4-0.5,0.6-0.8,0.7
			c-0.4,0.1-0.8,0.1-1.2,0.2c-0.5,0.1-0.9-0.1-1.3-0.2c-0.5-0.2-0.6-0.7-0.4-1.2c0.3-0.7,0.9-0.7,1.5-0.8
			C181.4,91.7,181.5,91.7,181.6,91.7C181.6,91.7,181.6,91.7,181.6,91.7z M179.9,92.8C179.9,92.8,179.9,92.9,179.9,92.8
			c0.7,0,1.5,0,2.2-0.1c0,0,0,0.1,0,0.1c-0.5,0-1,0.1-1.4,0.1c0,0,0,0.1,0,0.1c0.7-0.1,1.4-0.1,2-0.2c0,0,0-0.1,0.1-0.1
			c0.1,0,0.2-0.1,0.3-0.1c0,0.2,0,0.2,0,0.4c-0.8,0.1-1.6,0.1-2.4,0.2c0.8,0.2,1.6-0.1,2.4,0c0.3-0.4,0.3-0.7-0.1-1
			c-0.3-0.2-0.6-0.3-1-0.3c-0.6-0.1-1.2,0-1.7,0.4c0.3,0,0.6,0,0.9,0c0,0,0,0,0,0c-0.4,0-0.8,0.1-1.2,0.1c0,0,0,0.1,0,0.1
			c0.6,0.1,1.2-0.2,1.8,0C181.2,92.7,180.5,92.7,179.9,92.8z M182.8,93.5c0,0,0-0.1,0-0.1c-0.9,0-1.7,0.1-2.6,0.1c0,0,0,0.1,0,0.1
			c0.1,0,0.2,0,0.2,0c0.4,0,0.8-0.1,1.3-0.1c0.2,0,0.4,0,0.6,0C182.5,93.5,182.7,93.5,182.8,93.5z"/>
		<path class="st4" d="M179.9,92.8c0.6-0.1,1.2-0.1,1.8-0.2c-0.6-0.2-1.2,0.1-1.8,0c0,0,0-0.1,0-0.1c0.4,0,0.8-0.1,1.2-0.1
			c0,0,0,0,0,0c-0.3,0-0.6,0-0.9,0c0.5-0.4,1.1-0.5,1.7-0.4c0.4,0,0.7,0.1,1,0.3c0.4,0.3,0.4,0.6,0.1,1c-0.8-0.1-1.6,0.2-2.4,0
			c0.8-0.1,1.6-0.1,2.4-0.2c0-0.1,0-0.2,0-0.4c-0.1,0-0.2,0.1-0.3,0.1c0,0,0,0.1-0.1,0.1c-0.7,0.1-1.4,0.1-2,0.2c0,0,0-0.1,0-0.1
			c0.5,0,1-0.1,1.4-0.1c0,0,0-0.1,0-0.1C181.4,92.8,180.7,92.8,179.9,92.8C179.9,92.9,179.9,92.8,179.9,92.8z"/>
		<path class="st4" d="M182.8,93.5c-0.2,0-0.3,0-0.5,0c-0.2,0-0.4,0-0.6,0c-0.4,0-0.8,0.1-1.3,0.1c-0.1,0-0.2,0-0.2,0
			c0,0,0-0.1,0-0.1c0.9,0,1.7-0.1,2.6-0.1C182.8,93.4,182.8,93.4,182.8,93.5z"/>
	</g>
</g>
<g id="text">
	<rect x="58.2" y="140.7" class="st17" width="279.5" height="394.3"/>
	<text transform="matrix(1 0 0 1 165.1006 147.3042)"><tspan x="0" y="0" class="st18 st19">CRÈME BRÛLÉE</tspan><tspan x="-63.2" y="10.8" class="st18 st19">custard base topped with a layer of hard caramel</tspan><tspan x="30.3" y="21.6" class="st18 st19">8</tspan><tspan x="-22.6" y="43.2" class="st18 st19">TINY MOLTEN LAVA CAKE</tspan><tspan x="-101.7" y="54" class="st18 st19">small flour-less chocolate cake with a molten core, served with fresh </tspan><tspan x="19.3" y="64.8" class="st18 st19">berries</tspan><tspan x="30.3" y="75.6" class="st18 st19">7</tspan><tspan x="1.1" y="97.2" class="st18 st19">PANNA COTTA</tspan><tspan x="-67" y="108" class="st18 st19">a softly set pudding, served with limoncello liqueur</tspan><tspan x="30.3" y="118.8" class="st18 st19">8</tspan><tspan x="-37" y="140.4" class="st18 st19">CINNAMON CRUMBLE APPLE PIE</tspan><tspan x="-95.4" y="151.2" class="st18 st19">fresh apples on a buttery crust with a  cinnamon crumble topping</tspan><tspan x="30.3" y="162" class="st18 st19">8</tspan><tspan x="4.6" y="184.8" class="st18 st20">APERITIVOS</tspan><tspan x="-16.7" y="206.4" class="st18 st19">RAMAZOTTI AMARO...9</tspan><tspan x="-6.6" y="217.2" class="st18 st19">CAMPARI SODA...9</tspan><tspan x="10" y="228" class="st18 st19">APEROL...8</tspan><tspan x="-1.5" y="238.8" class="st18 st19">LIMONCELLO...8</tspan><tspan x="14.1" y="261.6" class="st18 st20">COFFEE</tspan><tspan x="5.5" y="283.2" class="st18 st19">ESPRESSO...3</tspan><tspan x="-8.3" y="294" class="st18 st19">CAPPUCCINO...3.75</tspan><tspan x="13.8" y="304.8" class="st18 st19">LATTE...4</tspan><tspan x="18.8" y="315.6" class="st18 st19">TEA...3</tspan></text>
	<text transform="matrix(1 0 0 1 115.3867 47.8521)"><tspan x="0" y="0" class="st18 st21">THE BREUKELEN</tspan><tspan x="57.3" y="28.8" class="st18 st22">DESERTS</tspan></text>
</g>
</svg>
