<?xml version="1.0" encoding="utf-8"?>
<!-- Generator: Adobe Illustrator 21.1.0, SVG Export Plug-In . SVG Version: 6.00 Build 0)  -->
<svg version="1.1" xmlns="http://www.w3.org/2000/svg" xmlns:xlink="http://www.w3.org/1999/xlink" x="0px" y="0px"
	 viewBox="0 0 252 144" style="enable-background:new 0 0 252 144;" xml:space="preserve">
<style type="text/css">
	.st0{display:none;}
	.st1{display:inline;fill:#444545;}
	.st2{display:inline;fill:#757576;}
	.st3{fill-rule:evenodd;clip-rule:evenodd;}
	.st4{fill-rule:evenodd;clip-rule:evenodd;fill:none;}
	.st5{clip-path:url(#SVGID_2_);}
	.st6{clip-path:url(#SVGID_4_);fill:#232323;}
	.st7{clip-path:url(#SVGID_6_);}
	.st8{clip-path:url(#SVGID_8_);fill:#232323;}
	.st9{clip-path:url(#SVGID_10_);}
	.st10{clip-path:url(#SVGID_12_);fill:#232323;}
	.st11{clip-path:url(#SVGID_14_);}
	.st12{clip-path:url(#SVGID_16_);fill:#232323;}
	.st13{clip-path:url(#SVGID_18_);}
	.st14{clip-path:url(#SVGID_20_);fill:#232323;}
	.st15{fill:none;stroke:#000000;stroke-width:0.5;stroke-miterlimit:10;}
	.st16{fill:none;stroke:#000000;stroke-width:0.5;stroke-miterlimit:10;stroke-dasharray:0.5026,0.5026;}
	.st17{fill:none;stroke:#000000;stroke-miterlimit:10;}
	.st18{fill:none;stroke:#000000;stroke-miterlimit:10;stroke-dasharray:1.0034,1.0034;}
	.st19{font-family:'Lato-Regular';}
	.st20{font-size:4.1086px;}
	.st21{font-family:'Lato-Thin';}
	.st22{font-size:9px;}
	.st23{font-family:'Lato-Light';}
	.st24{font-size:6px;}
	.st25{font-size:5.752px;}
	.st26{fill:none;stroke:#000000;stroke-width:0.25;stroke-miterlimit:10;}
	.st27{fill:#070808;}
</style>
<g id="backround" class="st0">
	<rect class="st2" width="252" height="144"/>
</g>
<g id="graphics">
	<g>
		<g>
			<defs>
				<rect id="SVGID_13_" x="144.5" y="17.1" width="85.8" height="111"/>
			</defs>
			<clipPath id="SVGID_2_">
				<use xlink:href="#SVGID_13_"  style="overflow:visible;"/>
			</clipPath>
			<g class="st5">
				<defs>
					<rect id="SVGID_15_" x="144.5" y="17.1" width="85.8" height="111"/>
				</defs>
				<clipPath id="SVGID_4_">
					<use xlink:href="#SVGID_15_"  style="overflow:visible;"/>
				</clipPath>
				<path class="st6" d="M182.6,69.4c-2.1,0-4.1-0.3-6.1-0.8c-4.1-1.1,0-3.6,2-4.3c1.7-0.6,3.9-1,6.2-1.1c0,0,2.1,0,2.1,0
					c1.3,0,2.7,0.2,4.1,0.4c0.1,0,0.3,0,0.3,0.1l0.2-0.9c-0.1,0-0.4-0.1-0.5-0.1c-1.2-0.3-2.5-0.5-3.8-0.7l-2.1-0.2
					c-4.3-0.2-8.8,0.4-11.8,3.1c-2.8,2.5,2.8,4.8,4.4,5.3c1.5,0.4,3,0.7,4.6,0.8c0,0,0.2,0,0.2,0l0.4-1.5
					C182.9,69.4,182.7,69.4,182.6,69.4"/>
				<path class="st6" d="M204.6,71c-0.7-1.7-2-3.2-3.6-4.3c3.2-2.3,5.3-5.6,2.9-9.4c-3.1-4.9-10.4-6.9-15.7-8.9
					c-0.3-3.9-1.3-7.8-3.5-10.8c-1.2-1.5-2.8-2.2-4.7-2.2c-2.9,0-2.5,3.3-1.9,5.2c1.3,4.1,4.5,6.3,8,8c0,0.4,0.1,0.7,0.1,1.1
					c0.1,3.8-0.3,7.6-1,11.5c0,0,0,0.3,0,0.3l2,0.2c0-0.1,0.1-0.3,0.1-0.4c0.1-0.8,0.3-1.5,0.4-2.3c0.5-2.9,0.8-6.1,0.6-9.4
					c4.4,1.8,15.1,4.2,14.6,10.4c-0.2,2.4-1.6,4.2-3.6,5.6c-1.7-0.9-3.6-1.6-5.3-2.2c0.3-1.3,0.5-2.7,0.8-4c0.1-0.7-2-1.8-2.1-1
					c-0.2,1.1-0.4,2.3-0.7,3.4h0l-0.1,0.4c0,0.2-1,5-1.4,6.7c-1.7,0.3-3.3,0.5-4.5,0.6c-0.2,0-0.4,0-0.6,0c0.5-1.9,1-3.8,1.4-5.7
					c0,0,0.1-0.3,0.1-0.3l-2.1,0c0,0.1-0.1,0.2-0.1,0.3c-0.4,1.9-0.9,3.8-1.5,5.7c0,0-0.5,1.5-0.5,1.5c-1.4,4.4-3,8.8-4.6,12.9
					c-0.3,0.7,1.8,1.9,2,1.3c1.8-4.6,3.4-9.3,4.8-14.1c1.7,0,3.4-0.1,5.1-0.4c-1.4,6-3,11.9-5.1,17.7c-5.3,2.2-11.8,5.1-12.1,11.3
					c-0.1,1.7,2.1,3.1,3.7,3.1c4.5-0.1,6.4-3.5,8.2-7.2c0.9-1.9,1.6-3.8,2.3-5.7C196.5,85.9,208.6,81.4,204.6,71 M179.7,38.6
					c0.1-1.8,2.6-2.2,3.6-0.7c0.8,1.1,1.2,2.6,1.6,3.9c0.6,1.8,0.9,3.7,1,5.7C182.5,45.8,179.5,42.9,179.7,38.6 M183.7,91.5
					c-1.3,3.3-2.9,7.9-6.4,9.4c-5.1,2.1,0-5.9,1.6-7c1.3-0.9,2.9-1.8,4.8-2.6C183.8,91.3,183.8,91.4,183.7,91.5 M192.9,68.2
					c0.3-1.3,0.5-2.7,0.8-4c1.7,0.5,3.2,1.1,4.6,1.9C196.7,67,194.8,67.7,192.9,68.2 M188,87.1c1.9-5.5,3.3-11.2,4.5-16.9
					c0.8-0.2,1.6-0.4,2.4-0.6c1.6-0.4,3.5-1.2,5.2-2.3c1,0.8,1.9,1.8,2.5,2.9C207.2,79,194.1,84.5,188,87.1"/>
				<path class="st6" d="M209.6,47.9c-5.8-5.8-13.4-8.9-21.6-8.9c-8.2,0-15.8,3.2-21.6,8.9c-5.8,5.8-9,13.4-9,21.6
					c0,8.2,3.2,15.8,9,21.6c5.8,5.8,13.4,8.9,21.6,8.9c8.2,0,15.8-3.2,21.6-8.9c5.8-5.8,9-13.4,9-21.6
					C218.6,61.3,215.4,53.7,209.6,47.9 M188.4,98.3c-15.9,0-28.8-12.9-28.8-28.8s12.9-28.8,28.8-28.8c15.9,0,28.8,12.9,28.8,28.8
					S204.3,98.3,188.4,98.3"/>
			</g>
		</g>
	</g>
	<g>
		<g>
			<line class="st15" x1="126" y1="38" x2="126" y2="38.3"/>
			<line class="st16" x1="126" y1="38.8" x2="126" y2="117"/>
			<line class="st15" x1="126" y1="117.2" x2="126" y2="117.5"/>
		</g>
	</g>
</g>
<g id="text">
	<text transform="matrix(1 0 0 1 24.1523 82.541)"><tspan x="0" y="0" class="st19 st20">BREUKELEN COFFEE HOUSE</tspan><tspan x="0" y="4.9" class="st21 st20">A        764 Franklin Ave, Brooklyn, NY 11238</tspan><tspan x="0" y="9.9" class="st21 st20">T        +1 (718) 789-7070</tspan></text>
	<text transform="matrix(1 0 0 1 24.1523 104.2178)"><tspan x="0" y="0" class="st19 st20">THE BREUKELEN</tspan><tspan x="0" y="4.9" class="st21 st20">A       710 Nostrand Ave, Brooklyn, NY 11216</tspan><tspan x="0" y="9.9" class="st21 st20">T       +1 (347) 404-7006</tspan></text>
	<text transform="matrix(1.0039 0 0 1 24.1523 40.208)"><tspan x="0" y="0" class="st19 st22">JASON C MORGAN</tspan><tspan x="0" y="7.2" class="st23 st24">OWNER/ MANAGING PARTNER</tspan><tspan x="0" y="21.3" class="st21 st25">T     +1 (212) 960-8681</tspan><tspan x="0" y="28.2" class="st21 st25">E     jasoncmorgan1@me.com</tspan></text>
</g>
</svg>
