<?xml version="1.0" encoding="utf-8"?>
<!-- Generator: Adobe Illustrator 21.1.0, SVG Export Plug-In . SVG Version: 6.00 Build 0)  -->
<svg version="1.1" xmlns="http://www.w3.org/2000/svg" xmlns:xlink="http://www.w3.org/1999/xlink" x="0px" y="0px"
	 viewBox="0 0 612 792" style="enable-background:new 0 0 612 792;" xml:space="preserve">
<style type="text/css">
	.st0{display:none;}
	.st1{display:inline;fill:#444545;}
	.st2{display:inline;fill:#757576;}
	.st3{fill-rule:evenodd;clip-rule:evenodd;}
	.st4{fill-rule:evenodd;clip-rule:evenodd;fill:none;}
	.st5{clip-path:url(#SVGID_2_);}
	.st6{clip-path:url(#SVGID_4_);fill:#232323;}
	.st7{clip-path:url(#SVGID_6_);}
	.st8{clip-path:url(#SVGID_8_);fill:#232323;}
	.st9{clip-path:url(#SVGID_10_);}
	.st10{clip-path:url(#SVGID_12_);fill:#232323;}
	.st11{clip-path:url(#SVGID_14_);}
	.st12{clip-path:url(#SVGID_16_);fill:#232323;}
	.st13{clip-path:url(#SVGID_18_);}
	.st14{clip-path:url(#SVGID_20_);fill:#232323;}
	.st15{fill:none;stroke:#000000;stroke-width:0.5;stroke-miterlimit:10;}
	.st16{fill:none;stroke:#000000;stroke-width:0.5;stroke-miterlimit:10;stroke-dasharray:0.5026,0.5026;}
	.st17{font-family:'Lato-Regular';}
	.st18{font-size:21px;}
	.st19{font-size:11px;}
	.st20{fill:none;}
	.st21{font-size:8px;}
	.st22{font-size:9px;}
	.st23{font-size:10px;}
	.st24{font-size:7px;}
	.st25{fill:none;stroke:#000000;stroke-miterlimit:10;}
	.st26{fill:none;stroke:#000000;stroke-miterlimit:10;stroke-dasharray:1.0034,1.0034;}
	.st27{letter-spacing:31.5;}
	.st28{fill:none;stroke:#000000;stroke-width:0.25;stroke-miterlimit:10;}
	.st29{fill:none;stroke:#070808;stroke-width:2.5;stroke-linecap:round;stroke-linejoin:round;}
	.st30{fill:none;stroke:#070808;stroke-width:2.5;stroke-linecap:round;}
	.st31{fill:#070808;}
	.st32{font-family:'Lato-Thin';}
</style>
<g id="backround" class="st0">
	<rect class="st1" width="612" height="792"/>
</g>
<g id="graphics">
	<g>
		<g>
			<path class="st3" d="M302.3,112.8c0.2-0.4,0.5-0.6,1-0.7c0.2,0,0.3-0.2,0.4-0.3c0.6-0.9,1.5-1.3,2.6-1.4c1.3,0,2.6-0.1,4-0.1
				c3.7,0,7.3,0.1,11,0.1c2.3,0,4.7,0.1,7,0.1c0.9,0,1.7,0,2.6-0.1c1,0,2,0,3,0.5c0.7,0.3,1.3,0.8,1.6,1.6c0.2,0.4,0.4,0.8,0.3,1.3
				c-0.2,1-0.7,1.8-1.7,2.2c-0.7,0.3-1.4,0.3-2.2,0.2c-0.8-0.1-1.5-0.1-2.3-0.1c-6.8,0.1-13.6,0.1-20.4,0.2c-1.6,0-3.3,0-4.9-0.1
				c-0.2,0-0.5-0.1-0.7-0.2c-0.1,0-0.2-0.1-0.2-0.1c-0.4,0.1-0.7-0.1-1-0.4c-0.5,0.2-1,0.4-1.5,0.1c0,0,0,0,0,0
				c-0.6,0.2-1.2-0.2-1.8,0.1c-0.1,0-0.2,0-0.2,0c-1.1,0-2.2,0-3.3,0c-0.7-0.1-1.5,0-2.2,0c-1.1,0.1-2.1,0.2-3.2,0.4
				c-0.3,0-0.6,0.2-0.8,0.3c-0.9,0.3-1.9,0.5-2.8,0.7c-0.5,0.1-1,0.3-1.5,0.2c-0.8-0.1-1.6,0.2-2.4,0.2c-1,0-2,0.1-2.9-0.3
				c-0.6-0.2-1.2-0.5-1.7-0.8c-0.7-0.4-0.9-1.2-1-1.9c-0.1-0.8,0.2-1.5,0.6-2.2c0.2-0.3,0.5-0.4,0.8-0.6c0.5-0.2,1-0.5,1.5-0.6
				c1.4-0.3,2.8-0.3,4.3,0c0.8,0.1,1.5,0.2,2.3,0.3c0.7,0.1,1.3,0.2,2,0.4c1.7,0.4,3.3,0.5,5,0.4c1.6-0.1,3.1-0.1,4.7-0.2
				c0.6,0,1.2,0.1,1.8,0.4c0.3,0.2,0.7,0.1,1.1,0C301.5,112.5,301.9,112.4,302.3,112.8z M305.8,110.7
				C305.8,110.7,305.8,110.7,305.8,110.7c6,0.1,12,0.2,18,0.3c0,0,0,0.1,0,0.1c-0.1,0-0.3,0-0.4,0c-1.3,0-2.5-0.1-3.8-0.1
				c-4.6,0-9.2-0.1-13.7-0.1c-0.2,0-0.4-0.1-0.6-0.1c-0.7,0.1-1.5,1-1.5,1.7c0,1,0,2.1,0,3.2c0.2,0,0.3,0.1,0.5,0.1
				c2,0,3.9,0.1,5.9,0.1c6.7,0,13.3-0.1,20-0.2c1.1,0,2.1,0,3.2-0.1c0.7,0,1.3-0.4,1.6-1.1c-0.3,0-0.5-0.1-0.7-0.1
				c-1.6,0-3.2,0-4.7,0c-1.5,0-3,0-4.5-0.1c-0.1,0-0.2,0-0.4,0c0.4-0.1,0.7-0.1,1-0.1c2.3,0,4.6,0,6.9,0c0.8,0,1.7,0,2.6,0.1
				c0-0.2,0.1-0.4,0.2-0.6c-0.1,0-0.1-0.1-0.1-0.1c-4.6-0.1-9.2-0.2-13.7-0.2c0,0-0.1,0-0.1,0c0,0,0,0,0,0c0,0,0,0,0,0
				c4.6,0.1,9.3,0.1,13.9,0.2c0-0.6,0-0.6-0.5-0.6c-1.7,0-3.4-0.1-5-0.1c-0.1,0-0.2,0-0.4,0c0,0,0-0.1,0-0.1
				c1.9-0.1,3.8,0.2,5.8,0.1c-0.2-0.6-0.2-0.6-0.7-0.6c-0.7,0-1.5,0-2.2,0c-1.5,0-3.1-0.1-4.6-0.1c-0.1,0-0.1,0-0.2-0.1
				c0,0,0-0.1,0-0.1c0.5,0,0.9,0,1.4,0c1.5,0,2.9,0.1,4.4,0.1c0.5,0,1-0.1,1.4-0.1c0,0,0-0.1,0-0.1c-0.4-0.2-0.8,0-1.2,0
				c-0.5,0-0.9,0-1.4,0c-0.4,0-0.9,0-1.3,0c-0.4,0-0.9,0-1.3,0c-0.5,0-0.9,0-1.4,0c-0.4,0-0.8,0-1.3,0c0,0,0-0.1,0-0.1
				c2.5-0.1,4.9,0.2,7.4-0.1c-0.2-0.2-0.3-0.3-0.5-0.4c-0.6-0.2-1.2-0.3-1.8-0.4c-1-0.1-2,0-3,0c-4.4-0.1-8.7-0.1-13.1-0.2
				c-3,0-6.1,0-9.1,0C306.4,110.6,306.1,110.7,305.8,110.7z M300.2,114.3c-0.1,0-0.1,0-0.2,0c-0.1-0.2-0.2-0.3-0.2-0.5
				c0-0.2,0-0.4,0.1-0.6c0.1-0.4,0-0.5-0.4-0.7c-0.3-0.1-0.7-0.2-1-0.2c-1.2,0-2.4,0.1-3.6,0.1c0,0-0.1,0-0.2,0.1c0.9,0,1.7,0,2.6,0
				c-0.5,0.1-1,0.1-1.5,0.2c-0.5,0-0.9,0-1.4,0c-0.4,0-0.9,0.1-1.3,0c-0.5-0.1-0.8,0.1-1.2,0.1c-0.5,0-1.1,0-1.6-0.1
				c-1-0.2-2.1-0.3-3.1-0.5c-0.1,0-0.3-0.1-0.4-0.1c0,0,0-0.1,0-0.1c0.5,0.1,1,0.1,1.5,0.2c-0.5-0.2-0.9-0.3-1.4-0.4
				c-0.3-0.1-0.7,0-1-0.1c-0.4-0.1-0.7-0.2-1.1-0.2c-0.2,0-0.4,0-0.5,0.2c0.2,0.1,0.3,0.1,0.5,0.2c0.5,0.1,0.9,0.5,1.5,0.3
				c0.3-0.1,0.5,0.2,0.5,0.5c0,0.2-0.1,0.4-0.1,0.5c0,0.2,0,0.3,0,0.5c0.2-0.1,0.4-0.1,0.6-0.2c0,0.2,0,0.3,0,0.5c0,0.1,0,0.2,0,0.3
				c0.1,0.2,0.2,0.1,0.4,0.1c0.2-0.1,0.4-0.1,0.6-0.2c0.2-0.5,0.8-1,1.3-1.1c0.2,0,0.3,0.1,0.3,0.3c0,0.2-0.2,0.3-0.3,0.4
				c0,0-0.1,0-0.1-0.1c0-0.1,0.1-0.2,0.1-0.4c-0.8,0.2-0.8,0.2-0.6,0.6c0.3,0,0.5,0,0.8,0.1c0.2,0.1,0.4,0.1,0.5-0.1
				c0.1-0.2,0.3-0.3,0.5-0.2c0.3,0.1,0.7,0.3,1,0.4c0.1,0.1,0.2,0.2,0.3,0.3c-0.1,0.1-0.3,0.2-0.4,0.3c-0.2,0-0.4,0-0.6-0.1
				c0,0.1-0.1,0.3-0.1,0.4c1-0.1,2-0.2,2.9-0.3c0.9,0,1.9,0,2.8,0c0.9,0,1.9,0.1,2.8,0.1c0,0,0,0.1,0,0.2c-0.2,0-0.3,0-0.5,0
				c-2.3,0-4.6-0.2-6.8,0.1c-0.6,0.1-1.1,0-1.7,0.1c-0.7,0.1-1.5,0.3-2.2,0.5c-0.6,0.1-1.2,0.3-1.8,0.5c0,0,0,0.1-0.1,0.1
				c0.1,0,0.2,0,0.2,0c1.8-0.4,3.6-1,5.5-1.1c1.5-0.1,3.1-0.1,4.6-0.2c0.7,0,1.3,0,2,0c0.3,0,0.7-0.1,1,0.2c0,0,0.2,0,0.2,0
				c0.1-0.1,0.2-0.3,0.3-0.4c0.1,0,0.3,0.1,0.4,0.2c-0.1-0.8-0.1-1.5-0.1-2.2C300.1,113.4,300.2,113.9,300.2,114.3z M280.9,113.7
				C281,113.7,281,113.7,280.9,113.7c0,0.2-0.2,0.4-0.2,0.6c0,0.5,0.3,0.9,0.7,1.2c0.1,0.1,0.3,0.1,0.4,0.2c0.4,0.3,0.9,0.4,1.4,0.4
				c0.1,0,0.2,0,0.3,0.1c0,0,0,0.1,0,0.1c-0.4,0-0.8-0.1-1.2-0.1c0,0.1,0,0.1,0,0.2c0.2,0,0.5,0.1,0.7,0c0.6-0.1,1.3-0.1,1.8-0.4
				c0.4-0.2,0.8-0.2,1.2-0.5c0.5-0.3,0.7-0.8,0.6-1.3c0-0.6-0.4-1-1-1.3c-0.2-0.1-0.4-0.2-0.5-0.3c-0.1,0-0.1-0.1-0.2-0.1
				c-0.6,0-1.2,0-1.8,0c-0.4,0-0.9,0-1.3,0c-0.2,0.2-0.3,0.4-0.5,0.5c-0.4,0.2-0.5,0.4-0.6,0.8c0,0,0,0,0.1,0.1
				C280.8,113.8,280.9,113.8,280.9,113.7z M302,113c-0.4-0.3-0.8-0.1-1.3,0c0,0.3,0,0.6,0,0.9c0.5,0,0.9,0,1.3,0c0,0,0,0.1,0,0.1
				c-0.4,0-0.8,0-1.2,0.1c0,0,0,0.1,0,0.1c0.3,0,0.7,0,1,0c0.4,0,0.4-0.2,0.3-0.5C302.1,113.5,302.1,113.3,302,113z M284.9,112.2
				c-0.7-0.4-3.1-0.5-3.8-0.1c1.2,0,2.3-0.3,3.4,0.1c-0.8,0-1.6,0-2.4,0.1c0.8,0,1.7,0,2.5,0C284.7,112.3,284.8,112.2,284.9,112.2z
				 M303.2,112.6c-0.3,0.1-0.3,0.4-0.4,0.6c-0.1,0.8-0.1,1.7,0.2,2.5c0.1-0.1,0.2-0.2,0.2-0.3C303.2,114.4,303.2,113.5,303.2,112.6z
				 M285.7,116.7c0,0,0-0.1,0-0.1c-0.1,0-0.3-0.1-0.4,0c-1.4,0.5-2.8,0.4-4.3,0.4C282.6,117.4,284.1,116.8,285.7,116.7z
				 M278.6,112.3c1.5-0.4,3-0.8,4.6-0.7C281.8,111.3,279.5,111.8,278.6,112.3z M281,115.6c-0.2,0.5-0.1,0.8,0.2,1
				c0.4,0.2,0.6,0.1,0.8-0.5C281.7,115.9,281.4,115.7,281,115.6z M280.3,112.8c0.6,0.3,1.1,0.1,1.2-0.5c-0.4,0.2-0.6,0.1-0.8-0.3
				C280.2,112.1,280.4,112.5,280.3,112.8z M303.5,115.5c0-0.9,0.1-1.9,0-2.8C303.3,113.6,303.3,114.5,303.5,115.5z M288,115.5
				c-0.2-0.2-0.3-0.3-0.5-0.4c-0.2-0.1-0.4-0.1-0.7-0.1c-0.2,0.2-0.1,0.4,0.1,0.6c0.1,0.2,0.3,0.1,0.5,0
				C287.6,115.6,287.7,115.6,288,115.5z"/>
			<path class="st4" d="M305.8,110.7c0.3,0,0.6-0.1,0.8-0.1c3,0,6.1,0,9.1,0c4.4,0,8.7,0.1,13.1,0.2c1,0,2-0.1,3,0
				c0.6,0,1.2,0.2,1.8,0.4c0.2,0,0.3,0.2,0.5,0.4c-2.5,0.3-4.9,0-7.4,0.1c0,0,0,0.1,0,0.1c0.4,0,0.8,0,1.3,0c0.5,0,0.9,0,1.4,0
				c0.4,0,0.9,0,1.3,0c0.4,0,0.9,0,1.3,0c0.5,0,0.9-0.1,1.4,0c0.4,0,0.8-0.2,1.2,0c0,0,0,0.1,0,0.1c-0.5,0-1,0.1-1.4,0.1
				c-1.5,0-2.9-0.1-4.4-0.1c-0.5,0-0.9,0-1.4,0c0,0,0,0.1,0,0.1c0.1,0,0.1,0.1,0.2,0.1c1.5,0,3.1,0.1,4.6,0.1c0.7,0,1.5,0,2.2,0
				c0.5,0,0.6,0,0.7,0.6c-1.9,0.1-3.9-0.1-5.8-0.1c0,0,0,0.1,0,0.1c0.1,0,0.2,0,0.4,0c1.7,0,3.4,0.1,5,0.1c0.5,0,0.5,0,0.5,0.6
				c-4.6-0.1-9.3-0.1-13.9-0.2c0,0,0,0,0,0c0,0,0,0,0,0c0,0,0.1,0,0.1,0c4.6,0.1,9.2,0.2,13.7,0.2c0,0,0,0,0.1,0.1
				c-0.1,0.2-0.1,0.4-0.2,0.6c-0.9,0-1.8-0.1-2.6-0.1c-2.3,0-4.6,0-6.9,0c-0.3,0-0.7,0-1,0.1c0.1,0,0.2,0,0.4,0c1.5,0,3,0,4.5,0.1
				c1.6,0,3.2,0,4.7,0c0.2,0,0.4,0.1,0.7,0.1c-0.4,0.7-0.9,1.1-1.6,1.1c-1.1,0-2.1,0-3.2,0.1c-6.7,0.1-13.3,0.1-20,0.2
				c-2,0-3.9,0-5.9-0.1c-0.2,0-0.3,0-0.5-0.1c0-1.1,0-2.1,0-3.2c0-0.7,0.8-1.6,1.5-1.7c0.2,0,0.4,0.1,0.6,0.1
				c4.6,0,9.2,0.1,13.7,0.1c1.3,0,2.5,0.1,3.8,0.1c0.1,0,0.3,0,0.4,0c0,0,0-0.1,0-0.1C317.8,110.9,311.8,110.8,305.8,110.7
				C305.8,110.7,305.8,110.7,305.8,110.7z M312.5,113.6c0,0.1,0,0.1,0,0.2c7,0,14,0.4,21,0.3c0,0,0-0.1,0-0.1
				C326.5,113.8,319.5,113.7,312.5,113.6z M324.4,112.1c0-0.1,0-0.1,0-0.2c-6.1,0-12.2-0.2-18.2-0.1c0,0,0,0.1,0,0.1
				C312.3,112,318.3,112,324.4,112.1z M319.4,111.6c-4.9,0-9.8-0.3-14.6-0.1c0,0,0,0.1,0,0.1C309.6,111.6,314.5,111.6,319.4,111.6z
				 M320.9,111.3c4.3,0.2,8.6,0.2,13,0.2C329.5,111.3,325.2,111.4,320.9,111.3z M322.8,115.2C322.8,115.1,322.8,115.1,322.8,115.2
				c-0.5-0.1-1-0.1-1.5-0.1c-3.1,0-6.2,0-9.4,0c0,0,0,0,0,0c0,0,0,0,0,0.1C315.5,115.2,319.1,115.2,322.8,115.2z M317,112.7
				c0,0,0-0.1,0-0.1c-0.2,0-0.3,0-0.5,0c-0.9,0-1.7,0-2.6,0c-2.5,0-5,0-7.5,0c-0.2,0-0.3,0-0.5,0c0,0,0,0.1,0,0.1
				C309.7,112.7,313.4,112.7,317,112.7z M334.9,112.6c0-0.1,0-0.1,0-0.2c-3.7-0.1-7.4-0.1-11.1-0.2c0,0,0,0.1,0,0.1
				C327.5,112.5,331.2,112.5,334.9,112.6z M318.6,113.5c0,0,0-0.1,0-0.1c-3.5-0.1-7-0.1-10.5-0.2c0,0,0,0.1,0,0.1
				C311.6,113.4,315.1,113.4,318.6,113.5z M335,113.3c0,0,0-0.1,0-0.1c-3.7-0.1-7.3-0.1-11-0.1c0,0,0,0.1,0,0.1
				C327.7,113.2,331.3,113.3,335,113.3z M318.1,114.6C318.1,114.6,318.1,114.5,318.1,114.6c-2.4-0.1-4.8-0.1-7.2-0.1
				c0,0,0,0.1,0,0.1C313.2,114.6,315.7,114.6,318.1,114.6z M323.9,114.4c0-0.1,0-0.1,0-0.2c-3.2-0.1-6.3-0.1-9.5-0.2
				c0,0,0,0.1,0,0.1C317.6,114.2,320.7,114.3,323.9,114.4z M313.6,112.3c-3.1,0-6.1-0.2-9.2-0.1c0,0,0,0.1,0,0.1
				C307.5,112.3,310.5,112.3,313.6,112.3z M312.5,111.2c-2.5-0.1-4.9-0.3-7.4-0.1c0,0,0,0.1,0,0.1
				C307.6,111.2,310,111.2,312.5,111.2z M332.5,111.1C332.5,111.1,332.5,111,332.5,111.1c-2.7-0.1-5.4-0.1-8.1-0.1c0,0,0,0,0,0.1
				C327.1,111.1,329.8,111.1,332.5,111.1z M324.8,114.7C324.8,114.8,324.8,114.8,324.8,114.7c2.1,0.1,4.1,0.1,6.2,0.1c0,0,0,0,0-0.1
				C329,114.7,326.9,114.7,324.8,114.7z M320.5,111.3C320.5,111.3,320.5,111.3,320.5,111.3c-2.5-0.1-5-0.1-7.5-0.1c0,0,0,0.1,0,0.1
				C315.5,111.3,318,111.3,320.5,111.3z M334,115.3c-1.3-0.2-2.7-0.1-4-0.1C331.3,115.4,332.6,115.3,334,115.3z M317,113
				C317,113,317,113,317,113c-1.7-0.1-3.4-0.1-5-0.1c0,0,0,0.1,0,0.1C313.6,113,315.3,113,317,113z M323.9,112.7c0,0,0,0.1,0,0.1
				c1.7,0,3.4,0.1,5.1,0c0,0,0-0.1,0-0.1C327.3,112.7,325.6,112.7,323.9,112.7z M317.7,112.6c1.2,0.1,2.4,0.2,3.6,0.1
				c0,0,0-0.1,0-0.1C320.1,112.6,318.9,112.6,317.7,112.6z M326.1,111.8c0,0,0-0.1,0-0.1c-1.1,0-2.3,0-3.4,0c0,0,0,0,0,0.1
				C323.8,111.8,325,111.8,326.1,111.8z M327.6,115.2c0,0,0-0.1,0-0.1c-1.2,0-2.4,0-3.5,0c0,0,0,0.1,0,0.1
				C325.3,115.2,326.5,115.2,327.6,115.2z"/>
			<path class="st4" d="M300.2,114.3c0-0.5-0.1-0.9,0.2-1.3c0,0.7,0.1,1.5,0.1,2.2c-0.2-0.1-0.3-0.2-0.4-0.2c-0.1,0-0.2,0.2-0.3,0.4
				c-0.1,0-0.2,0-0.2,0c-0.3-0.3-0.7-0.2-1-0.2c-0.7,0-1.3,0-2,0c-1.5,0-3.1,0.1-4.6,0.2c-1.9,0.1-3.7,0.7-5.5,1.1
				c-0.1,0-0.1,0-0.2,0c0.1-0.1,0.1-0.1,0.1-0.1c0.6-0.2,1.2-0.3,1.8-0.5c0.7-0.2,1.5-0.4,2.2-0.5c0.6-0.1,1.1,0,1.7-0.1
				c2.3-0.3,4.6-0.1,6.8-0.1c0.2,0,0.3,0,0.5,0c0,0,0-0.1,0-0.2c-0.9,0-1.9-0.1-2.8-0.1c-0.9,0-1.9,0-2.8,0c-1,0-1.9,0.2-2.9,0.3
				c0.1-0.2,0.1-0.3,0.1-0.4c0.2,0,0.4,0.1,0.6,0.1c0.2,0,0.3-0.2,0.4-0.3c-0.1-0.1-0.2-0.3-0.3-0.3c-0.3-0.2-0.7-0.3-1-0.4
				c-0.2-0.1-0.4,0-0.5,0.2c-0.1,0.2-0.3,0.2-0.5,0.1c-0.2-0.1-0.5-0.1-0.8-0.1c-0.1-0.5-0.1-0.5,0.6-0.6c-0.1,0.1-0.1,0.3-0.1,0.4
				c0,0,0.1,0,0.1,0.1c0.1-0.1,0.2-0.3,0.3-0.4c0.1-0.2,0-0.3-0.3-0.3c-0.5,0.1-1.1,0.5-1.3,1.1c-0.2,0.1-0.4,0.1-0.6,0.2
				c-0.1,0.1-0.3,0.1-0.4-0.1c0-0.1,0-0.2,0-0.3c0-0.1,0-0.3,0-0.5c-0.2,0.1-0.4,0.1-0.6,0.2c0-0.2,0-0.4,0-0.5
				c0-0.2,0.1-0.4,0.1-0.5c0-0.3-0.2-0.6-0.5-0.5c-0.6,0.2-1-0.2-1.5-0.3c-0.2,0-0.3-0.1-0.5-0.2c0.1-0.2,0.3-0.2,0.5-0.2
				c0.4,0.1,0.7,0.2,1.1,0.2c0.3,0.1,0.7,0,1,0.1c0.5,0.1,0.9,0.2,1.4,0.4c-0.5-0.1-1-0.1-1.5-0.2c0,0,0,0.1,0,0.1
				c0.1,0,0.3,0.1,0.4,0.1c1,0.2,2,0.4,3.1,0.5c0.5,0.1,1.1,0.1,1.6,0.1c0.4,0,0.8-0.2,1.2-0.1c0.4,0.1,0.9,0,1.3,0
				c0.5,0,0.9,0,1.4,0c0.5,0,1-0.1,1.5-0.2c-0.8,0-1.6,0-2.6,0c0.1-0.1,0.1-0.1,0.2-0.1c1.2,0,2.4-0.1,3.6-0.1c0.3,0,0.7,0.1,1,0.2
				c0.4,0.1,0.4,0.2,0.4,0.7c0,0.2-0.1,0.4-0.1,0.6c0,0.2,0.1,0.3,0.2,0.5C300.1,114.4,300.2,114.3,300.2,114.3z M299.5,114.8
				c0,0,0-0.1,0-0.1c-2.4,0-4.8-0.2-7.2,0.1C294.7,114.8,297.1,114.8,299.5,114.8z M296,114.3c0,0,0,0.1,0,0.1c1.2,0,2.4,0,3.5,0
				C298.3,114.2,297.2,114.3,296,114.3z"/>
			<path class="st4" d="M280.9,113.7c-0.1,0.1-0.1,0.1-0.2,0.2c0,0-0.1-0.1-0.1-0.1c0.1-0.4,0.2-0.6,0.6-0.8
				c0.2-0.1,0.3-0.3,0.5-0.5c0.4,0,0.8,0,1.3,0c0.6,0,1.2,0,1.8,0c0.1,0,0.1,0.1,0.2,0.1c0.2,0.1,0.4,0.2,0.5,0.3
				c0.6,0.2,1,0.7,1,1.3c0,0.5-0.1,1-0.6,1.3c-0.4,0.3-0.8,0.3-1.2,0.5c-0.6,0.3-1.2,0.3-1.8,0.4c-0.2,0-0.4,0-0.7,0
				c0-0.1,0-0.1,0-0.2c0.4,0,0.8,0.1,1.2,0.1c0,0,0-0.1,0-0.1c-0.1,0-0.2-0.1-0.3-0.1c-0.5,0-1-0.1-1.4-0.4
				c-0.1-0.1-0.3-0.1-0.4-0.2c-0.5-0.2-0.7-0.6-0.7-1.2C280.8,114.1,280.9,113.9,280.9,113.7C281,113.7,281,113.7,280.9,113.7z
				 M285.2,115.2c-0.5,0-1.1,0-1.6,0c-1.3,0-1.3,0-1.6-0.3c0.6,0,1.1,0,1.6,0c0,0,0-0.1,0-0.1c-0.4,0-0.8,0-1.2,0c0,0,0-0.1,0-0.1
				c1.1-0.1,2.3,0,3.4-0.1c0-0.1-0.1-0.1-0.1-0.1c-1.4,0-2.7,0.1-4.1,0.1c-0.1,0-0.1-0.1-0.2-0.1c0,0,0-0.1,0-0.1
				c0.6,0,1.1-0.1,1.7-0.1c-0.3-0.2-0.5-0.1-0.8-0.1c-0.3,0-0.6,0-0.8,0c0-0.1,0-0.1,0-0.2c0.3,0,0.6,0,1,0c0.3,0,0.6,0,1-0.1
				c0,0,0-0.1,0-0.1c-0.6,0-1.1,0-1.7,0c0,0,0-0.1,0-0.1c0.2-0.1,0.3-0.2,0.5-0.2c0.4-0.1,0.9-0.1,1.3-0.2c0,0,0-0.1,0-0.1
				c-0.4,0.1-0.8,0.1-1.2,0.2c0-0.1,0.1-0.2,0.2-0.2c0.4-0.1,0.9-0.2,1.3-0.2c0.8,0,1.5,0.2,2.1,0.6c0.7,0.4,0.7,0.9,0.2,1.4
				c-0.2,0.2-0.3,0.3-0.6,0.5c0.4,0,0.5-0.1,0.8-0.5c0.4-0.5,0.4-1.1-0.1-1.4c-0.7-0.6-1.5-0.7-2.4-0.7c-0.7-0.1-1.4,0.1-2,0.4
				c-0.7,0.4-0.8,1.1-0.3,1.7c0.5,0.6,1.2,0.7,1.9,0.9c0.3,0.1,0.7,0,1,0c0-0.1,0-0.1,0-0.2c-0.4,0-0.9,0-1.3,0c0,0,0-0.1,0-0.1
				C283.7,115.3,284.5,115.5,285.2,115.2z"/>
			<path class="st4" d="M302,113c0.1,0.2,0.1,0.5,0.2,0.7c0.2,0.3,0.1,0.5-0.3,0.5c-0.3,0-0.7,0-1,0c0,0,0-0.1,0-0.1
				c0.4,0,0.8,0,1.2-0.1c0,0,0-0.1,0-0.1c-0.4,0-0.8,0-1.3,0c0-0.3,0-0.6,0-0.9C301.2,112.9,301.6,112.7,302,113z"/>
			<path class="st4" d="M284.9,112.2c-0.1,0.1-0.2,0.2-0.3,0.2c-0.8,0-1.7,0-2.5,0c0.8-0.2,1.6-0.2,2.4-0.1c-1.1-0.3-2.2,0-3.4-0.1
				C281.8,111.7,284.2,111.7,284.9,112.2z"/>
			<path class="st4" d="M303.2,112.6c0,1,0,1.8,0,2.7c0,0.1-0.1,0.2-0.2,0.3c-0.3-0.8-0.3-1.6-0.2-2.5
				C302.8,112.9,302.9,112.7,303.2,112.6z"/>
			<path class="st4" d="M285.7,116.7c-1.6,0.1-3.1,0.8-4.7,0.2c1.4,0,2.9,0.1,4.3-0.4c0.1,0,0.3,0,0.4,0
				C285.7,116.6,285.7,116.6,285.7,116.7z"/>
			<path class="st4" d="M278.6,112.3c0.8-0.5,3.2-1,4.6-0.7C281.7,111.6,280.2,111.9,278.6,112.3z"/>
			<path class="st4" d="M281,115.6c0.4,0.2,0.7,0.3,1,0.5c-0.3,0.5-0.5,0.6-0.8,0.5C280.9,116.4,280.8,116.1,281,115.6z"/>
			<path class="st4" d="M280.3,112.8c0.1-0.3-0.1-0.7,0.4-0.7c0.1,0.4,0.4,0.4,0.8,0.3C281.4,113,280.9,113.1,280.3,112.8z"/>
			<path class="st4" d="M303.5,115.5c-0.3-0.9-0.2-1.9,0-2.8C303.7,113.6,303.5,114.5,303.5,115.5z"/>
			<path class="st4" d="M288,115.5c-0.3,0.1-0.4,0.1-0.6,0.1c-0.2,0.1-0.3,0.2-0.5,0c-0.1-0.2-0.3-0.4-0.1-0.6c0.3,0,0.5,0,0.7,0.1
				C287.7,115.2,287.8,115.3,288,115.5z"/>
			<path class="st3" d="M312.5,113.6c7,0.1,14,0.2,21,0.4c0,0,0,0.1,0,0.1c-7,0.1-14-0.3-21-0.3
				C312.5,113.7,312.5,113.6,312.5,113.6z"/>
			<path class="st3" d="M324.4,112.1c-6.1-0.1-12.2-0.1-18.3-0.2c0,0,0-0.1,0-0.1c6.1-0.1,12.2,0.1,18.2,0.1
				C324.4,112,324.4,112.1,324.4,112.1z"/>
			<path class="st3" d="M319.4,111.6c-4.9,0-9.8,0-14.6,0c0,0,0-0.1,0-0.1C309.6,111.3,314.5,111.6,319.4,111.6z"/>
			<path class="st3" d="M320.9,111.3c4.3,0.1,8.6-0.1,13,0.2C329.5,111.5,325.2,111.5,320.9,111.3z"/>
			<path class="st3" d="M322.8,115.2c-3.6,0-7.3,0-10.9,0c0-0.1,0-0.1,0-0.1c0,0,0,0,0,0c3.1,0,6.2,0,9.4,0
				C321.8,115,322.3,115,322.8,115.2C322.8,115.1,322.8,115.1,322.8,115.2z"/>
			<path class="st3" d="M317,112.7c-3.7,0-7.4,0-11.1,0c0,0,0-0.1,0-0.1c0.2,0,0.3,0,0.5,0c2.5,0,5,0,7.5,0c0.9,0,1.7,0,2.6,0
				c0.2,0,0.3,0,0.5,0C317.1,112.6,317,112.7,317,112.7z"/>
			<path class="st3" d="M334.9,112.6c-3.7-0.1-7.4-0.1-11.1-0.2c0,0,0-0.1,0-0.1c3.7,0.1,7.4,0.1,11.1,0.2
				C334.9,112.5,334.9,112.5,334.9,112.6z"/>
			<path class="st3" d="M318.6,113.5c-3.5-0.1-7-0.1-10.5-0.2c0,0,0-0.1,0-0.1c3.5,0.1,7,0.1,10.5,0.2
				C318.6,113.4,318.6,113.4,318.6,113.5z"/>
			<path class="st3" d="M335,113.3c-3.7-0.1-7.3-0.1-11-0.2c0,0,0-0.1,0-0.1c3.7,0,7.3,0,11,0.1C335,113.3,335,113.3,335,113.3z"/>
			<path class="st3" d="M318.1,114.6c-2.4,0-4.8,0-7.2,0c0,0,0-0.1,0-0.1C313.2,114.5,315.7,114.5,318.1,114.6
				C318.1,114.5,318.1,114.6,318.1,114.6z"/>
			<path class="st3" d="M323.9,114.4c-3.2-0.1-6.3-0.1-9.5-0.2c0,0,0-0.1,0-0.1c3.2,0.1,6.3,0.1,9.5,0.2
				C323.9,114.3,323.9,114.3,323.9,114.4z"/>
			<path class="st3" d="M313.6,112.3c-3.1,0-6.1,0-9.2,0c0,0,0-0.1,0-0.1C307.5,112.1,310.5,112.3,313.6,112.3z"/>
			<path class="st3" d="M312.5,111.2c-2.5,0-4.9,0-7.4,0c0,0,0-0.1,0-0.1C307.5,110.9,310,111.1,312.5,111.2z"/>
			<path class="st3" d="M332.5,111.1c-2.7,0-5.4,0-8.1,0c0,0,0,0,0-0.1C327.1,111,329.8,111,332.5,111.1
				C332.5,111,332.5,111.1,332.5,111.1z"/>
			<path class="st3" d="M324.8,114.7c2.1,0,4.1,0,6.2,0c0,0,0,0,0,0.1C329,114.8,326.9,114.8,324.8,114.7
				C324.8,114.8,324.8,114.8,324.8,114.7z"/>
			<path class="st3" d="M320.5,111.3c-2.5,0-5,0-7.5,0c0,0,0-0.1,0-0.1C315.5,111.2,318,111.2,320.5,111.3
				C320.5,111.3,320.5,111.3,320.5,111.3z"/>
			<path class="st3" d="M334,115.3c-1.3,0-2.7,0.1-4-0.1C331.3,115.2,332.6,115.1,334,115.3z"/>
			<path class="st3" d="M317,113c-1.7,0-3.4,0-5,0c0,0,0-0.1,0-0.1C313.6,112.9,315.3,112.9,317,113C317,113,317,113,317,113z"/>
			<path class="st3" d="M323.9,112.7c1.7,0,3.4,0,5.1,0c0,0,0,0.1,0,0.1c-1.7,0.1-3.4,0-5.1,0C323.9,112.8,323.9,112.7,323.9,112.7z
				"/>
			<path class="st3" d="M317.7,112.6c1.2,0,2.4,0,3.6,0c0,0,0,0.1,0,0.1C320.1,112.8,318.9,112.7,317.7,112.6z"/>
			<path class="st3" d="M326.1,111.8c-1.1,0-2.3-0.1-3.4-0.1c0,0,0,0,0-0.1c1.1,0,2.3,0,3.4,0C326.1,111.7,326.1,111.8,326.1,111.8z
				"/>
			<path class="st3" d="M327.6,115.2c-1.2,0-2.3,0-3.5,0c0,0,0-0.1,0-0.1c1.2,0,2.4,0,3.5,0C327.6,115.2,327.6,115.2,327.6,115.2z"
				/>
			<path class="st3" d="M299.5,114.8c-2.4,0-4.8,0-7.2,0c2.4-0.4,4.8-0.2,7.2-0.1C299.5,114.7,299.5,114.7,299.5,114.8z"/>
			<path class="st3" d="M296,114.3c1.2,0,2.3,0,3.5,0.1c-1.2,0-2.4,0-3.5,0C296,114.3,296,114.3,296,114.3z"/>
			<path class="st3" d="M285.2,115.2c-0.7,0.3-1.4,0.1-2.2,0.2c0,0,0,0.1,0,0.1c0.4,0,0.9,0,1.3,0c0,0.1,0,0.1,0,0.2
				c-0.3,0-0.7,0.1-1,0c-0.7-0.1-1.4-0.2-1.9-0.9c-0.5-0.6-0.3-1.3,0.3-1.7c0.6-0.3,1.3-0.5,2-0.4c0.8,0.1,1.7,0.2,2.4,0.7
				c0.5,0.4,0.6,1,0.1,1.4c-0.4,0.4-0.4,0.4-0.8,0.5c0.2-0.2,0.4-0.3,0.6-0.5c0.6-0.5,0.5-1-0.2-1.4c-0.7-0.4-1.4-0.6-2.1-0.6
				c-0.4,0-0.9,0.1-1.3,0.2c-0.1,0-0.1,0.1-0.2,0.2c0.4-0.1,0.8-0.1,1.2-0.2c0,0,0,0.1,0,0.1c-0.4,0.1-0.9,0.1-1.3,0.2
				c-0.2,0-0.3,0.2-0.5,0.2c0,0,0,0.1,0,0.1c0.6,0,1.1,0,1.7,0c0,0,0,0.1,0,0.1c-0.3,0-0.6,0.1-1,0.1c-0.3,0-0.6,0-1,0
				c0,0.1,0,0.1,0,0.2c0.3,0,0.6,0,0.8,0c0.3,0,0.6-0.1,0.8,0.1c-0.6,0-1.1,0.1-1.7,0.1c0,0,0,0.1,0,0.1c0.1,0,0.1,0.1,0.2,0.1
				c1.4,0,2.7-0.1,4.1-0.1c0,0,0.1,0,0.1,0.1c-1.1,0.2-2.3,0.1-3.4,0.1c0,0,0,0.1,0,0.1c0.4,0,0.8,0,1.2,0c0,0,0,0.1,0,0.1
				c-0.5,0-1.1,0-1.6,0c0.3,0.3,0.3,0.3,1.6,0.3C284.1,115.2,284.6,115.2,285.2,115.2z"/>
		</g>
		<g>
			<path class="st3" d="M318.2,96.6c-0.8,0-1.5,0-2.3,0c-0.3,0-0.4,0-0.5,0.3c0.7,0.3,1.4,0,2.1,0.3c-0.7,0-1.4,0.1-2.1-0.1
				c-0.2-0.1-0.4-0.1-0.6,0.2c0.8,0,1.5,0.1,2.2,0.1c0,0,0,0.1,0,0.1c-0.7,0-1.4,0-2.1,0c0,0,0,0,0,0.1c0.5,0,1,0.1,1.4,0.1
				c0,0,0,0.1,0,0.1c-0.2,0-0.4,0-0.7,0c0,0,0,0.1,0,0.1c0.8,0,1.5,0,2.3,0c0,0.1,0,0.2,0,0.2c-0.9,0-1.9,0.1-2.8-0.1
				c-0.1,0-0.3,0-0.4,0c0,0,0,0.1,0,0.1c1.1,0.1,2.2,0.1,3.3,0.2c0,0,0,0.1,0,0.1c-0.9,0-1.7-0.1-2.6-0.1c0,0,0,0.1,0,0.1
				c1,0,2,0.1,3,0.1c-0.4,0.2-0.8,0.1-1.1,0.2c-0.4,0-0.8,0-1.2,0.1c3.7,0,7.5,0.1,11.2,0.1c0,0,0-0.1,0-0.1c-0.7,0-1.4-0.1-2-0.1
				c-1.7,0-3.3,0-5,0c-0.3,0-0.7,0-1-0.1c0,0-0.1,0-0.1,0c-0.3-0.1-0.5-0.1-0.6-0.4c-0.1-0.2,0.4-0.6,0.6-0.6
				c0.4-0.1,0.7-0.1,1.1-0.1c1.5,0,3-0.1,4.5-0.1c0.6,0,1.1-0.1,1.7-0.1c0.1,0,0.2,0,0.2,0c0.4,0.1,0.9,0.1,1.4-0.1
				c-1.2,0-2.3,0-3.5,0c0,0,0-0.1,0-0.1c0.8,0,1.6,0,2.4,0c0,0,0-0.1,0-0.1c-0.9,0-1.8,0-2.7,0c0,0,0,0,0-0.1
				c0.5-0.2,10.2,0.1,11,0.3c-0.6,0-1.2-0.1-1.8-0.1c-0.6,0-1.3,0-1.9,0c0,0,0,0.1,0,0.1c0.2,0,0.4,0,0.6,0c0.2,0,0.4,0,0.6,0
				c0.2,0,0.5,0,0.7,0.1c0.2,0,0.4,0,0.6,0c0,0,0,0.1,0,0.1c-0.1,0-0.2,0.1-0.3,0.1c-0.4,0-0.9,0-1.3-0.1c-0.2,0-0.5,0-0.7,0.1
				c1.1,0.2,2.3,0,3.4,0c0,0,0,0.1,0,0.1c-0.1,0-0.2,0.1-0.3,0.1c-0.4,0-0.8,0-1.2,0c-2.3,0-4.6,0.1-6.8,0.1c-1.4,0-2.7,0-4.1,0.1
				c-1.2,0-2.4,0.1-3.6,0.1c-0.1,0-0.2,0-0.4,0.1c0.2,0.3,0.4,0.3,0.7,0.3c1.5,0,3.1,0.1,4.6,0.1c1.9,0,3.9,0.1,5.8,0.1
				c0.6,0,1.3,0,1.9,0c0.8,0,1.6,0.1,2.4,0c0.3,0,0.6,0.1,0.9,0.1c-0.1,0.3-0.3,0.5-0.5,0.6c-0.5,0.2-1,0.3-1.5,0.3
				c-0.7,0.1-1.4,0.2-2.1,0.2c-0.7,0.1-1.4,0.1-2.1,0.1c-0.9,0-1.9,0.1-2.8,0.1c-2.2,0-4.5,0.1-6.7,0.1c-0.6,0-1.3-0.1-1.9-0.2
				c-1.5-0.1-2.5-1-3.5-2c-0.1-0.1-0.3-0.2-0.5-0.3c-2-0.6-4.1-0.8-6.1-0.8c-0.9,0-1.7,0-2.6,0c-1.5,0-3.1-0.1-4.6,0
				c-2.5,0.1-5,0.3-7.5,0.7c-1.5,0.3-3.1,0.5-4.6,1c-1.3,0.3-2.5,0.6-3.8,0.8c-1.1,0.1-2.1,0.1-3.2-0.2c-0.7-0.2-1.3-0.4-1.9-0.8
				c-0.9-0.7-1.5-2.2-1-3.5c0.2-0.6,0.5-1.1,1-1.5c0.2-0.2,0.5-0.2,0.8-0.3c1-0.3,2-0.5,3-0.4c0.7,0.1,1.3,0.2,2,0.4
				c0.8,0.1,1.5,0.3,2.3,0.4c0.6,0.1,1.2,0.3,1.8,0.4c0.4,0.1,0.8,0.1,1.2,0.2c3.6,0.8,7.3,1,11,1.2c1.2,0,2.3,0.1,3.5,0.1
				c1.5,0.1,3,0.1,4.6,0c0.8,0,1.5-0.2,2.3-0.3c0.8-0.1,1.5-0.4,2.2-0.6c0.2,0,0.3-0.2,0.4-0.3c0.8-0.8,1.7-1.5,2.9-1.6
				c1.3-0.1,2.7-0.2,4-0.2c2.1,0,4.2,0.2,6.2,0.3c1.4,0.1,2.9,0.1,4.3,0.2c0.9,0.1,1.9,0.1,2.8,0.2c0.3,0,0.6,0.2,1,0.3
				c-0.4,0.4-0.8,0.5-1.2,0.6c-1.6,0-3.2,0.1-4.7,0.1c-1.2,0-2.4,0.1-3.7,0.1c-1,0-2.1-0.1-3.1-0.1c-0.9,0-1.8,0-2.8,0
				c-0.1,0-0.3-0.1-0.4-0.1c-0.3-0.1-0.6,0-0.8,0.3c0.1,0.3,0.4,0.4,0.7,0.4c0.6,0.1,1.3,0.1,2,0.1c3.2,0,6.5,0.1,9.7,0.1
				c1.1,0,2.2,0.1,3.4,0.1c0.5,0,0.7,0.1,1,0.5c-0.9,0.4-1.8,0.2-2.7,0.2c-0.4,0-0.7,0-1.1,0.1c0.3,0.1,0.6-0.2,0.9,0.2
				c-1.5,0-3,0.1-4.5,0.1c-0.6,0-1.3,0.1-1.9,0.1c-1.1,0-2.1,0-3.2,0c-1.2,0-2.4-0.1-3.7-0.1c-0.2,0-0.5,0-0.6,0.3
				c0.3,0.4,0.7,0.3,1.1,0.4c0.9,0,1.9,0,2.8,0c0.3,0,0.6,0,0.9,0c0.1,0,0.2,0,0.3,0.1c-0.1,0-0.1,0.1-0.2,0.1c-1.4,0-2.7,0-4.1,0
				c-0.4,0-0.8-0.2-1-0.6c0.1-0.3,0.4-0.5,0.8-0.5c1.4-0.2,2.8-0.1,4.2-0.1c0.4,0,0.7,0,1.1-0.1c0.1,0,0.3,0,0.4,0
				c0.1,0,0.3,0,0.4,0c1.8-0.2,3.6-0.1,5.3-0.2c1.2,0,2.4,0,3.6,0c0.2,0,0.4,0,0.6,0c0,0,0-0.1,0-0.1c-0.1,0-0.2-0.1-0.3-0.1
				c-1.2,0-2.3-0.1-3.5-0.1c-0.4,0-0.7,0.1-1.1,0.2c-1.6,0.1-3.2,0.1-4.8,0.1c-0.1,0-0.2,0-0.3-0.1c1.5,0,3.1-0.1,4.6-0.1
				c0,0,0-0.1,0-0.1c-0.3,0-0.6,0-0.9,0c-2.5,0-5,0-7.5-0.1c-0.6,0-1.2-0.1-1.8-0.1c-0.3,0-0.6-0.1-0.9-0.4
				c-0.2-0.2-0.2-0.5,0.1-0.6c0.1-0.1,0.2-0.1,0.3-0.1c0.5,0,1-0.4,1.5-0.3c0,0,0.1,0,0.1-0.1c-1.8,0-3.6,0.3-5.4,0.1
				c1,0.2,2,0.1,3.1,0.2c-1.1,0.2-2.2,0-3.3,0.1c1.1,0.2,2.2,0.2,3.2,0.2c-0.1,0-0.1,0.1-0.2,0.1c-1,0-2.1,0-3.1,0
				c-0.2,0-0.4-0.1-0.5,0.3c1.3,0,2.5,0,3.8,0c0,0,0,0.1,0,0.1c-1.2,0.1-2.4,0-3.6,0.1c0.6,0.3,1.2,0,1.8,0c0.6,0.1,1.2,0.1,1.9,0.2
				c-0.1,0-0.2,0-0.3,0c-0.7,0-1.4,0-2.1,0c-0.2,0-0.4,0.1-0.6,0.2c1.1,0,2.2,0,3.3,0c0,0,0,0.1,0,0.1c-0.1,0-0.2,0.1-0.3,0.1
				c-0.5,0-1.1,0-1.6,0c-0.4,0-0.8,0-1.2,0.1c0,0,0,0.1,0,0.1c0.5,0,1.1,0,1.6,0c0,0,0,0.1,0,0.1c-0.5,0.2-1-0.2-1.4,0.1
				c0.3,0,0.7,0,1.1,0c-0.4,0.4-0.8,0.1-1.1,0.2c0,0,0,0.1,0,0.1c0.8,0,1.6,0,2.4,0c0,0.1,0,0.1,0,0.2c-0.8,0.2-1.6,0-2.4,0.1
				c0.8,0.2,1.6,0.1,2.4,0.2c0,0,0,0.1,0,0.1c-0.8,0-1.6,0-2.3,0c0,0,0,0.1,0,0.1C316.5,96.5,317.3,96.5,318.2,96.6
				C318.2,96.6,318.2,96.6,318.2,96.6z M317.8,93.2c0.2,0,0.3-0.1,0.5-0.1c0.9,0,1.7,0.1,2.6,0.1c0.5,0,1.1,0,1.6,0
				c1.3,0,2.6,0.1,3.8,0c0.8-0.1,1.7,0.1,2.5,0c0.7-0.1,1.3,0,2,0c0.2,0,0.4,0,0.6,0c0,0,0-0.1,0-0.1c-3.4-0.2-6.9-0.6-10.4-0.5
				c0,0.1,0.1,0.1,0.1,0.2c-0.4,0-0.7,0-1,0c-0.7,0-1.4,0-2.1-0.1c-0.4,0-0.9,0-1.3,0c0,0.1,0,0.1,0,0.2c0.9,0,1.8,0,2.7,0
				c0,0,0,0.1,0,0.1c-0.6,0-1.2,0-1.8,0c-0.6,0-1.2-0.2-1.8,0c0,0,0,0.1,0,0.1C316.6,93.2,317.2,93.2,317.8,93.2c-0.7,0-1.4,0-2.2,0
				c0,0.1,0,0.1,0,0.2c1.3,0.1,2.6,0,3.9-0.1C319,93.2,318.4,93.2,317.8,93.2z M297.5,96.4c0,0,0,0.1,0,0.1c-0.1,0-0.2,0-0.4,0
				c-0.8,0.1-1.6,0.1-2.4,0.2c-1.1,0.1-2.2,0.2-3.3,0.3c-0.9,0.1-1.8,0.1-2.7,0.1c-0.3,0-0.7,0.1-1,0.2c0,0.1,0,0.1,0,0.2
				c1.1-0.1,2.3-0.2,3.4-0.4c0.2,0,0.5-0.1,0.6,0c0.3,0.2,0.6,0.1,0.9,0c2-0.2,4-0.4,5.9-0.6c0.2,0,0.4,0,0.6-0.1
				c0.4-0.2,1.1-0.2,1.5-0.1c0.1,0.1,0.4,0.1,0.4,0c0.1-0.3,0.4-0.2,0.6-0.2c1.1,0,2.1,0,3.2,0c-1.7-0.1-3.4-0.1-5.1-0.2
				c0.3-0.1,0.7-0.1,1-0.1c1.7,0,3.5,0,5.2,0.1c0.8,0,1.5,0.1,2.3,0.1c1.4,0,2.8,0.1,4.1,0.1c0,0,0,0,0.1,0.1
				c-0.1,0.1-0.1,0.1-0.2,0.2c0,0,0,0,0.1,0.1c0.3-0.1,0.6-0.2,0.9-0.4c0,0.1,0,0.2,0,0.3c0,0,0.1,0,0.1,0.1
				c0.1-0.1,0.3-0.2,0.5-0.4c-0.2,0-0.3,0-0.4,0c-1.2,0-2.4-0.1-3.6-0.1c-0.8,0-1.6-0.1-2.4-0.2c-0.7,0-1.4-0.1-2.1-0.1
				c-0.4,0-0.7,0.1-1.1,0.1c-1.1,0-2.2,0-3.4,0c-0.1,0-0.2,0-0.2,0c0,0,0,0,0-0.1c1.4,0,2.7,0,4.1,0c-0.2-0.1-0.4-0.1-0.6-0.1
				c-1.8-0.1-3.6-0.1-5.3-0.2c-2-0.1-4-0.4-6-0.6c-0.6-0.1-1.2-0.2-1.8-0.2c-0.9,0-1.7,0.1-2.6,0.1c0,0-0.1,0-0.1,0c0,0,0-0.1,0-0.1
				c0.8,0,1.6,0,2.4,0c0,0,0-0.1,0-0.1c-0.2,0-0.3-0.1-0.5-0.1c-0.8-0.2-1.7,0.1-2.5,0c-0.1,0-0.2,0.1-0.4,0.2
				c0.7,0.1,0.7,0.1,0.8,0.7c0.2-0.1,0.4-0.2,0.7-0.3c0.3-0.1,0.4,0,0.4,0.4c0,0.1,0,0.1,0,0.2c0.4,0.1,0.8,0.1,1.1-0.2
				c0.1-0.1,0.4-0.2,0.5-0.1c0.4,0.3,0.9,0.2,1.4,0.4c0,0,0,0.1,0.1,0.1c0,0.1-0.1,0.2-0.1,0.3c0.3,0.5,0.8,0.5,1.3,0.4
				c0.3-0.1,0.6-0.1,1-0.1c0.1,0,0.2,0,0.3,0c0,0,0,0.1,0,0.1c-0.7,0-1.4,0.1-2,0.1c-0.1,0-0.2,0-0.4,0.1c-0.6,0.1-1.3,0.3-1.9-0.1
				c-0.2-0.1-0.5-0.2-0.7-0.1c-0.4,0.2-0.7,0-1.1,0c0,0,0,0-0.1,0.1c0.2,0.6,0.7,0.6,1.3,0.6c1.9-0.2,3.8-0.3,5.7-0.5
				c0-0.1-0.1-0.2-0.1-0.3c0.4,0.1,0.8,0.2,1.1,0.2c0.1-0.2,0.1-0.3,0.2-0.3c0,0,0.2,0,0.2,0c0,0.4,0.3,0.2,0.4,0.2
				C297.1,96.5,297.3,96.4,297.5,96.4z M284,97.9c1.1-0.1,1.3-0.1,2.1-0.7c0.4-0.3,0.7-0.7,0.6-1.3c0-0.6-0.3-1-0.8-1.2
				c-0.6-0.3-1.3-0.5-2-0.4c-0.3,0-0.6,0-0.9,0.1c-0.3,0.1-0.7,0.1-1,0.3c-0.4,0.4-0.8,0.8-0.7,1.5c0,0.4,0.1,0.9,0.6,1.1
				c0.1,0.1,0.2,0.3,0.4,0.3C282.9,97.7,283.5,97.8,284,97.9z M316.4,98.9c0,0.1,0,0.1,0,0.2c2.1,0,4.2,0.1,6.3,0.1c0,0,0,0.1,0,0.1
				c-0.9,0-1.9,0-2.8,0c-1,0-1.9-0.2-2.9,0c3.5,0.1,6.9,0.3,10.4,0c-1.3,0-2.6-0.1-3.9-0.1c0,0,0-0.1,0-0.1c1.4,0,2.9,0,4.3,0
				c1.4,0,2.9-0.1,4.3-0.3C326.8,99.1,321.6,99,316.4,98.9z M283.1,94c1,0,2,0,3,0c0.5,0,1,0.1,1.5-0.1c-0.1,0-0.1,0-0.2,0
				c-0.6-0.1-1.2-0.1-1.7-0.1c-0.6,0-1.3,0-1.9,0c0,0,0-0.1,0-0.1c0.8,0,1.5,0,2.3,0c0,0,0-0.1,0-0.1c-0.3,0-0.7-0.2-1-0.1
				c-0.9,0.1-1.8,0.1-2.7-0.3c0.2,0,0.3-0.1,0.4-0.1c-0.6-0.1-1.1-0.1-1.7,0.1c0.4-0.1,0.8,0,1.1,0.3c0.1,0.1,0.2,0.1,0.3,0.1
				C283.1,93.4,283.1,93.5,283.1,94z M306.2,95.7c2.5,0.2,6.7,0.3,7.1,0.2c-0.4,0-0.8,0-1.2,0c-0.5,0-1,0-1.5,0
				C309.2,95.6,307.7,95.7,306.2,95.7z M315,96.5c0.3-0.5,0.3-0.9-0.1-1.2c-0.6-0.5-1.3-0.6-1.6-0.2c0.4,0.1,0.8,0,1.2,0.3
				C314.9,95.6,314.8,96.1,315,96.5z M281,95.2c-0.3-0.4-0.2-0.8-0.2-1.2c-0.1,0.2-0.3,0.4-0.4,0.7c0.1,0.2,0.2,0.5,0.4,0.7
				c0.2,0.2,0.4,0.2,0.5-0.1c0.1-0.3,0.2-0.6,0-0.9C280.6,94.5,281.3,94.9,281,95.2z M285.8,98.6c0,0,0-0.1,0-0.1
				c-0.3,0-0.6,0.1-0.8,0.1c-1.1,0.1-2.1,0.4-3.2,0.1c-0.1,0-0.1,0-0.2,0.1C283,99.1,284.4,99,285.8,98.6z M322.7,99.8
				C322.7,99.8,322.7,99.7,322.7,99.8c-1.6-0.1-3.2-0.1-4.7-0.1C319.6,99.9,321.1,99.8,322.7,99.8z M323.2,95.9
				c-0.6-0.2-2.4-0.2-2.7,0C321.4,95.9,322.3,95.9,323.2,95.9z M313.6,95.8c0-0.1,0-0.1,0-0.2c-0.1,0-0.3-0.1-0.4-0.1
				c-0.6,0-1.2,0-1.8,0c-0.1,0-0.3,0-0.4,0c-0.4-0.1-0.5-0.1-0.9,0C311.2,95.8,312.4,95.7,313.6,95.8z M281.7,98
				c0,0.3,0.2,0.3,0.4,0.3c0.6,0,1.3,0,1.9,0c0.2,0,0.4-0.1,0.5-0.1C283.6,98,282.6,98.4,281.7,98z M282.1,97.7
				c-0.3-0.4-0.6-0.6-0.9-0.6c-0.2,0-0.3,0.4-0.4,0.6c0,0,0,0,0,0.1c0.2-0.2,0.4-0.3,0.7-0.2C281.6,97.8,281.8,97.7,282.1,97.7z
				 M333.5,93.5c-0.3-0.3-0.5-0.3-0.6,0c0.6,0.1,1.3,0.2,1.9-0.1C334.4,93.3,333.9,93.2,333.5,93.5z M287.7,96.2
				c0-0.3,0.2-0.5,0.4-0.5c0.3-0.1,0.4-0.3,0.5-0.6C287.8,95.2,287.4,95.7,287.7,96.2z M331.3,99.4c0,0,0,0.1,0,0.1
				c0.9,0,1.8,0,2.7-0.4C333.1,99.2,332.2,99.3,331.3,99.4z M288.8,97.8c-0.9,0.2-1.7,0.3-2.6,0.5C286.6,98.5,287.7,98.3,288.8,97.8
				z"/>
			<path class="st4" d="M297.5,96.4c-0.2,0-0.4,0.1-0.6,0c-0.2,0-0.4,0.1-0.4-0.2c0,0-0.2-0.1-0.2,0c-0.1,0.1-0.1,0.2-0.2,0.3
				c-0.3-0.1-0.7-0.1-1.1-0.2c0,0.1,0.1,0.2,0.1,0.3c-1.9,0.2-3.8,0.3-5.7,0.5c-0.5,0-1,0.1-1.3-0.6c0,0,0-0.1,0.1-0.1
				c0.4,0,0.7,0.2,1.1,0c0.2-0.1,0.5,0,0.7,0.1c0.6,0.4,1.2,0.2,1.9,0.1c0.1,0,0.2-0.1,0.4-0.1c0.7,0,1.4-0.1,2-0.1c0,0,0-0.1,0-0.1
				c-0.1,0-0.2-0.1-0.3,0c-0.3,0-0.7,0.1-1,0.1c-0.5,0.1-0.9,0.1-1.3-0.4c0-0.1,0.1-0.2,0.1-0.3c0-0.1,0-0.1-0.1-0.1
				c-0.4-0.2-0.9-0.2-1.4-0.4c-0.1-0.1-0.4,0-0.5,0.1c-0.3,0.3-0.7,0.3-1.1,0.2c0-0.1,0-0.1,0-0.2c0.1-0.3-0.1-0.4-0.4-0.4
				c-0.2,0.1-0.4,0.2-0.7,0.3c-0.1-0.6-0.1-0.6-0.8-0.7c0.2-0.1,0.3-0.2,0.4-0.2c0.8,0.1,1.7-0.2,2.5,0c0.2,0,0.3,0.1,0.5,0.1
				c0,0,0,0.1,0,0.1c-0.8,0-1.6,0-2.4,0c0,0,0,0.1,0,0.1c0,0,0.1,0,0.1,0c0.9,0,1.7-0.1,2.6-0.1c0.6,0,1.2,0.2,1.8,0.2
				c2,0.2,4,0.4,6,0.6c1.8,0.1,3.5,0.2,5.3,0.2c0.2,0,0.4,0,0.6,0.1c-1.4,0-2.7,0-4.1,0c0,0,0,0,0,0.1c0.1,0,0.2,0,0.2,0
				c1.1,0,2.2,0,3.4,0c0.4,0,0.7-0.1,1.1-0.1c0.7,0,1.4,0.1,2.1,0.1c0.8,0.1,1.6,0.1,2.4,0.2c1.2,0,2.4,0.1,3.6,0.1
				c0.1,0,0.2,0,0.4,0c-0.2,0.2-0.3,0.3-0.5,0.4c0,0-0.1,0-0.1-0.1c0-0.1,0-0.2,0-0.3c-0.3,0.1-0.6,0.2-0.9,0.4c0,0,0,0-0.1-0.1
				c0.1-0.1,0.1-0.1,0.2-0.2c0,0-0.1-0.1-0.1-0.1c-1.4,0-2.8,0-4.1-0.1c-0.8,0-1.5-0.1-2.3-0.1c-1.7,0-3.5,0-5.2-0.1
				c-0.3,0-0.7,0-1,0.1c1.7,0.1,3.4,0.2,5.1,0.2c-1.1,0-2.1,0-3.2,0c-0.2,0-0.4-0.1-0.6,0.2c0,0-0.3,0-0.4,0
				c-0.4-0.2-1.1-0.1-1.5,0.1c-0.2,0.1-0.4,0.1-0.6,0.1c-2,0.2-4,0.4-5.9,0.6c-0.3,0-0.6,0.2-0.9,0c-0.1-0.1-0.4,0-0.6,0
				c-1.1,0.1-2.3,0.2-3.4,0.4c0,0,0-0.1,0-0.2c0.3-0.1,0.7-0.2,1-0.2c0.9-0.1,1.8,0,2.7-0.1c1.1-0.1,2.2-0.2,3.3-0.3
				c0.8-0.1,1.6-0.1,2.4-0.2c0.1,0,0.2,0,0.4,0C297.5,96.5,297.5,96.4,297.5,96.4z"/>
			<path class="st4" d="M284,97.9c-0.6-0.1-1.1-0.2-1.6-0.3c-0.1,0-0.2-0.3-0.4-0.3c-0.5-0.2-0.6-0.7-0.6-1.1
				c-0.1-0.6,0.3-1.1,0.7-1.5c0.3-0.2,0.7-0.3,1-0.3c0.3-0.1,0.6-0.1,0.9-0.1c0.7-0.1,1.4,0.2,2,0.4c0.5,0.2,0.8,0.7,0.8,1.2
				c0,0.6-0.2,1-0.6,1.3C285.3,97.8,285.1,97.8,284,97.9z M285.9,96.3c0,0,0-0.1,0-0.1c-1.3,0.1-2.5,0.1-3.8,0.2c0,0,0-0.1,0-0.1
				c0.3,0,0.5-0.1,0.8-0.1c0.3,0,0.6,0,0.8,0c0.2,0,0.5,0.1,0.7-0.2c-0.9,0-1.7,0.1-2.5,0.1c-0.2,0.6-0.2,0.9,0.2,1.1
				c0.5,0.3,1.1,0.6,1.7,0.6c0.5,0,0.9-0.1,1.4-0.2c0.3-0.1,0.6-0.3,0.8-0.5c0.1,0,0.1-0.2,0.1-0.3c0-0.1-0.1-0.1-0.2-0.1
				c-0.1,0-0.2,0-0.3,0c-1,0-2,0.1-3.1,0.1c-0.1,0-0.2,0-0.3,0C283.4,96.4,284.7,96.5,285.9,96.3z M282.1,95.3
				c0.5,0.2,1.5,0.1,1.8-0.1c-0.5,0-0.9,0.1-1.4,0.1c0,0,0-0.1,0-0.1c0.2,0,0.3-0.1,0.5-0.1c0.6-0.1,1.2-0.1,1.8-0.1
				c0.2,0,0.3,0,0.5,0.1c0.4,0.1,0.7,0.4,1,0.7c0.3-0.3,0-0.4-0.1-0.6c-0.7-0.6-2.4-0.9-3.4-0.3C282.6,95,282.4,95.1,282.1,95.3z"/>
			<path class="st4" d="M317.9,93.2c-0.6,0-1.2,0-1.8-0.1c0,0,0-0.1,0-0.1c0.6-0.2,1.2,0,1.8,0c0.6,0,1.2,0,1.8,0c0,0,0-0.1,0-0.1
				c-0.9,0-1.8,0-2.7,0c0-0.1,0-0.1,0-0.2c0.4,0,0.9-0.1,1.3,0c0.7,0,1.4,0,2.1,0.1c0.3,0,0.6,0,1,0c-0.1-0.1-0.1-0.1-0.1-0.2
				c3.5-0.1,6.9,0.3,10.4,0.5c0,0,0,0.1,0,0.1c-0.2,0-0.4,0-0.6,0c-0.7,0-1.3-0.1-2,0c-0.8,0.1-1.7,0-2.5,0c-1.3,0.1-2.6,0-3.8,0
				c-0.5,0-1.1,0.1-1.6,0c-0.9,0-1.7-0.1-2.6-0.1C318.2,93.2,318,93.2,317.9,93.2L317.9,93.2z"/>
			<path class="st4" d="M316.4,98.9c5.2,0.1,10.4,0.2,15.7-0.1c-1.4,0.2-2.9,0.3-4.3,0.3c-1.4,0-2.9,0-4.3,0c0,0,0,0.1,0,0.1
				c1.3,0,2.6,0.1,3.9,0.1c-3.5,0.3-6.9,0.1-10.4,0c1-0.2,1.9,0,2.9,0c0.9,0,1.9,0,2.8,0c0,0,0-0.1,0-0.1c-2.1,0-4.2-0.1-6.3-0.1
				C316.4,99.1,316.4,99,316.4,98.9z"/>
			<path class="st4" d="M283.1,94c0.1-0.5,0-0.5-0.5-0.6c-0.1,0-0.2,0-0.3-0.1c-0.3-0.3-0.7-0.4-1.1-0.3c0.6-0.2,1.1-0.2,1.7-0.1
				c-0.1,0-0.3,0.1-0.4,0.1c0.9,0.3,1.8,0.4,2.7,0.3c0.3,0,0.7,0.1,1,0.1c0,0,0,0.1,0,0.1c-0.8,0-1.5,0-2.3,0c0,0,0,0.1,0,0.1
				c0.6,0,1.3,0.1,1.9,0c0.6,0,1.2-0.1,1.7,0.1c0,0,0.1,0,0.2,0c-0.5,0.2-1,0.1-1.5,0.1C285.1,94,284.1,94,283.1,94z"/>
			<path class="st4" d="M306.2,95.7c1.5-0.1,2.9-0.1,4.4,0.1c0.5,0.1,1,0,1.5,0c0.4,0,0.8,0,1.2,0C313,96.1,308.8,96,306.2,95.7z"/>
			<path class="st4" d="M315,96.5c-0.2-0.4-0.1-0.9-0.5-1.2c-0.4-0.3-0.8-0.2-1.2-0.3c0.3-0.4,1-0.3,1.6,0.2
				C315.3,95.6,315.3,96,315,96.5z"/>
			<path class="st4" d="M281,95.2c0.3-0.3-0.4-0.7,0.2-0.9c0.2,0.3,0.1,0.6,0,0.9c-0.1,0.2-0.3,0.3-0.5,0.1
				c-0.2-0.2-0.3-0.5-0.4-0.7c0.1-0.2,0.3-0.4,0.4-0.7C280.8,94.4,280.8,94.8,281,95.2z"/>
			<path class="st4" d="M285.8,98.6c-1.4,0.4-2.8,0.4-4.2,0.2c0.1,0,0.1-0.1,0.2-0.1c1.1,0.3,2.1,0,3.2-0.1c0.3,0,0.6-0.1,0.8-0.1
				C285.8,98.6,285.8,98.6,285.8,98.6z"/>
			<path class="st4" d="M322.7,99.8c-1.6,0-3.2,0.1-4.7-0.1C319.6,99.7,321.1,99.7,322.7,99.8C322.7,99.7,322.7,99.8,322.7,99.8z"/>
			<path class="st4" d="M323.2,95.9c-0.9,0-1.8,0-2.7,0C320.8,95.8,322.6,95.7,323.2,95.9z"/>
			<path class="st4" d="M317.8,93.2c0.6,0,1.2,0,1.8,0c-1.3,0.2-2.6,0.3-3.9,0.1c0-0.1,0-0.1,0-0.2
				C316.4,93.2,317.1,93.2,317.8,93.2L317.8,93.2z"/>
			<path class="st4" d="M313.6,95.8c-1.2-0.1-2.4,0-3.6-0.2c0.4-0.1,0.5-0.1,0.9,0c0.1,0,0.3,0,0.4,0c0.6,0,1.2,0,1.8,0
				c0.1,0,0.3,0,0.4,0.1C313.6,95.7,313.6,95.7,313.6,95.8z"/>
			<path class="st4" d="M281.7,98c0.9,0.4,1.9,0,2.8,0.2c-0.2,0-0.4,0.1-0.5,0.1c-0.6,0-1.3,0-1.9,0C281.9,98.3,281.7,98.3,281.7,98
				z"/>
			<path class="st4" d="M282.1,97.7c-0.3,0-0.5,0-0.6,0c-0.3-0.1-0.5-0.1-0.7,0.2c0-0.1,0-0.1,0-0.1c0.1-0.2,0.2-0.6,0.4-0.6
				C281.5,97.1,281.8,97.3,282.1,97.7z"/>
			<path class="st4" d="M333.5,93.5c0.4-0.3,0.8-0.2,1.2-0.1c-0.6,0.3-1.2,0.2-1.9,0.1C333.1,93.2,333.2,93.2,333.5,93.5z"/>
			<path class="st4" d="M287.7,96.2c-0.2-0.5,0.2-1,1-1.1c-0.1,0.3-0.2,0.5-0.5,0.6C287.8,95.8,287.6,95.9,287.7,96.2z"/>
			<path class="st4" d="M331.3,99.4c0.9-0.1,1.8-0.2,2.7-0.3c-0.9,0.4-1.8,0.4-2.7,0.4C331.3,99.5,331.3,99.4,331.3,99.4z"/>
			<path class="st4" d="M288.8,97.8c-1.1,0.5-2.3,0.7-2.6,0.5C287.1,98.1,287.9,98,288.8,97.8z"/>
			<path class="st3" d="M285.9,96.3c-1.2,0.2-2.4,0.1-3.7,0.3c0.1,0,0.2,0,0.3,0c1,0,2-0.1,3.1-0.1c0.1,0,0.2,0,0.3,0
				c0.1,0,0.2,0.1,0.2,0.1c0,0.1,0,0.2-0.1,0.3c-0.3,0.2-0.5,0.5-0.8,0.5c-0.4,0.1-0.9,0.2-1.4,0.2c-0.6,0.1-1.2-0.3-1.7-0.6
				c-0.4-0.2-0.5-0.5-0.2-1.1c0.8,0,1.7-0.1,2.5-0.1c-0.2,0.3-0.5,0.2-0.7,0.2c-0.3,0-0.6,0-0.8,0c-0.3,0-0.5,0.1-0.8,0.1
				c0,0,0,0.1,0,0.1c1.3-0.1,2.5-0.1,3.8-0.2C285.9,96.2,285.9,96.2,285.9,96.3z M285.8,96.7c-1.1,0.1-2.2,0.1-3.3,0.2
				C282.9,97.1,285.2,97,285.8,96.7z"/>
			<path class="st3" d="M282.1,95.3c0.3-0.2,0.5-0.3,0.7-0.4c0.9-0.6,2.7-0.3,3.4,0.3c0.2,0.1,0.4,0.3,0.1,0.6
				c-0.3-0.3-0.6-0.6-1-0.7c-0.2,0-0.3-0.1-0.5-0.1c-0.6,0-1.2,0.1-1.8,0.1c-0.2,0-0.3,0.1-0.5,0.1c0,0,0,0.1,0,0.1
				c0.5,0,0.9-0.1,1.4-0.1C283.6,95.4,282.6,95.5,282.1,95.3z"/>
			<path class="st4" d="M285.8,96.7c-0.6,0.3-2.9,0.4-3.3,0.2C283.6,96.8,284.7,96.7,285.8,96.7z"/>
		</g>
	</g>
	<g>
		<g>
			<defs>
				<rect id="SVGID_1_" x="250.8" y="736.8" width="29.3" height="37.9"/>
			</defs>
			<clipPath id="SVGID_2_">
				<use xlink:href="#SVGID_1_"  style="overflow:visible;"/>
			</clipPath>
			<g class="st5">
				<defs>
					<rect id="SVGID_3_" x="250.8" y="736.8" width="29.3" height="37.9"/>
				</defs>
				<clipPath id="SVGID_4_">
					<use xlink:href="#SVGID_3_"  style="overflow:visible;"/>
				</clipPath>
				<path class="st6" d="M263.8,754.7c-0.7,0-1.4-0.1-2.1-0.3c-1.4-0.4,0-1.2,0.7-1.5c0.6-0.2,1.3-0.3,2.1-0.4c0,0,0.7,0,0.7,0
					c0.5,0,0.9,0.1,1.4,0.1c0,0,0.1,0,0.1,0l0.1-0.3c0,0-0.1,0-0.2,0c-0.4-0.1-0.9-0.2-1.3-0.2c0,0-0.7-0.1-0.7-0.1
					c-1.5-0.1-3,0.1-4,1.1c-1,0.8,1,1.6,1.5,1.8c0.5,0.1,1,0.2,1.6,0.3c0,0,0.1,0,0.1,0L263.8,754.7
					C263.9,754.7,263.8,754.7,263.8,754.7"/>
				<path class="st6" d="M271.3,755.2c-0.2-0.6-0.7-1.1-1.2-1.5c1.1-0.8,1.8-1.9,1-3.2c-1-1.7-3.6-2.3-5.4-3
					c-0.1-1.3-0.4-2.7-1.2-3.7c-0.4-0.5-1-0.8-1.6-0.8c-1,0-0.9,1.1-0.7,1.8c0.4,1.4,1.5,2.2,2.7,2.7c0,0.1,0,0.3,0,0.4
					c0,1.3-0.1,2.6-0.3,3.9c0,0,0,0.1,0,0.1l0.7,0.1c0,0,0-0.1,0-0.1c0.1-0.3,0.1-0.5,0.1-0.8c0.2-1,0.3-2.1,0.2-3.2
					c1.5,0.6,5.1,1.4,5,3.5c-0.1,0.8-0.6,1.4-1.2,1.9c-0.6-0.3-1.2-0.6-1.8-0.7c0.1-0.5,0.2-0.9,0.3-1.4c0-0.2-0.7-0.6-0.7-0.4
					c-0.1,0.4-0.2,0.8-0.2,1.2l0,0l0,0.1c0,0.1-0.4,1.7-0.5,2.3c-0.6,0.1-1.1,0.2-1.5,0.2c-0.1,0-0.1,0-0.2,0
					c0.2-0.6,0.3-1.3,0.5-1.9c0,0,0-0.1,0-0.1l-0.7,0c0,0,0,0.1,0,0.1c-0.1,0.7-0.3,1.3-0.5,1.9c0,0-0.2,0.5-0.2,0.5
					c-0.5,1.5-1,3-1.6,4.4c-0.1,0.2,0.6,0.6,0.7,0.4c0.6-1.6,1.2-3.2,1.6-4.8c0.6,0,1.2,0,1.7-0.1c-0.5,2-1,4.1-1.7,6.1
					c-1.8,0.7-4,1.7-4.1,3.9c0,0.6,0.7,1.1,1.3,1.1c1.5,0,2.2-1.2,2.8-2.5c0.3-0.6,0.6-1.3,0.8-1.9
					C268.5,760.3,272.7,758.8,271.3,755.2 M262.8,744.2c0-0.6,0.9-0.7,1.2-0.3c0.3,0.4,0.4,0.9,0.6,1.3c0.2,0.6,0.3,1.3,0.4,1.9
					C263.8,746.6,262.7,745.6,262.8,744.2 M264.2,762.2c-0.4,1.1-1,2.7-2.2,3.2c-1.8,0.7,0-2,0.6-2.4
					C263,762.7,263.6,762.4,264.2,762.2C264.2,762.1,264.2,762.2,264.2,762.2 M267.3,754.3c0.1-0.5,0.2-0.9,0.3-1.4
					c0.6,0.2,1.1,0.4,1.6,0.6C268.6,753.9,268,754.1,267.3,754.3 M265.6,760.7c0.6-1.9,1.1-3.8,1.5-5.8c0.3-0.1,0.5-0.1,0.8-0.2
					c0.5-0.1,1.2-0.4,1.8-0.8c0.4,0.3,0.7,0.6,0.9,1C272.2,757.9,267.7,759.8,265.6,760.7"/>
				<path class="st6" d="M273,747.3c-2-2-4.6-3.1-7.4-3.1c-2.8,0-5.4,1.1-7.4,3.1c-2,2-3.1,4.6-3.1,7.4c0,2.8,1.1,5.4,3.1,7.4
					c2,2,4.6,3.1,7.4,3.1c2.8,0,5.4-1.1,7.4-3.1c2-2,3.1-4.6,3.1-7.4C276.1,751.9,275,749.3,273,747.3 M265.8,764.5
					c-5.4,0-9.8-4.4-9.8-9.8c0-5.4,4.4-9.8,9.8-9.8c5.4,0,9.8,4.4,9.8,9.8C275.6,760.1,271.2,764.5,265.8,764.5"/>
			</g>
		</g>
	</g>
</g>
<g id="text">
	<text transform="matrix(1 0 0 1 222.1836 48.4976)"><tspan x="0" y="0" class="st17 st18">THE BREUKELEN</tspan><tspan x="43.9" y="26.4" class="st17 st19">DINNER MENU</tspan></text>
	<rect x="43.5" y="180.2" class="st20" width="159.2" height="155"/>
	<text transform="matrix(1 0 0 1 87.8179 186.0664)"><tspan x="0" y="0" class="st17 st21">SOUP OF THE DAY</tspan><tspan x="32.9" y="9.6" class="st17 st21">8</tspan><tspan x="4.7" y="28.8" class="st17 st21">MAC &amp; CHEESE*</tspan><tspan x="-13.1" y="38.4" class="st17 st21">cheddar cheese &amp; truffle oil</tspan><tspan x="17.9" y="48" class="st17 st21">bacon + 2</tspan><tspan x="32.9" y="57.6" class="st17 st21">8</tspan><tspan x="20.3" y="76.8" class="st17 st21">SHRIMP</tspan><tspan x="-22" y="86.4" class="st17 st21">rolled with bacon &amp; sautéed kale</tspan><tspan x="32.9" y="96" class="st17 st21">9</tspan><tspan x="-1.9" y="115.2" class="st17 st21">BREUKELEN WINGS</tspan><tspan x="-17.7" y="124.8" class="st17 st21">w/ Nigerian obe pepper sauce </tspan><tspan x="30.6" y="134.4" class="st17 st21">10</tspan></text>
	<rect x="43.5" y="372.2" class="st20" width="256.5" height="202.2"/>
	<text transform="matrix(1 0 0 1 108.1445 378.8037)"><tspan x="0" y="0" class="st17 st22">CRISPY PAN SEARED SALMON</tspan><tspan x="-33.9" y="10.8" class="st17 st22">sautéed kale greens &amp; rosemary roasted potatoes</tspan><tspan x="58.4" y="21.6" class="st17 st22">14</tspan><tspan x="45.9" y="43.2" class="st17 st22">BURGER</tspan><tspan x="-3.1" y="54" class="st17 st22">angus beef, cheese, roast peppers</tspan><tspan x="-50.6" y="64.8" class="st17 st22">lettuce, caramelized onions tomato with herb fries &amp; salad</tspan><tspan x="25" y="75.6" class="st17 st22">egg and/or bacon 2</tspan><tspan x="58.4" y="86.4" class="st17 st22">15</tspan><tspan x="10.5" y="108" class="st17 st22">KOREAN FRIED CHICKEN</tspan><tspan x="3.3" y="118.8" class="st17 st22">braised kale and mac &amp; cheese</tspan><tspan x="58.4" y="129.6" class="st17 st22">16</tspan><tspan x="25.8" y="151.2" class="st17 st22">SALMON NICOISE</tspan><tspan x="-58.1" y="162" class="st17 st22">grilled salmon, asparagus, green beans, egg, arugula, rosemary </tspan><tspan x="1.8" y="172.8" class="st17 st22">potatoes dressed with balsamic</tspan><tspan x="58.4" y="183.6" class="st17 st22">16</tspan></text>
	<rect x="224.7" y="180.2" class="st20" width="159.7" height="134"/>
	<text transform="matrix(1 0 0 1 284.3516 186.0664)"><tspan x="0" y="0" class="st17 st21">CALAMARI</tspan><tspan x="-42" y="9.6" class="st17 st21">fried, w/ nigerian obe pepper sauce </tspan><tspan x="15.5" y="19.2" class="st17 st21">10</tspan><tspan x="-7.4" y="38.4" class="st17 st21">PORTOBELLO*</tspan><tspan x="-53" y="48" class="st17 st21">mushrooms stuffed with Italian sausage &amp; </tspan><tspan x="-14.8" y="57.6" class="st17 st21">cheese with arugula</tspan><tspan x="15.5" y="67.2" class="st17 st21">10</tspan><tspan x="-12.8" y="86.4" class="st17 st21">PETITE POUTINE*</tspan><tspan x="-55.8" y="96" class="st17 st21">fries with cheese curds, chef’s special gravy </tspan><tspan x="-6.8" y="105.6" class="st17 st21">&amp; crispy onions</tspan><tspan x="15.5" y="115.2" class="st17 st21">11</tspan></text>
	<text transform="matrix(1 0 0 1 257.1733 157.1626)" class="st17 st23">APPETIZERS/SALADS</text>
	<text transform="matrix(1 0 0 1 283.5288 348.9165)" class="st17 st23">ENTRÉES</text>
	<text transform="matrix(1 0 0 1 283.2427 601.583)" class="st17 st23">SPECIALS</text>
	<rect x="403.6" y="180.2" class="st20" width="164.8" height="144.7"/>
	<text transform="matrix(1 0 0 1 453.3779 186.0664)"><tspan x="0" y="0" class="st17 st21">VEGGIE NICOISE*</tspan><tspan x="-49.4" y="9.6" class="st17 st21">asparagus, green beans, egg, arugula, rosemary </tspan><tspan x="-22.3" y="19.2" class="st17 st21">potatoes dressed with balsamic</tspan><tspan x="28" y="28.8" class="st17 st21">12</tspan><tspan x="0.2" y="48" class="st17 st21">CAPRESE SALAD*</tspan><tspan x="-46.5" y="57.6" class="st17 st21">arugula, burrata, prosciutto di parma, dressed </tspan><tspan x="8.8" y="67.2" class="st17 st21">with balsamic</tspan><tspan x="28" y="76.8" class="st17 st21">14</tspan><tspan x="-14.2" y="96" class="st17 st21">SMOKED TROUT SALAD* </tspan><tspan x="-38.9" y="105.6" class="st17 st21">smoked trout, fresh mozzarella, scallions, </tspan><tspan x="-37.5" y="115.2" class="st17 st21">vesuvio tomatoes, arugula, dressed with </tspan><tspan x="17.6" y="124.8" class="st17 st21">balsamic</tspan><tspan x="28" y="134.4" class="st17 st21">15</tspan></text>
	<rect x="280.1" y="753" class="st4" width="78.5" height="12.8"/>
	<text transform="matrix(1 0 0 1 280.0713 758.1436)" class="st17 st24">* VEGETARIAN OPTION</text>
	<rect x="313.5" y="372.2" class="st20" width="255.7" height="220.3"/>
	<text transform="matrix(1 0 0 1 400.8872 378.8037)"><tspan x="0" y="0" class="st17 st22">BREUKELEN STEAK</tspan><tspan x="-81.7" y="10.8" class="st17 st22">seared steak (chef’s choice), herb fries &amp; organic mixed greens</tspan><tspan x="-42.6" y="21.6" class="st17 st22">substitute rosemary potatoes &amp; asparagus</tspan><tspan x="35.2" y="32.4" class="st17 st22">16</tspan><tspan x="-9.6" y="54" class="st17 st22">MUSSELS PROVENCALE</tspan><tspan x="-27" y="64.8" class="st17 st22">PEI mussels served with herb fries</tspan><tspan x="-26.7" y="75.6" class="st17 st22">white wine broth, shallots, parsley</tspan><tspan x="35.2" y="86.4" class="st17 st22">16</tspan><tspan x="-5" y="108" class="st17 st22">SEARED TUNA STEAK</tspan><tspan x="-21.7" y="118.8" class="st17 st22">rosemary potatoes &amp; asparagus</tspan><tspan x="35.2" y="129.6" class="st17 st22">16</tspan><tspan x="28.3" y="151.2" class="st17 st22">SIDES</tspan><tspan x="-73.6" y="162" class="st17 st22">herb fries / sautéed kale / organic mixed greens / sautéed </tspan><tspan x="-14.8" y="172.8" class="st17 st22">broccoli/ sautéed asparagus</tspan><tspan x="37.8" y="183.6" class="st17 st22">4</tspan></text>
	<g>
		<g>
			<line class="st25" x1="232" y1="353.5" x2="232.5" y2="353.5"/>
			<line class="st26" x1="233.5" y1="353.5" x2="379.5" y2="353.5"/>
			<line class="st25" x1="380" y1="353.5" x2="380.5" y2="353.5"/>
		</g>
	</g>
	<g>
		<g>
			<line class="st25" x1="230.6" y1="608" x2="231.1" y2="608"/>
			<line class="st26" x1="232.1" y1="608" x2="378.1" y2="608"/>
			<line class="st25" x1="378.6" y1="608" x2="379.1" y2="608"/>
		</g>
	</g>
	<g>
		<g>
			<line class="st25" x1="231.8" y1="162.5" x2="232.2" y2="162.5"/>
			<line class="st26" x1="233.3" y1="162.5" x2="379.2" y2="162.5"/>
			<line class="st25" x1="379.8" y1="162.5" x2="380.2" y2="162.5"/>
		</g>
	</g>
	<text transform="matrix(0.9209 0 0 1 210.2979 631.063)"><tspan x="0" y="0" class="st17 st22">MO-FR</tspan><tspan x="0" y="13" class="st17 st22">TUESDAY</tspan><tspan x="0" y="26" class="st17 st22">WEDNESDAY </tspan><tspan x="0" y="39" class="st17 st22">THURSDAY </tspan><tspan x="0" y="52" class="st17 st22">SAT-SUN</tspan><tspan x="38" y="52" class="st17 st22 st27">	</tspan></text>
	<text transform="matrix(0.9209 0 0 1 305.7021 631.063)"><tspan x="0" y="0" class="st17 st22">HAPPY HOUR 4PM-7PM</tspan><tspan x="-2.1" y="13" class="st17 st22">17$ UNLIMITED MUSSEL</tspan><tspan x="7.5" y="26" class="st17 st22">50 CENT WING NIGHT</tspan><tspan x="29.7" y="39" class="st17 st22">LIFE-JAZZ NIGHT</tspan><tspan x="-9.8" y="52" class="st17 st22">17$ UNLIMITED MIMOSAS</tspan></text>
	<g>
		<g>
			<g>
				<g>
					<g>
						<line class="st29" x1="440.3" y1="691.1" x2="440.3" y2="662.5"/>
					</g>
					<line class="st29" x1="436.1" y1="691.1" x2="436.1" y2="662.5"/>
				</g>
				<g>
					<g>
						<line class="st29" x1="440.3" y1="662.5" x2="440.3" y2="634"/>
					</g>
					<line class="st29" x1="436.1" y1="662.6" x2="436.1" y2="634"/>
				</g>
				<g>
					<g>
						<line class="st29" x1="440.3" y1="634" x2="440.3" y2="605.4"/>
					</g>
					<line class="st29" x1="436.1" y1="634" x2="436.1" y2="605.4"/>
				</g>
				<g>
					<g>
						<line class="st29" x1="461.9" y1="583.8" x2="490.3" y2="583.8"/>
					</g>
					<line class="st29" x1="461.9" y1="579.6" x2="490.3" y2="579.6"/>
				</g>
				<g>
					<g>
						<line class="st29" x1="490.3" y1="583.8" x2="518.7" y2="583.8"/>
					</g>
					<line class="st29" x1="490.3" y1="579.6" x2="518.7" y2="579.6"/>
				</g>
				<g>
					<g>
						<line class="st29" x1="518.7" y1="583.8" x2="547.1" y2="583.8"/>
					</g>
					<line class="st29" x1="518.7" y1="579.6" x2="547.1" y2="579.6"/>
				</g>
				<g>
					<g>
						<line class="st29" x1="568.7" y1="605.4" x2="568.7" y2="634"/>
					</g>
					<line class="st29" x1="572.9" y1="605.4" x2="572.9" y2="634"/>
				</g>
				<g>
					<g>
						<line class="st29" x1="568.7" y1="634" x2="568.7" y2="662.5"/>
					</g>
					<line class="st29" x1="572.9" y1="633.9" x2="572.9" y2="662.5"/>
				</g>
				<g>
					<g>
						<line class="st29" x1="568.7" y1="662.5" x2="568.7" y2="691.1"/>
					</g>
					<line class="st29" x1="572.9" y1="662.5" x2="572.9" y2="691.1"/>
				</g>
				<g>
					<g>
						<line class="st29" x1="547.1" y1="712.7" x2="518.7" y2="712.7"/>
					</g>
					<line class="st29" x1="547.1" y1="716.9" x2="518.7" y2="716.9"/>
				</g>
				<g>
					<g>
						<line class="st29" x1="518.7" y1="712.7" x2="490.3" y2="712.7"/>
					</g>
					<line class="st29" x1="518.7" y1="716.9" x2="490.3" y2="716.9"/>
				</g>
				<g>
					<g>
						<line class="st29" x1="490.3" y1="712.7" x2="461.9" y2="712.7"/>
					</g>
					<line class="st29" x1="490.3" y1="716.9" x2="461.9" y2="716.9"/>
				</g>
				<g>
					<polyline class="st30" points="440.3,605.4 440.8,605.3 441.4,605.2 441.9,605.1 442.4,605 442.9,604.9 443.4,604.7 
						443.9,604.6 444.4,604.4 444.9,604.3 445.3,604.1 446.3,603.7 447.2,603.3 448.1,602.8 449,602.4 449.9,601.8 450.7,601.3 
						451.6,600.7 452.4,600.1 453.2,599.5 453.9,598.8 454.6,598.1 455.3,597.4 456,596.6 456.6,595.8 457.2,595 457.8,594.2 
						458.4,593.4 458.9,592.5 459.4,591.6 459.8,590.7 460.2,589.8 460.6,588.8 460.8,588.3 460.9,587.8 461.1,587.3 461.3,586.9 
						461.4,586.4 461.5,585.8 461.6,585.3 461.7,584.8 461.8,584.3 461.9,583.8 					"/>
					<polyline class="st29" points="436.1,605.5 436.1,601.6 436.6,601.6 437.2,601.6 437.8,601.5 438.3,601.5 438.9,601.4 
						439.4,601.4 440,601.3 440.5,601.2 441,601 441.6,600.9 442.1,600.8 442.6,600.6 443.1,600.4 443.6,600.3 444.1,600.1 
						444.6,599.9 445.1,599.7 445.6,599.4 446.1,599.2 446.6,598.9 447,598.7 447.5,598.4 447.9,598.1 448.4,597.8 448.8,597.5 
						449.2,597.2 449.7,596.9 450.1,596.6 450.5,596.2 450.9,595.9 451.2,595.5 451.6,595.1 452,594.8 452.4,594.4 452.7,594 
						453,593.6 453.4,593.2 453.7,592.7 454,592.3 454.3,591.9 454.6,591.4 454.9,591 455.2,590.5 455.4,590 455.7,589.6 
						455.9,589.1 456.1,588.6 456.3,588.1 456.5,587.6 456.7,587.1 456.9,586.6 457.1,586.1 457.2,585.6 457.4,585 457.5,584.5 
						457.6,584 457.7,583.4 457.8,582.9 457.9,582.4 457.9,581.8 458,581.2 458,580.7 458.1,580.1 458.1,579.5 461.9,579.5 					"/>
				</g>
				<g>
					<polyline class="st30" points="547.1,583.8 547.2,584.3 547.3,584.9 547.4,585.4 547.5,585.9 547.6,586.4 547.8,586.9 
						547.9,587.4 548.1,587.9 548.2,588.4 548.4,588.8 548.8,589.8 549.2,590.7 549.7,591.6 550.1,592.5 550.7,593.4 551.2,594.2 
						551.8,595.1 552.4,595.9 553,596.7 553.7,597.4 554.4,598.1 555.1,598.8 555.9,599.5 556.7,600.1 557.5,600.7 558.3,601.3 
						559.1,601.9 560,602.4 560.9,602.9 561.8,603.3 562.7,603.7 563.7,604.1 564.2,604.3 564.7,604.4 565.2,604.6 565.6,604.8 
						566.1,604.9 566.7,605 567.2,605.1 567.7,605.2 568.2,605.3 568.7,605.4 					"/>
					<polyline class="st29" points="547,579.6 550.9,579.6 550.9,580.1 550.9,580.7 551,581.3 551,581.8 551.1,582.4 551.1,582.9 
						551.2,583.5 551.3,584 551.5,584.5 551.6,585.1 551.7,585.6 551.9,586.1 552.1,586.6 552.2,587.1 552.4,587.6 552.6,588.1 
						552.8,588.6 553.1,589.1 553.3,589.6 553.6,590.1 553.8,590.5 554.1,591 554.4,591.4 554.7,591.9 555,592.3 555.3,592.7 
						555.6,593.2 555.9,593.6 556.3,594 556.6,594.4 557,594.7 557.4,595.1 557.7,595.5 558.1,595.9 558.5,596.2 558.9,596.5 
						559.3,596.9 559.8,597.2 560.2,597.5 560.6,597.8 561.1,598.1 561.5,598.4 562,598.7 562.5,598.9 562.9,599.2 563.4,599.4 
						563.9,599.6 564.4,599.8 564.9,600 565.4,600.2 565.9,600.4 566.4,600.6 566.9,600.7 567.5,600.9 568,601 568.5,601.1 
						569.1,601.2 569.6,601.3 570.1,601.4 570.7,601.4 571.3,601.5 571.8,601.5 572.4,601.6 573,601.6 573,605.4 					"/>
				</g>
				<g>
					<polyline class="st30" points="568.7,691.1 568.2,691.2 567.6,691.3 567.1,691.4 566.6,691.5 566.1,691.6 565.6,691.8 
						565.1,691.9 564.6,692.1 564.1,692.2 563.7,692.4 562.7,692.8 561.8,693.2 560.9,693.7 560,694.1 559.1,694.7 558.3,695.2 
						557.4,695.8 556.6,696.4 555.8,697 555.1,697.7 554.4,698.4 553.7,699.1 553,699.9 552.4,700.7 551.8,701.5 551.2,702.3 
						550.6,703.1 550.1,704 549.6,704.9 549.2,705.8 548.8,706.7 548.4,707.7 548.2,708.2 548.1,708.7 547.9,709.2 547.7,709.6 
						547.6,710.1 547.5,710.7 547.4,711.2 547.3,711.7 547.2,712.2 547.1,712.7 					"/>
					<polyline class="st29" points="572.9,691 572.9,694.9 572.4,694.9 571.8,694.9 571.2,695 570.7,695 570.1,695.1 569.6,695.1 
						569,695.2 568.5,695.3 568,695.5 567.4,695.6 566.9,695.7 566.4,695.9 565.9,696.1 565.4,696.2 564.9,696.4 564.4,696.6 
						563.9,696.8 563.4,697.1 562.9,697.3 562.4,697.6 562,697.8 561.5,698.1 561.1,698.4 560.6,698.7 560.2,699 559.8,699.3 
						559.3,699.6 558.9,699.9 558.5,700.3 558.1,700.6 557.8,701 557.4,701.4 557,701.7 556.6,702.1 556.3,702.5 556,702.9 
						555.6,703.3 555.3,703.8 555,704.2 554.7,704.6 554.4,705.1 554.1,705.5 553.8,706 553.6,706.5 553.3,706.9 553.1,707.4 
						552.9,707.9 552.7,708.4 552.5,708.9 552.3,709.4 552.1,709.9 551.9,710.4 551.8,710.9 551.6,711.5 551.5,712 551.4,712.5 
						551.3,713.1 551.2,713.6 551.1,714.1 551.1,714.7 551,715.3 551,715.8 550.9,716.4 550.9,717 547.1,717 					"/>
				</g>
				<g>
					<polyline class="st30" points="461.9,712.7 461.8,712.2 461.7,711.6 461.6,711.1 461.5,710.6 461.4,710.1 461.2,709.6 
						461.1,709.1 460.9,708.6 460.8,708.1 460.6,707.7 460.2,706.7 459.8,705.8 459.3,704.9 458.9,704 458.3,703.1 457.8,702.3 
						457.2,701.4 456.6,700.6 456,699.8 455.3,699.1 454.6,698.4 453.9,697.7 453.1,697 452.3,696.4 451.5,695.8 450.7,695.2 
						449.9,694.6 449,694.1 448.1,693.6 447.2,693.2 446.3,692.8 445.3,692.4 444.8,692.2 444.3,692.1 443.8,691.9 443.4,691.7 
						442.9,691.6 442.3,691.5 441.8,691.4 441.3,691.3 440.8,691.2 440.3,691.1 					"/>
					<polyline class="st29" points="462,716.9 458.1,716.9 458.1,716.4 458.1,715.8 458,715.2 458,714.7 457.9,714.1 457.9,713.6 
						457.8,713 457.7,712.5 457.5,712 457.4,711.4 457.3,710.9 457.1,710.4 456.9,709.9 456.8,709.4 456.6,708.9 456.4,708.4 
						456.2,707.9 455.9,707.4 455.7,706.9 455.4,706.4 455.2,706 454.9,705.5 454.6,705.1 454.3,704.6 454,704.2 453.7,703.8 
						453.4,703.3 453.1,702.9 452.7,702.5 452.4,702.1 452,701.8 451.6,701.4 451.3,701 450.9,700.6 450.5,700.3 450.1,700 
						449.7,699.6 449.2,699.3 448.8,699 448.4,698.7 447.9,698.4 447.5,698.1 447,697.8 446.5,697.6 446.1,697.3 445.6,697.1 
						445.1,696.9 444.6,696.7 444.1,696.5 443.6,696.3 443.1,696.1 442.6,695.9 442.1,695.8 441.5,695.6 441,695.5 440.5,695.4 
						439.9,695.3 439.4,695.2 438.9,695.1 438.3,695.1 437.7,695 437.2,695 436.6,694.9 436,694.9 436,691.1 					"/>
				</g>
			</g>
		</g>
	</g>
	<text transform="matrix(1 0 0 1 476.3936 620.6069)"><tspan x="0" y="0" class="st31 st32 st22">HAPPY HOUR</tspan><tspan x="2" y="21.6" class="st31 st32 st22">Draft Beer...5</tspan><tspan x="-1.7" y="32.4" class="st31 st32 st22">House Wine...6</tspan><tspan x="-4.9" y="43.2" class="st31 st32 st22">Well Cocktails...5</tspan><tspan x="-25.5" y="54" class="st31 st32 st22">Carafe House Wine...15/30</tspan></text>
</g>
</svg>
