<?xml version="1.0" encoding="utf-8"?>
<!-- Generator: Adobe Illustrator 21.1.0, SVG Export Plug-In . SVG Version: 6.00 Build 0)  -->
<svg version="1.1" xmlns="http://www.w3.org/2000/svg" xmlns:xlink="http://www.w3.org/1999/xlink" x="0px" y="0px"
	 viewBox="0 0 252 144" style="enable-background:new 0 0 252 144;" xml:space="preserve">
<style type="text/css">
	.st0{display:none;}
	.st1{display:inline;fill:#444545;}
	.st2{display:inline;fill:#757576;}
	.st3{fill-rule:evenodd;clip-rule:evenodd;}
	.st4{fill-rule:evenodd;clip-rule:evenodd;fill:none;}
	.st5{clip-path:url(#SVGID_2_);}
	.st6{clip-path:url(#SVGID_4_);fill:#232323;}
	.st7{clip-path:url(#SVGID_6_);}
	.st8{clip-path:url(#SVGID_8_);fill:#232323;}
	.st9{clip-path:url(#SVGID_10_);}
	.st10{clip-path:url(#SVGID_12_);fill:#232323;}
	.st11{clip-path:url(#SVGID_14_);}
	.st12{clip-path:url(#SVGID_16_);fill:#232323;}
	.st13{clip-path:url(#SVGID_18_);}
	.st14{clip-path:url(#SVGID_20_);fill:#232323;}
	.st15{fill:none;stroke:#000000;stroke-width:0.5;stroke-miterlimit:10;}
	.st16{fill:none;stroke:#000000;stroke-width:0.5;stroke-miterlimit:10;stroke-dasharray:0.5026,0.5026;}
	.st17{fill:none;stroke:#000000;stroke-miterlimit:10;}
	.st18{fill:none;stroke:#000000;stroke-miterlimit:10;stroke-dasharray:1.0034,1.0034;}
	.st19{fill:none;stroke:#000000;stroke-width:0.25;stroke-miterlimit:10;}
	.st20{fill:#070808;}
</style>
<g id="backround" class="st0">
	<rect class="st2" width="252" height="144"/>
</g>
<g id="graphics">
	<g>
		<g>
			<defs>
				<rect id="SVGID_9_" x="83.1" y="21" width="85.8" height="111"/>
			</defs>
			<clipPath id="SVGID_2_">
				<use xlink:href="#SVGID_9_"  style="overflow:visible;"/>
			</clipPath>
			<g class="st5">
				<defs>
					<rect id="SVGID_11_" x="83.1" y="21" width="85.8" height="111"/>
				</defs>
				<clipPath id="SVGID_4_">
					<use xlink:href="#SVGID_11_"  style="overflow:visible;"/>
				</clipPath>
				<path class="st6" d="M121.2,73.3c-2.1,0-4.1-0.3-6.1-0.8c-4.1-1.1,0-3.6,2-4.3c1.7-0.6,3.9-1,6.2-1.1c0,0,2.1,0,2.1,0
					c1.3,0,2.7,0.2,4.1,0.4c0.1,0,0.3,0,0.3,0.1l0.2-0.9c-0.1,0-0.4-0.1-0.5-0.1c-1.2-0.3-2.5-0.5-3.8-0.7l-2.1-0.2
					c-4.3-0.2-8.8,0.4-11.8,3.1c-2.8,2.5,2.8,4.8,4.4,5.3c1.5,0.4,3,0.7,4.6,0.8c0,0,0.2,0,0.2,0l0.4-1.5
					C121.5,73.3,121.3,73.3,121.2,73.3"/>
				<path class="st6" d="M143.2,74.9c-0.7-1.7-2-3.2-3.6-4.3c3.2-2.3,5.3-5.6,2.9-9.4c-3.1-4.9-10.4-6.9-15.7-8.9
					c-0.3-3.9-1.3-7.8-3.5-10.8c-1.2-1.5-2.8-2.2-4.7-2.2c-2.9,0-2.5,3.3-1.9,5.2c1.3,4.1,4.5,6.3,8,8c0,0.4,0.1,0.7,0.1,1.1
					c0.1,3.8-0.3,7.6-1,11.5c0,0,0,0.3,0,0.3l2,0.2c0-0.1,0.1-0.3,0.1-0.4c0.1-0.8,0.3-1.5,0.4-2.3c0.5-2.9,0.8-6.1,0.6-9.4
					c4.4,1.8,15.1,4.2,14.6,10.4c-0.2,2.4-1.6,4.2-3.6,5.6c-1.7-0.9-3.6-1.6-5.3-2.2c0.3-1.3,0.5-2.7,0.8-4c0.1-0.7-2-1.8-2.1-1
					c-0.2,1.1-0.4,2.3-0.7,3.4h0l-0.1,0.4c0,0.2-1,5-1.4,6.7c-1.7,0.3-3.3,0.5-4.5,0.6c-0.2,0-0.4,0-0.6,0c0.5-1.9,1-3.8,1.4-5.7
					c0,0,0.1-0.3,0.1-0.3l-2.1,0c0,0.1-0.1,0.2-0.1,0.3c-0.4,1.9-0.9,3.8-1.5,5.7c0,0-0.5,1.5-0.5,1.5c-1.4,4.4-3,8.8-4.6,12.9
					c-0.3,0.7,1.8,1.9,2,1.3c1.8-4.6,3.4-9.3,4.8-14.1c1.7,0,3.4-0.1,5.1-0.4c-1.4,6-3,11.9-5.1,17.7c-5.3,2.2-11.8,5.1-12.1,11.3
					c-0.1,1.7,2.1,3.1,3.7,3.1c4.5-0.1,6.4-3.5,8.2-7.2c0.9-1.9,1.6-3.8,2.3-5.7C135.1,89.9,147.2,85.3,143.2,74.9 M118.3,42.6
					c0.1-1.8,2.6-2.2,3.6-0.7c0.8,1.1,1.2,2.6,1.6,3.9c0.6,1.8,0.9,3.7,1,5.7C121.1,49.7,118.1,46.8,118.3,42.6 M122.3,95.4
					c-1.3,3.3-2.9,7.9-6.4,9.4c-5.1,2.1,0-5.9,1.6-7c1.3-0.9,2.9-1.8,4.8-2.6C122.4,95.2,122.4,95.3,122.3,95.4 M131.5,72.1
					c0.3-1.3,0.5-2.7,0.8-4c1.7,0.5,3.2,1.1,4.6,1.9C135.3,71,133.4,71.6,131.5,72.1 M126.6,91c1.9-5.5,3.3-11.2,4.5-16.9
					c0.8-0.2,1.6-0.4,2.4-0.6c1.6-0.4,3.5-1.2,5.2-2.3c1,0.8,1.9,1.8,2.5,2.9C145.8,82.9,132.8,88.4,126.6,91"/>
				<path class="st6" d="M148.2,51.8c-5.8-5.8-13.4-8.9-21.6-8.9c-8.2,0-15.8,3.2-21.6,8.9c-5.8,5.8-9,13.4-9,21.6
					c0,8.2,3.2,15.8,9,21.6c5.8,5.8,13.4,8.9,21.6,8.9c8.2,0,15.8-3.2,21.6-8.9c5.8-5.8,9-13.4,9-21.6
					C157.2,65.2,154,57.6,148.2,51.8 M127,102.2c-15.9,0-28.8-12.9-28.8-28.8c0-15.9,12.9-28.8,28.8-28.8
					c15.9,0,28.8,12.9,28.8,28.8C155.8,89.3,142.9,102.2,127,102.2"/>
			</g>
		</g>
	</g>
</g>
<g id="text">
</g>
</svg>
