<?xml version="1.0" encoding="utf-8"?>
<!-- Generator: Adobe Illustrator 21.1.0, SVG Export Plug-In . SVG Version: 6.00 Build 0)  -->
<svg version="1.1" xmlns="http://www.w3.org/2000/svg" xmlns:xlink="http://www.w3.org/1999/xlink" x="0px" y="0px"
	 viewBox="0 0 144 252" style="enable-background:new 0 0 144 252;" xml:space="preserve">
<style type="text/css">
	.st0{display:none;}
	.st1{display:inline;fill:#444545;}
	.st2{display:inline;fill:#757576;}
	.st3{fill-rule:evenodd;clip-rule:evenodd;}
	.st4{fill-rule:evenodd;clip-rule:evenodd;fill:none;}
	.st5{clip-path:url(#SVGID_2_);}
	.st6{clip-path:url(#SVGID_4_);fill:#232323;}
	.st7{clip-path:url(#SVGID_6_);}
	.st8{clip-path:url(#SVGID_8_);fill:#232323;}
	.st9{clip-path:url(#SVGID_10_);}
	.st10{clip-path:url(#SVGID_12_);fill:#232323;}
	.st11{clip-path:url(#SVGID_14_);}
	.st12{clip-path:url(#SVGID_16_);fill:#232323;}
	.st13{clip-path:url(#SVGID_18_);}
	.st14{clip-path:url(#SVGID_20_);fill:#232323;}
	.st15{fill:none;stroke:#000000;stroke-width:0.5;stroke-miterlimit:10;}
	.st16{fill:none;stroke:#000000;stroke-width:0.5;stroke-miterlimit:10;stroke-dasharray:0.5026,0.5026;}
	.st17{fill:none;stroke:#000000;stroke-miterlimit:10;}
	.st18{fill:none;stroke:#000000;stroke-miterlimit:10;stroke-dasharray:1.0034,1.0034;}
	.st19{font-family:'Lato-Regular';}
	.st20{font-size:4.1086px;}
	.st21{font-family:'Lato-Thin';}
	.st22{font-size:9px;}
	.st23{font-family:'Lato-Light';}
	.st24{font-size:5.5px;}
	.st25{font-size:5.752px;}
	.st26{fill:none;stroke:#000000;stroke-width:0.25;stroke-miterlimit:10;}
	.st27{fill:#070808;}
</style>
<g id="backround" class="st0">
	<rect class="st2" width="144" height="252"/>
</g>
<g id="graphics">
	<g>
		<g>
			<path class="st3" d="M74.6,186.6c-0.1-0.4,0-0.8,0.2-1.1c0.1-0.1,0.1-0.4,0.1-0.5c-0.2-1.1,0.1-2,0.8-2.8
				c0.9-0.9,1.8-1.9,2.7-2.8c2.6-2.5,5.2-5,7.8-7.5c1.7-1.6,3.3-3.1,5-4.7c0.6-0.6,1.2-1.2,1.8-1.8c0.7-0.7,1.4-1.4,2.4-1.7
				c0.7-0.3,1.5-0.3,2.3,0c0.4,0.2,0.8,0.3,1.1,0.7c0.6,0.9,0.8,1.7,0.3,2.7c-0.3,0.7-0.8,1.2-1.4,1.7c-0.6,0.5-1.1,1-1.6,1.5
				c-4.7,4.7-9.4,9.5-14.2,14.2c-1.1,1.1-2.3,2.2-3.5,3.3c-0.2,0.2-0.4,0.3-0.6,0.4c-0.1,0-0.2,0.1-0.2,0.1c-0.2,0.3-0.6,0.4-1,0.4
				c-0.2,0.5-0.4,0.9-1,1.1c0,0,0,0,0,0c-0.2,0.6-1,0.7-1.2,1.3c0,0.1-0.1,0.1-0.1,0.2c-0.8,0.7-1.5,1.5-2.3,2.2
				c-0.6,0.5-1,1-1.5,1.5c-0.7,0.8-1.3,1.6-2,2.4c-0.2,0.2-0.3,0.5-0.4,0.8c-0.5,0.8-1,1.7-1.5,2.5c-0.3,0.4-0.5,0.9-0.9,1.2
				c-0.7,0.5-1,1.2-1.6,1.8c-0.7,0.7-1.3,1.4-2.2,1.8c-0.6,0.3-1.2,0.4-1.8,0.6c-0.8,0.2-1.4-0.3-2.1-0.7c-0.7-0.5-0.9-1.2-1.1-1.9
				c-0.1-0.3,0-0.6,0.1-0.9c0.2-0.5,0.4-1,0.7-1.5c0.8-1.2,1.8-2.2,3-2.9c0.6-0.4,1.2-0.9,1.8-1.3c0.6-0.4,1.1-0.7,1.7-1.1
				c1.4-0.9,2.7-1.9,3.8-3.2c1-1.1,2.1-2.3,3.2-3.4c0.4-0.4,0.9-0.8,1.5-1c0.3-0.1,0.6-0.5,0.7-0.8
				C73.8,186.9,74.1,186.6,74.6,186.6z M75.6,182.7C75.6,182.7,75.6,182.7,75.6,182.7c4.3-4.1,8.6-8.1,12.8-12.2
				c0,0,0.1,0.1,0.1,0.1c-0.1,0.1-0.2,0.2-0.3,0.3c-0.9,0.8-1.8,1.7-2.7,2.5c-3.2,3.1-6.5,6.3-9.7,9.4c-0.1,0.1-0.4,0.2-0.5,0.4
				c-0.4,0.5-0.3,1.7,0.1,2.2c0.7,0.8,1.5,1.5,2.2,2.3c0.1-0.1,0.3-0.2,0.4-0.3c1.4-1.3,2.8-2.7,4.2-4c4.6-4.6,9.3-9.3,13.9-13.9
				c0.7-0.7,1.5-1.5,2.2-2.2c0.5-0.5,0.6-1.2,0.4-1.9c-0.2,0.2-0.4,0.3-0.6,0.4c-1.1,1.1-2.2,2.2-3.4,3.2c-1.1,1-2.2,2.1-3.2,3.1
				c-0.1,0.1-0.2,0.2-0.3,0.2c0.2-0.3,0.4-0.5,0.7-0.8c1.6-1.6,3.3-3.2,4.9-4.8c0.6-0.6,1.2-1.1,1.9-1.7c-0.1-0.1-0.2-0.3-0.3-0.5
				c-0.1,0-0.1,0-0.1,0c-3.3,3.1-6.5,6.2-9.8,9.3c0,0-0.1,0.1-0.1,0.1c0,0,0,0,0,0c0,0,0,0,0,0c3.3-3.2,6.6-6.3,9.9-9.5
				c-0.4-0.4-0.4-0.4-0.8-0.1c-1.2,1.1-2.4,2.3-3.6,3.4c-0.1,0.1-0.2,0.2-0.3,0.2c0,0,0-0.1-0.1-0.1c1.3-1.4,2.8-2.5,4.1-3.9
				c-0.6-0.3-0.6-0.3-0.9,0.1c-0.5,0.5-1,1-1.5,1.5c-1.1,1-2.2,2.1-3.3,3.1c0,0-0.1,0.1-0.2,0.1c0,0,0-0.1-0.1-0.1
				c0.3-0.3,0.6-0.7,1-1c1.1-1,2.1-2,3.2-3c0.3-0.3,0.6-0.7,0.9-1c0,0-0.1-0.1-0.1-0.1c-0.4,0.1-0.6,0.6-0.9,0.8
				c-0.3,0.3-0.6,0.7-0.9,1c-0.3,0.3-0.6,0.6-0.9,0.9c-0.3,0.3-0.6,0.6-1,0.9c-0.3,0.3-0.6,0.6-1,0.9c-0.3,0.3-0.6,0.6-0.9,0.9
				c0,0-0.1-0.1-0.1-0.1c1.6-1.8,3.6-3.2,5.1-5.2c-0.2,0-0.4,0-0.6,0.1c-0.5,0.3-1.1,0.6-1.6,1c-0.7,0.6-1.4,1.4-2.1,2.1
				c-3.1,3-6.2,5.9-9.3,8.9c-2.2,2.1-4.3,4.2-6.4,6.3C76,182.2,75.8,182.4,75.6,182.7z M74.2,189.1c0,0-0.1,0.1-0.1,0.2
				c-0.2-0.1-0.3-0.1-0.5-0.2c-0.1-0.1-0.2-0.3-0.4-0.5c-0.3-0.3-0.4-0.4-0.7-0.2c-0.3,0.2-0.6,0.3-0.9,0.6
				c-0.8,0.8-1.6,1.7-2.5,2.6c0,0,0,0.1-0.1,0.2c0.6-0.6,1.2-1.2,1.8-1.8c-0.3,0.4-0.6,0.8-0.9,1.1c-0.3,0.3-0.6,0.6-0.9,1
				c-0.3,0.3-0.6,0.7-0.9,0.9c-0.4,0.2-0.5,0.6-0.8,0.9c-0.4,0.4-0.8,0.7-1.2,1c-0.8,0.6-1.7,1.2-2.5,1.7c-0.1,0.1-0.3,0.2-0.4,0.2
				c0,0,0-0.1-0.1-0.1c0.4-0.3,0.8-0.6,1.2-0.9c-0.5,0.2-0.9,0.4-1.3,0.7c-0.3,0.2-0.5,0.4-0.7,0.6c-0.3,0.2-0.6,0.4-0.9,0.6
				c-0.2,0.1-0.3,0.3-0.2,0.5c0.2-0.1,0.3-0.1,0.5-0.2c0.4-0.2,1-0.2,1.3-0.8c0.1-0.3,0.5-0.3,0.7,0c0.1,0.1,0.2,0.3,0.3,0.4
				c0.1,0.1,0.2,0.2,0.4,0.3c0.1-0.2,0.2-0.3,0.3-0.5c0.1,0.1,0.2,0.3,0.3,0.4c0.1,0.1,0.1,0.2,0.2,0.2c0.2,0.1,0.2-0.1,0.3-0.2
				c0.1-0.2,0.2-0.4,0.3-0.6c-0.2-0.5-0.2-1.2,0.2-1.6c0.1-0.2,0.3-0.1,0.4,0c0.1,0.1,0.1,0.3,0.1,0.5c0,0-0.1,0-0.1,0
				c0-0.1-0.1-0.2-0.2-0.4c-0.4,0.7-0.4,0.7,0,0.9c0.2-0.2,0.4-0.3,0.6-0.5c0.2-0.1,0.3-0.2,0.3-0.4c0-0.2,0-0.4,0.2-0.5
				c0.3-0.1,0.7-0.3,1-0.4c0.1,0,0.3,0,0.4,0.1c0,0.2,0,0.4-0.1,0.5c-0.1,0.2-0.3,0.3-0.5,0.4c0.1,0.1,0.1,0.2,0.2,0.4
				c0.6-0.8,1.2-1.5,1.9-2.2c0.6-0.7,1.3-1.3,2-2c0.7-0.6,1.4-1.3,2-1.9c0,0,0.1,0.1,0.1,0.1c-0.1,0.1-0.2,0.2-0.3,0.4
				c-1.6,1.6-3.3,3-4.7,4.8c-0.3,0.4-0.8,0.8-1.1,1.3c-0.4,0.6-0.8,1.2-1.2,1.9c-0.3,0.5-0.6,1.1-0.9,1.6c0,0,0,0.1,0,0.2
				c0.1-0.1,0.1-0.1,0.1-0.2c1-1.5,1.8-3.2,3.1-4.6c1-1.1,2.1-2.2,3.1-3.3c0.5-0.5,1-0.9,1.4-1.4c0.2-0.2,0.4-0.6,0.8-0.6
				c0.1,0,0.1-0.1,0.2-0.1c0-0.2-0.1-0.4-0.1-0.5c0.1-0.1,0.3-0.1,0.4-0.2c-0.6-0.5-1.1-1-1.7-1.5C73.5,188.5,73.9,188.8,74.2,189.1
				z M60.2,202C60.3,202,60.3,201.9,60.2,202c0.2,0.2,0.2,0.4,0.3,0.5c0.4,0.4,0.8,0.5,1.3,0.3c0.2-0.1,0.3-0.2,0.4-0.2
				c0.5,0,0.9-0.3,1.3-0.6c0.1-0.1,0.2-0.1,0.2-0.1c0,0,0.1,0.1,0.1,0.1c-0.3,0.3-0.6,0.5-0.9,0.8c0,0,0.1,0.1,0.1,0.1
				c0.2-0.1,0.4-0.3,0.5-0.4c0.4-0.5,0.8-0.9,1-1.5c0.1-0.4,0.5-0.7,0.5-1.2c0.1-0.6-0.1-1-0.5-1.4c-0.5-0.4-1-0.4-1.6-0.2
				c-0.2,0.1-0.4,0.1-0.6,0.2c-0.1,0-0.2,0-0.2,0.1c-0.4,0.4-0.9,0.9-1.3,1.3c-0.3,0.3-0.6,0.6-0.9,0.9c0,0.3,0,0.5-0.1,0.7
				c-0.1,0.4-0.1,0.7,0.2,1c0,0,0.1,0,0.1,0C60.2,202.1,60.2,202,60.2,202z M74.5,187c-0.5,0-0.7,0.5-0.9,0.9
				c0.2,0.2,0.4,0.4,0.6,0.6c0.3-0.3,0.6-0.6,0.9-0.9c0,0,0.1,0.1,0.1,0.1c-0.3,0.3-0.5,0.6-0.8,0.9c0,0,0.1,0.1,0.1,0.1
				c0.2-0.2,0.5-0.5,0.7-0.7c0.2-0.3,0.1-0.4-0.2-0.6C74.9,187.2,74.7,187.1,74.5,187z M61.9,198.1c-0.8,0.1-2.5,1.8-2.7,2.5
				c0.8-0.8,1.4-1.8,2.4-2.3c-0.6,0.5-1.2,1.1-1.6,1.8c0.6-0.6,1.2-1.1,1.8-1.7C61.9,198.4,61.9,198.3,61.9,198.1z M75.1,185.8
				c-0.2,0.3,0,0.5,0.1,0.7c0.5,0.7,1.1,1.3,1.9,1.6c0-0.1,0-0.3-0.1-0.3C76.4,187.1,75.7,186.5,75.1,185.8z M65.7,200.8
				c0,0-0.1-0.1-0.1-0.1c-0.1,0.1-0.3,0.2-0.3,0.3c-0.6,1.3-1.7,2.3-2.7,3.2C64,203.5,64.6,201.9,65.7,200.8z M57.7,202.5
				c0.8-1.3,1.6-2.6,2.7-3.7C59.2,199.7,57.9,201.6,57.7,202.5z M61.6,203.2c0.2,0.5,0.5,0.7,0.8,0.6c0.4-0.1,0.4-0.3,0.3-0.9
				C62.3,203,62,203.1,61.6,203.2z M59.2,201.8c0.7-0.2,0.9-0.6,0.5-1.2c-0.1,0.4-0.4,0.6-0.7,0.4C58.6,201.3,59,201.5,59.2,201.8z
				 M77.3,187.6c-0.7-0.7-1.2-1.4-2-2C75.9,186.4,76.5,187.1,77.3,187.6z M66.4,198.4c-0.2,0-0.4,0-0.6,0c-0.2,0.1-0.3,0.2-0.5,0.4
				c0,0.3,0.2,0.3,0.5,0.4c0.2,0.1,0.3-0.2,0.4-0.3C66.2,198.7,66.3,198.6,66.4,198.4z"/>
			<path class="st4" d="M75.6,182.7c0.2-0.2,0.3-0.4,0.5-0.6c2.1-2.1,4.3-4.2,6.4-6.3c3.1-3,6.2-5.9,9.3-8.9
				c0.7-0.7,1.4-1.4,2.1-2.1c0.5-0.4,1-0.7,1.6-1c0.2-0.1,0.4-0.1,0.6-0.1c-1.5,1.9-3.5,3.4-5.1,5.2c0,0,0.1,0.1,0.1,0.1
				c0.3-0.3,0.6-0.6,0.9-0.9c0.3-0.3,0.6-0.6,1-0.9c0.3-0.3,0.6-0.6,1-0.9c0.3-0.3,0.6-0.6,0.9-0.9c0.3-0.3,0.6-0.7,0.9-1
				c0.3-0.3,0.4-0.7,0.9-0.8c0,0,0.1,0.1,0.1,0.1c-0.3,0.4-0.6,0.7-0.9,1c-1,1-2.1,2-3.2,3c-0.3,0.3-0.7,0.6-1,1c0,0,0,0.1,0.1,0.1
				c0.1,0,0.1-0.1,0.2-0.1c1.1-1,2.2-2.1,3.3-3.1c0.5-0.5,1-1,1.5-1.5c0.4-0.4,0.4-0.4,0.9-0.1c-1.3,1.4-2.8,2.6-4.1,3.9
				c0,0,0,0.1,0.1,0.1c0.1-0.1,0.2-0.1,0.3-0.2c1.2-1.1,2.4-2.3,3.6-3.4c0.3-0.3,0.4-0.3,0.8,0.1c-3.3,3.2-6.6,6.3-9.9,9.5
				c0,0,0,0,0,0c0,0,0,0,0,0c0,0,0.1,0,0.1-0.1c3.3-3.1,6.5-6.2,9.8-9.3c0,0,0,0,0.1,0c0.1,0.2,0.2,0.4,0.3,0.5
				c-0.7,0.6-1.3,1.2-1.9,1.7c-1.6,1.6-3.3,3.2-4.9,4.8c-0.2,0.2-0.5,0.5-0.7,0.8c0.1-0.1,0.2-0.1,0.3-0.2c1.1-1,2.2-2.1,3.2-3.1
				c1.1-1.1,2.2-2.2,3.4-3.2c0.2-0.2,0.3-0.3,0.6-0.4c0.2,0.8,0.1,1.4-0.4,1.9c-0.7,0.8-1.5,1.5-2.2,2.2c-4.6,4.6-9.3,9.3-13.9,13.9
				c-1.4,1.4-2.8,2.7-4.2,4c-0.1,0.1-0.3,0.2-0.4,0.3c-0.8-0.8-1.5-1.5-2.2-2.3c-0.5-0.5-0.5-1.7-0.1-2.2c0.1-0.2,0.3-0.2,0.5-0.4
				c3.2-3.1,6.5-6.3,9.7-9.4c0.9-0.9,1.8-1.7,2.7-2.5c0.1-0.1,0.2-0.2,0.3-0.3c0,0-0.1-0.1-0.1-0.1
				C84.2,174.5,79.9,178.6,75.6,182.7C75.6,182.7,75.6,182.7,75.6,182.7z M82.3,180.1c0,0,0.1,0.1,0.1,0.1
				c4.9-4.8,10.1-9.4,14.9-14.2c0,0,0,0-0.1-0.1C92.3,170.7,87.3,175.4,82.3,180.1z M89.6,170.8c0,0-0.1-0.1-0.1-0.1
				c-4.3,4.2-8.7,8.3-12.9,12.5c0,0,0,0,0.1,0.1C81,179.1,85.3,175,89.6,170.8z M85.7,174c-3.4,3.4-7,6.5-10.4,10
				c0,0,0.1,0.1,0.1,0.1C78.9,180.7,82.3,177.3,85.7,174z M86.6,172.7c3.1-2.9,6.2-5.8,9.2-8.8C92.6,166.7,89.7,169.8,86.6,172.7z
				 M90.6,174.1C90.6,174.1,90.6,174.1,90.6,174.1c-0.4,0.3-0.8,0.6-1.1,0.9c-2.2,2.1-4.4,4.3-6.6,6.4c0,0,0,0,0,0c0,0,0,0,0.1,0.1
				C85.5,179.1,88.1,176.6,90.6,174.1z M84.9,176.3C84.8,176.3,84.8,176.3,84.9,176.3c-0.2,0-0.3,0.2-0.4,0.3
				c-0.6,0.6-1.2,1.2-1.8,1.8c-1.8,1.7-3.5,3.4-5.3,5.2c-0.1,0.1-0.2,0.2-0.3,0.4c0,0,0.1,0,0.1,0.1
				C79.7,181.4,82.3,178.9,84.9,176.3z M97.3,164c0,0-0.1-0.1-0.1-0.1c-2.6,2.5-5.3,5-7.9,7.6c0,0,0.1,0.1,0.1,0.1
				C92,169,94.7,166.5,97.3,164z M86.5,175.8c0,0-0.1-0.1-0.1-0.1c-2.5,2.4-5,4.7-7.5,7.1c0,0,0.1,0.1,0.1,0.1
				C81.6,180.5,84.1,178.2,86.5,175.8z M97.9,164.4C97.9,164.4,97.8,164.4,97.9,164.4c-2.7,2.3-5.3,4.9-7.9,7.4c0,0,0.1,0.1,0.1,0.1
				C92.7,169.4,95.3,166.9,97.9,164.4z M86.9,177C86.9,177,86.9,176.9,86.9,177c-1.8,1.6-3.4,3.3-5.1,4.9c0,0,0,0,0.1,0.1
				C83.5,180.3,85.2,178.6,86.9,177z M90.8,172.8c0,0-0.1-0.1-0.1-0.1c-2.3,2.1-4.5,4.3-6.8,6.4c0,0,0,0.1,0.1,0.1
				C86.3,177.1,88.6,174.9,90.8,172.8z M82.2,178.4c-2.2,2.1-4.4,4.1-6.5,6.2c0,0,0,0,0.1,0.1C77.9,182.6,80,180.5,82.2,178.4z
				 M80.6,178.5c-1.8,1.6-3.7,3.2-5.2,5c0,0,0.1,0.1,0.1,0.1C77.2,181.8,78.9,180.1,80.6,178.5z M94.6,164.6
				C94.5,164.5,94.5,164.5,94.6,164.6c-1.9,1.8-3.8,3.7-5.7,5.5c0,0,0,0,0,0C90.8,168.3,92.7,166.4,94.6,164.6z M91.8,172.4
				C91.8,172.4,91.8,172.4,91.8,172.4c1.5-1.4,2.9-2.8,4.4-4.2c0,0,0,0,0,0C94.7,169.6,93.2,171,91.8,172.4z M86.3,173
				C86.3,172.9,86.3,172.9,86.3,173c-1.8,1.7-3.6,3.4-5.4,5.1c0,0,0,0,0.1,0.1C82.8,176.4,84.6,174.7,86.3,173z M98.6,166.5
				c-1.1,0.8-2,1.8-2.9,2.7C96.7,168.5,97.6,167.4,98.6,166.5z M85.1,176.6C85,176.6,85,176.6,85.1,176.6c-1.2,1.1-2.4,2.3-3.6,3.4
				c0,0,0,0,0.1,0.1C82.7,178.9,83.9,177.8,85.1,176.6z M89.7,171.6C89.7,171.7,89.7,171.7,89.7,171.6c1.3-1.1,2.5-2.2,3.7-3.4
				c0,0-0.1-0.1-0.1-0.1C92.1,169.3,90.9,170.5,89.7,171.6z M85.3,175.8c0.9-0.7,1.8-1.5,2.6-2.4c0,0-0.1-0.1-0.1-0.1
				C87,174.2,86.1,175,85.3,175.8z M90.6,169.5c0,0-0.1-0.1-0.1-0.1c-0.8,0.8-1.6,1.6-2.4,2.3c0,0,0,0,0,0
				C89,171,89.8,170.2,90.6,169.5z M94.1,170.9C94,170.8,94,170.8,94.1,170.9c-0.9,0.7-1.7,1.5-2.5,2.3c0,0,0.1,0.1,0.1,0.1
				C92.4,172.5,93.2,171.7,94.1,170.9z"/>
			<path class="st4" d="M74.2,189.1c-0.3-0.3-0.7-0.6-0.8-1.1c0.6,0.5,1.1,1,1.7,1.5c-0.2,0.1-0.4,0.1-0.4,0.2
				c-0.1,0.1,0,0.3,0.1,0.5c0,0-0.1,0.1-0.2,0.1c-0.4,0-0.6,0.3-0.8,0.6c-0.5,0.5-1,0.9-1.4,1.4c-1,1.1-2.1,2.2-3.1,3.3
				c-1.3,1.4-2.1,3-3.1,4.6c0,0-0.1,0.1-0.1,0.2c0-0.1,0-0.1,0-0.2c0.3-0.5,0.6-1.1,0.9-1.6c0.4-0.6,0.8-1.3,1.2-1.9
				c0.3-0.4,0.8-0.8,1.1-1.3c1.4-1.8,3.1-3.2,4.7-4.8c0.1-0.1,0.2-0.2,0.3-0.4c0,0-0.1-0.1-0.1-0.1c-0.7,0.6-1.4,1.2-2,1.9
				c-0.7,0.6-1.3,1.3-2,2c-0.6,0.7-1.2,1.4-1.9,2.2c-0.1-0.2-0.1-0.3-0.2-0.4c0.2-0.1,0.4-0.2,0.5-0.4c0.1-0.1,0.1-0.3,0.1-0.5
				c-0.1,0-0.3-0.1-0.4-0.1c-0.3,0.1-0.7,0.3-1,0.4c-0.2,0.1-0.3,0.3-0.2,0.5c0,0.2-0.1,0.3-0.3,0.4c-0.2,0.1-0.4,0.3-0.6,0.5
				c-0.4-0.2-0.4-0.2,0-0.9c0.1,0.1,0.1,0.2,0.2,0.4c0,0,0.1,0,0.1,0c0-0.2,0-0.4-0.1-0.5c-0.1-0.2-0.2-0.2-0.4,0
				c-0.3,0.4-0.4,1.1-0.2,1.6c-0.1,0.2-0.2,0.4-0.3,0.6c-0.1,0.1-0.1,0.3-0.3,0.2c-0.1,0-0.2-0.1-0.2-0.2c-0.1-0.1-0.2-0.2-0.3-0.4
				c-0.1,0.2-0.2,0.3-0.3,0.5c-0.1-0.1-0.3-0.2-0.4-0.3c-0.1-0.1-0.2-0.3-0.3-0.4c-0.2-0.2-0.6-0.3-0.7,0c-0.3,0.6-0.8,0.6-1.3,0.8
				c-0.2,0.1-0.3,0.1-0.5,0.2c0-0.2,0.1-0.4,0.2-0.5c0.3-0.2,0.6-0.4,0.9-0.6c0.3-0.2,0.5-0.4,0.7-0.6c0.4-0.3,0.8-0.5,1.3-0.7
				c-0.4,0.3-0.8,0.6-1.2,0.9c0,0,0,0.1,0.1,0.1c0.1-0.1,0.3-0.1,0.4-0.2c0.8-0.6,1.7-1.1,2.5-1.7c0.4-0.3,0.8-0.7,1.2-1
				c0.3-0.3,0.4-0.7,0.8-0.9c0.4-0.2,0.6-0.6,0.9-0.9c0.3-0.3,0.6-0.6,0.9-1c0.3-0.4,0.7-0.7,0.9-1.1c-0.6,0.6-1.2,1.1-1.8,1.8
				c0-0.1,0-0.2,0.1-0.2c0.8-0.9,1.6-1.7,2.5-2.6c0.2-0.2,0.6-0.4,0.9-0.6c0.4-0.2,0.5-0.1,0.7,0.2c0.1,0.2,0.2,0.3,0.4,0.5
				c0.1,0.1,0.3,0.2,0.5,0.2C74.1,189.2,74.2,189.2,74.2,189.1z M74,189.9C74,189.9,73.9,189.9,74,189.9c-1.8,1.5-3.6,3-5,4.9
				C70.6,193.2,72.3,191.6,74,189.9z M71.2,192c0,0,0.1,0.1,0.1,0.1c0.8-0.8,1.7-1.6,2.5-2.4C72.8,190.3,72,191.2,71.2,192z"/>
			<path class="st4" d="M60.2,202c0,0.1,0,0.2,0,0.3c-0.1,0-0.1,0-0.1,0c-0.2-0.3-0.3-0.6-0.2-1c0.1-0.2,0-0.4,0.1-0.7
				c0.3-0.3,0.6-0.6,0.9-0.9c0.4-0.4,0.9-0.9,1.3-1.3c0,0,0.1,0,0.2-0.1c0.2-0.1,0.4-0.1,0.6-0.2c0.6-0.2,1.2-0.2,1.6,0.2
				c0.4,0.3,0.6,0.8,0.5,1.4c-0.1,0.5-0.4,0.8-0.5,1.2c-0.2,0.6-0.6,1.1-1,1.5c-0.1,0.2-0.3,0.3-0.5,0.4c0,0-0.1-0.1-0.1-0.1
				c0.3-0.3,0.6-0.5,0.9-0.8c0,0-0.1-0.1-0.1-0.1c-0.1,0-0.2,0.1-0.2,0.1c-0.4,0.3-0.7,0.6-1.3,0.6c-0.2,0-0.3,0.1-0.4,0.2
				c-0.5,0.2-1,0.1-1.3-0.3C60.4,202.4,60.4,202.1,60.2,202C60.3,201.9,60.3,202,60.2,202z M64.3,200.1c-0.4,0.4-0.7,0.7-1.1,1.1
				c-0.9,0.9-0.9,0.9-1.3,0.9c0.4-0.4,0.8-0.8,1.2-1.1c0,0-0.1-0.1-0.1-0.1c-0.3,0.3-0.6,0.5-0.8,0.8c0,0,0-0.1-0.1-0.1
				c0.7-0.8,1.6-1.5,2.3-2.4c-0.1,0-0.1,0-0.2,0c-0.9,1-1.9,1.9-2.8,2.9c0,0-0.2,0-0.2,0.1c0,0,0-0.1,0-0.1c0.4-0.4,0.7-0.8,1.1-1.2
				c-0.3,0-0.5,0.3-0.7,0.5c-0.2,0.2-0.4,0.4-0.6,0.6c0,0-0.1-0.1-0.1-0.1c0.2-0.2,0.5-0.4,0.7-0.7c0.2-0.2,0.4-0.5,0.6-0.7
				c0,0-0.1-0.1-0.1-0.1c-0.4,0.4-0.8,0.8-1.2,1.2c0,0-0.1,0-0.1-0.1c0.1-0.2,0.1-0.3,0.2-0.5c0.2-0.4,0.5-0.7,0.8-1.1
				c0,0-0.1,0-0.1-0.1c-0.2,0.3-0.5,0.6-0.7,1c0-0.1,0-0.2,0-0.2c0.3-0.3,0.5-0.7,0.8-1c0.5-0.5,1.2-0.9,1.9-1.1
				c0.7-0.2,1.1,0.1,1.1,0.9c0,0.2,0,0.5,0,0.7c0.2-0.3,0.3-0.4,0.2-0.9c0-0.6-0.5-1-1.1-0.9c-0.9,0.1-1.5,0.6-2.2,1.1
				c-0.5,0.4-0.9,1-1.1,1.6c-0.2,0.7,0.2,1.4,1,1.5c0.8,0.1,1.4-0.3,2-0.7c0.3-0.2,0.5-0.5,0.7-0.7c0,0-0.1-0.1-0.1-0.1
				c-0.3,0.3-0.6,0.6-0.9,0.9c0,0-0.1-0.1-0.1-0.1C63.3,201.2,64,200.8,64.3,200.1z"/>
			<path class="st4" d="M74.5,187c0.2,0.1,0.4,0.3,0.6,0.4c0.3,0.1,0.4,0.3,0.2,0.6c-0.2,0.3-0.5,0.5-0.7,0.7c0,0-0.1-0.1-0.1-0.1
				c0.3-0.3,0.5-0.6,0.8-0.9c0,0-0.1-0.1-0.1-0.1c-0.3,0.3-0.6,0.6-0.9,0.9c-0.2-0.2-0.4-0.4-0.6-0.6C73.9,187.4,74,187,74.5,187z"
				/>
			<path class="st4" d="M61.9,198.1c0,0.1,0,0.2-0.1,0.3c-0.6,0.6-1.2,1.2-1.8,1.7c0.4-0.7,1-1.2,1.6-1.8c-1,0.5-1.6,1.5-2.4,2.3
				C59.4,199.9,61.2,198.3,61.9,198.1z"/>
			<path class="st4" d="M75.1,185.8c0.7,0.7,1.3,1.3,1.9,2c0.1,0.1,0.1,0.2,0.1,0.3c-0.8-0.4-1.4-0.9-1.9-1.6
				C75.1,186.3,74.9,186.1,75.1,185.8z"/>
			<path class="st4" d="M65.7,200.8c-1,1.2-1.6,2.7-3.1,3.4c1-1,2.1-1.9,2.7-3.2c0.1-0.1,0.2-0.2,0.3-0.3
				C65.6,200.7,65.6,200.7,65.7,200.8z"/>
			<path class="st4" d="M57.7,202.5c0.2-1,1.5-2.9,2.7-3.7C59.2,199.9,58.5,201.2,57.7,202.5z"/>
			<path class="st4" d="M61.6,203.2c0.4-0.1,0.7-0.2,1.1-0.3c0.2,0.5,0.1,0.8-0.3,0.9C62.1,203.9,61.8,203.7,61.6,203.2z"/>
			<path class="st4" d="M59.2,201.8c-0.1-0.3-0.5-0.4-0.2-0.8c0.4,0.2,0.6,0,0.7-0.4C60,201.1,59.8,201.5,59.2,201.8z"/>
			<path class="st4" d="M77.3,187.6c-0.8-0.5-1.5-1.2-2-2C76.1,186.2,76.7,187,77.3,187.6z"/>
			<path class="st4" d="M66.4,198.4c-0.1,0.2-0.2,0.4-0.3,0.5c-0.1,0.1-0.1,0.4-0.4,0.3c-0.2-0.1-0.5-0.1-0.5-0.4
				c0.2-0.1,0.4-0.3,0.5-0.4C66,198.4,66.2,198.4,66.4,198.4z"/>
			<path class="st3" d="M82.3,180.1c5-4.7,10-9.5,15-14.2c0,0,0,0.1,0.1,0.1c-4.8,4.9-10,9.4-14.9,14.2
				C82.4,180.2,82.3,180.2,82.3,180.1z"/>
			<path class="st3" d="M89.6,170.8c-4.3,4.2-8.6,8.3-12.9,12.5c0,0,0,0-0.1-0.1c4.2-4.2,8.6-8.3,12.9-12.5
				C89.6,170.8,89.6,170.8,89.6,170.8z"/>
			<path class="st3" d="M85.7,174c-3.4,3.4-6.8,6.7-10.3,10.1c0,0-0.1-0.1-0.1-0.1C78.7,180.5,82.3,177.3,85.7,174z"/>
			<path class="st3" d="M86.6,172.7c3.1-2.9,6-6,9.2-8.8C92.8,166.9,89.7,169.8,86.6,172.7z"/>
			<path class="st3" d="M90.6,174.1c-2.5,2.5-5.1,5-7.6,7.5c-0.1-0.1-0.1-0.1-0.1-0.1c0,0,0,0,0,0c2.2-2.1,4.4-4.3,6.6-6.4
				C89.8,174.7,90.2,174.4,90.6,174.1C90.6,174.1,90.6,174.1,90.6,174.1z"/>
			<path class="st3" d="M84.9,176.3c-2.6,2.5-5.2,5.1-7.8,7.6c0,0-0.1,0-0.1-0.1c0.1-0.1,0.2-0.2,0.3-0.4c1.8-1.7,3.5-3.4,5.3-5.2
				c0.6-0.6,1.2-1.2,1.8-1.8C84.6,176.5,84.7,176.4,84.9,176.3C84.8,176.3,84.8,176.3,84.9,176.3z"/>
			<path class="st3" d="M97.3,164c-2.6,2.5-5.3,5-7.9,7.5c0,0-0.1-0.1-0.1-0.1c2.6-2.5,5.3-5,7.9-7.6
				C97.2,163.9,97.3,163.9,97.3,164z"/>
			<path class="st3" d="M86.5,175.8c-2.5,2.4-5,4.7-7.5,7.1c0,0-0.1-0.1-0.1-0.1c2.5-2.4,5-4.7,7.5-7.1
				C86.5,175.7,86.5,175.8,86.5,175.8z"/>
			<path class="st3" d="M97.9,164.4c-2.6,2.5-5.2,5-7.8,7.5c0,0-0.1-0.1-0.1-0.1C92.6,169.3,95.2,166.8,97.9,164.4
				C97.8,164.4,97.9,164.4,97.9,164.4z"/>
			<path class="st3" d="M86.9,177c-1.7,1.7-3.4,3.3-5.1,5c0,0,0,0-0.1-0.1C83.5,180.2,85.2,178.6,86.9,177
				C86.9,176.9,86.9,177,86.9,177z"/>
			<path class="st3" d="M90.8,172.8c-2.3,2.1-4.5,4.3-6.8,6.4c0,0,0,0-0.1-0.1c2.3-2.1,4.5-4.3,6.8-6.4
				C90.8,172.7,90.8,172.8,90.8,172.8z"/>
			<path class="st3" d="M82.2,178.4c-2.1,2.1-4.3,4.2-6.4,6.3c0,0,0,0-0.1-0.1C77.7,182.5,80,180.5,82.2,178.4z"/>
			<path class="st3" d="M80.6,178.5c-1.7,1.7-3.4,3.4-5.2,5.1c0,0-0.1-0.1-0.1-0.1C77,181.6,78.8,180.1,80.6,178.5z"/>
			<path class="st3" d="M94.6,164.6c-1.9,1.9-3.8,3.7-5.7,5.6c0,0,0,0,0,0C90.7,168.2,92.6,166.4,94.6,164.6
				C94.5,164.5,94.5,164.5,94.6,164.6z"/>
			<path class="st3" d="M91.8,172.4c1.4-1.4,2.9-2.8,4.3-4.3c0,0,0,0,0,0C94.7,169.6,93.3,171,91.8,172.4
				C91.8,172.4,91.8,172.4,91.8,172.4z"/>
			<path class="st3" d="M86.3,173c-1.8,1.7-3.5,3.5-5.3,5.2c0,0,0,0-0.1-0.1C82.7,176.4,84.5,174.6,86.3,173
				C86.3,172.9,86.3,172.9,86.3,173z"/>
			<path class="st3" d="M98.6,166.5c-1,0.9-1.8,1.9-2.9,2.7C96.6,168.3,97.5,167.3,98.6,166.5z"/>
			<path class="st3" d="M85.1,176.6c-1.2,1.2-2.4,2.3-3.5,3.5c0,0,0,0-0.1-0.1C82.6,178.9,83.8,177.7,85.1,176.6
				C85,176.6,85,176.6,85.1,176.6z"/>
			<path class="st3" d="M89.7,171.6c1.2-1.2,2.4-2.3,3.6-3.5c0,0,0.1,0.1,0.1,0.1C92.2,169.4,90.9,170.5,89.7,171.6
				C89.7,171.7,89.7,171.7,89.7,171.6z"/>
			<path class="st3" d="M85.3,175.8c0.8-0.8,1.7-1.7,2.5-2.5c0,0,0.1,0.1,0.1,0.1C87.1,174.3,86.2,175.1,85.3,175.8z"/>
			<path class="st3" d="M90.6,169.5c-0.8,0.8-1.6,1.5-2.4,2.3c0,0,0,0,0,0c0.8-0.8,1.6-1.6,2.4-2.3
				C90.5,169.4,90.6,169.4,90.6,169.5z"/>
			<path class="st3" d="M94.1,170.9c-0.8,0.8-1.6,1.6-2.5,2.4c0,0,0-0.1-0.1-0.1C92.4,172.4,93.2,171.6,94.1,170.9
				C94,170.8,94,170.8,94.1,170.9z"/>
			<path class="st3" d="M74,189.9c-1.7,1.6-3.3,3.3-5,4.9C70.4,193,72.2,191.5,74,189.9C73.9,189.9,74,189.9,74,189.9z"/>
			<path class="st3" d="M71.2,192c0.8-0.8,1.6-1.6,2.6-2.3c-0.8,0.8-1.7,1.6-2.5,2.4C71.3,192,71.2,192,71.2,192z"/>
			<path class="st3" d="M64.3,200.1c-0.3,0.7-0.9,1.1-1.4,1.6c0,0,0.1,0.1,0.1,0.1c0.3-0.3,0.6-0.6,0.9-0.9c0,0,0.1,0.1,0.1,0.1
				c-0.2,0.2-0.4,0.5-0.7,0.7c-0.6,0.4-1.2,0.8-2,0.7c-0.7-0.1-1.2-0.7-1-1.5c0.2-0.7,0.6-1.2,1.1-1.6c0.6-0.5,1.3-1,2.2-1.1
				c0.6-0.1,1.1,0.3,1.1,0.9c0,0.5,0,0.6-0.2,0.9c0-0.3,0-0.5,0-0.7c0-0.8-0.4-1.1-1.1-0.9c-0.7,0.2-1.4,0.5-1.9,1.1
				c-0.3,0.3-0.5,0.7-0.8,1c0,0.1,0,0.1,0,0.2c0.2-0.3,0.5-0.6,0.7-1c0,0,0.1,0,0.1,0.1c-0.3,0.4-0.5,0.7-0.8,1.1
				c-0.1,0.1-0.1,0.3-0.2,0.5c0,0,0.1,0,0.1,0.1c0.4-0.4,0.8-0.8,1.2-1.2c0,0,0.1,0.1,0.1,0.1c-0.2,0.2-0.4,0.5-0.6,0.7
				c-0.2,0.2-0.4,0.4-0.7,0.7c0,0,0.1,0.1,0.1,0.1c0.2-0.2,0.4-0.4,0.6-0.6c0.2-0.2,0.4-0.4,0.7-0.5c-0.4,0.4-0.7,0.8-1.1,1.2
				c0,0,0,0.1,0,0.1c0.1,0,0.2,0,0.2-0.1c0.9-1,1.9-1.9,2.8-2.9c0,0,0.1,0,0.2,0c-0.7,0.9-1.5,1.6-2.3,2.4c0,0,0,0,0.1,0.1
				c0.3-0.3,0.6-0.5,0.8-0.8c0,0,0.1,0.1,0.1,0.1c-0.4,0.4-0.7,0.7-1.2,1.1c0.4,0,0.4,0,1.3-0.9C63.5,200.8,63.9,200.5,64.3,200.1z"
				/>
		</g>
		<g>
			<path class="st3" d="M67.2,176.1c0.5,0.5,1.1,1.1,1.6,1.6c0.2,0.2,0.3,0.3,0.6,0.2c-0.3-0.7-1-1-1.3-1.7c0.5,0.5,1,0.9,1.4,1.5
				c0.1,0.2,0.2,0.3,0.5,0.3c-0.5-0.6-1-1.1-1.5-1.6c0,0,0.1-0.1,0.1-0.1c0.5,0.5,1,1,1.5,1.5c0,0,0,0,0,0c-0.3-0.4-0.6-0.7-0.9-1.1
				c0,0,0,0,0.1-0.1c0.2,0.1,0.3,0.3,0.5,0.4c0,0,0,0,0.1-0.1c-0.5-0.5-1.1-1.1-1.6-1.6c0.1-0.1,0.1-0.1,0.1-0.1
				c0.7,0.6,1.4,1.3,1.9,2.1c0.1,0.1,0.2,0.2,0.3,0.3c0,0,0.1-0.1,0.1-0.1c-0.7-0.8-1.5-1.6-2.2-2.5c0,0,0,0,0.1-0.1
				c0.6,0.6,1.2,1.3,1.8,1.9c0,0,0.1,0,0.1-0.1c-0.7-0.7-1.3-1.5-2-2.2c0.4,0.1,0.6,0.4,0.9,0.7c0.3,0.3,0.6,0.6,0.9,0.8
				c-2.6-2.7-5.2-5.3-7.8-8c0,0-0.1,0.1-0.1,0.1c0.5,0.5,0.9,1,1.4,1.5c1.2,1.2,2.3,2.4,3.5,3.6c0.2,0.2,0.4,0.5,0.6,0.7
				c0,0,0.1,0.1,0.1,0.1c0.2,0.2,0.3,0.5,0.1,0.8c-0.1,0.1-0.7,0.1-0.9,0c-0.3-0.2-0.6-0.5-0.9-0.7c-1.1-1-2.2-2.1-3.3-3.1
				c-0.4-0.4-0.8-0.8-1.3-1.1c-0.1-0.1-0.1-0.1-0.2-0.2c-0.2-0.4-0.6-0.7-1.1-0.9c0.9,0.9,1.7,1.7,2.5,2.5c0,0,0,0-0.1,0.1
				c-0.6-0.6-1.1-1.1-1.7-1.7c0,0-0.1,0.1-0.1,0.1c0.6,0.6,1.3,1.3,1.9,1.9c0,0,0,0.1,0,0.1c-0.4-0.2-7.2-7.3-7.5-8
				c0.4,0.5,0.8,0.9,1.2,1.4c0.4,0.5,0.9,0.9,1.3,1.3c0,0,0.1-0.1,0.1-0.1c-0.2-0.1-0.3-0.3-0.5-0.4c-0.1-0.2-0.3-0.3-0.4-0.5
				c-0.1-0.2-0.3-0.4-0.4-0.5c-0.1-0.2-0.3-0.3-0.4-0.4c0,0,0-0.1,0.1-0.1c0.1,0.1,0.2,0.1,0.3,0.2c0.3,0.3,0.6,0.7,0.9,1
				c0.2,0.2,0.3,0.3,0.5,0.5c-0.7-0.9-1.6-1.6-2.4-2.4c0,0,0.1-0.1,0.1-0.1c0.1,0.1,0.2,0.1,0.3,0.2c0.3,0.3,0.6,0.6,0.9,0.8
				c1.6,1.6,3.3,3.2,4.9,4.7c1,0.9,2,1.9,2.9,2.8c0.9,0.8,1.7,1.6,2.6,2.4c0.1,0.1,0.2,0.1,0.3,0.2c0.1-0.3-0.1-0.5-0.3-0.7
				c-1.1-1.1-2.1-2.2-3.2-3.3c-1.3-1.4-2.7-2.8-4-4.2c-0.4-0.5-0.9-0.9-1.4-1.3c-0.6-0.6-1.1-1.2-1.7-1.7c-0.2-0.2-0.3-0.4-0.5-0.7
				c0.3-0.2,0.5-0.1,0.8,0c0.5,0.2,0.9,0.5,1.3,0.8c0.5,0.5,1.1,0.9,1.6,1.3c0.5,0.5,1.1,0.9,1.6,1.4c0.7,0.6,1.4,1.3,2.1,1.9
				c1.6,1.6,3.2,3.1,4.8,4.7c0.4,0.4,0.8,1,1.2,1.5c1,1.1,1.1,2.5,1.1,3.9c0,0.2,0.1,0.4,0.1,0.5c1,1.8,2.3,3.4,3.8,4.9
				c0.6,0.6,1.2,1.2,1.8,1.9c1.1,1.1,2.1,2.2,3.2,3.3c1.8,1.7,3.7,3.4,5.8,4.8c1.3,0.9,2.6,1.8,4,2.6c1.1,0.6,2.2,1.4,3.2,2.2
				c0.8,0.6,1.5,1.5,2.1,2.4c0.4,0.6,0.6,1.2,0.7,1.9c0.2,1.1-0.6,2.6-1.7,3.2c-0.6,0.3-1.1,0.4-1.7,0.4c-0.3,0-0.5-0.2-0.8-0.3
				c-0.9-0.5-1.8-1.1-2.4-1.9c-0.4-0.5-0.8-1.1-1.2-1.7c-0.4-0.6-0.9-1.3-1.3-1.9c-0.3-0.5-0.7-1-1-1.5c-0.2-0.3-0.5-0.7-0.7-1
				c-2-3.1-4.4-5.9-7-8.6c-0.8-0.9-1.6-1.7-2.4-2.6c-1-1.1-2.1-2.2-3.2-3.2c-0.6-0.5-1.2-0.9-1.8-1.4c-0.6-0.5-1.3-0.8-2-1.2
				c-0.1-0.1-0.3,0-0.5,0c-1.2,0-2.3-0.2-3.2-0.9c-1-0.9-2.1-1.7-3-2.7c-1.5-1.5-2.8-3.1-4.2-4.6c-1-1.1-1.9-2.2-2.9-3.2
				c-0.6-0.7-1.3-1.4-1.9-2.1c-0.2-0.2-0.3-0.6-0.5-0.9c0.6,0,0.9,0.2,1.3,0.5c1.1,1.1,2.3,2.2,3.4,3.3c0.9,0.8,1.8,1.7,2.6,2.5
				c0.7,0.7,1.4,1.5,2.2,2.2c0.7,0.7,1.3,1.3,2,1.9c0.1,0.1,0.2,0.2,0.2,0.4c0.2,0.3,0.4,0.4,0.8,0.4c0.1-0.3-0.1-0.6-0.2-0.8
				c-0.4-0.5-0.8-1-1.3-1.5c-2.3-2.3-4.5-4.6-6.8-7c-0.8-0.8-1.5-1.6-2.3-2.5c-0.4-0.4-0.4-0.5-0.4-1.1c0.9,0.4,1.4,1.2,2,1.8
				c0.3,0.2,0.5,0.5,0.8,0.7c-0.1-0.3-0.5-0.3-0.5-0.8c1.1,1.1,2.2,2.1,3.2,3.1c0.5,0.4,1,0.8,1.5,1.3c0.8,0.7,1.5,1.5,2.2,2.2
				c0.9,0.9,1.7,1.8,2.5,2.6c0.2,0.2,0.3,0.3,0.7,0.2c0-0.5-0.2-0.7-0.5-1c-0.7-0.7-1.3-1.3-2-2c-0.2-0.2-0.4-0.4-0.6-0.6
				c-0.1-0.1-0.1-0.2-0.1-0.3c0.1,0,0.2,0,0.2,0.1c1,1,1.9,1.9,2.9,2.9c0.3,0.3,0.4,0.7,0.3,1.1c-0.3,0.1-0.6,0-0.9-0.2
				c-1.1-0.8-2.1-1.9-3.1-2.9c-0.2-0.3-0.5-0.5-0.8-0.7c-0.1-0.1-0.2-0.2-0.3-0.3c-0.1-0.1-0.1-0.2-0.2-0.3
				c-1.4-1.1-2.6-2.4-3.9-3.7c-0.9-0.8-1.7-1.7-2.5-2.5c-0.1-0.1-0.3-0.3-0.4-0.4c0,0-0.1,0.1-0.1,0.1c0,0.1,0.1,0.2,0.2,0.3
				c0.8,0.9,1.6,1.7,2.4,2.5c0.3,0.3,0.6,0.4,0.9,0.7c1.2,1.1,2.3,2.2,3.5,3.3c0.1,0.1,0.1,0.1,0.1,0.3c-1.1-1.1-2.2-2.1-3.4-3.2
				c0,0-0.1,0.1-0.1,0.1c0.2,0.2,0.4,0.4,0.6,0.6c1.7,1.8,3.5,3.5,5.2,5.3c0.4,0.4,0.8,0.9,1.2,1.3c0.2,0.3,0.4,0.5,0.4,0.9
				c0,0.3-0.2,0.5-0.5,0.4c-0.1,0-0.2,0-0.3-0.1c-0.4-0.3-1-0.4-1.3-0.9c0,0-0.1,0-0.1,0c1.3,1.3,2.7,2.4,3.9,3.7
				c-0.5-0.9-1.4-1.5-2-2.3c0.9,0.6,1.6,1.5,2.4,2.3c-0.6-0.9-1.4-1.6-2.2-2.4c0.1,0,0.2,0,0.2,0.1c0.7,0.7,1.5,1.5,2.2,2.2
				c0.1,0.1,0.2,0.3,0.5,0.2c-0.9-0.9-1.8-1.8-2.7-2.7c0,0,0.1-0.1,0.1-0.1c0.9,0.8,1.7,1.7,2.6,2.5c-0.2-0.6-0.9-0.8-1.3-1.3
				c-0.4-0.5-0.8-0.9-1.2-1.4c0.1,0.1,0.2,0.1,0.3,0.2c0.5,0.5,1,1,1.5,1.5c0.1,0.1,0.3,0.2,0.5,0.3c-0.8-0.8-1.5-1.5-2.3-2.3
				c0,0,0-0.1,0.1-0.1c0.1,0,0.2,0.1,0.2,0.1c0.4,0.4,0.7,0.8,1.1,1.2c0.3,0.3,0.6,0.6,0.9,0.8c0,0,0-0.1,0.1-0.1
				c-0.4-0.4-0.8-0.8-1.2-1.2c0,0,0.1-0.1,0.1-0.1c0.5,0.2,0.6,0.8,1.1,0.9c-0.2-0.2-0.5-0.5-0.8-0.8c0.6,0,0.6,0.5,0.9,0.6
				c0,0,0,0,0.1-0.1c-0.6-0.6-1.1-1.1-1.7-1.7c0,0,0.1-0.1,0.1-0.1c0.7,0.4,1.1,1.2,1.7,1.6c-0.4-0.7-1-1.2-1.6-1.8c0,0,0,0,0.1-0.1
				c0.6,0.6,1.1,1.1,1.7,1.7c0,0,0,0,0.1-0.1C68.3,177.3,67.7,176.7,67.2,176.1C67.2,176.1,67.2,176.1,67.2,176.1z M65.1,178.7
				c-0.1-0.1-0.3-0.2-0.4-0.3c-0.6-0.6-1.1-1.3-1.7-1.9c-0.4-0.4-0.8-0.8-1.2-1.1c-0.9-0.9-1.7-1.9-2.7-2.7
				c-0.6-0.6-1.1-1.2-1.8-1.7c-0.5-0.4-0.9-0.9-1.4-1.4c-0.1-0.1-0.3-0.3-0.4-0.4c0,0,0,0.1-0.1,0.1c2.3,2.6,4.5,5.3,7,7.7
				c0-0.1,0-0.1,0-0.2c0.3,0.3,0.5,0.5,0.7,0.7c0.5,0.5,1,1,1.4,1.5c0.3,0.3,0.6,0.6,1,0.9c0,0,0.1-0.1,0.1-0.1
				c-0.6-0.6-1.3-1.3-1.9-1.9c0,0,0.1-0.1,0.1-0.1c0.4,0.4,0.8,0.9,1.3,1.3c0.4,0.4,0.7,1,1.2,1.2c0,0,0.1-0.1,0.1-0.1
				C65.9,179.5,65.4,179.1,65.1,178.7c0.5,0.5,1,1,1.5,1.5c0,0,0.1-0.1,0.1-0.1c-0.8-1-1.8-1.9-2.9-2.7
				C64.2,177.8,64.6,178.2,65.1,178.7z M81.7,190.8C81.7,190.8,81.7,190.8,81.7,190.8c0.2,0,0.3,0.1,0.3,0.1
				c0.6,0.5,1.2,1.1,1.8,1.6c0.9,0.7,1.7,1.4,2.6,2.1c0.7,0.6,1.3,1.2,2,1.8c0.3,0.2,0.6,0.4,0.9,0.6c0,0,0.1-0.1,0.1-0.1
				c-0.9-0.7-1.8-1.4-2.6-2.1c-0.2-0.1-0.4-0.2-0.5-0.4c-0.1-0.4-0.4-0.5-0.6-0.6c-1.5-1.3-3.1-2.5-4.6-3.8
				c-0.1-0.1-0.3-0.3-0.5-0.3c-0.4-0.1-0.9-0.6-1.1-1c0-0.1-0.2-0.3-0.2-0.3c-0.3,0.1-0.4-0.1-0.5-0.3c-0.8-0.7-1.5-1.5-2.3-2.3
				c1.2,1.2,2.4,2.5,3.5,3.8c-0.3-0.2-0.5-0.4-0.8-0.7c-1.2-1.2-2.5-2.5-3.7-3.7c-0.5-0.5-1-1.2-1.5-1.7c-0.9-1-1.9-2-2.9-3
				c0,0,0-0.1,0-0.1c0.1,0,0.2,0,0.3,0c0,0,0-0.1,0-0.1c-0.3-0.1-0.6-0.3-0.9-0.4c0.1-0.1,0.2-0.1,0.2-0.2c0,0,0-0.1,0-0.1
				c-0.2,0-0.3,0-0.6,0c0.1,0.2,0.2,0.2,0.2,0.3c0.8,0.9,1.7,1.7,2.5,2.6c0.6,0.6,1.1,1.2,1.6,1.8c0.5,0.5,0.9,1.1,1.4,1.6
				c0.3,0.3,0.6,0.5,0.8,0.7c0.8,0.8,1.6,1.6,2.4,2.4c0.1,0.1,0.1,0.1,0.1,0.2c0,0,0,0,0,0c-1-1-1.9-1.9-2.9-2.9
				c0.1,0.2,0.2,0.3,0.3,0.5c1.2,1.3,2.4,2.6,3.6,3.9c1.3,1.5,2.6,3.1,3.8,4.6c0.4,0.5,0.7,1,1.1,1.5c0.6,0.6,1.3,1.2,1.9,1.8
				c0,0,0.1,0.1,0.1,0.1c0,0-0.1,0-0.1,0.1c-0.6-0.6-1.1-1.1-1.7-1.7c0,0-0.1,0-0.1,0.1c0.1,0.1,0.2,0.3,0.3,0.4
				c0.5,0.7,1.3,1.1,1.8,1.7c0.1,0.1,0.2,0.1,0.4,0.2c-0.4-0.6-0.4-0.6,0-1c-0.2-0.1-0.5-0.1-0.7-0.2c-0.3-0.1-0.3-0.3,0-0.5
				c0,0,0.1-0.1,0.2-0.1c-0.2-0.3-0.5-0.6-0.9-0.7c-0.2,0-0.4-0.2-0.4-0.3c-0.1-0.5-0.5-0.8-0.7-1.3c0,0,0-0.1,0-0.1
				c0.1,0,0.2-0.1,0.3-0.1c0.1-0.6-0.2-0.9-0.6-1.2c-0.3-0.2-0.5-0.4-0.8-0.6c-0.1-0.1-0.1-0.2-0.2-0.2c0,0,0.1,0,0.1-0.1
				c0.5,0.5,1,0.9,1.5,1.4c0.1,0.1,0.2,0.2,0.3,0.2c0.5,0.4,1.1,0.7,1.2,1.4c0,0.2,0.2,0.5,0.4,0.6c0.5,0.1,0.6,0.5,0.8,0.8
				c0,0,0.1,0,0.1,0c0.3-0.6-0.1-1-0.5-1.3c-1.5-1.2-2.9-2.5-4.4-3.7c0,0.1-0.1,0.2-0.1,0.3c-0.2-0.4-0.5-0.7-0.6-1
				c-0.2,0.1-0.3,0.1-0.4,0.1c0,0-0.1-0.2-0.1-0.2c0.3-0.3,0-0.3-0.1-0.4C82,191.1,81.8,191,81.7,190.8z M92.3,199.3
				c-0.9-0.7-1-0.8-2-1c-0.5-0.1-1,0-1.4,0.5c-0.4,0.4-0.5,0.9-0.3,1.4c0.2,0.6,0.6,1.2,1.1,1.7c0.2,0.2,0.5,0.4,0.7,0.6
				c0.3,0.2,0.6,0.4,0.9,0.5c0.6,0.1,1.2,0,1.6-0.5c0.3-0.3,0.5-0.7,0.3-1.2c-0.1-0.2,0.1-0.4,0-0.5
				C92.9,200.2,92.6,199.7,92.3,199.3z M70.1,175.7c0,0,0.1-0.1,0.1-0.1c-1.5-1.5-2.9-3-4.4-4.5c0,0,0.1-0.1,0.1-0.1
				c0.7,0.6,1.3,1.3,2,2c0.7,0.7,1.2,1.5,2,2c-2.4-2.5-4.7-5.1-7.3-7.3c0.9,0.9,1.8,1.9,2.7,2.8c0,0-0.1,0.1-0.1,0.1c-1-1-2-2-3-3
				c-1-1-2.1-2-3.3-2.8C62.9,168.1,66.5,171.9,70.1,175.7z M90.1,202.7c-0.7-0.7-1.4-1.4-2.1-2.2c-0.3-0.3-0.6-0.8-1.1-1
				c0,0.1,0,0.1,0.1,0.1c0.3,0.5,0.8,0.9,1.2,1.3c0.5,0.4,0.9,0.9,1.3,1.4c0,0-0.1,0.1-0.1,0.1c-0.5-0.5-1.1-1.1-1.6-1.6
				c0,0-0.1,0.1-0.1,0.1c0.2,0.3,0.4,0.6,0.6,0.8c0.7,0.5,1.3,1.2,1.7,2.1c-0.2-0.1-0.3-0.2-0.4-0.2c0.3,0.5,0.7,0.9,1.3,1.2
				c-0.4-0.2-0.6-0.5-0.6-1c0-0.1-0.1-0.2-0.1-0.2C89.7,203.1,89.7,203,90.1,202.7z M75,185.1c-1.6-2-4.5-5-4.9-5.1
				c0.3,0.3,0.5,0.6,0.8,0.9c0.4,0.4,0.7,0.7,1,1.1C72.9,183.1,73.9,184.1,75,185.1z M69.4,178.4c-0.6,0.1-0.8,0.4-0.8,0.9
				c0.1,0.8,0.4,1.3,1,1.3c-0.2-0.4-0.6-0.6-0.7-1.1C68.8,179,69.2,178.8,69.4,178.4z M92.5,203.3c-0.1,0.5-0.4,0.7-0.7,1.1
				c0.2-0.1,0.5-0.1,0.8-0.2c0.1-0.3,0.2-0.5,0.2-0.8c0-0.3-0.2-0.4-0.4-0.3c-0.3,0.2-0.6,0.3-0.7,0.7
				C92.3,204.1,92.1,203.3,92.5,203.3z M91.6,197.5C91.5,197.5,91.5,197.6,91.6,197.5c0.2,0.3,0.4,0.4,0.6,0.6
				c0.8,0.6,1.8,1.2,2.3,2.2c0,0.1,0.1,0.1,0.2,0.1C93.8,199.2,92.8,198.2,91.6,197.5z M66.2,170.6
				C66.2,170.6,66.2,170.6,66.2,170.6c1,1.2,2.2,2.3,3.3,3.4C68.6,172.7,67.3,171.7,66.2,170.6z M63.2,173c0.2,0.5,1.6,1.8,1.9,1.9
				C64.5,174.3,63.8,173.6,63.2,173z M69.9,179.9c0,0-0.1,0.1-0.1,0.1c0.1,0.1,0.2,0.3,0.3,0.4c0.4,0.4,0.9,0.8,1.3,1.3
				c0.1,0.1,0.2,0.2,0.3,0.3c0.2,0.4,0.3,0.5,0.7,0.6C71.6,181.6,70.6,180.8,69.9,179.9z M94,200.9c0.2-0.2,0.1-0.4,0-0.5
				c-0.5-0.4-0.9-0.9-1.4-1.3c-0.1-0.1-0.3-0.2-0.4-0.3C92.6,199.5,93.6,199.9,94,200.9z M93.5,200.8c-0.1,0.5,0,0.9,0.3,1.1
				c0.1,0.1,0.5-0.1,0.7-0.2c0,0,0,0,0-0.1c-0.3,0-0.5-0.1-0.6-0.4C93.9,201.1,93.7,201,93.5,200.8z M54.1,167.4
				c0,0.5,0.1,0.6,0.5,0.4c-0.4-0.5-0.8-1-1.4-1.2C53.4,166.9,53.6,167.3,54.1,167.4z M88.5,197.9c-0.2,0.2-0.4,0.2-0.7,0.1
				c-0.3-0.2-0.5-0.1-0.8,0.1C87.7,198.5,88.3,198.4,88.5,197.9z M59.9,164.8C59.9,164.8,60,164.8,59.9,164.8
				c-0.6-0.7-1.2-1.4-2.1-1.7C58.5,163.7,59.2,164.2,59.9,164.8z M88.8,196c0.7,0.5,1.4,1,2.2,1.5C90.9,197.1,89.9,196.4,88.8,196z"
				/>
			<path class="st4" d="M81.7,190.8c0.2,0.1,0.3,0.3,0.5,0.4c0.1,0.1,0.4,0.2,0.1,0.4c0,0,0.1,0.2,0.1,0.2c0.1,0,0.2,0,0.4-0.1
				c0.2,0.3,0.4,0.6,0.6,1c0-0.1,0.1-0.2,0.1-0.3c1.5,1.2,2.9,2.5,4.4,3.7c0.4,0.3,0.8,0.7,0.5,1.3c0,0-0.1,0-0.1,0
				c-0.2-0.3-0.3-0.7-0.8-0.8c-0.2,0-0.4-0.3-0.4-0.6c-0.1-0.7-0.7-1.1-1.2-1.4c-0.1-0.1-0.2-0.1-0.3-0.2c-0.5-0.5-1-0.9-1.5-1.4
				c0,0-0.1,0-0.1,0.1c0.1,0.1,0.1,0.2,0.2,0.2c0.2,0.2,0.5,0.4,0.8,0.6c0.4,0.3,0.7,0.6,0.6,1.2c-0.1,0-0.2,0.1-0.3,0.1
				c0,0.1,0,0.1,0,0.1c0.2,0.4,0.5,0.8,0.7,1.3c0,0.1,0.3,0.3,0.4,0.3c0.4,0.1,0.7,0.3,0.9,0.7c-0.1,0-0.1,0.1-0.2,0.1
				c-0.3,0.2-0.3,0.4,0,0.5c0.2,0.1,0.5,0.2,0.7,0.2c-0.3,0.4-0.3,0.4,0,1c-0.2-0.1-0.3-0.1-0.4-0.2c-0.6-0.6-1.3-1-1.8-1.7
				c-0.1-0.1-0.2-0.3-0.3-0.4c0,0,0.1,0,0.1-0.1c0.6,0.6,1.1,1.1,1.7,1.7c0,0,0.1,0,0.1-0.1c0,0,0-0.1-0.1-0.1
				c-0.6-0.6-1.3-1.1-1.9-1.8c-0.4-0.4-0.7-1-1.1-1.5c-1.3-1.5-2.5-3.1-3.8-4.6c-1.2-1.3-2.4-2.6-3.6-3.9c-0.1-0.1-0.3-0.3-0.3-0.5
				c1,1,1.9,1.9,2.9,2.9c0,0,0,0,0,0c0-0.1-0.1-0.1-0.1-0.2c-0.8-0.8-1.6-1.6-2.4-2.4c-0.3-0.3-0.6-0.5-0.8-0.7
				c-0.5-0.5-0.9-1.1-1.4-1.6c-0.5-0.6-1.1-1.2-1.6-1.8c-0.8-0.9-1.7-1.8-2.5-2.6c-0.1-0.1-0.1-0.1-0.2-0.3c0.3,0,0.4,0,0.6,0
				c0,0,0,0.1,0,0.1c-0.1,0.1-0.1,0.1-0.2,0.2c0.3,0.1,0.6,0.3,0.9,0.4c0,0,0,0.1,0,0.1c-0.1,0-0.2,0-0.3,0c0,0.1,0,0.1,0,0.1
				c1,1,1.9,2,2.9,3c0.5,0.6,1,1.2,1.5,1.7c1.2,1.3,2.4,2.5,3.7,3.7c0.2,0.2,0.5,0.5,0.8,0.7c-1.1-1.3-2.3-2.5-3.5-3.8
				c0.8,0.8,1.5,1.5,2.3,2.3c0.1,0.1,0.2,0.4,0.5,0.3c0,0,0.2,0.2,0.2,0.3c0.1,0.4,0.7,0.9,1.1,1c0.2,0.1,0.3,0.2,0.5,0.3
				c1.5,1.2,3.1,2.5,4.6,3.8c0.2,0.2,0.5,0.3,0.6,0.6c0,0.2,0.3,0.3,0.5,0.4c0.9,0.7,1.8,1.4,2.6,2.1c0,0-0.1,0.1-0.1,0.1
				c-0.3-0.2-0.6-0.4-0.9-0.6c-0.7-0.6-1.3-1.2-2-1.8c-0.8-0.7-1.7-1.4-2.6-2.1c-0.6-0.5-1.2-1-1.8-1.6
				C81.9,190.9,81.8,190.8,81.7,190.8C81.7,190.8,81.7,190.8,81.7,190.8z"/>
			<path class="st4" d="M92.3,199.3c0.3,0.5,0.6,0.9,0.9,1.4c0.1,0.1,0,0.4,0,0.5c0.2,0.5-0.1,0.9-0.3,1.2c-0.4,0.5-1,0.6-1.6,0.5
				c-0.3,0-0.6-0.3-0.9-0.5c-0.3-0.2-0.5-0.4-0.7-0.6c-0.5-0.5-0.9-1.1-1.1-1.7c-0.2-0.5-0.1-1,0.3-1.4c0.4-0.4,0.8-0.6,1.4-0.5
				C91.2,198.4,91.4,198.5,92.3,199.3z M89.8,199.1C89.8,199.2,89.7,199.2,89.8,199.1c0.9,0.9,1.8,1.8,2.7,2.6c0,0-0.1,0.1-0.1,0.1
				c-0.2-0.2-0.4-0.3-0.6-0.5c-0.2-0.2-0.4-0.4-0.6-0.6c-0.2-0.2-0.3-0.4-0.7-0.4c0.6,0.6,1.2,1.2,1.9,1.7c0.6-0.3,0.8-0.5,0.6-1
				c-0.2-0.6-0.3-1.2-0.8-1.6c-0.4-0.3-0.7-0.6-1.1-0.8c-0.3-0.1-0.6-0.2-1-0.2c-0.1,0-0.2,0.1-0.2,0.1c0,0.1,0,0.2,0.1,0.3
				c0.1,0.1,0.1,0.1,0.2,0.2c0.8,0.7,1.5,1.4,2.3,2.1c0.1,0.1,0.1,0.1,0.2,0.2C91.6,200.8,90.8,199.8,89.8,199.1z M91.8,202.5
				c-0.2-0.5-0.9-1.1-1.4-1.2c0.4,0.3,0.7,0.6,1.1,0.9c0,0,0,0.1-0.1,0.1c-0.1-0.1-0.3-0.1-0.4-0.3c-0.5-0.4-0.9-0.8-1.4-1.2
				c-0.1-0.1-0.2-0.2-0.3-0.4c-0.2-0.4-0.2-0.8-0.2-1.2c-0.4,0-0.3,0.3-0.3,0.5c0,1,1.1,2.3,2.2,2.6
				C91.2,202.3,91.5,202.4,91.8,202.5z"/>
			<path class="st4" d="M65,178.7c0.4,0.4,0.8,0.9,1.2,1.3c0,0-0.1,0.1-0.1,0.1c-0.5-0.3-0.8-0.9-1.2-1.2c-0.4-0.4-0.9-0.8-1.3-1.3
				c0,0-0.1,0.1-0.1,0.1c0.6,0.6,1.3,1.3,1.9,1.9c0,0-0.1,0.1-0.1,0.1c-0.3-0.3-0.7-0.6-1-0.9c-0.5-0.5-1-1-1.4-1.5
				c-0.2-0.2-0.5-0.5-0.7-0.7c0,0.1,0,0.1,0,0.2c-2.5-2.4-4.7-5.1-7-7.7c0,0,0-0.1,0.1-0.1c0.1,0.1,0.3,0.2,0.4,0.4
				c0.5,0.5,0.9,1,1.4,1.4c0.7,0.5,1.2,1.2,1.8,1.7c1,0.8,1.8,1.8,2.7,2.7c0.4,0.4,0.8,0.7,1.2,1.1c0.6,0.6,1.2,1.3,1.7,1.9
				C64.7,178.5,64.9,178.6,65,178.7L65,178.7z"/>
			<path class="st4" d="M70.1,175.7c-3.7-3.7-7.2-7.5-11.1-11c1.2,0.8,2.2,1.8,3.3,2.8c1,1,2,2,3,3c0,0,0.1-0.1,0.1-0.1
				c-0.9-0.9-1.8-1.9-2.7-2.8c2.6,2.3,4.9,4.8,7.3,7.3c-0.8-0.5-1.4-1.3-2-2c-0.7-0.7-1.3-1.3-2-2c0,0-0.1,0.1-0.1,0.1
				c1.5,1.5,2.9,3,4.4,4.5C70.2,175.6,70.2,175.6,70.1,175.7z"/>
			<path class="st4" d="M90.1,202.7c-0.4,0.3-0.4,0.3-0.1,0.8c0.1,0.1,0.1,0.2,0.1,0.2c0,0.4,0.2,0.7,0.6,1
				c-0.5-0.3-0.9-0.7-1.3-1.2c0.1,0.1,0.2,0.1,0.4,0.2c-0.4-0.9-1-1.5-1.7-2.1c-0.3-0.2-0.4-0.5-0.6-0.8c0,0,0.1-0.1,0.1-0.1
				c0.5,0.5,1.1,1.1,1.6,1.6c0,0,0.1-0.1,0.1-0.1c-0.4-0.5-0.9-0.9-1.3-1.4c-0.4-0.4-0.9-0.8-1.2-1.3c0,0,0-0.1-0.1-0.1
				c0.5,0.2,0.8,0.6,1.1,1C88.7,201.3,89.4,202,90.1,202.7z"/>
			<path class="st4" d="M75,185.1c-1.1-1-2.1-2-3-3.2c-0.3-0.4-0.7-0.7-1-1.1c-0.3-0.3-0.6-0.6-0.8-0.9
				C70.5,180.1,73.4,183.1,75,185.1z"/>
			<path class="st4" d="M69.4,178.4c-0.1,0.4-0.6,0.7-0.5,1.2c0.1,0.5,0.4,0.7,0.7,1.1c-0.5,0.1-0.9-0.5-1-1.3
				C68.6,178.8,68.8,178.4,69.4,178.4z"/>
			<path class="st4" d="M92.5,203.3c-0.4,0-0.2,0.8-0.8,0.5c0.1-0.4,0.4-0.5,0.7-0.7c0.2-0.1,0.4,0,0.4,0.3c0,0.3-0.1,0.5-0.2,0.8
				c-0.3,0.1-0.5,0.1-0.8,0.2C92.1,204,92.4,203.8,92.5,203.3z"/>
			<path class="st4" d="M91.6,197.5c1.2,0.7,2.3,1.7,3.1,2.9c-0.1,0-0.2,0-0.2-0.1c-0.5-1-1.5-1.5-2.3-2.2
				C91.9,198,91.7,197.8,91.6,197.5C91.5,197.6,91.5,197.5,91.6,197.5z"/>
			<path class="st4" d="M66.2,170.6c1.1,1.1,2.3,2.2,3.3,3.4C68.4,172.9,67.3,171.8,66.2,170.6C66.2,170.6,66.2,170.6,66.2,170.6z"
				/>
			<path class="st4" d="M63.2,173c0.6,0.6,1.3,1.3,1.9,1.9C64.8,174.8,63.4,173.5,63.2,173z"/>
			<path class="st4" d="M65.1,178.7c-0.4-0.4-0.8-0.8-1.2-1.2c1,0.8,2,1.7,2.9,2.7c0,0-0.1,0.1-0.1,0.1
				C66.1,179.7,65.5,179.2,65.1,178.7L65.1,178.7z"/>
			<path class="st4" d="M69.9,179.9c0.8,0.9,1.7,1.7,2.4,2.7c-0.4-0.2-0.5-0.3-0.7-0.6c-0.1-0.1-0.2-0.2-0.3-0.3
				c-0.4-0.4-0.9-0.8-1.3-1.3c-0.1-0.1-0.2-0.2-0.3-0.4C69.8,179.9,69.8,179.9,69.9,179.9z"/>
			<path class="st4" d="M94,200.9c-0.4-0.9-1.3-1.3-1.8-2.1c0.1,0.1,0.3,0.2,0.4,0.3c0.5,0.4,0.9,0.9,1.4,1.3
				C94.1,200.5,94.2,200.6,94,200.9z"/>
			<path class="st4" d="M93.5,200.8c0.2,0.2,0.3,0.3,0.4,0.4c0.1,0.3,0.3,0.4,0.6,0.4c0,0.1,0,0.1,0,0.1c-0.2,0.1-0.6,0.3-0.7,0.2
				C93.5,201.7,93.4,201.3,93.5,200.8z"/>
			<path class="st4" d="M54.1,167.4c-0.5,0-0.7-0.5-0.9-0.8c0.6,0.2,1,0.7,1.4,1.2C54.2,168,54.1,167.8,54.1,167.4z"/>
			<path class="st4" d="M88.5,197.9c-0.2,0.5-0.8,0.6-1.5,0.1c0.3-0.1,0.5-0.2,0.8-0.1C88,198.1,88.3,198.1,88.5,197.9z"/>
			<path class="st4" d="M59.9,164.8c-0.7-0.6-1.4-1.1-2.1-1.7C58.7,163.5,59.3,164.1,59.9,164.8C60,164.8,59.9,164.8,59.9,164.8z"/>
			<path class="st4" d="M88.8,196c1.1,0.4,2.1,1.1,2.2,1.5C90.3,197,89.5,196.5,88.8,196z"/>
			<path class="st3" d="M89.8,199.1c1,0.7,1.8,1.6,2.8,2.4c-0.1-0.1-0.1-0.2-0.2-0.2c-0.8-0.7-1.5-1.4-2.3-2.1
				c-0.1-0.1-0.2-0.1-0.2-0.2c0-0.1-0.1-0.2-0.1-0.3c0-0.1,0.2-0.2,0.2-0.1c0.3,0,0.7,0,1,0.2c0.4,0.2,0.8,0.5,1.1,0.8
				c0.5,0.4,0.6,1,0.8,1.6c0.1,0.5,0,0.7-0.6,1c-0.6-0.6-1.2-1.1-1.9-1.7c0.4-0.1,0.5,0.2,0.7,0.4c0.2,0.2,0.4,0.4,0.6,0.6
				c0.2,0.2,0.4,0.3,0.6,0.5c0,0,0.1-0.1,0.1-0.1C91.6,200.9,90.6,200.1,89.8,199.1C89.7,199.2,89.8,199.2,89.8,199.1z M90.2,198.9
				c0.8,0.7,1.6,1.5,2.5,2.3C92.5,200.7,90.7,199.1,90.2,198.9z"/>
			<path class="st3" d="M91.8,202.5c-0.3-0.1-0.5-0.1-0.8-0.2c-1.1-0.2-2.1-1.6-2.2-2.6c0-0.2-0.1-0.5,0.3-0.5c0,0.4,0,0.9,0.2,1.2
				c0.1,0.1,0.2,0.3,0.3,0.4c0.4,0.4,0.9,0.8,1.4,1.2c0.1,0.1,0.3,0.2,0.4,0.3c0,0,0-0.1,0.1-0.1c-0.4-0.3-0.7-0.6-1.1-0.9
				C90.8,201.3,91.6,202,91.8,202.5z"/>
			<path class="st4" d="M90.2,198.9c0.6,0.2,2.3,1.8,2.5,2.3C91.8,200.4,91,199.6,90.2,198.9z"/>
		</g>
	</g>
	<g>
		<g>
			<line class="st15" x1="115.7" y1="127.3" x2="115.5" y2="127.3"/>
			<line class="st16" x1="115" y1="127.3" x2="36.8" y2="127.3"/>
			<line class="st15" x1="36.5" y1="127.3" x2="36.3" y2="127.3"/>
		</g>
	</g>
</g>
<g id="text">
	<text transform="matrix(1 0 0 1 33.6523 80.7725)"><tspan x="0" y="0" class="st19 st20">BREUKELEN COFFEE HOUSE</tspan><tspan x="0" y="4.9" class="st21 st20">A        764 Franklin Ave, Brooklyn, NY 11238</tspan><tspan x="0" y="9.9" class="st21 st20">T        +1 (718) 789-7070</tspan></text>
	<text transform="matrix(1 0 0 1 33.6523 102.4492)"><tspan x="0" y="0" class="st19 st20">THE BREUKELEN</tspan><tspan x="0" y="4.9" class="st21 st20">A       710 Nostrand Ave, Brooklyn, NY 11216</tspan><tspan x="0" y="9.9" class="st21 st20">T       +1 (347) 404-7006</tspan></text>
	<text transform="matrix(1.0039 0 0 1 33.6523 38.4395)"><tspan x="0" y="0" class="st19 st22">JASON C MORGAN</tspan><tspan x="0" y="6.6" class="st23 st24">OWNER/ MANAGING PARTNER</tspan><tspan x="0" y="20.7" class="st21 st25">T     +1 (212) 960-8681</tspan><tspan x="0" y="27.6" class="st21 st25">E     jasoncmorgan1@me.com</tspan></text>
</g>
</svg>
