<?xml version="1.0" encoding="utf-8"?>
<!-- Generator: Adobe Illustrator 21.1.0, SVG Export Plug-In . SVG Version: 6.00 Build 0)  -->
<svg version="1.1" xmlns="http://www.w3.org/2000/svg" xmlns:xlink="http://www.w3.org/1999/xlink" x="0px" y="0px"
	 viewBox="0 0 252 144" style="enable-background:new 0 0 252 144;" xml:space="preserve">
<style type="text/css">
	.st0{display:none;}
	.st1{display:inline;fill:#444545;}
	.st2{display:inline;fill:#757576;}
	.st3{fill-rule:evenodd;clip-rule:evenodd;}
	.st4{fill-rule:evenodd;clip-rule:evenodd;fill:none;}
	.st5{clip-path:url(#SVGID_2_);}
	.st6{clip-path:url(#SVGID_4_);fill:#232323;}
	.st7{clip-path:url(#SVGID_6_);}
	.st8{clip-path:url(#SVGID_8_);fill:#232323;}
	.st9{clip-path:url(#SVGID_10_);}
	.st10{clip-path:url(#SVGID_12_);fill:#232323;}
	.st11{clip-path:url(#SVGID_14_);}
	.st12{clip-path:url(#SVGID_16_);fill:#232323;}
	.st13{clip-path:url(#SVGID_18_);}
	.st14{clip-path:url(#SVGID_20_);fill:#232323;}
	.st15{fill:none;stroke:#000000;stroke-width:0.5;stroke-miterlimit:10;}
	.st16{fill:none;stroke:#000000;stroke-width:0.5;stroke-miterlimit:10;stroke-dasharray:0.5026,0.5026;}
	.st17{fill:none;stroke:#000000;stroke-miterlimit:10;}
	.st18{fill:none;stroke:#000000;stroke-miterlimit:10;stroke-dasharray:1.0034,1.0034;}
	.st19{font-family:'Lato-Regular';}
	.st20{font-size:4.1086px;}
	.st21{font-family:'Lato-Thin';}
	.st22{font-size:9px;}
	.st23{font-family:'Lato-Light';}
	.st24{font-size:5.5px;}
	.st25{font-size:5.752px;}
	.st26{fill:none;stroke:#000000;stroke-width:0.25;stroke-miterlimit:10;}
	.st27{fill:#070808;}
</style>
<g id="backround" class="st0">
	<rect class="st2" width="252" height="144"/>
</g>
<g id="graphics">
	<g>
		<path class="st3" d="M196.1,77.4c-0.4-0.2-0.6-0.5-0.7-1c0-0.2-0.2-0.3-0.3-0.4c-0.9-0.6-1.3-1.5-1.4-2.6c0-1.3-0.1-2.6-0.1-4
			c0-3.7,0.1-7.3,0.1-11c0-2.3,0.1-4.7,0.1-7c0-0.9,0-1.7-0.1-2.6c0-1,0-2,0.5-3c0.3-0.7,0.8-1.3,1.6-1.6c0.4-0.2,0.8-0.4,1.3-0.3
			c1,0.2,1.8,0.7,2.2,1.7c0.3,0.7,0.3,1.4,0.2,2.2c-0.1,0.8-0.1,1.5-0.1,2.3c0.1,6.8,0.1,13.6,0.2,20.4c0,1.6,0,3.3-0.1,4.9
			c0,0.2-0.1,0.5-0.2,0.7c0,0.1-0.1,0.2-0.1,0.2c0.1,0.4-0.1,0.7-0.4,1c0.2,0.5,0.4,1,0.1,1.5c0,0,0,0,0,0c0.2,0.6-0.2,1.2,0.1,1.8
			c0,0.1,0,0.2,0,0.2c0,1.1,0,2.2,0,3.3c-0.1,0.7,0,1.5,0,2.2c0.1,1.1,0.2,2.1,0.4,3.2c0,0.3,0.2,0.6,0.3,0.8
			c0.3,0.9,0.5,1.9,0.7,2.8c0.1,0.5,0.3,1,0.2,1.5c-0.1,0.8,0.2,1.6,0.2,2.4c0,1,0.1,2-0.3,2.9c-0.2,0.6-0.5,1.2-0.8,1.7
			c-0.4,0.7-1.2,0.9-1.9,1c-0.8,0.2-1.5-0.2-2.2-0.6c-0.3-0.2-0.4-0.5-0.6-0.8c-0.2-0.5-0.5-1-0.6-1.5c-0.3-1.4-0.3-2.8,0-4.3
			c0.1-0.8,0.2-1.5,0.3-2.3c0.1-0.7,0.2-1.3,0.4-2c0.4-1.7,0.5-3.3,0.4-5c-0.1-1.6-0.1-3.1-0.2-4.7c0-0.6,0.1-1.2,0.4-1.8
			c0.2-0.3,0.1-0.7,0-1.1C195.8,78.2,195.7,77.8,196.1,77.4z M194,73.9C194,73.9,194,73.9,194,73.9c0.1-6,0.2-12,0.3-18
			c0,0,0.1,0,0.1,0c0,0.1,0,0.3,0,0.4c0,1.3-0.1,2.5-0.1,3.8c0,4.6-0.1,9.2-0.1,13.7c0,0.2-0.1,0.4-0.1,0.6c0.1,0.7,1,1.5,1.7,1.5
			c1,0,2.1,0,3.2,0c0-0.2,0.1-0.3,0.1-0.5c0-2,0.1-3.9,0.1-5.9c0-6.7-0.1-13.3-0.2-20c0-1.1,0-2.1-0.1-3.2c0-0.7-0.4-1.3-1.1-1.6
			c0,0.3-0.1,0.5-0.1,0.7c0,1.6,0,3.2,0,4.7c0,1.5,0,3-0.1,4.5c0,0.1,0,0.2,0,0.4c-0.1-0.4-0.1-0.7-0.1-1c0-2.3,0-4.6,0-6.9
			c0-0.8,0-1.7,0.1-2.6c-0.2,0-0.4-0.1-0.6-0.2c0,0.1-0.1,0.1-0.1,0.1c-0.1,4.6-0.2,9.2-0.2,13.7c0,0,0,0.1,0,0.1c0,0,0,0,0,0
			c0,0,0,0,0,0c0.1-4.6,0.1-9.3,0.2-13.9c-0.6,0-0.6,0-0.6,0.5c0,1.7-0.1,3.4-0.1,5c0,0.1,0,0.2,0,0.4c0,0-0.1,0-0.1,0
			c-0.1-1.9,0.2-3.8,0.1-5.8c-0.6,0.2-0.6,0.2-0.6,0.7c0,0.7,0,1.5,0,2.2c0,1.5-0.1,3.1-0.1,4.6c0,0.1,0,0.1-0.1,0.2
			c0,0-0.1,0-0.1,0c0-0.5,0-0.9,0-1.4c0-1.5,0.1-2.9,0.1-4.4c0-0.5-0.1-1-0.1-1.4c0,0-0.1,0-0.1,0c-0.2,0.4,0,0.8,0,1.2
			c0,0.5,0,0.9,0,1.4c0,0.4,0,0.9,0,1.3c0,0.4,0,0.9,0,1.3c0,0.5,0,0.9,0,1.4c0,0.4,0,0.8,0,1.3c0,0-0.1,0-0.1,0
			c-0.1-2.5,0.2-4.9-0.1-7.4c-0.2,0.2-0.3,0.3-0.4,0.5c-0.2,0.6-0.3,1.2-0.4,1.8c-0.1,1,0,2,0,3c-0.1,4.4-0.1,8.7-0.2,13.1
			c0,3,0,6.1,0,9.1C193.9,73.3,194,73.6,194,73.9z M197.6,79.5c0,0.1,0,0.1,0,0.2c-0.2,0.1-0.3,0.2-0.5,0.2c-0.2,0-0.4,0-0.6-0.1
			c-0.4-0.1-0.5,0-0.7,0.4c-0.1,0.3-0.2,0.7-0.2,1c0,1.2,0.1,2.4,0.1,3.6c0,0,0,0.1,0.1,0.2c0-0.9,0-1.7,0-2.6
			c0.1,0.5,0.1,1,0.2,1.5c0,0.5,0,0.9,0,1.4c0,0.4,0.1,0.9,0,1.3c-0.1,0.5,0.1,0.8,0.1,1.2c0,0.5,0,1.1-0.1,1.6
			c-0.2,1-0.3,2.1-0.5,3.1c0,0.1-0.1,0.3-0.1,0.4c0,0-0.1,0-0.1,0c0.1-0.5,0.1-1,0.2-1.5c-0.2,0.5-0.3,0.9-0.4,1.4
			c-0.1,0.3,0,0.7-0.1,1c-0.1,0.4-0.2,0.7-0.2,1.1c0,0.2,0,0.4,0.2,0.5c0.1-0.2,0.1-0.3,0.2-0.5c0.1-0.5,0.5-0.9,0.3-1.5
			c-0.1-0.3,0.2-0.5,0.5-0.5c0.2,0,0.4,0.1,0.5,0.1c0.2,0,0.3,0,0.5,0c-0.1-0.2-0.1-0.4-0.2-0.6c0.2,0,0.3,0,0.5,0
			c0.1,0,0.2,0,0.3,0c0.2-0.1,0.1-0.2,0.1-0.4c-0.1-0.2-0.1-0.4-0.2-0.6c-0.5-0.2-1-0.8-1.1-1.3c0-0.2,0.1-0.3,0.3-0.3
			c0.2,0,0.3,0.2,0.4,0.3c0,0,0,0.1-0.1,0.1c-0.1,0-0.2-0.1-0.4-0.1c0.2,0.8,0.2,0.8,0.6,0.6c0-0.3,0-0.5,0.1-0.8
			c0.1-0.2,0.1-0.4-0.1-0.5c-0.2-0.1-0.3-0.3-0.2-0.5c0.1-0.3,0.3-0.7,0.4-1c0.1-0.1,0.2-0.2,0.3-0.3c0.1,0.1,0.2,0.3,0.3,0.4
			c0,0.2,0,0.4-0.1,0.6c0.1,0,0.3,0.1,0.4,0.1c-0.1-1-0.2-2-0.3-2.9c0-0.9,0-1.9,0-2.8c0-0.9,0.1-1.9,0.1-2.8c0,0,0.1,0,0.2,0
			c0,0.2,0,0.3,0,0.5c0,2.3-0.2,4.6,0.1,6.8c0.1,0.6,0,1.1,0.1,1.7c0.1,0.7,0.3,1.5,0.5,2.2c0.1,0.6,0.3,1.2,0.5,1.8
			c0,0,0.1,0,0.1,0.1c0-0.1,0-0.2,0-0.2c-0.4-1.8-1-3.6-1.1-5.5c-0.1-1.5-0.1-3.1-0.2-4.6c0-0.7,0-1.3,0-2c0-0.3-0.1-0.7,0.2-1
			c0,0,0-0.2,0-0.2c-0.1-0.1-0.3-0.2-0.4-0.3c0-0.1,0.1-0.3,0.2-0.4c-0.8,0-1.5,0.1-2.2,0.1C196.7,79.6,197.2,79.5,197.6,79.5z
			 M197,98.8C197,98.8,197,98.8,197,98.8c0.2,0,0.4,0.2,0.6,0.2c0.5,0,0.9-0.3,1.2-0.7c0.1-0.1,0.1-0.3,0.2-0.4
			c0.3-0.4,0.4-0.9,0.4-1.4c0-0.1,0-0.2,0.1-0.3c0,0,0.1,0,0.1,0c0,0.4-0.1,0.8-0.1,1.2c0.1,0,0.1,0,0.2,0c0-0.2,0.1-0.5,0-0.7
			c-0.1-0.6-0.1-1.3-0.4-1.8c-0.2-0.4-0.2-0.8-0.5-1.2c-0.3-0.5-0.8-0.7-1.3-0.6c-0.6,0-1,0.4-1.3,1c-0.1,0.2-0.2,0.4-0.3,0.5
			c0,0.1-0.1,0.1-0.1,0.2c0,0.6,0,1.2,0,1.8c0,0.4,0,0.9,0,1.3c0.2,0.2,0.4,0.3,0.5,0.5c0.2,0.4,0.4,0.5,0.8,0.6c0,0,0,0,0.1-0.1
			C197.1,98.9,197.1,98.9,197,98.8z M196.3,77.7c-0.3,0.4-0.1,0.8,0,1.3c0.3,0,0.6,0,0.9,0c0-0.5,0-0.9,0-1.3c0,0,0.1,0,0.1,0
			c0,0.4,0,0.8,0.1,1.2c0,0,0.1,0,0.1,0c0-0.3,0-0.7,0-1c0-0.3-0.2-0.4-0.5-0.3C196.8,77.6,196.6,77.7,196.3,77.7z M195.5,94.8
			c-0.4,0.7-0.5,3.1-0.1,3.8c0-1.2-0.3-2.3,0.1-3.4c0,0.8,0,1.6,0.1,2.4c0-0.8,0-1.7,0-2.5C195.6,95,195.5,95,195.5,94.8z
			 M195.9,76.5c0.1,0.3,0.4,0.3,0.6,0.4c0.8,0.1,1.7,0.1,2.5-0.2c-0.1-0.1-0.2-0.2-0.3-0.2C197.7,76.5,196.8,76.5,195.9,76.5z
			 M200,94c0,0-0.1,0-0.1,0c0,0.1-0.1,0.3,0,0.4c0.5,1.4,0.4,2.8,0.4,4.3C200.7,97.1,200.1,95.6,200,94z M195.6,101.1
			c-0.4-1.5-0.8-3-0.7-4.6C194.6,97.9,195.1,100.2,195.6,101.1z M198.9,98.7c0.5,0.2,0.8,0.1,1-0.2c0.2-0.4,0.1-0.6-0.5-0.8
			C199.2,98,199,98.3,198.9,98.7z M196.1,99.4c0.3-0.6,0.1-1.1-0.5-1.2c0.2,0.4,0.1,0.6-0.3,0.8C195.4,99.5,195.8,99.3,196.1,99.4z
			 M198.8,76.2c-0.9,0-1.9-0.1-2.8,0C196.9,76.4,197.8,76.4,198.8,76.2z M198.8,91.7c-0.2,0.2-0.3,0.3-0.4,0.5
			c-0.1,0.2-0.1,0.4-0.1,0.7c0.2,0.2,0.4,0.1,0.6-0.1c0.2-0.1,0.1-0.3,0-0.5C198.9,92.2,198.9,92,198.8,91.7z"/>
		<path class="st4" d="M194,73.9c0-0.3-0.1-0.6-0.1-0.8c0-3,0-6.1,0-9.1c0-4.4,0.1-8.7,0.2-13.1c0-1-0.1-2,0-3
			c0-0.6,0.2-1.2,0.4-1.8c0-0.2,0.2-0.3,0.4-0.5c0.3,2.5,0,4.9,0.1,7.4c0,0,0.1,0,0.1,0c0-0.4,0-0.8,0-1.3c0-0.5,0-0.9,0-1.4
			c0-0.4,0-0.9,0-1.3c0-0.4,0-0.9,0-1.3c0-0.5-0.1-0.9,0-1.4c0-0.4-0.2-0.8,0-1.2c0,0,0.1,0,0.1,0c0,0.5,0.1,1,0.1,1.4
			c0,1.5-0.1,2.9-0.1,4.4c0,0.5,0,0.9,0,1.4c0,0,0.1,0,0.1,0c0-0.1,0.1-0.1,0.1-0.2c0-1.5,0.1-3.1,0.1-4.6c0-0.7,0-1.5,0-2.2
			c0-0.5,0-0.6,0.6-0.7c0.1,1.9-0.1,3.9-0.1,5.8c0,0,0.1,0,0.1,0c0-0.1,0-0.2,0-0.4c0-1.7,0.1-3.4,0.1-5c0-0.5,0-0.5,0.6-0.5
			c-0.1,4.6-0.1,9.3-0.2,13.9c0,0,0,0,0,0c0,0,0,0,0,0c0,0,0-0.1,0-0.1c0.1-4.6,0.2-9.2,0.2-13.7c0,0,0,0,0.1-0.1
			c0.2,0.1,0.4,0.1,0.6,0.2c0,0.9-0.1,1.8-0.1,2.6c0,2.3,0,4.6,0,6.9c0,0.3,0,0.7,0.1,1c0-0.1,0-0.2,0-0.4c0-1.5,0-3,0.1-4.5
			c0-1.6,0-3.2,0-4.7c0-0.2,0.1-0.4,0.1-0.7c0.7,0.4,1.1,0.9,1.1,1.6c0,1.1,0,2.1,0.1,3.2c0.1,6.7,0.1,13.3,0.2,20
			c0,2,0,3.9-0.1,5.9c0,0.2,0,0.3-0.1,0.5c-1.1,0-2.1,0-3.2,0c-0.7,0-1.6-0.8-1.7-1.5c0-0.2,0.1-0.4,0.1-0.6c0-4.6,0.1-9.2,0.1-13.7
			c0-1.3,0.1-2.5,0.1-3.8c0-0.1,0-0.3,0-0.4c0,0-0.1,0-0.1,0C194.2,61.9,194.1,67.9,194,73.9C194,73.9,194,73.9,194,73.9z
			 M196.9,67.3c0.1,0,0.1,0,0.2,0c0-7,0.4-14,0.3-21c0,0-0.1,0-0.1,0C197.1,53.3,197,60.3,196.9,67.3z M195.4,55.3
			c-0.1,0-0.1,0-0.2,0c0,6.1-0.2,12.2-0.1,18.2c0,0,0.1,0,0.1,0C195.3,67.5,195.3,61.4,195.4,55.3z M194.9,60.4
			c0,4.9-0.3,9.8-0.1,14.6c0,0,0.1,0,0.1,0C194.9,70.1,194.9,65.2,194.9,60.4z M194.6,58.8c0.2-4.3,0.2-8.6,0.2-13
			C194.6,50.2,194.7,54.5,194.6,58.8z M198.5,57C198.4,57,198.4,57,198.5,57c-0.1,0.5-0.1,1-0.1,1.5c0,3.1,0,6.2,0,9.4c0,0,0,0,0,0
			c0,0,0,0,0.1,0C198.5,64.2,198.5,60.6,198.5,57z M196,62.7c0,0-0.1,0-0.1,0c0,0.2,0,0.3,0,0.5c0,0.9,0,1.7,0,2.6c0,2.5,0,5,0,7.5
			c0,0.2,0,0.3,0,0.5c0,0,0.1,0,0.1,0C196,70.1,196,66.4,196,62.7z M195.9,44.8c-0.1,0-0.1,0-0.2,0c-0.1,3.7-0.1,7.4-0.2,11.1
			c0,0,0.1,0,0.1,0C195.8,52.3,195.8,48.6,195.9,44.8z M196.8,61.1c0,0-0.1,0-0.1,0c-0.1,3.5-0.1,7-0.2,10.5c0,0,0.1,0,0.1,0
			C196.7,68.1,196.7,64.6,196.8,61.1z M196.6,44.7c0,0-0.1,0-0.1,0c-0.1,3.7-0.1,7.3-0.1,11c0,0,0.1,0,0.1,0
			C196.5,52.1,196.6,48.4,196.6,44.7z M197.9,61.7C197.9,61.7,197.8,61.7,197.9,61.7c-0.1,2.4-0.1,4.8-0.1,7.2c0,0,0.1,0,0.1,0
			C197.9,66.5,197.9,64.1,197.9,61.7z M197.7,55.8c-0.1,0-0.1,0-0.2,0c-0.1,3.2-0.1,6.3-0.2,9.5c0,0,0.1,0,0.1,0
			C197.5,62.2,197.6,59,197.7,55.8z M195.6,66.1c0,3.1-0.2,6.1-0.1,9.2c0,0,0.1,0,0.1,0C195.6,72.2,195.6,69.2,195.6,66.1z
			 M194.5,67.3c-0.1,2.5-0.3,4.9-0.1,7.4c0,0,0.1,0,0.1,0C194.5,72.2,194.5,69.7,194.5,67.3z M194.4,47.3
			C194.4,47.3,194.3,47.3,194.4,47.3c-0.1,2.7-0.1,5.4-0.1,8.1c0,0,0,0,0.1,0C194.4,52.7,194.4,50,194.4,47.3z M198,54.9
			C198.1,54.9,198.1,54.9,198,54.9c0.1-2.1,0.1-4.1,0.1-6.2c0,0,0,0-0.1,0C198,50.8,198,52.8,198,54.9z M194.6,59.2
			C194.6,59.2,194.6,59.2,194.6,59.2c-0.1,2.5-0.1,5-0.1,7.5c0,0,0.1,0,0.1,0C194.6,64.2,194.6,61.7,194.6,59.2z M198.6,45.8
			c-0.2,1.3-0.1,2.7-0.1,4C198.7,48.5,198.6,47.1,198.6,45.8z M196.3,62.7C196.3,62.7,196.3,62.7,196.3,62.7c-0.1,1.7-0.1,3.4-0.1,5
			c0,0,0.1,0,0.1,0C196.3,66.1,196.3,64.4,196.3,62.7z M196,55.9c0,0,0.1,0,0.1,0c0-1.7,0.1-3.4,0-5.1c0,0-0.1,0-0.1,0
			C196,52.5,196,54.2,196,55.9z M195.9,62c0.1-1.2,0.2-2.4,0.1-3.6c0,0-0.1,0-0.1,0C195.9,59.6,195.9,60.8,195.9,62z M195.1,53.6
			c0,0-0.1,0-0.1,0c0,1.1,0,2.3,0,3.4c0,0,0,0,0.1,0C195.1,55.9,195.1,54.8,195.1,53.6z M198.5,52.1c0,0-0.1,0-0.1,0
			c0,1.2,0,2.4,0,3.5c0,0,0.1,0,0.1,0C198.5,54.4,198.5,53.3,198.5,52.1z"/>
		<path class="st4" d="M197.6,79.5c-0.5,0-0.9,0.1-1.3-0.2c0.7,0,1.5-0.1,2.2-0.1c-0.1,0.2-0.2,0.3-0.2,0.4c0,0.1,0.2,0.2,0.4,0.3
			c0,0.1,0,0.2,0,0.2c-0.3,0.3-0.2,0.7-0.2,1c0,0.7,0,1.3,0,2c0,1.5,0.1,3.1,0.2,4.6c0.1,1.9,0.7,3.7,1.1,5.5c0,0.1,0,0.1,0,0.2
			c-0.1-0.1-0.1-0.1-0.1-0.1c-0.2-0.6-0.3-1.2-0.5-1.8c-0.2-0.7-0.4-1.5-0.5-2.2c-0.1-0.6,0-1.1-0.1-1.7c-0.3-2.3-0.1-4.6-0.1-6.8
			c0-0.2,0-0.3,0-0.5c0,0-0.1,0-0.2,0c0,0.9-0.1,1.9-0.1,2.8c0,0.9,0,1.9,0,2.8c0,1,0.2,1.9,0.3,2.9c-0.2-0.1-0.3-0.1-0.4-0.1
			c0-0.2,0.1-0.4,0.1-0.6c0-0.2-0.2-0.3-0.3-0.4c-0.1,0.1-0.3,0.2-0.3,0.3c-0.2,0.3-0.3,0.7-0.4,1c-0.1,0.2,0,0.4,0.2,0.5
			c0.2,0.1,0.2,0.3,0.1,0.5c-0.1,0.2-0.1,0.5-0.1,0.8c-0.5,0.1-0.5,0.1-0.6-0.6c0.1,0.1,0.3,0.1,0.4,0.1c0,0,0-0.1,0.1-0.1
			c-0.1-0.1-0.3-0.2-0.4-0.3c-0.2-0.1-0.3,0-0.3,0.3c0.1,0.5,0.5,1.1,1.1,1.3c0.1,0.2,0.1,0.4,0.2,0.6c0.1,0.1,0.1,0.3-0.1,0.4
			c-0.1,0-0.2,0-0.3,0c-0.1,0-0.3,0-0.5,0c0.1,0.2,0.1,0.4,0.2,0.6c-0.2,0-0.4,0-0.5,0c-0.2,0-0.4-0.1-0.5-0.1
			c-0.3,0-0.6,0.2-0.5,0.5c0.2,0.6-0.2,1-0.3,1.5c0,0.2-0.1,0.3-0.2,0.5c-0.2-0.1-0.2-0.3-0.2-0.5c0.1-0.4,0.2-0.7,0.2-1.1
			c0.1-0.3,0-0.7,0.1-1c0.1-0.5,0.2-0.9,0.4-1.4c-0.1,0.5-0.1,1-0.2,1.5c0,0,0.1,0,0.1,0c0-0.1,0.1-0.3,0.1-0.4c0.2-1,0.4-2,0.5-3.1
			c0.1-0.5,0.1-1.1,0.1-1.6c0-0.4-0.2-0.8-0.1-1.2c0.1-0.4,0-0.9,0-1.3c0-0.5,0-0.9,0-1.4c0-0.5-0.1-1-0.2-1.5c0,0.8,0,1.6,0,2.6
			c-0.1-0.1-0.1-0.1-0.1-0.2c0-1.2-0.1-2.4-0.1-3.6c0-0.3,0.1-0.7,0.2-1c0.1-0.4,0.2-0.4,0.7-0.4c0.2,0,0.4,0.1,0.6,0.1
			c0.2,0,0.3-0.1,0.5-0.2C197.7,79.6,197.6,79.6,197.6,79.5z M198.1,80.3c0,0-0.1,0-0.1,0c0,2.4-0.2,4.8,0.1,7.2
			C198.1,85,198.1,82.7,198.1,80.3z M197.6,83.7c0,0,0.1,0,0.1,0c0-1.2,0-2.4,0-3.5C197.5,81.4,197.6,82.6,197.6,83.7z"/>
		<path class="st4" d="M197,98.8c0.1,0.1,0.1,0.1,0.2,0.2c0,0-0.1,0.1-0.1,0.1c-0.4-0.1-0.6-0.2-0.8-0.6c-0.1-0.2-0.3-0.3-0.5-0.5
			c0-0.4,0-0.8,0-1.3c0-0.6,0-1.2,0-1.8c0-0.1,0.1-0.1,0.1-0.2c0.1-0.2,0.2-0.4,0.3-0.5c0.2-0.6,0.7-1,1.3-1c0.5,0,1,0.1,1.3,0.6
			c0.3,0.4,0.3,0.8,0.5,1.2c0.3,0.6,0.3,1.2,0.4,1.8c0,0.2,0,0.4,0,0.7c-0.1,0-0.1,0-0.2,0c0-0.4,0.1-0.8,0.1-1.2c0,0-0.1,0-0.1,0
			c0,0.1-0.1,0.2-0.1,0.3c0,0.5-0.1,1-0.4,1.4c-0.1,0.1-0.1,0.3-0.2,0.4c-0.2,0.5-0.6,0.7-1.2,0.7C197.4,99,197.2,98.8,197,98.8
			C197,98.8,197,98.8,197,98.8z M198.5,94.5c0,0.5,0,1.1,0,1.6c0,1.3,0,1.3-0.3,1.6c0-0.6,0-1.1,0-1.6c0,0-0.1,0-0.1,0
			c0,0.4,0,0.8,0,1.2c0,0-0.1,0-0.1,0c-0.1-1.1,0-2.3-0.1-3.4c-0.1,0-0.1,0.1-0.1,0.1c0,1.4,0.1,2.7,0.1,4.1c0,0.1-0.1,0.1-0.1,0.2
			c0,0-0.1,0-0.1,0c0-0.6-0.1-1.1-0.1-1.7c-0.2,0.3-0.1,0.5-0.1,0.8c0,0.3,0,0.6,0,0.8c-0.1,0-0.1,0-0.2,0c0-0.3,0-0.6,0-1
			c0-0.3,0-0.6-0.1-1c0,0-0.1,0-0.1,0c0,0.6,0,1.1,0,1.7c0,0-0.1,0-0.1,0c-0.1-0.2-0.2-0.3-0.2-0.5c-0.1-0.4-0.1-0.9-0.2-1.3
			c0,0-0.1,0-0.1,0c0.1,0.4,0.1,0.8,0.2,1.2c-0.1,0-0.2-0.1-0.2-0.2c-0.1-0.4-0.2-0.9-0.2-1.3c0-0.8,0.2-1.5,0.6-2.1
			c0.4-0.7,0.9-0.7,1.4-0.2c0.2,0.2,0.3,0.3,0.5,0.6c0-0.4-0.1-0.5-0.5-0.8c-0.5-0.4-1.1-0.4-1.4,0.1c-0.6,0.7-0.7,1.5-0.7,2.4
			c-0.1,0.7,0.1,1.4,0.4,2c0.4,0.7,1.1,0.8,1.7,0.3c0.6-0.5,0.7-1.2,0.9-1.9c0.1-0.3,0-0.7,0-1c-0.1,0-0.1,0-0.2,0
			c0,0.4,0,0.9,0,1.3c0,0-0.1,0-0.1,0C198.6,96,198.8,95.2,198.5,94.5z"/>
		<path class="st4" d="M196.3,77.7c0.2-0.1,0.5-0.1,0.7-0.2c0.3-0.2,0.5-0.1,0.5,0.3c0,0.3,0,0.7,0,1c0,0-0.1,0-0.1,0
			c0-0.4,0-0.8-0.1-1.2c0,0-0.1,0-0.1,0c0,0.4,0,0.8,0,1.3c-0.3,0-0.6,0-0.9,0C196.2,78.5,196,78.1,196.3,77.7z"/>
		<path class="st4" d="M195.5,94.8c0.1,0.1,0.2,0.2,0.2,0.3c0,0.8,0,1.7,0,2.5c-0.2-0.8-0.2-1.6-0.1-2.4c-0.3,1.1,0,2.2-0.1,3.4
			C195,97.9,195,95.5,195.5,94.8z"/>
		<path class="st4" d="M195.9,76.5c1,0,1.8,0,2.7,0c0.1,0,0.2,0.1,0.3,0.2c-0.8,0.3-1.6,0.3-2.5,0.2C196.2,76.9,196,76.9,195.9,76.5
			z"/>
		<path class="st4" d="M200,94c0.1,1.6,0.8,3.1,0.2,4.7c0-1.4,0.1-2.9-0.4-4.3c0-0.1,0-0.3,0-0.4C199.9,94,199.9,94,200,94z"/>
		<path class="st4" d="M195.6,101.1c-0.5-0.8-1-3.2-0.7-4.6C194.9,98.1,195.2,99.6,195.6,101.1z"/>
		<path class="st4" d="M198.9,98.7c0.2-0.4,0.3-0.7,0.5-1c0.5,0.3,0.6,0.5,0.5,0.8C199.7,98.8,199.4,98.9,198.9,98.7z"/>
		<path class="st4" d="M196.1,99.4c-0.3-0.1-0.7,0.1-0.7-0.4c0.4-0.1,0.4-0.4,0.3-0.8C196.2,98.4,196.4,98.8,196.1,99.4z"/>
		<path class="st4" d="M198.8,76.2c-0.9,0.3-1.9,0.2-2.8,0C196.9,76.1,197.8,76.2,198.8,76.2z"/>
		<path class="st4" d="M198.8,91.7c0.1,0.3,0.1,0.4,0.1,0.6c0.1,0.2,0.2,0.3,0,0.5c-0.2,0.1-0.4,0.3-0.6,0.1c0-0.3,0-0.5,0.1-0.7
			C198.5,92,198.6,91.9,198.8,91.7z"/>
		<path class="st3" d="M196.9,67.3c0.1-7,0.2-14,0.4-21c0,0,0.1,0,0.1,0c0.1,7-0.3,14-0.3,21C197,67.3,196.9,67.3,196.9,67.3z"/>
		<path class="st3" d="M195.4,55.3c-0.1,6.1-0.1,12.2-0.2,18.3c0,0-0.1,0-0.1,0c-0.1-6.1,0.1-12.2,0.1-18.2
			C195.3,55.3,195.4,55.3,195.4,55.3z"/>
		<path class="st3" d="M194.9,60.4c0,4.9,0,9.8,0,14.6c0,0-0.1,0-0.1,0C194.6,70.1,194.9,65.3,194.9,60.4z"/>
		<path class="st3" d="M194.6,58.8c0.1-4.3-0.1-8.6,0.2-13C194.8,50.2,194.8,54.5,194.6,58.8z"/>
		<path class="st3" d="M198.5,57c0,3.6,0,7.3,0,10.9c-0.1,0-0.1,0-0.1,0c0,0,0,0,0,0c0-3.1,0-6.2,0-9.4
			C198.3,57.9,198.3,57.5,198.5,57C198.4,57,198.4,57,198.5,57z"/>
		<path class="st3" d="M196,62.7c0,3.7,0,7.4,0,11.1c0,0-0.1,0-0.1,0c0-0.2,0-0.3,0-0.5c0-2.5,0-5,0-7.5c0-0.9,0-1.7,0-2.6
			c0-0.2,0-0.3,0-0.5C195.9,62.7,196,62.7,196,62.7z"/>
		<path class="st3" d="M195.9,44.8c-0.1,3.7-0.1,7.4-0.2,11.1c0,0-0.1,0-0.1,0c0.1-3.7,0.1-7.4,0.2-11.1
			C195.8,44.8,195.8,44.8,195.9,44.8z"/>
		<path class="st3" d="M196.8,61.1c-0.1,3.5-0.1,7-0.2,10.5c0,0-0.1,0-0.1,0c0.1-3.5,0.1-7,0.2-10.5
			C196.7,61.1,196.7,61.1,196.8,61.1z"/>
		<path class="st3" d="M196.6,44.7c-0.1,3.7-0.1,7.3-0.2,11c0,0-0.1,0-0.1,0c0-3.7,0-7.3,0.1-11C196.6,44.7,196.6,44.7,196.6,44.7z"
			/>
		<path class="st3" d="M197.9,61.7c0,2.4,0,4.8,0,7.2c0,0-0.1,0-0.1,0C197.8,66.5,197.8,64.1,197.9,61.7
			C197.8,61.7,197.9,61.7,197.9,61.7z"/>
		<path class="st3" d="M197.7,55.8c-0.1,3.2-0.1,6.3-0.2,9.5c0,0-0.1,0-0.1,0c0.1-3.2,0.1-6.3,0.2-9.5
			C197.6,55.9,197.6,55.9,197.7,55.8z"/>
		<path class="st3" d="M195.6,66.1c0,3.1,0,6.1,0,9.2c0,0-0.1,0-0.1,0C195.4,72.2,195.6,69.2,195.6,66.1z"/>
		<path class="st3" d="M194.5,67.3c0,2.5,0,4.9,0,7.4c0,0-0.1,0-0.1,0C194.2,72.2,194.4,69.7,194.5,67.3z"/>
		<path class="st3" d="M194.4,47.3c0,2.7,0,5.4,0,8.1c0,0,0,0-0.1,0C194.3,52.7,194.3,50,194.4,47.3
			C194.3,47.3,194.4,47.3,194.4,47.3z"/>
		<path class="st3" d="M198,54.9c0-2.1,0-4.1,0-6.2c0,0,0,0,0.1,0C198.1,50.8,198.1,52.8,198,54.9C198.1,54.9,198.1,54.9,198,54.9z"
			/>
		<path class="st3" d="M194.6,59.2c0,2.5,0,5,0,7.5c0,0-0.1,0-0.1,0C194.5,64.2,194.5,61.7,194.6,59.2
			C194.6,59.2,194.6,59.2,194.6,59.2z"/>
		<path class="st3" d="M198.6,45.8c0,1.3,0.1,2.7-0.1,4C198.5,48.5,198.4,47.1,198.6,45.8z"/>
		<path class="st3" d="M196.3,62.7c0,1.7,0,3.4,0,5c0,0-0.1,0-0.1,0C196.2,66.1,196.2,64.4,196.3,62.7
			C196.3,62.7,196.3,62.7,196.3,62.7z"/>
		<path class="st3" d="M196,55.9c0-1.7,0-3.4,0-5.1c0,0,0.1,0,0.1,0c0.1,1.7,0,3.4,0,5.1C196.1,55.8,196,55.8,196,55.9z"/>
		<path class="st3" d="M195.9,62c0-1.2,0-2.4,0-3.6c0,0,0.1,0,0.1,0C196.1,59.6,196,60.8,195.9,62z"/>
		<path class="st3" d="M195.1,53.6c0,1.1-0.1,2.3-0.1,3.4c0,0,0,0-0.1,0c0-1.1,0-2.3,0-3.4C195,53.6,195.1,53.6,195.1,53.6z"/>
		<path class="st3" d="M198.5,52.1c0,1.2,0,2.3,0,3.5c0,0-0.1,0-0.1,0c0-1.2,0-2.3,0-3.5C198.5,52.1,198.5,52.1,198.5,52.1z"/>
		<path class="st3" d="M198.1,80.3c0,2.4,0,4.8,0,7.2c-0.4-2.4-0.2-4.8-0.1-7.2C198,80.3,198,80.3,198.1,80.3z"/>
		<path class="st3" d="M197.6,83.7c0-1.2,0-2.3,0.1-3.5c0,1.2,0,2.4,0,3.5C197.6,83.7,197.6,83.7,197.6,83.7z"/>
		<path class="st3" d="M198.5,94.5c0.3,0.7,0.1,1.4,0.2,2.2c0,0,0.1,0,0.1,0c0-0.4,0-0.9,0-1.3c0.1,0,0.1,0,0.2,0c0,0.3,0.1,0.7,0,1
			c-0.1,0.7-0.2,1.4-0.9,1.9c-0.6,0.5-1.3,0.3-1.7-0.3c-0.3-0.6-0.5-1.3-0.4-2c0.1-0.8,0.2-1.7,0.7-2.4c0.4-0.5,1-0.6,1.4-0.1
			c0.4,0.4,0.4,0.4,0.5,0.8c-0.2-0.2-0.3-0.4-0.5-0.6c-0.5-0.6-1-0.5-1.4,0.2c-0.4,0.7-0.6,1.4-0.6,2.1c0,0.4,0.1,0.9,0.2,1.3
			c0,0.1,0.1,0.1,0.2,0.2c-0.1-0.4-0.1-0.8-0.2-1.2c0,0,0.1,0,0.1,0c0.1,0.4,0.1,0.9,0.2,1.3c0,0.2,0.2,0.3,0.2,0.5c0,0,0.1,0,0.1,0
			c0-0.6,0-1.1,0-1.7c0,0,0.1,0,0.1,0c0,0.3,0.1,0.6,0.1,1c0,0.3,0,0.6,0,1c0.1,0,0.1,0,0.2,0c0-0.3,0-0.6,0-0.8
			c0-0.3-0.1-0.6,0.1-0.8c0,0.6,0.1,1.1,0.1,1.7c0,0,0.1,0,0.1,0c0-0.1,0.1-0.1,0.1-0.2c0-1.4-0.1-2.7-0.1-4.1c0,0,0-0.1,0.1-0.1
			c0.2,1.1,0.1,2.3,0.1,3.4c0,0,0.1,0,0.1,0c0-0.4,0-0.8,0-1.2c0,0,0.1,0,0.1,0c0,0.5,0,1.1,0,1.6c0.3-0.3,0.3-0.3,0.3-1.6
			C198.5,95.6,198.5,95.1,198.5,94.5z"/>
	</g>
	<g>
		<path class="st3" d="M182.4,62.3c0,0.8,0,1.5,0,2.3c0,0.3,0,0.4,0.3,0.5c0.3-0.7,0-1.4,0.3-2.1c0,0.7,0.1,1.4-0.1,2.1
			c-0.1,0.2-0.1,0.4,0.2,0.6c0-0.8,0.1-1.5,0.1-2.2c0,0,0.1,0,0.1,0c0,0.7,0,1.4,0,2.1c0,0,0,0,0.1,0c0-0.5,0.1-1,0.1-1.4
			c0,0,0.1,0,0.1,0c0,0.2,0,0.4,0,0.7c0,0,0.1,0,0.1,0c0-0.8,0-1.5,0-2.3c0.1,0,0.2,0,0.2,0c0,0.9,0.1,1.9-0.1,2.8
			c0,0.1,0,0.3,0,0.4c0,0,0.1,0,0.1,0c0.1-1.1,0.1-2.2,0.2-3.3c0,0,0.1,0,0.1,0c0,0.9-0.1,1.7-0.1,2.6c0,0,0.1,0,0.1,0
			c0-1,0.1-2,0.1-3c0.2,0.4,0.1,0.8,0.2,1.1c0,0.4,0,0.8,0.1,1.2c0-3.7,0.1-7.5,0.1-11.2c0,0-0.1,0-0.1,0c0,0.7-0.1,1.4-0.1,2
			c0,1.7,0,3.3,0,5c0,0.3,0,0.7-0.1,1c0,0,0,0.1,0,0.1c-0.1,0.3-0.1,0.5-0.4,0.6c-0.2,0.1-0.6-0.4-0.6-0.6c-0.1-0.4-0.1-0.7-0.1-1.1
			c0-1.5-0.1-3-0.1-4.5c0-0.6-0.1-1.1-0.1-1.7c0-0.1,0-0.2,0-0.2c0.1-0.4,0.1-0.9-0.1-1.4c0,1.2,0,2.3,0,3.5c0,0-0.1,0-0.1,0
			c0-0.8,0-1.6,0-2.4c0,0-0.1,0-0.1,0c0,0.9,0,1.8,0,2.7c0,0,0,0-0.1,0c-0.2-0.5,0.1-10.2,0.3-11c0,0.6-0.1,1.2-0.1,1.8
			c0,0.6,0,1.3,0,1.9c0,0,0.1,0,0.1,0c0-0.2,0-0.4,0-0.6c0-0.2,0-0.4,0-0.6c0-0.2,0-0.5,0.1-0.7c0-0.2,0-0.4,0-0.6c0,0,0.1,0,0.1,0
			c0,0.1,0.1,0.2,0.1,0.3c0,0.4,0,0.9-0.1,1.3c0,0.2,0,0.5,0.1,0.7c0.2-1.1,0-2.3,0-3.4c0,0,0.1,0,0.1,0c0,0.1,0.1,0.2,0.1,0.3
			c0,0.4,0,0.8,0,1.2c0,2.3,0.1,4.6,0.1,6.8c0,1.4,0,2.7,0.1,4.1c0,1.2,0.1,2.4,0.1,3.6c0,0.1,0,0.2,0.1,0.4
			c0.3-0.2,0.3-0.4,0.3-0.7c0-1.5,0.1-3.1,0.1-4.6c0-1.9,0.1-3.9,0.1-5.8c0-0.6,0-1.3,0-1.9c0-0.8,0.1-1.6,0-2.4
			c0-0.3,0.1-0.6,0.1-0.9c0.3,0.1,0.5,0.3,0.6,0.5c0.2,0.5,0.3,1,0.3,1.5c0.1,0.7,0.2,1.4,0.2,2.1c0.1,0.7,0.1,1.4,0.1,2.1
			c0,0.9,0.1,1.9,0.1,2.8c0,2.2,0.1,4.5,0.1,6.7c0,0.6-0.1,1.3-0.2,1.9c-0.1,1.5-1,2.5-2,3.5c-0.1,0.1-0.2,0.3-0.3,0.5
			c-0.6,2-0.8,4.1-0.8,6.1c0,0.9,0,1.7,0,2.6c0,1.5-0.1,3.1,0,4.6c0.1,2.5,0.3,5,0.7,7.5c0.3,1.5,0.5,3.1,1,4.6
			c0.3,1.3,0.6,2.5,0.8,3.8c0.1,1.1,0.1,2.1-0.2,3.2c-0.2,0.7-0.4,1.3-0.8,1.9c-0.7,0.9-2.2,1.5-3.5,1c-0.6-0.2-1.1-0.5-1.5-1
			c-0.2-0.2-0.2-0.5-0.3-0.8c-0.3-1-0.5-2-0.4-3c0.1-0.7,0.2-1.3,0.4-2c0.1-0.8,0.3-1.5,0.4-2.3c0.1-0.6,0.3-1.2,0.4-1.8
			c0.1-0.4,0.1-0.8,0.2-1.2c0.8-3.6,1-7.3,1.2-11c0-1.2,0.1-2.3,0.1-3.5c0.1-1.5,0.1-3,0-4.6c0-0.8-0.2-1.5-0.3-2.3
			c-0.1-0.8-0.4-1.5-0.6-2.2c0-0.2-0.2-0.3-0.3-0.4c-0.8-0.8-1.5-1.7-1.6-2.9c-0.1-1.3-0.2-2.7-0.2-4c0-2.1,0.2-4.2,0.3-6.2
			c0.1-1.4,0.1-2.9,0.2-4.3c0.1-0.9,0.1-1.9,0.2-2.8c0-0.3,0.2-0.6,0.3-1c0.4,0.4,0.5,0.8,0.6,1.2c0,1.6,0.1,3.2,0.1,4.7
			c0,1.2,0.1,2.4,0.1,3.7c0,1-0.1,2.1-0.1,3.1c0,0.9,0,1.8,0,2.8c0,0.1-0.1,0.3-0.1,0.4c-0.1,0.3,0,0.6,0.3,0.8
			c0.3-0.1,0.4-0.4,0.4-0.7c0.1-0.6,0.1-1.3,0.1-2c0-3.2,0.1-6.5,0.1-9.7c0-1.1,0.1-2.2,0.1-3.4c0-0.5,0.1-0.7,0.5-1
			c0.4,0.9,0.2,1.8,0.2,2.7c0,0.4,0,0.7,0.1,1.1c0.1-0.3-0.2-0.6,0.2-0.9c0,1.5,0.1,3,0.1,4.5c0,0.6,0.1,1.3,0.1,1.9
			c0,1.1,0,2.1,0,3.2c0,1.2-0.1,2.4-0.1,3.7c0,0.2,0,0.5,0.3,0.6c0.4-0.3,0.3-0.7,0.4-1.1c0-0.9,0-1.9,0-2.8c0-0.3,0-0.6,0-0.9
			c0-0.1,0-0.2,0.1-0.3c0,0.1,0.1,0.1,0.1,0.2c0,1.4,0,2.7,0,4.1c0,0.4-0.2,0.8-0.6,1c-0.3-0.1-0.5-0.4-0.5-0.8
			c-0.2-1.4-0.1-2.8-0.1-4.2c0-0.4,0-0.7-0.1-1.1c0-0.1,0-0.3,0-0.4c0-0.1,0-0.3,0-0.4c-0.2-1.8-0.1-3.6-0.2-5.3c0-1.2,0-2.4,0-3.6
			c0-0.2,0-0.4,0-0.6c0,0-0.1,0-0.1,0c0,0.1-0.1,0.2-0.1,0.3c0,1.2-0.1,2.3-0.1,3.5c0,0.4,0.1,0.7,0.2,1.1c0.1,1.6,0.1,3.2,0.1,4.8
			c0,0.1,0,0.2-0.1,0.3c0-1.5-0.1-3.1-0.1-4.6c0,0-0.1,0-0.1,0c0,0.3,0,0.6,0,0.9c0,2.5,0,5-0.1,7.5c0,0.6-0.1,1.2-0.1,1.8
			c0,0.3-0.1,0.6-0.4,0.9c-0.2,0.2-0.5,0.2-0.6-0.1c-0.1-0.1-0.1-0.2-0.1-0.3c0-0.5-0.4-1-0.3-1.5c0,0,0-0.1-0.1-0.1
			c0,1.8,0.3,3.6,0.1,5.4c0.2-1,0.1-2,0.2-3.1c0.2,1.1,0,2.2,0.1,3.3c0.2-1.1,0.2-2.2,0.2-3.2c0,0.1,0.1,0.1,0.1,0.2
			c0,1,0,2.1,0,3.1c0,0.2-0.1,0.4,0.3,0.5c0-1.3,0-2.5,0-3.8c0,0,0.1,0,0.1,0c0.1,1.2,0,2.4,0.1,3.6c0.3-0.6,0-1.2,0-1.8
			c0.1-0.6,0.1-1.2,0.2-1.9c0,0.1,0,0.2,0,0.3c0,0.7,0,1.4,0,2.1c0,0.2,0.1,0.4,0.2,0.6c0-1.1,0-2.2,0-3.3c0,0,0.1,0,0.1,0
			c0,0.1,0.1,0.2,0.1,0.3c0,0.5,0,1.1,0,1.6c0,0.4,0,0.8,0.1,1.2c0,0,0.1,0,0.1,0c0-0.5,0-1.1,0-1.6c0,0,0.1,0,0.1,0
			c0.2,0.5-0.2,1,0.1,1.4c0-0.3,0-0.7,0-1.1c0.4,0.4,0.1,0.8,0.2,1.1c0,0,0.1,0,0.1,0c0-0.8,0-1.6,0-2.4c0.1,0,0.1,0,0.2,0
			c0.2,0.8,0,1.6,0.1,2.4c0.2-0.8,0.1-1.6,0.2-2.4c0,0,0.1,0,0.1,0c0,0.8,0,1.6,0,2.3c0,0,0.1,0,0.1,0
			C182.3,64,182.3,63.2,182.4,62.3C182.4,62.3,182.4,62.3,182.4,62.3z M179,62.7c0-0.2-0.1-0.3-0.1-0.5c0-0.9,0.1-1.7,0.1-2.6
			c0-0.5,0-1.1,0-1.6c0-1.3,0.1-2.6,0-3.8c-0.1-0.8,0.1-1.7,0-2.5c-0.1-0.7,0-1.3,0-2c0-0.2,0-0.4,0-0.6c0,0-0.1,0-0.1,0
			c-0.2,3.4-0.6,6.9-0.5,10.4c0.1,0,0.1-0.1,0.2-0.1c0,0.4,0,0.7,0,1c0,0.7,0,1.4-0.1,2.1c0,0.4,0,0.9,0,1.3c0.1,0,0.1,0,0.2,0
			c0-0.9,0-1.8,0-2.7c0,0,0.1,0,0.1,0c0,0.6,0,1.2,0,1.8c0,0.6-0.2,1.2,0,1.8c0,0,0.1,0,0.1,0C179,63.9,179,63.3,179,62.7
			c0,0.7,0,1.4,0,2.2c0.1,0,0.1,0,0.2,0c0.1-1.3,0-2.6-0.1-3.9C179,61.5,179,62.1,179,62.7z M182.2,83c0,0,0.1,0,0.1,0
			c0,0.1,0,0.2,0,0.4c0.1,0.8,0.1,1.6,0.2,2.4c0.1,1.1,0.2,2.2,0.3,3.3c0.1,0.9,0.1,1.8,0.1,2.7c0,0.3,0.1,0.7,0.2,1
			c0.1,0,0.1,0,0.2,0c-0.1-1.1-0.2-2.3-0.4-3.4c0-0.2-0.1-0.5,0-0.6c0.2-0.3,0.1-0.6,0-0.9c-0.2-2-0.4-4-0.6-5.9
			c0-0.2,0-0.4-0.1-0.6c-0.2-0.4-0.2-1.1-0.1-1.5c0.1-0.1,0.1-0.4,0-0.4c-0.3-0.1-0.2-0.4-0.2-0.6c0-1.1,0-2.1,0-3.2
			c-0.1,1.7-0.1,3.4-0.2,5.1c-0.1-0.3-0.1-0.7-0.1-1c0-1.7,0-3.5,0.1-5.2c0-0.8,0.1-1.5,0.1-2.3c0-1.4,0.1-2.8,0.1-4.1
			c0,0,0,0,0.1-0.1c0.1,0.1,0.1,0.1,0.2,0.2c0,0,0,0,0.1-0.1c-0.1-0.3-0.2-0.6-0.4-0.9c0.1,0,0.2,0,0.3,0c0,0,0-0.1,0.1-0.1
			c-0.1-0.1-0.2-0.3-0.4-0.5c0,0.2,0,0.3,0,0.4c0,1.2-0.1,2.4-0.1,3.6c0,0.8-0.1,1.6-0.2,2.4c0,0.7-0.1,1.4-0.1,2.1
			c0,0.4,0.1,0.7,0.1,1.1c0,1.1,0,2.2,0,3.4c0,0.1,0,0.2,0,0.2c0,0,0,0-0.1,0c0-1.4,0-2.7,0-4.1c-0.1,0.2-0.1,0.4-0.1,0.6
			c-0.1,1.8-0.1,3.6-0.2,5.3c-0.1,2-0.4,4-0.6,6c-0.1,0.6-0.2,1.2-0.2,1.8c0,0.9,0.1,1.7,0.1,2.6c0,0,0,0.1,0,0.1c0,0-0.1,0-0.1,0
			c0-0.8,0-1.6,0-2.4c0,0-0.1,0-0.1,0c0,0.2-0.1,0.3-0.1,0.5c-0.2,0.8,0.1,1.7,0,2.5c0,0.1,0.1,0.2,0.2,0.4c0.1-0.7,0.1-0.7,0.7-0.8
			c-0.1-0.2-0.2-0.4-0.3-0.7c-0.1-0.3,0-0.4,0.4-0.4c0.1,0,0.1,0,0.2,0c0.1-0.4,0.1-0.8-0.2-1.1c-0.1-0.1-0.2-0.4-0.1-0.5
			c0.3-0.4,0.2-0.9,0.4-1.4c0,0,0.1,0,0.1-0.1c0.1,0,0.2,0.1,0.3,0.1c0.5-0.3,0.5-0.8,0.4-1.2c-0.1-0.3-0.1-0.6-0.1-1
			c0-0.1,0-0.2,0-0.3c0,0,0.1,0,0.1,0c0,0.7,0.1,1.4,0.1,2c0,0.1,0,0.2,0.1,0.4c0.1,0.6,0.3,1.3-0.1,1.9c-0.1,0.2-0.2,0.5-0.1,0.7
			c0.2,0.4,0,0.7,0,1.1c0,0,0,0,0.1,0.1c0.6-0.2,0.6-0.7,0.6-1.3c-0.2-1.9-0.3-3.8-0.5-5.7c-0.1,0-0.2,0.1-0.3,0.1
			c0.1-0.4,0.2-0.8,0.2-1.1c-0.2-0.1-0.3-0.1-0.3-0.2c0,0,0-0.2,0-0.2c0.4,0,0.2-0.3,0.2-0.4C182.2,83.5,182.2,83.2,182.2,83z
			 M183.7,96.5c-0.1-1.1-0.1-1.3-0.7-2.1c-0.3-0.4-0.7-0.7-1.3-0.6c-0.6,0-1,0.3-1.2,0.8c-0.3,0.6-0.5,1.3-0.4,2
			c0,0.3,0,0.6,0.1,0.9c0.1,0.3,0.1,0.7,0.3,1c0.4,0.4,0.8,0.8,1.5,0.7c0.4,0,0.9-0.1,1.1-0.6c0.1-0.2,0.3-0.2,0.3-0.4
			C183.5,97.6,183.6,97,183.7,96.5z M184.7,64.1c0.1,0,0.1,0,0.2,0c0-2.1,0.1-4.2,0.1-6.3c0,0,0.1,0,0.1,0c0,0.9,0,1.9,0,2.8
			c0,1-0.2,1.9,0,2.9c0.1-3.5,0.3-6.9,0-10.4c0,1.3-0.1,2.6-0.1,3.9c0,0-0.1,0-0.1,0c0-1.4,0-2.9,0-4.3c0-1.4-0.1-2.9-0.3-4.3
			C184.9,53.7,184.8,58.9,184.7,64.1z M179.8,97.4c0-1,0-2,0-3c0-0.5,0.1-1-0.1-1.5c0,0.1,0,0.1,0,0.2c-0.1,0.6-0.1,1.2-0.1,1.7
			c0,0.6,0,1.3,0,1.9c0,0-0.1,0-0.1,0c0-0.8,0-1.5,0-2.3c0,0-0.1,0-0.1,0c0,0.3-0.2,0.7-0.1,1c0.1,0.9,0.1,1.8-0.3,2.7
			c0-0.2-0.1-0.3-0.1-0.4c-0.1,0.6-0.1,1.1,0.1,1.7c-0.1-0.4,0-0.8,0.3-1.1c0.1-0.1,0.1-0.2,0.1-0.3
			C179.2,97.4,179.2,97.4,179.8,97.4z M181.5,74.3c0.2-2.5,0.3-6.7,0.2-7.1c0,0.4,0,0.8,0,1.2c0,0.5,0,1,0,1.5
			C181.4,71.3,181.5,72.8,181.5,74.3z M182.3,65.5c-0.5-0.3-0.9-0.3-1.2,0.1c-0.5,0.6-0.6,1.3-0.2,1.6c0.1-0.4,0-0.8,0.3-1.2
			C181.4,65.6,181.9,65.7,182.3,65.5z M181,99.5c-0.4,0.3-0.8,0.2-1.2,0.2c0.2,0.1,0.4,0.3,0.7,0.4c0.2-0.1,0.5-0.2,0.7-0.4
			c0.2-0.2,0.2-0.4-0.1-0.5c-0.3-0.1-0.6-0.2-0.9,0C180.3,99.9,180.7,99.2,181,99.5z M184.4,94.7c0,0-0.1,0-0.1,0
			c0,0.3,0.1,0.6,0.1,0.8c0.1,1.1,0.4,2.1,0.1,3.2c0,0.1,0,0.1,0.1,0.2C184.9,97.5,184.8,96.1,184.4,94.7z M185.6,57.8
			C185.5,57.8,185.5,57.8,185.6,57.8c-0.1,1.6-0.1,3.2-0.1,4.7C185.7,60.9,185.6,59.4,185.6,57.8z M181.7,57.3
			c-0.2,0.6-0.2,2.4,0,2.7C181.7,59.1,181.7,58.2,181.7,57.3z M181.6,66.9c-0.1,0-0.1,0-0.2,0c0,0.1-0.1,0.3-0.1,0.4
			c0,0.6,0,1.2,0,1.8c0,0.1,0,0.3,0,0.4c-0.1,0.4-0.1,0.5,0,0.9C181.6,69.3,181.4,68.1,181.6,66.9z M183.8,98.8
			c0.3,0,0.3-0.2,0.3-0.4c0-0.6,0-1.3,0-1.9c0-0.2-0.1-0.4-0.1-0.5C183.8,96.9,184.1,97.9,183.8,98.8z M183.5,98.4
			c-0.4,0.3-0.6,0.6-0.6,0.9c0,0.2,0.4,0.3,0.6,0.4c0,0,0,0,0.1,0c-0.2-0.2-0.3-0.4-0.2-0.7C183.5,98.9,183.5,98.7,183.5,98.4z
			 M179.3,47c-0.3,0.3-0.3,0.5,0,0.6c0.1-0.6,0.2-1.3-0.1-1.9C179.1,46.1,179,46.6,179.3,47z M182,92.8c-0.3,0-0.5-0.2-0.5-0.4
			c-0.1-0.3-0.3-0.4-0.6-0.5C181,92.7,181.5,93.1,182,92.8z M185.2,49.2c0,0,0.1,0,0.1,0c0-0.9,0-1.8-0.4-2.7
			C185,47.4,185.1,48.3,185.2,49.2z M183.6,91.7c0.2,0.9,0.3,1.7,0.5,2.6C184.3,94,184.1,92.8,183.6,91.7z"/>
		<path class="st4" d="M182.2,83c0,0.2,0.1,0.4,0,0.6c0,0.2,0.1,0.4-0.2,0.4c0,0-0.1,0.2,0,0.2c0.1,0.1,0.2,0.1,0.3,0.2
			c-0.1,0.3-0.1,0.7-0.2,1.1c0.1,0,0.2-0.1,0.3-0.1c0.2,1.9,0.3,3.8,0.5,5.7c0,0.5,0.1,1-0.6,1.3c0,0-0.1,0-0.1-0.1
			c0-0.4,0.2-0.7,0-1.1c-0.1-0.2,0-0.5,0.1-0.7c0.4-0.6,0.2-1.2,0.1-1.9c0-0.1-0.1-0.2-0.1-0.4c0-0.7-0.1-1.4-0.1-2c0,0-0.1,0-0.1,0
			c0,0.1-0.1,0.2,0,0.3c0,0.3,0.1,0.7,0.1,1c0.1,0.5,0.1,0.9-0.4,1.2c-0.1,0-0.2-0.1-0.3-0.1c-0.1,0-0.1,0-0.1,0.1
			c-0.2,0.4-0.2,0.9-0.4,1.4c-0.1,0.1,0,0.4,0.1,0.5c0.3,0.3,0.3,0.7,0.2,1.1c-0.1,0-0.1,0-0.2,0c-0.3-0.1-0.4,0.1-0.4,0.4
			c0.1,0.2,0.2,0.4,0.3,0.7c-0.6,0.1-0.6,0.1-0.7,0.8c-0.1-0.2-0.2-0.3-0.2-0.4c0.1-0.8-0.2-1.7,0-2.5c0-0.2,0.1-0.3,0.1-0.5
			c0,0,0.1,0,0.1,0c0,0.8,0,1.6,0,2.4c0,0,0.1,0,0.1,0c0,0,0-0.1,0-0.1c0-0.9-0.1-1.7-0.1-2.6c0-0.6,0.2-1.2,0.2-1.8
			c0.2-2,0.4-4,0.6-6c0.1-1.8,0.2-3.5,0.2-5.3c0-0.2,0-0.4,0.1-0.6c0,1.4,0,2.7,0,4.1c0,0,0,0,0.1,0c0-0.1,0-0.2,0-0.2
			c0-1.1,0-2.2,0-3.4c0-0.4-0.1-0.7-0.1-1.1c0-0.7,0.1-1.4,0.1-2.1c0.1-0.8,0.1-1.6,0.2-2.4c0-1.2,0.1-2.4,0.1-3.6
			c0-0.1,0-0.2,0-0.4c0.2,0.2,0.3,0.3,0.4,0.5c0,0,0,0.1-0.1,0.1c-0.1,0-0.2,0-0.3,0c0.1,0.3,0.2,0.6,0.4,0.9c0,0,0,0-0.1,0.1
			c-0.1-0.1-0.1-0.1-0.2-0.2c0,0-0.1,0.1-0.1,0.1c0,1.4,0,2.8-0.1,4.1c0,0.8-0.1,1.5-0.1,2.3c0,1.7,0,3.5-0.1,5.2c0,0.3,0,0.7,0.1,1
			c0.1-1.7,0.2-3.4,0.2-5.1c0,1.1,0,2.1,0,3.2c0,0.2-0.1,0.4,0.2,0.6c0,0,0,0.3,0,0.4c-0.2,0.4-0.1,1.1,0.1,1.5
			c0.1,0.2,0.1,0.4,0.1,0.6c0.2,2,0.4,4,0.6,5.9c0,0.3,0.2,0.6,0,0.9c-0.1,0.1,0,0.4,0,0.6c0.1,1.1,0.2,2.3,0.4,3.4c0,0-0.1,0-0.2,0
			c-0.1-0.3-0.2-0.7-0.2-1c-0.1-0.9,0-1.8-0.1-2.7c-0.1-1.1-0.2-2.2-0.3-3.3c-0.1-0.8-0.1-1.6-0.2-2.4c0-0.1,0-0.2,0-0.4
			C182.3,83,182.2,83,182.2,83z"/>
		<path class="st4" d="M183.7,96.5c-0.1,0.6-0.2,1.1-0.3,1.7c0,0.1-0.3,0.2-0.3,0.4c-0.2,0.5-0.7,0.6-1.1,0.6
			c-0.6,0.1-1.1-0.3-1.5-0.7c-0.2-0.3-0.3-0.7-0.3-1c-0.1-0.3-0.1-0.6-0.1-0.9c-0.1-0.7,0.2-1.4,0.4-2c0.2-0.5,0.7-0.8,1.2-0.8
			c0.6,0,1,0.2,1.3,0.6C183.6,95.2,183.6,95.4,183.7,96.5z M182,94.6c0,0-0.1,0-0.1,0c0.1,1.3,0.1,2.5,0.2,3.8c0,0-0.1,0-0.1,0
			c0-0.3-0.1-0.5-0.1-0.8c0-0.3,0-0.6,0-0.8c0-0.2,0.1-0.5-0.2-0.7c0,0.9,0.1,1.7,0.1,2.5c0.6,0.2,0.9,0.2,1.1-0.2
			c0.3-0.5,0.6-1.1,0.6-1.7c0-0.5-0.1-0.9-0.2-1.4c-0.1-0.3-0.3-0.6-0.5-0.8c0-0.1-0.2-0.1-0.3-0.1c-0.1,0-0.1,0.1-0.1,0.2
			c0,0.1,0,0.2,0,0.3c0,1,0.1,2,0.1,3.1c0,0.1,0,0.2,0,0.3C182.2,97.1,182.3,95.8,182,94.6z M181.1,98.4c0.2-0.5,0.1-1.5-0.1-1.8
			c0,0.5,0.1,0.9,0.1,1.4c0,0-0.1,0-0.1,0c0-0.2-0.1-0.3-0.1-0.5c-0.1-0.6-0.1-1.2-0.1-1.8c0-0.2,0-0.3,0.1-0.5
			c0.1-0.4,0.4-0.7,0.7-1c-0.3-0.3-0.4,0-0.6,0.1c-0.6,0.7-0.9,2.4-0.3,3.4C180.8,97.9,180.9,98.1,181.1,98.4z"/>
		<path class="st4" d="M179,62.6c0,0.6,0,1.2-0.1,1.8c0,0-0.1,0-0.1,0c-0.2-0.6,0-1.2,0-1.8c0-0.6,0-1.2,0-1.8c0,0-0.1,0-0.1,0
			c0,0.9,0,1.8,0,2.7c-0.1,0-0.1,0-0.2,0c0-0.4-0.1-0.9,0-1.3c0-0.7,0-1.4,0.1-2.1c0-0.3,0-0.6,0-1c-0.1,0.1-0.1,0.1-0.2,0.1
			c-0.1-3.5,0.3-6.9,0.5-10.4c0,0,0.1,0,0.1,0c0,0.2,0,0.4,0,0.6c0,0.7-0.1,1.3,0,2c0.1,0.8,0,1.7,0,2.5c0.1,1.3,0,2.6,0,3.8
			c0,0.5,0.1,1.1,0,1.6c0,0.9-0.1,1.7-0.1,2.6C178.9,62.3,179,62.5,179,62.6L179,62.6z"/>
		<path class="st4" d="M184.7,64.1c0.1-5.2,0.2-10.4-0.1-15.7c0.2,1.4,0.3,2.9,0.3,4.3c0,1.4,0,2.9,0,4.3c0,0,0.1,0,0.1,0
			c0-1.3,0.1-2.6,0.1-3.9c0.3,3.5,0.1,6.9,0,10.4c-0.2-1,0-1.9,0-2.9c0-0.9,0-1.9,0-2.8c0,0-0.1,0-0.1,0c0,2.1-0.1,4.2-0.1,6.3
			C184.8,64.1,184.8,64.1,184.7,64.1z"/>
		<path class="st4" d="M179.8,97.4c-0.5-0.1-0.5,0-0.6,0.5c0,0.1,0,0.2-0.1,0.3c-0.3,0.3-0.4,0.7-0.3,1.1c-0.2-0.6-0.2-1.1-0.1-1.7
			c0,0.1,0.1,0.3,0.1,0.4c0.3-0.9,0.4-1.8,0.3-2.7c0-0.3,0.1-0.7,0.1-1c0,0,0.1,0,0.1,0c0,0.8,0,1.5,0,2.3c0,0,0.1,0,0.1,0
			c0-0.6,0.1-1.3,0-1.9c0-0.6-0.1-1.2,0.1-1.7c0,0,0-0.1,0-0.2c0.2,0.5,0.1,1,0.1,1.5C179.8,95.4,179.8,96.4,179.8,97.4z"/>
		<path class="st4" d="M181.5,74.3c-0.1-1.5-0.1-2.9,0.1-4.4c0.1-0.5,0-1,0-1.5c0-0.4,0-0.8,0-1.2C181.9,67.5,181.7,71.7,181.5,74.3
			z"/>
		<path class="st4" d="M182.3,65.5c-0.4,0.2-0.9,0.1-1.2,0.5c-0.3,0.4-0.2,0.8-0.3,1.2c-0.4-0.3-0.3-1,0.2-1.6
			C181.4,65.2,181.8,65.2,182.3,65.5z"/>
		<path class="st4" d="M181,99.5c-0.3-0.3-0.7,0.4-0.9-0.2c0.3-0.2,0.6-0.1,0.9,0c0.2,0.1,0.3,0.3,0.1,0.5c-0.2,0.2-0.5,0.3-0.7,0.4
			c-0.2-0.1-0.4-0.3-0.7-0.4C180.2,99.7,180.6,99.7,181,99.5z"/>
		<path class="st4" d="M184.4,94.7c0.4,1.4,0.4,2.8,0.2,4.2c0-0.1-0.1-0.1-0.1-0.2c0.3-1.1,0-2.1-0.1-3.2c0-0.3-0.1-0.6-0.1-0.8
			C184.4,94.7,184.4,94.7,184.4,94.7z"/>
		<path class="st4" d="M185.6,57.8c0,1.6,0.1,3.2-0.1,4.7C185.5,60.9,185.5,59.4,185.6,57.8C185.5,57.8,185.5,57.8,185.6,57.8z"/>
		<path class="st4" d="M181.7,57.3c0,0.9,0,1.8,0,2.7C181.5,59.7,181.5,57.9,181.7,57.3z"/>
		<path class="st4" d="M179,62.7c0-0.6,0-1.2,0-1.8c0.2,1.3,0.3,2.6,0.1,3.9c-0.1,0-0.1,0-0.2,0C179,64.1,179,63.4,179,62.7
			L179,62.7z"/>
		<path class="st4" d="M181.6,66.9c-0.1,1.2,0,2.4-0.2,3.6c-0.1-0.4-0.1-0.5,0-0.9c0-0.1,0-0.3,0-0.4c0-0.6,0-1.2,0-1.8
			c0-0.1,0-0.3,0.1-0.4C181.5,66.9,181.5,66.9,181.6,66.9z"/>
		<path class="st4" d="M183.8,98.8c0.4-0.9,0-1.9,0.2-2.8c0,0.2,0.1,0.4,0.1,0.5c0,0.6,0,1.3,0,1.9
			C184.1,98.6,184.1,98.8,183.8,98.8z"/>
		<path class="st4" d="M183.5,98.4c0,0.3,0,0.5,0,0.6c-0.1,0.3-0.1,0.5,0.2,0.7c-0.1,0-0.1,0-0.1,0c-0.2-0.1-0.6-0.2-0.6-0.4
			C182.9,99,183.1,98.7,183.5,98.4z"/>
		<path class="st4" d="M179.3,47c-0.3-0.4-0.2-0.8-0.1-1.2c0.3,0.6,0.2,1.2,0.1,1.9C179,47.4,178.9,47.3,179.3,47z"/>
		<path class="st4" d="M182,92.8c-0.5,0.2-1-0.2-1.1-1c0.3,0.1,0.5,0.2,0.6,0.5C181.6,92.7,181.7,92.9,182,92.8z"/>
		<path class="st4" d="M185.2,49.2c-0.1-0.9-0.2-1.8-0.3-2.7c0.4,0.9,0.4,1.8,0.4,2.7C185.3,49.2,185.2,49.2,185.2,49.2z"/>
		<path class="st4" d="M183.6,91.7c0.5,1.1,0.7,2.3,0.5,2.6C183.9,93.4,183.8,92.6,183.6,91.7z"/>
		<path class="st3" d="M182,94.6c0.2,1.2,0.1,2.4,0.3,3.7c0-0.1,0-0.2,0-0.3c0-1-0.1-2-0.1-3.1c0-0.1,0-0.2,0-0.3
			c0-0.1,0.1-0.2,0.1-0.2c0.1,0,0.2,0,0.3,0.1c0.2,0.3,0.5,0.5,0.5,0.8c0.1,0.4,0.2,0.9,0.2,1.4c0.1,0.6-0.3,1.2-0.6,1.7
			c-0.2,0.4-0.5,0.5-1.1,0.2c0-0.8-0.1-1.7-0.1-2.5c0.3,0.2,0.2,0.5,0.2,0.7c0,0.3,0,0.6,0,0.8c0,0.3,0.1,0.5,0.1,0.8
			c0,0,0.1,0,0.1,0c-0.1-1.3-0.1-2.5-0.2-3.8C182,94.6,182,94.6,182,94.6z M182.5,94.7c0.1,1.1,0.1,2.2,0.2,3.3
			C182.9,97.6,182.7,95.3,182.5,94.7z"/>
		<path class="st3" d="M181.1,98.4c-0.2-0.3-0.3-0.5-0.4-0.7c-0.6-0.9-0.3-2.7,0.3-3.4c0.1-0.2,0.3-0.4,0.6-0.1
			c-0.3,0.3-0.6,0.6-0.7,1c0,0.2-0.1,0.3-0.1,0.5c0,0.6,0.1,1.2,0.1,1.8c0,0.2,0.1,0.3,0.1,0.5c0,0,0.1,0,0.1,0
			c0-0.5-0.1-0.9-0.1-1.4C181.2,96.9,181.3,97.9,181.1,98.4z"/>
		<path class="st4" d="M182.5,94.7c0.3,0.6,0.4,2.9,0.2,3.3C182.6,96.9,182.5,95.8,182.5,94.7z"/>
	</g>
	<g>
		<g>
			<line class="st15" x1="126" y1="34.1" x2="126" y2="34.4"/>
			<line class="st16" x1="126" y1="34.9" x2="126" y2="113"/>
			<line class="st15" x1="126" y1="113.3" x2="126" y2="113.5"/>
		</g>
	</g>
</g>
<g id="text">
	<text transform="matrix(1 0 0 1 24.1523 78.6064)"><tspan x="0" y="0" class="st19 st20">BREUKELEN COFFEE HOUSE</tspan><tspan x="0" y="4.9" class="st21 st20">A        764 Franklin Ave, Brooklyn, NY 11238</tspan><tspan x="0" y="9.9" class="st21 st20">T        +1 (718) 789-7070</tspan></text>
	<text transform="matrix(1 0 0 1 24.1523 100.2832)"><tspan x="0" y="0" class="st19 st20">THE BREUKELEN</tspan><tspan x="0" y="4.9" class="st21 st20">A       710 Nostrand Ave, Brooklyn, NY 11216</tspan><tspan x="0" y="9.9" class="st21 st20">T       +1 (347) 404-7006</tspan></text>
	<text transform="matrix(1.0039 0 0 1 24.1523 36.2734)"><tspan x="0" y="0" class="st19 st22">JASON C MORGAN</tspan><tspan x="0" y="6.6" class="st23 st24">OWNER/ MANAGING PARTNER</tspan><tspan x="0" y="20.7" class="st21 st25">T     +1 (212) 960-8681</tspan><tspan x="0" y="27.6" class="st21 st25">E     jasoncmorgan1@me.com</tspan></text>
</g>
</svg>
