<svg xmlns="http://www.w3.org/2000/svg" viewBox="0 0 268.23 549.42"><defs><style>.cls-1,.cls-2{fill-rule:evenodd;}.cls-2{fill:none;}.cls-3{font-size:21px;}.cls-3,.cls-4{fill:#231f20;font-family:Lato-Regular, Lato;}.cls-4{font-size:10px;}.cls-5{font-size:8px;}.cls-6{font-size:7px;}.cls-7{letter-spacing:-0.03em;}.cls-8{letter-spacing:-0.03em;}.cls-9{letter-spacing:3.2em;}.cls-10{letter-spacing:-0.01em;}.cls-11{letter-spacing:-0.01em;}.cls-12{letter-spacing:-0.01em;}.cls-13{letter-spacing:-0.03em;}.cls-14{letter-spacing:-0.02em;}.cls-15{letter-spacing:3.41em;}.cls-16{letter-spacing:0em;}.cls-17{letter-spacing:-0.01em;}.cls-18{letter-spacing:-0.01em;}.cls-19{letter-spacing:-0.02em;}.cls-20{letter-spacing:-0.03em;}.cls-21{letter-spacing:3.53em;}.cls-22{letter-spacing:-0.02em;}.cls-23{letter-spacing:-0.09em;}.cls-24{letter-spacing:-0.05em;}.cls-25{letter-spacing:0em;}.cls-26{letter-spacing:3.35em;}.cls-27{letter-spacing:-0.04em;}.cls-28{letter-spacing:-0.03em;}.cls-29{letter-spacing:-0.03em;}.cls-30{letter-spacing:3.29em;}.cls-31{letter-spacing:-0.01em;}.cls-32{letter-spacing:-0.02em;}.cls-33{letter-spacing:-0.05em;}.cls-34{letter-spacing:-0.01em;}.cls-35{letter-spacing:-0.02em;}.cls-36{letter-spacing:3.36em;}.cls-37{letter-spacing:-0.02em;}.cls-38{letter-spacing:-0.07em;}.cls-39{letter-spacing:-0.01em;}.cls-40{letter-spacing:-0.02em;}.cls-41{letter-spacing:3.35em;}.cls-42{letter-spacing:-0.01em;}.cls-43{letter-spacing:0em;}.cls-44{letter-spacing:-0.01em;}.cls-45{letter-spacing:-0.02em;}.cls-46{letter-spacing:-0.01em;}.cls-47{letter-spacing:-0.04em;}.cls-48{letter-spacing:-0.01em;}.cls-49{letter-spacing:-0.01em;}.cls-50{letter-spacing:3.76em;}.cls-51{letter-spacing:-0.03em;}.cls-52{letter-spacing:-0.06em;}.cls-53{letter-spacing:-0.04em;}.cls-54{letter-spacing:-0.04em;}.cls-55{letter-spacing:-0.02em;}.cls-56{letter-spacing:-0.06em;}.cls-57{letter-spacing:-0.07em;}.cls-58{letter-spacing:-0.07em;}.cls-59{letter-spacing:-0.02em;}.cls-60{letter-spacing:-0.02em;}.cls-61{letter-spacing:-0.02em;}.cls-62{letter-spacing:-0.02em;}.cls-63{letter-spacing:-0.02em;}.cls-64{letter-spacing:-0.02em;}.cls-65{letter-spacing:-0.04em;}.cls-66{letter-spacing:0em;}.cls-67{letter-spacing:-0.02em;}.cls-68{letter-spacing:-0.02em;}.cls-69{letter-spacing:-0.04em;}.cls-70{letter-spacing:-0.02em;}.cls-71{letter-spacing:-0.01em;}</style></defs><title>Asset 3</title><g id="Layer_2" data-name="Layer 2"><g id="graphics"><path class="cls-1" d="M140.58,320.58c0,2.17,0,4.33,0,6.5,0,.93-.05,1.86-.08,2.78,0,.44,0,.47-.49.59a19.38,19.38,0,0,1-4.33.56,52.38,52.38,0,0,1-7.82-.28,2.23,2.23,0,0,1-.75-.19,1,1,0,0,1-.48-1c0-1,0-1.92,0-2.88q-.08-4.91-.16-9.82c0-1-.06-1.92-.08-2.88,0-.52.13-.71.64-.82a14.88,14.88,0,0,1,1.75-.28,61.45,61.45,0,0,1,8.61-.19c.85,0,1.7.14,2.54.25.61.07.76.27.76.92,0,1.55,0,3.09,0,4.64,0,.68,0,1.37,0,2.05Zm-7.49-.28c-.65.23-1.17-.15-1.75-.35a.46.46,0,0,0,.13.27,1.8,1.8,0,0,0,.43.24,7.06,7.06,0,0,0,1.71.69.9.9,0,0,1,.89.73c-.4-.11-.6-.6-1.12-.55.45.69.74,1.45,1.62,1.68a.36.36,0,0,1-.23.08,1.25,1.25,0,0,1-.86-.5,1.39,1.39,0,0,0-.55-.52,5.5,5.5,0,0,0-1.1-.19c-.06,0-.17,0-.19,0-.2.37-.46,0-.68,0,0,0-.12-.11-.18-.17s.13-.17.19-.17a2.7,2.7,0,0,1,.63,0c.42.08.83.19,1.35.31l-.66-.79c-.14.31-.27.38-.45.19s-.51-.39-.66-.69-.24-.16-.3.06h-.07l-.12-.37H131v1H131l-.13-1h-.1l-.08.39-.34-.07.22.72-.54.13,0-.08.33-.15c0-.24-.49-.17-.27-.52l-.64-.4h1.09a7.16,7.16,0,0,0-1.44-.43c-.25,0-1,.4-1,.61,0,.62,0,1.25,0,1.91.51-.26.9-.66,1.48-.62a9.76,9.76,0,0,1-1,.51.9.9,0,0,0-.48,1.3c.12.32.28.62.42.94.06.13.1.28.15.41a9.43,9.43,0,0,1-1.45-3.14l.57,1.07.1,0c0-.36,0-.71,0-1.07s0-.71,0-1.07h-.15c0,.39,0,.79,0,1.18h-.11l-.06-.7c-.38-.19-.49-.77-.2-1.32V321a2,2,0,0,0,.15-1.5l-.5,0c0,.22,0,.38,0,.53,0,1.25,0,2.51.06,3.76,0,1.43.07,2.87.11,4.3,0,.25.06.45.43.46l-.11-1.73,2,.63-.07.59-.23-.54-.12.74h-.06l-.12-.69-1.13-.21a2.29,2.29,0,0,0,.17,1.65l.07-1.11h0l.11,1.14a10.8,10.8,0,0,0,3.35.68,28.49,28.49,0,0,0,5.54-.22,20.77,20.77,0,0,0,2.56-.67.91.91,0,0,0,.72-1c0-.32,0-.65,0-1,0-2.25,0-4.5.05-6.74,0-1.78.06-3.55.08-5.33,0-.54-.06-.63-.59-.71a19.73,19.73,0,0,0-2.2-.27c-2-.06-4-.08-6-.11H130a63.19,63.19,0,0,1,10.17,0,1.09,1.09,0,0,0-.81-.4l-1.13-.09a61.31,61.31,0,0,0-8.9.09,19,19,0,0,0-1.95.27c-.57.11-.67.25-.65.84,0,1.51.08,3,.12,4.54,0,.13,0,.25,0,.4h.53V313.7h.07c0,1.87.08,3.74.12,5.64h1a35.53,35.53,0,0,1,4.42-.07,6,6,0,0,0,.78-.07,14.29,14.29,0,0,1,2,0,15.67,15.67,0,0,0,2.89,0,1.82,1.82,0,0,0,.34-.07.38.38,0,0,0,.31-.38.93.93,0,0,0-.37-.92,5.49,5.49,0,0,0,.24-.68,3.34,3.34,0,0,0,.06-.68c0-.79,0-1.59,0-2.38.77,0,.9.11.88.73,0,.8-.08,1.59-.09,2.39,0,2.46-.06,4.92-.09,7.38a3.58,3.58,0,0,1,0,.38h-.13a54,54,0,0,0-.17-5.48c0,2.07,0,4.13-.17,6.2a.88.88,0,0,1-.12-.45c0-1.71,0-3.42,0-5.13a1.12,1.12,0,0,0-.06-.48c0-.09-.23-.1-.35-.15s-.08.24,0,.28c.29.3,0,.62,0,.92s-.21.61-.55.73-.36.28-.72.1a7.58,7.58,0,0,0,.68-.4c.12-.09.27-.22.28-.35,0-.4,0-.8,0-1.18h-1.39c.08.57.65.17.87.43l-2.32.3a2.8,2.8,0,0,1,.37-.24.48.48,0,0,0,.16-.27s-.1-.16-.14-.15a.87.87,0,0,0-.24.12l-.56-.31-.16.4c-.5.18-.17-.37-.46-.42l0,.35-.71.09a1.59,1.59,0,0,0,1.63,0c-.18.21-.37.43-.6.46a1.44,1.44,0,0,1-1.11-.3l-.5-.39.71-.19a2.44,2.44,0,0,0-.65,0l-1.71-.07a2.32,2.32,0,0,0-.36,0v.12c.32,0,.64.06,1,.13s.63-.18.87.09l0,.13-1.38-.1C132.13,320.32,132.66,320.15,133.09,320.3Zm.16,9.86L133,330l.28-.1,0-.09a3.51,3.51,0,0,0-1,.11,2.5,2.5,0,0,1-1.2.1,2.24,2.24,0,0,1-.73-.09,2.77,2.77,0,0,0-1.56-.12,1.66,1.66,0,0,1-1.25-.31.87.87,0,0,0-.31-.08c-.15.42.13.58.39.7a5.35,5.35,0,0,0,2.26.33c.07,0,.19,0,.2-.09.07-.26.26-.19.43-.18l1.07.1s0,0,0,.06h-.89s0,.08,0,.12h2.38l-.17-.16Zm2.84-.4c.21.18.46.06.69.06l.83,0h.73v0l-1.26.21v0H138v.08l-.65.06a2.79,2.79,0,0,0,1.7-.14l-.5-.17.37-.12.23-.13,0-.15C138.13,329.51,137.11,329.67,136.08,329.76Zm-2.37.28c1,.37,1.29.39,1.84.23l-.28-.5h-1.64v.1l.68,0s0,0,0,.05Z"/><path class="cls-2" d="M133.09,320.3c-.43-.15-1,0-1.3-.47l1.38.1,0-.13c-.24-.27-.58,0-.87-.09s-.64-.09-1-.13v-.12a2.32,2.32,0,0,1,.36,0l1.71.07a2.44,2.44,0,0,1,.65,0l-.71.19.5.39a1.44,1.44,0,0,0,1.11.3c.22,0,.41-.25.6-.46a1.59,1.59,0,0,1-1.63,0l.71-.09,0-.35c.29.05,0,.6.46.42l.16-.4.56.31a.87.87,0,0,1,.24-.12s.15.11.14.15a.48.48,0,0,1-.16.27,2.8,2.8,0,0,0-.37.24L138,320c-.23-.26-.8.14-.87-.43h1.39c0,.38,0,.78,0,1.18,0,.13-.16.26-.28.35a7.58,7.58,0,0,1-.68.4c.36.17.53,0,.72-.1s.59-.31.55-.73.24-.62,0-.92c0,0,0-.18,0-.28s.3.06.35.15a1.12,1.12,0,0,1,.06.48c0,1.71,0,3.42,0,5.13a.88.88,0,0,0,.12.45c.15-2.07.16-4.13.17-6.2a54,54,0,0,1,.17,5.48h.13a3.58,3.58,0,0,0,0-.38c0-2.46.06-4.92.09-7.38,0-.8.07-1.59.09-2.39,0-.62-.11-.72-.88-.73,0,.79,0,1.59,0,2.38a3.34,3.34,0,0,1-.06.68,5.49,5.49,0,0,1-.24.68.93.93,0,0,1,.37.92.38.38,0,0,1-.31.38,1.82,1.82,0,0,1-.34.07,15.67,15.67,0,0,1-2.89,0,14.29,14.29,0,0,0-2,0,6,6,0,0,1-.78.07,35.53,35.53,0,0,0-4.42.07h-1c0-1.9-.08-3.77-.12-5.64h-.07v5.54h-.53c0-.15,0-.28,0-.4,0-1.51-.08-3-.12-4.54,0-.59.08-.73.65-.84a19,19,0,0,1,1.95-.27,61.31,61.31,0,0,1,8.9-.09l1.13.09a1.09,1.09,0,0,1,.81.4,63.19,63.19,0,0,0-10.17,0h1.49c2,0,4,0,6,.11a19.73,19.73,0,0,1,2.2.27c.52.08.59.17.59.71,0,1.78-.06,3.55-.08,5.33,0,2.25,0,4.5-.05,6.74,0,.33,0,.65,0,1a.91.91,0,0,1-.72,1,20.77,20.77,0,0,1-2.56.67,28.49,28.49,0,0,1-5.54.22,10.8,10.8,0,0,1-3.35-.68l-.11-1.14h0l-.07,1.11a2.29,2.29,0,0,1-.17-1.65l1.13.21.12.69h.06l.12-.74.23.54.07-.59-2-.63.11,1.73c-.37,0-.42-.21-.43-.46,0-1.43-.08-2.87-.11-4.3,0-1.25,0-2.51-.06-3.76,0-.16,0-.32,0-.53l.5,0a2,2,0,0,1-.15,1.5v-1.08c-.28.55-.18,1.13.2,1.32l.06.7h.11c0-.39,0-.79,0-1.18h.15c0,.36,0,.71,0,1.07s0,.71,0,1.07l-.1,0-.57-1.07a9.43,9.43,0,0,0,1.45,3.14c-.05-.14-.09-.28-.15-.41-.14-.31-.3-.62-.42-.94a.9.9,0,0,1,.48-1.3,9.76,9.76,0,0,0,1-.51c-.58,0-1,.36-1.48.62,0-.66,0-1.28,0-1.91,0-.2.76-.65,1-.61a7.16,7.16,0,0,1,1.44.43h-1.09l.64.4c-.22.34.25.27.27.52l-.33.15,0,.08.54-.12-.22-.72.34.07.08-.39h.1l.13,1H131v-1h.09l.12.37h.07c.06-.23.22-.22.3-.06s.45.46.66.69.31.13.45-.19l.66.79c-.52-.12-.93-.23-1.35-.31a2.7,2.7,0,0,0-.63,0c-.07,0-.13.11-.19.17s.13.18.18.17c.22,0,.48.32.68,0,0,0,.12,0,.19,0a5.5,5.5,0,0,1,1.1.19,1.39,1.39,0,0,1,.55.52,1.25,1.25,0,0,0,.86.5A.36.36,0,0,0,135,323c-.88-.24-1.17-1-1.62-1.68.52-.06.72.44,1.12.55a.9.9,0,0,0-.89-.73,7.06,7.06,0,0,1-1.71-.69,1.8,1.8,0,0,1-.43-.24.46.46,0,0,1-.13-.27C131.92,320.15,132.44,320.53,133.09,320.3Zm3.29-2.54.17-.11.13.85c.26-.5.88-.66,1-1.26l.6.44,0-.05-.46-.65a.94.94,0,0,1,.72,1.07,11.5,11.5,0,0,0,0-4c0,.24,0,.39,0,.55,0,.57,0,1.14-.06,1.71a.46.46,0,0,1-.34.5c0-.32,0-.62-.06-.92H138l-.07.8a.93.93,0,0,1-.12-.47c0-.16,0-.31,0-.46h-.09l-.05.57h-.07l-.14-.79-.17.62c-1-1-1.29-1.07-2.57-.42l-.13.07L134,316l-.13-1.51a9.83,9.83,0,0,0,0,1.13c0,.52-.12.62-.67.6v-2.08l.69-.08V314H133v2.29l-.69.28-.12-2.29a1.45,1.45,0,0,0-.06.49c0,.62,0,1.24,0,1.85a1.13,1.13,0,0,1-.15.37l-.15,0v-2.32h-.13c0,.17,0,.34,0,.52,0,.67,0,1.34-.06,2a1.49,1.49,0,0,1-.11.37l-.13,0v-3.14h-.1v.48c0,.81,0,1.63,0,2.44a2.19,2.19,0,0,1-.18,1,.56.56,0,0,0,.08.71c-.16-.41.07-.7.28-1s.66-.81,1-1.2a.74.74,0,0,1,.29-.17,12.24,12.24,0,0,0,2.57-1.08.65.65,0,0,1,1,.51,2,2,0,0,1-.19,1.19c-.1.21-.19.44-.28.65a2.67,2.67,0,0,0,.64-2c.23.16.5.33.75.52s.4.32.6.49l-.66-.29c-.23-.1-.43-.08-.53.16s-.2.61-.3.91a.87.87,0,0,0-.15.23c-.09.33-.24.61-.62.66.24.52.65.37,1.09.36-.06-.1-.07-.18-.12-.2a.61.61,0,0,1-.24-.87A.62.62,0,0,0,136.38,317.75Zm3.49,8.63a11.53,11.53,0,0,1-1.45.58,11.06,11.06,0,0,1-2,.33c-1.52.09-3,.14-4.57.18-.56,0-1.13-.06-1.76-.1l.08.71h.11l.09-.58h.07l.18.66.16-.51.8.4.11-.42.14.65.13-.42h.07l.11.64c.16-.28-.09-.63.26-.91l.11,1h.07l.08-.85h.13l.1.9H133l.07-.87h.14l.07.79h.08l.08-.56h.08l.13.76.14-.76.1,0,.07.63h.09l.06-.87h.1l.12,1c.18-.42-.1-.81.32-1.16l.06.93h.06l.1-.85H135l.08.79h.1l.07-.77h.14l.13.64h0l.08-.56h.09l.08.76h.11c0-.14,0-.28,0-.42s0-.25,0-.37a.4.4,0,0,1,.12.28c0,.1,0,.2.05.3h.08l.06-.62h.09l.07.73h.08l.06-.44h.09l.09.66c.16,0,.3,0,.44.08s.46.14.55-.19c0,0,.06,0,.16-.07l.12.2c.17-.09.38-.13.48-.26.35-.44.5-1,1-1.38C139.71,326.91,139.76,326.62,139.87,326.39Zm-.62.05c-.28-.36-.42-.4-.88-.26l-1.36.42a2.67,2.67,0,0,1-1.4.07,6.05,6.05,0,0,0-1.22-.06c-.75,0-1.51,0-2.26,0-.09,0-.18-.12-.27-.18l.06-.11,1.29.12,0-.12a6.4,6.4,0,0,0-.65-.15c-.54-.07-1.08-.11-1.61-.18a3,3,0,0,1-1.39-.45,3,3,0,0,0-.82-.26c.25.17.6.22.76.41a2.66,2.66,0,0,1,.26.95l.11-.6H130v.9a22.46,22.46,0,0,0,2.26.28,32.5,32.5,0,0,0,5.3-.3A4.43,4.43,0,0,0,139.25,326.44Zm-3.46-3.23c.25.77-.27,1.27-.53,1.85a2.74,2.74,0,0,1-1.41,1.4c.7,0,1.08-.54,1.59-.93l.13.68.11,0c0-.21,0-.42,0-.63s-.08-.41.2-.53l.06.85c.28-.53,0-1.12.24-1.64h.14v1.5C136.58,324.93,136.5,323.5,135.8,323.21Zm-5.28.47.38-.25.05.06-.58.8a5.15,5.15,0,0,0,1-.93.41.41,0,0,0,0-.39c-.24-.34-.52-.65-.81-1l-.38.37,0,0,.29-.08-.23.42.51-.22C130.68,323,130.76,323.34,130.51,323.68Zm6.76-.66a4.88,4.88,0,0,1-.56-.36c-.44-.38-.87-.77-1.31-1.17-.06-.05-.15-.13-.14-.18.06-.24-.16-.25-.26-.36s0-.05,0-.08l.44-.11-1.48-.34c.39.34.73.62,1,.92.49.47,1,1,1.45,1.45A.67.67,0,0,0,137.27,323Zm-1.38.05a5.88,5.88,0,0,0-.37-.63c-.3-.38-.64-.74-.93-1.13a2.11,2.11,0,0,0-1.46-.79.72.72,0,0,0-.23,0A3.35,3.35,0,0,1,135.4,323Zm-2.53.4v-.12c-.35,0-.69,0-1,0a.73.73,0,0,0-.71.34l-1,1.45a2.89,2.89,0,0,0-.16.32,6.64,6.64,0,0,0,.95-1.22,1.14,1.14,0,0,1,1.27-.66A.89.89,0,0,0,133.36,323.47Zm-3-9.54h-.14a30.85,30.85,0,0,0,.14,4.11ZM140,326.75a6.72,6.72,0,0,0-.47.63,1.5,1.5,0,0,0-.18.52c0,.17,0,.4.22.41a.38.38,0,0,0,.42-.38C140,327.57,140,327.2,140,326.75Zm-12.93-12.84H127v4.76h.05Zm.72-.14h-.06v5h.06Zm.34,4.65h.06v-4.09h-.06Zm8.27,4.7a3,3,0,0,0,2.25.63Z"/><path class="cls-2" d="M133.25,330.16l-.35.07.17.16h-2.38s0-.08,0-.12h.89s0,0,0-.06l-1.07-.1c-.17,0-.36-.08-.43.18,0,0-.13.1-.2.09a5.35,5.35,0,0,1-2.26-.33c-.26-.13-.54-.28-.39-.7a.87.87,0,0,1,.31.08,1.66,1.66,0,0,0,1.25.31,2.77,2.77,0,0,1,1.56.13,2.24,2.24,0,0,0,.73.09,2.5,2.5,0,0,0,1.2-.1,3.51,3.51,0,0,1,1-.11l0,.09-.28.1Z"/><path class="cls-2" d="M136.08,329.76c1-.09,2-.25,3.06-.24l0,.15-.23.13-.37.12.5.17a2.79,2.79,0,0,1-1.7.14l.65-.06v-.08h-.94v0l1.26-.21v0h-.73l-.83,0C136.54,329.82,136.3,329.94,136.08,329.76Z"/><path class="cls-2" d="M133.71,330l.6-.07s0,0,0-.05l-.68,0v-.1h1.64l.28.5C135,330.44,134.76,330.42,133.71,330Z"/><path class="cls-1" d="M139.87,326.39c-.11.23-.16.52-.33.64-.5.36-.65.94-1,1.38-.1.13-.31.17-.48.26l-.12-.2c-.1,0-.15,0-.16.07-.1.33-.32.25-.55.19s-.28-.05-.44-.08l-.09-.66h-.09l-.06.44h-.08l-.07-.73h-.09l-.06.62h-.08c0-.1,0-.2-.05-.3a.4.4,0,0,0-.12-.28c0,.12,0,.25,0,.37s0,.28,0,.42h-.11l-.08-.76h-.09l-.08.56h0l-.13-.64h-.14l-.07.77h-.1l-.08-.79h-.13l-.1.85h-.06l-.06-.93c-.42.35-.14.74-.32,1.16l-.12-1h-.1l-.06.87H134l-.07-.63-.1,0-.14.76-.13-.76h-.08l-.08.56h-.08l-.07-.79h-.14l-.07.87h-.09l-.1-.9h-.13l-.08.85h-.07l-.11-1c-.35.28-.09.63-.26.91l-.11-.64H132l-.13.42-.14-.65-.11.42-.8-.4-.16.51-.18-.66h-.07l-.09.58h-.11l-.08-.71c.63,0,1.2.12,1.76.1,1.52,0,3-.09,4.57-.18a11.06,11.06,0,0,0,2-.33A11.53,11.53,0,0,0,139.87,326.39Z"/><path class="cls-1" d="M139.25,326.44a4.43,4.43,0,0,1-1.71.5,32.5,32.5,0,0,1-5.3.3A22.46,22.46,0,0,1,130,327v-.9h-.08l-.11.6a2.66,2.66,0,0,0-.26-.95c-.16-.2-.51-.24-.76-.41a3,3,0,0,1,.82.26A3,3,0,0,0,131,326c.54.07,1.08.11,1.61.18a6.4,6.4,0,0,1,.65.15l0,.12-1.29-.12-.06.11c.09.06.18.18.27.18.75,0,1.51,0,2.26,0a6.05,6.05,0,0,1,1.22.06,2.67,2.67,0,0,0,1.4-.07l1.36-.42C138.83,326,139,326.09,139.25,326.44Z"/><path class="cls-1" d="M137.87,317c-.2-.16-.39-.33-.6-.49s-.52-.36-.75-.52a2.67,2.67,0,0,1-.64,2c.09-.22.18-.44.28-.65a2,2,0,0,0,.19-1.19.65.65,0,0,0-1-.51,12.24,12.24,0,0,1-2.57,1.08.74.74,0,0,0-.29.17c-.34.39-.69.79-1,1.2s-.44.56-.28,1a.56.56,0,0,1-.08-.71,2.19,2.19,0,0,0,.18-1c0-.81,0-1.63,0-2.44v-.48h.1v3.14l.13,0a1.49,1.49,0,0,0,.11-.37c0-.67,0-1.33.06-2,0-.17,0-.34,0-.52h.13V317l.15,0a1.13,1.13,0,0,0,.15-.37c0-.62,0-1.24,0-1.85a1.45,1.45,0,0,1,.06-.49l.12,2.29.69-.28V314h.82v.08l-.69.08v2.08c.55,0,.66-.08.67-.6a9.83,9.83,0,0,1,0-1.13L134,316l.54-.26.13-.07c1.28-.66,1.58-.56,2.57.42l.17-.62.14.79h.07l.05-.57h.09c0,.15,0,.31,0,.46a.93.93,0,0,0,.12.47l.07-.8h.09c0,.3,0,.6.06.92a.46.46,0,0,0,.34-.5c0-.57,0-1.14.06-1.71,0-.16,0-.31,0-.55a11.5,11.5,0,0,1,0,4,.94.94,0,0,0-.72-1.07Z"/><path class="cls-1" d="M135.8,323.21c.7.29.78,1.72.52,2.55v-1.5h-.14c-.22.52,0,1.11-.24,1.64l-.06-.85c-.28.13-.21.34-.2.53s0,.42,0,.63l-.11,0-.13-.68c-.5.39-.89.93-1.59.93a2.74,2.74,0,0,0,1.41-1.4C135.53,324.48,136.05,324,135.8,323.21Z"/><path class="cls-1" d="M136.39,317.76c.1-.31.18-.62.3-.91s.3-.26.53-.16l.66.29,0,0,.46.65,0,.05-.6-.44c-.12.6-.75.76-1,1.26l-.13-.85-.17.11Z"/><path class="cls-1" d="M130.51,323.68c.24-.34.16-.73.26-1.16l-.51.22.23-.42-.29.08,0,0,.38-.37c.29.36.57.67.81,1a.41.41,0,0,1,0,.39,5.15,5.15,0,0,1-1,.93l.58-.8-.05-.06Z"/><path class="cls-1" d="M137.27,323a.67.67,0,0,1-.82-.23c-.49-.48-1-1-1.45-1.45-.31-.3-.66-.58-1-.92l1.48.34-.44.11s0,.07,0,.08.32.12.26.36c0,0,.08.13.14.18.43.39.86.79,1.31,1.17A4.88,4.88,0,0,0,137.27,323Z"/><path class="cls-1" d="M135.89,323.08l-.5,0a3.35,3.35,0,0,0-2.49-2.46.72.72,0,0,1,.23,0,2.11,2.11,0,0,1,1.46.79c.29.39.63.74.93,1.13A5.88,5.88,0,0,1,135.89,323.08Z"/><path class="cls-1" d="M133.36,323.47a.89.89,0,0,1-.67.11,1.14,1.14,0,0,0-1.27.66,6.64,6.64,0,0,1-.95,1.22,2.89,2.89,0,0,1,.16-.32l1-1.45a.73.73,0,0,1,.71-.34c.35,0,.69,0,1,0Z"/><path class="cls-1" d="M130.34,313.93V318a30.85,30.85,0,0,1-.14-4.11Z"/><path class="cls-1" d="M140,326.75c0,.45,0,.81,0,1.18a.38.38,0,0,1-.42.38c-.25,0-.24-.24-.22-.41a1.5,1.5,0,0,1,.18-.52A6.72,6.72,0,0,1,140,326.75Z"/><path class="cls-1" d="M127.08,313.91v4.75H127v-4.76Z"/><path class="cls-1" d="M127.8,313.78v5h-.06v-5Z"/><path class="cls-1" d="M136.38,317.75a.62.62,0,0,1,0,.19.61.61,0,0,0,.24.87s.06.1.12.2c-.43,0-.85.15-1.09-.36.38-.06.53-.33.62-.66a.87.87,0,0,1,.15-.23Z"/><path class="cls-1" d="M128.14,318.43v-4.07h.06v4.09Z"/><path class="cls-1" d="M136.42,323.12l2.25.63A3,3,0,0,1,136.42,323.12Z"/><path class="cls-1" d="M133.83,62.34l.35-.26-.51-.3a4.23,4.23,0,0,1-.58-.34.58.58,0,0,1-.09-.9,4.44,4.44,0,0,1,.68-.63c.46-.35.5-.45.11-.83a2.74,2.74,0,0,1-.81-1.83c0-.09,0-.25-.06-.27-.37-.18-.27-.52-.28-.82,0-.45,0-.91,0-1.39a1.83,1.83,0,0,1-1.42-2.29,5,5,0,0,0-2-.18c-1,.09-2,.26-3,.38a.68.68,0,0,1-.87-.52,5.63,5.63,0,0,1-.27-1.09,7.19,7.19,0,0,1,.16-2.86c.15-.58.37-.71,1-.64,1.12.12,2.25.26,3.38.34a6.9,6.9,0,0,0,2.62-.32,4.3,4.3,0,0,1,2.65,0,8.69,8.69,0,0,0,3.56.22l2.39-.27c.55-.06.65,0,.81.54a7,7,0,0,1,.24,3.19c0,.08,0,.16,0,.24-.21,1-.52,1.24-1.56,1.1-.88-.12-1.75-.26-2.64-.32a16.34,16.34,0,0,0-1.81.07A2.3,2.3,0,0,1,135.6,54a1.7,1.7,0,0,1-1.38.7v1.64a.71.71,0,0,1-.2.61c-.24.22-.14.89.12,1.23s.38.45.53.7a.87.87,0,0,1-.18,1.37c-.25.23-.52.44-.81.69l.41.24a4.81,4.81,0,0,1,.61.4.61.61,0,0,1,0,1,5.67,5.67,0,0,1-.76.44l-.55.29c.33.13.56.25.8.32a.69.69,0,0,1,.28,1.17,2.19,2.19,0,0,1-.72.56,2.54,2.54,0,0,0-.47.34l.58.38a3.82,3.82,0,0,1,.49.33c.41.37.36.71-.13,1a2.78,2.78,0,0,0,.28-.47c0-.08-.05-.2-.09-.3l-.19.06s-.07,0-.09,0c-.33-.2-.67-.39-1-.61s-.19-.76.12-1.07a3.54,3.54,0,0,1,.38-.29c.39-.05.66-.22.62-.41a.61.61,0,0,0-.56-.52.54.54,0,0,1-.23-.07,1.5,1.5,0,0,1-.33-.27c-.12-.14-.09-.13.15-.22a.71.71,0,0,0,.3-.31,2.61,2.61,0,0,0,.17-.47ZM125.4,50c.05.47.09,1.05.18,1.63s.3.77.95.61a13.38,13.38,0,0,1,2.94-.53,9.3,9.3,0,0,1,2.48.12,7.28,7.28,0,0,0,3.74,0,7.39,7.39,0,0,1,2.79-.1c.73.08,1.46.19,2.19.28a.64.64,0,0,0,.75-.39,1.3,1.3,0,0,0,.12-.32,6.73,6.73,0,0,0-.23-3.32.38.38,0,0,0-.46-.27l-3.23.33a5.26,5.26,0,0,1-2.23-.19,4.68,4.68,0,0,0-2.93-.19,10.39,10.39,0,0,1-4.42.32l-1.61-.18c-.7-.08-.81,0-.91.67C125.45,49,125.44,49.47,125.4,50Zm8.71,3.69c.5,0,.67-.21.77-.92l-.22.3,0-.22c-.42,0-.85,0-1.27,0s-.87-.15-1.31-.19c-.13,0-.35,0-.33.18-.06,0-.17-.17-.22-.15a.23.23,0,0,0-.08.39c.17.1.13.17.12.32,0,.32.5.78.88.82l-.61-.52a1.83,1.83,0,0,0,1.82,0s.07,0,.09,0c.21.14.29-.06.41-.14s0,0,.07,0Zm-.78,2.76h.12v-1.1h0l0,.67h.1V54.89a3.43,3.43,0,0,0-.36-.08c-.29,0-.45.07-.46.35,0,.46,0,.93,0,1.42l.42-.07,0-.58Zm-.17.73a1.66,1.66,0,0,0,.54,1.43,1.24,1.24,0,0,1,.45,1.09c.35-.42.37-.54.14-.9a3,3,0,0,0-.39-.5,1,1,0,0,1-.33-.73C133.58,57.36,133.45,57.24,133.17,57.23ZM134,60l0,0a5.11,5.11,0,0,0-.68.4.61.61,0,0,0,.33,1.15c0-.29-.46-.49-.21-.83S133.8,60.26,134,60Zm-.19-5.61a1.58,1.58,0,0,0,1.56-.82c.26-.49.27-.73,0-1a1.38,1.38,0,0,1-.42,1.21A7.58,7.58,0,0,1,133.82,54.43Z"/><path class="cls-1" d="M133.16,68l.28-.12,1,.84a1.11,1.11,0,0,1-.83-.15c-.18-.11-.36-.21-.52-.33a.5.5,0,0,1-.06-.77,3.16,3.16,0,0,1,.49-.29Z"/><path class="cls-2" d="M133.77,62.53a2.61,2.61,0,0,1-.17.47.71.71,0,0,1-.3.31c-.24.09-.26.08-.15.22a1.5,1.5,0,0,0,.33.27.54.54,0,0,0,.23.07.61.61,0,0,1,.56.52c0,.19-.24.35-.62.41l.29-.25c.25-.23,0-.33-.14-.42a7.57,7.57,0,0,1-.86-.46c-.28-.21-.3-.45,0-.65A6.08,6.08,0,0,1,133.77,62.53Z"/><path class="cls-1" d="M133.77,62.53a6.08,6.08,0,0,0-.88.49c-.26.2-.24.44,0,.65a7.57,7.57,0,0,0,.86.46c.18.1.38.19.14.42,0-.27-.27-.29-.46-.39a4.52,4.52,0,0,1-.65-.33.53.53,0,0,1,0-.91,7.25,7.25,0,0,1,1.06-.59Z"/><path class="cls-2" d="M125.4,50c0-.57.05-1,.11-1.48.09-.69.2-.75.91-.67l1.61.18a10.39,10.39,0,0,0,4.42-.32,4.68,4.68,0,0,1,2.93.19,5.26,5.26,0,0,0,2.23.19l3.23-.33a.38.38,0,0,1,.46.27,6.73,6.73,0,0,1,.23,3.32,1.3,1.3,0,0,1-.12.32.64.64,0,0,1-.75.39c-.73-.09-1.46-.2-2.19-.28a7.39,7.39,0,0,0-2.79.1,7.28,7.28,0,0,1-3.74,0,9.3,9.3,0,0,0-2.48-.12,13.38,13.38,0,0,0-2.94.53c-.65.16-.84,0-.95-.61S125.45,50.51,125.4,50Zm2.75,1,0,.1c.63-.08,1.26-.18,1.89-.22a14,14,0,0,1,2.05,0,8.64,8.64,0,0,0,2,.2c.39-.05.77-.16,1.16-.2a24.61,24.61,0,0,1,5.45.23,1,1,0,0,1,.3.14l0,.1-3.12-.29s0,0,0,.06l1.77.22s0,.07,0,.11l-.26.07.57,0,.63.09c.35.06.54,0,.63-.37s.14-.79.22-1.23H139l2.26.14v.11l-.37.13.36.11v.12l-1.52-.08a6.33,6.33,0,0,1,1.41.36,2.75,2.75,0,0,1-.63,0c-1-.08-2-.21-3-.24-.82,0-1.64.06-2.45.09A13.1,13.1,0,0,1,133,51a8.86,8.86,0,0,0-2.58-.15C129.68,51,128.91,51,128.15,51.09Z"/><path class="cls-2" d="M134.11,53.73l.08-.18s-.05,0-.06,0-.21.28-.41.14c0,0-.06,0-.09,0a1.83,1.83,0,0,1-1.82,0l.61.52c-.38,0-.9-.5-.88-.82,0-.16,0-.22-.12-.32a.23.23,0,0,1,.08-.39c.06,0,.16.11.22.15,0-.18.2-.19.33-.18.44,0,.87.15,1.31.19s.85,0,1.27,0l0,.22.22-.3C134.78,53.52,134.61,53.72,134.11,53.73Z"/><path class="cls-2" d="M133.33,56.49l0-.56,0,.58-.42.07c0-.5,0-1,0-1.42,0-.28.17-.38.46-.35a3.43,3.43,0,0,1,.36.08V56h-.1l0-.67h0v1.1Z"/><path class="cls-2" d="M133.17,57.23c.28,0,.41.13.4.39a1,1,0,0,0,.33.73,3,3,0,0,1,.39.5c.23.36.21.47-.14.9a1.24,1.24,0,0,0-.45-1.09A1.66,1.66,0,0,1,133.17,57.23Z"/><path class="cls-2" d="M134,60c-.2.23-.41.44-.59.68s.18.54.21.83a.61.61,0,0,1-.33-1.15A5.11,5.11,0,0,1,134,60Z"/><path class="cls-2" d="M133.82,54.43a7.58,7.58,0,0,0,1.18-.61,1.38,1.38,0,0,0,.42-1.21c.22.26.21.5,0,1A1.58,1.58,0,0,1,133.82,54.43Z"/><path class="cls-1" d="M128.15,51.09c.76-.08,1.53-.13,2.28-.27A8.86,8.86,0,0,1,133,51a13.1,13.1,0,0,0,2.06-.07c.82,0,1.64-.12,2.45-.09,1,0,2,.15,3,.24a2.75,2.75,0,0,0,.63,0,6.33,6.33,0,0,0-1.41-.36l1.52.08v-.12l-.36-.11.37-.13v-.11L139,50.18h2.43c-.08.45-.12.85-.22,1.23s-.28.42-.63.37l-.63-.09-.57,0,.26-.07s0-.07,0-.11l-1.77-.22s0,0,0-.06l3.12.29,0-.1a1,1,0,0,0-.3-.14,24.61,24.61,0,0,0-5.45-.23c-.39,0-.77.15-1.16.2a8.64,8.64,0,0,1-2-.2,14,14,0,0,0-2.05,0c-.63,0-1.26.14-1.89.22Z"/><path class="cls-1" d="M256.51,79.62c0-1.42,0-2.84,0-4.26,0-.81,0-1.62,0-2.44q0-1.64,0-3.29a3.43,3.43,0,0,1,1-2.12c.2-.24.45-.45.67-.68a2.16,2.16,0,0,0,.52-1,9.16,9.16,0,0,0,.19-1.14,4.8,4.8,0,0,0,0-.57c0-.8,0-1.59,0-2.39s0-1.75,0-2.62c0-.22,0-.29.25-.33a6.56,6.56,0,0,1,1.08-.15c.46,0,.92,0,1.38.07.26,0,.36.14.38.4s0,.49,0,.73c0,1.16,0,2.32,0,3.48,0,.22,0,.44,0,.66s0,.42,0,.63a3.73,3.73,0,0,0,1,2.7c.18.18.36.36.52.55a3.6,3.6,0,0,1,.78,1.73,4,4,0,0,1,0,.66c0,1.18,0,2.37,0,3.55,0,.67,0,1.34,0,2,0,1.17,0,2.33,0,3.5,0,2,0,4.05.06,6.08a3,3,0,0,1-.29,1.28.75.75,0,0,1-.43.35.78.78,0,0,1-.21.05,12.75,12.75,0,0,1-2,.12c-.54,0-1.08,0-1.62,0q-1.2,0-2.4-.13a.83.83,0,0,1-.76-.55,2.63,2.63,0,0,1-.16-1c0-2,0-3.93,0-5.89Zm2.66-15a1.11,1.11,0,0,0-.09.27,5,5,0,0,1-.39,1.5,2.17,2.17,0,0,1-.57.81,5,5,0,0,0-1,1.16,3.62,3.62,0,0,0-.46,1.88c0,2,0,4.1,0,6.15,0,1,0,2.05,0,3.07,0,1.8,0,3.6,0,5.4a8,8,0,0,0,.11,1.34.71.71,0,0,0,.74.69c.45,0,.9.08,1.36.09a40.2,40.2,0,0,0,4.41-.11.81.81,0,0,0,.75-.56,1.58,1.58,0,0,0,.11-.43c0-.51,0-1,0-1.54,0-1.46,0-2.92,0-4.38,0-1.77,0-3.53,0-5.3,0-1.19,0-2.38,0-3.57a11.14,11.14,0,0,0-.05-1.42,3,3,0,0,0-.89-1.79,6.77,6.77,0,0,1-.87-1.06,2.34,2.34,0,0,1-.41-1c0-.34-.06-.69-.09-1,0-.06,0-.12,0-.19s-.08.07-.07.1c0,.28,0,.57,0,.85a3,3,0,0,0,.15.74,4.51,4.51,0,0,0,.84,1.31,6,6,0,0,1,.78,1,3.76,3.76,0,0,1,.42,1.8c0,.91,0,1.81,0,2.72q0,3.67.06,7.33c0,.43,0,.85,0,1.28,0,1.11,0,2.22,0,3.34a4.48,4.48,0,0,1-.18,1.26.45.45,0,0,1-.41.37c-.66.06-1.33.17-2,.17-1.32,0-2.64,0-4-.07l-.22,0v-.06h.22c1.09,0,2.18.1,3.27,0,.49,0,1,0,1.47-.07.25,0,.5-.07.76-.09s.39-.11.42-.36c0-.41.06-.82.09-1.22,0,0,0-.06,0-.09h-.06c0,.1,0,.2,0,.29,0,.29,0,.58,0,.87,0,.09,0,.19-.14.23,0-.3,0-.58,0-.86s0-.55,0-.83,0-.57,0-.85a2.78,2.78,0,0,0-.07-.81,2.36,2.36,0,0,0,0,.49c0,.17,0,.33,0,.5s0,.33,0,.5,0,.32-.06.47a.86.86,0,0,1,0-.27c0-.48,0-1,0-1.44,0-.07,0-.14,0-.21H263q0,1.49,0,3h-.05v-.74c0-.25,0-.49,0-.73s0-.51,0-.76a2.16,2.16,0,0,0-.06-.73,5.94,5.94,0,0,0,0,.81c0,.28,0,.55,0,.83a3.1,3.1,0,0,1,0,.81.49.49,0,0,1,0-.2c0-.67,0-1.34,0-2a1.5,1.5,0,0,0,0-.21h-.07c0,.49,0,1,0,1.46a14,14,0,0,1-.05,1.47,5.32,5.32,0,0,1,0-.72v-.76c0-.24,0-.49,0-.73a2.19,2.19,0,0,0-.06-.73,1.11,1.11,0,0,0-.08.57c0,.2,0,.39,0,.59s0,.41,0,.62,0,.39,0,.59,0,.39,0,.59h-.07a1.72,1.72,0,0,1,0-.19q0-1.22,0-2.44a1.49,1.49,0,0,0,0-.24s0-.07-.06-.1h-.06v1.73h-.07a14.4,14.4,0,0,0-.08-1.74,19.27,19.27,0,0,0,0,2.72h.07l0-.54h.06c0,.2,0,.41,0,.61s0,.25-.28.25a2,2,0,0,1,0-.21q0-1,0-1.92c0-.25,0-.5,0-.76,0-.07,0-.17-.14-.16,0,.68,0,1.37,0,2a.27.27,0,0,1,0-.15c0-.54,0-1.09,0-1.63a1.65,1.65,0,0,0,0-.23s0,0-.07,0l-.06.18-.07-.16h0v1h-.06V83h-.07v.71h-.05a4,4,0,0,0-.06-.71.37.37,0,0,0,0,.16s0,.09,0,.18l-.07-.31H261l0,.3h0l-.07-.31h-.06l0,.33h0l0-.35h-.06l0,.31h-.05a2.2,2.2,0,0,0,0-.27s-.05-.06-.08-.09-.08.06-.08.09a1.44,1.44,0,0,0,0,.23h0l-.07-.31h0l0,.36h0l0-.33h0l0,.21h0l0-.23h0l0,.23h0l0-.23h0l0,.36h0l-.05-.36h-.07c0,1,0,2.1-.06,3.14-.06-1.05,0-2.11-.09-3.16a4.47,4.47,0,0,0,0,.74c0,.25,0,.49,0,.73s0,.5,0,.76a2.12,2.12,0,0,1,0,.73,13.1,13.1,0,0,1,0-1.47,11.53,11.53,0,0,0,0-1.49c-.06,1,0,2.06-.06,3.1h-.06l-.08-.72h0v.83H259a12.6,12.6,0,0,1-.11-2.12h-.06v2h-.06c-.13-.16,0-.4-.15-.6v.54h-.06v-3h-.08v2.45h-.07V83.39h-.07v1.75h-.07V83.5h0l0,.77c-.11-.43,0-.88-.05-1.31h-.05l0,.35h0l0-.36-.51,0c-.12,0-.19-.06-.19-.19s0-.46,0-.68a2.27,2.27,0,0,1,0,.52c0,.26,0,.27.26.29l1.55.07a28.92,28.92,0,0,0,3.38-.07c.3,0,.6-.06.91-.09,0-3.31,0-6.6,0-9.89l-.11,0h-5.93V76h-.05V72.75l.69,0,0-.53h0l0,.51h.08v-.77h0l0,.64h0c0-.24,0-.49,0-.73s0-.47,0-.71a6.52,6.52,0,0,1,0-.7h.07V72a4.73,4.73,0,0,0,.08-.82,2.45,2.45,0,0,1,0-.81h.06q0,.4,0,.81h0l.07-1.63h0l-.09.31h0l.1-.77,0-.08.25-.76c.06-.18.13-.36.19-.53,0,.29-.18.54-.2.82l.05,0,.14-.28h.06a13.56,13.56,0,0,0-.3,3.39l-.07-.35c0,.45,0,.9,0,1.35a.64.64,0,0,0,0,.17H259q0-1.12,0-2.25h.06v2.11c.06-1,.09-2,.12-3,0-.21.05-.43.08-.64a8,8,0,0,1,0,1c0,.32,0,.65,0,1s0,.63,0,.95a3.41,3.41,0,0,0,.08.93.64.64,0,0,0,0-.27c0-1,0-2,0-3.07a3.23,3.23,0,0,1,.21-1,.46.46,0,0,1,0,.16,4.64,4.64,0,0,0-.11.67c0,1.11,0,2.22,0,3.34a.84.84,0,0,0,0,.17h.07c.06-1.06,0-2.13.06-3.19,0,.53,0,1.07,0,1.6a10.74,10.74,0,0,0,.07,1.58.58.58,0,0,0,.05-.26c0-.95,0-1.89,0-2.84,0-.38.06-.77.11-1.15a2.2,2.2,0,0,1,.09-.33.17.17,0,0,1,0,.12,7.8,7.8,0,0,0-.15,1.71c0,.85,0,1.7,0,2.55,0,.06,0,.12,0,.19h.59l0-.24h0l0,.23h0l.06-.33h0l0,.32h.05l.05-.2,0,.2h.86V69.83h.06c0,.1,0,.2,0,.3,0,.8,0,1.59,0,2.39,0,.08-.06.22.09.23s.09-.14.09-.22c0-.77,0-1.54,0-2.32,0-.08,0-.15,0-.23H262q0,1.38,0,2.75h.08V69.81h.08v2.73h.08q0-1,0-1.93h.06c0,.66,0,1.33,0,2h.05q0-1.41-.05-2.81h.05a.75.75,0,0,1,.1.48c0,.74,0,1.48,0,2.22a2.2,2.2,0,0,0,0,.23h.07v-2h.06l.06.47a1,1,0,0,0,.07-.57c0-.19,0-.38,0-.57s0-.38,0-.57a.22.22,0,0,1,.07.14c0,.23,0,.46,0,.68,0,.39,0,.79,0,1.18a.78.78,0,0,0,0,.17h0c0-.26,0-.52,0-.78,0-.5,0-1-.08-1.49a2.77,2.77,0,0,0-.55-1.34.7.7,0,0,0-.1-.1.76.76,0,0,0,.1.25l.11.23-.06,0a19.94,19.94,0,0,1-1.05-1.88l.18.29,0,0c-.07-.15-.14-.3-.2-.46s-.1-.33-.14-.49h-.07v.31h0l-.14-.41.24-.06c0-.2,0-.39,0-.59a1.48,1.48,0,0,1,0-.55c0,.2,0,.39.07.58a2,2,0,0,0,.09.63l.09-.22.12.14-.09-1.19a3,3,0,0,0-.32,0l-1.83,0a1.18,1.18,0,0,0-.27.07Zm2.67-.24c0-.08,0-.15,0-.23,0-.36,0-.72,0-1.08q0-1.88,0-3.76c0-.28-.06-.42-.4-.44a9.51,9.51,0,0,0-2,0,.38.38,0,0,0-.36.46c0,.26,0,.52,0,.78,0,.49,0,1,0,1.48s0,1.29.07,1.93c0,.29,0,.58,0,.87Zm2,12.08v8.39C263.93,84.5,263.91,76.71,263.84,76.44ZM263.7,78h-.05v7.7h.05Zm0-8.28h0V76h.06c0-.07,0-.15,0-.22q0-2.52,0-5C263.71,70.37,263.69,70,263.67,69.69ZM262,67.08h0a.5.5,0,0,0,.05.11l.49.61a3,3,0,0,1,.77,1.31s0,0,.06.07a.2.2,0,0,0,0-.06.43.43,0,0,0,0-.09,2.46,2.46,0,0,0-.5-1Zm1.43,1.79a2.65,2.65,0,0,0-1-1.37A6.61,6.61,0,0,1,263.44,68.88Z"/><path class="cls-2" d="M258.67,69l-.1.77h0l.09-.31h0l-.07,1.63h0q0-.4,0-.81h-.06a2.45,2.45,0,0,0,0,.81,4.73,4.73,0,0,1-.08.82V70.43h-.07a6.52,6.52,0,0,0,0,.7c0,.24,0,.47,0,.71s0,.49,0,.73h0l0-.64h0v.77h-.08l0-.51h0l0,.53-.69,0V76h.05V72.83h5.93l.11,0c0,3.29,0,6.57,0,9.89-.31,0-.61.07-.91.09a28.92,28.92,0,0,1-3.38.07l-1.55-.07c-.25,0-.26,0-.26-.29a2.27,2.27,0,0,0,0-.52c0,.23,0,.45,0,.68s.08.18.19.19l.51,0,0,.36h0l0-.35h.05c.07.43-.06.87.05,1.31l0-.77h0v1.65h.07V83.39h.07v2.15h.07V83.09h.08v3h.06v-.54c.13.21,0,.44.15.6h.06v-2h.06a12.6,12.6,0,0,0,.11,2.12h.08V85.4h0l.08.72h.06c0-1,0-2.06.06-3.1a11.53,11.53,0,0,1,0,1.49,13.1,13.1,0,0,0,0,1.47,2.12,2.12,0,0,0,0-.73c0-.25,0-.5,0-.76s0-.49,0-.73a4.47,4.47,0,0,1,0-.74c.09,1.05,0,2.11.09,3.16.06-1,0-2.1.06-3.14h.07l.05.36h0l0-.36h0l0,.23h0l0-.23h0l0,.23h0l0-.21h0l0,.33h0l0-.36h0l.07.31h0a1.44,1.44,0,0,1,0-.23s.05-.06.08-.09.08.06.08.09a2.2,2.2,0,0,1,0,.27h.05l0-.31h.06l0,.35h0l0-.33h.06l.07.31h0l0-.3H261l.07.31c0-.09,0-.13,0-.18a.37.37,0,0,1,0-.16,4,4,0,0,1,.06.71h.05V83h.07v1h.06V83h0l.07.16.06-.18s.07,0,.07,0a1.65,1.65,0,0,1,0,.23c0,.54,0,1.09,0,1.63a.27.27,0,0,0,0,.15c.06-.68,0-1.37,0-2,.17,0,.14.09.14.16,0,.25,0,.5,0,.76q0,1,0,1.92a2,2,0,0,0,0,.21c.28,0,.28,0,.28-.25s0-.41,0-.61h-.06l0,.54h-.07a19.27,19.27,0,0,1,0-2.72,14.4,14.4,0,0,1,.08,1.74h.07V83h.06s.06.06.06.1a1.49,1.49,0,0,1,0,.24q0,1.22,0,2.44a1.72,1.72,0,0,0,0,.19h.07c0-.2,0-.4,0-.59s0-.39,0-.59,0-.41,0-.62,0-.39,0-.59a1.11,1.11,0,0,1,.08-.57,2.19,2.19,0,0,1,.06.73c0,.25,0,.49,0,.73v.76a5.32,5.32,0,0,0,0,.72,14,14,0,0,0,.05-1.47c0-.49,0-1,0-1.46h.07a1.5,1.5,0,0,1,0,.21c0,.67,0,1.34,0,2a.49.49,0,0,0,0,.2,3.1,3.1,0,0,0,0-.81c0-.28,0-.55,0-.83a5.94,5.94,0,0,1,0-.81,2.16,2.16,0,0,1,.06.73c0,.25,0,.5,0,.76s0,.49,0,.73v.74H263q0-1.48,0-3h.08c0,.07,0,.14,0,.21,0,.48,0,1,0,1.44a.86.86,0,0,0,0,.27c.1-.15,0-.32.06-.47s0-.33,0-.5,0-.33,0-.5a2.36,2.36,0,0,1,0-.49,2.78,2.78,0,0,1,.07.81c0,.28,0,.57,0,.85s0,.55,0,.83,0,.56,0,.86c.13,0,.13-.14.14-.23,0-.29,0-.58,0-.87,0-.1,0-.2,0-.29h.06s0,.06,0,.09c0,.41,0,.82-.09,1.22,0,.25-.16.33-.42.36s-.5.08-.76.09c-.49,0-1,0-1.47.07-1.09.08-2.18,0-3.27,0h-.22v.06l.22,0c1.32,0,2.64.08,4,.07.66,0,1.33-.11,2-.17a.45.45,0,0,0,.41-.37,4.48,4.48,0,0,0,.18-1.26c0-1.11,0-2.22,0-3.34,0-.43,0-.85,0-1.28q0-3.67-.06-7.33c0-.91,0-1.81,0-2.72a3.76,3.76,0,0,0-.42-1.8,6,6,0,0,0-.78-1,4.51,4.51,0,0,1-.84-1.31,3,3,0,0,1-.15-.74c0-.28,0-.57,0-.85,0,0,0-.07.07-.1s0,.13,0,.19c0,.34,0,.69.09,1a2.34,2.34,0,0,0,.41,1,6.77,6.77,0,0,0,.87,1.06,3,3,0,0,1,.89,1.79,11.14,11.14,0,0,1,.05,1.42c0,1.19,0,2.38,0,3.57,0,1.77,0,3.53,0,5.3,0,1.46,0,2.92,0,4.38,0,.51,0,1,0,1.54a1.58,1.58,0,0,1-.11.43.81.81,0,0,1-.75.56,40.2,40.2,0,0,1-4.41.11c-.45,0-.9-.06-1.36-.09a.71.71,0,0,1-.74-.69,8,8,0,0,1-.11-1.34c0-1.8,0-3.6,0-5.4,0-1,0-2,0-3.07,0-2,0-4.1,0-6.15a3.62,3.62,0,0,1,.46-1.88,5,5,0,0,1,1-1.16,2.17,2.17,0,0,0,.57-.81,5,5,0,0,0,.39-1.5,1.11,1.11,0,0,1,.09-.27,3.91,3.91,0,0,1-.8,2.5,5.34,5.34,0,0,0,.4-.41l0-.06c0-.08.05-.16.09-.24s.07-.21.14-.23.11-.21.16-.31c-.18-.07,0-.19,0-.28s.05-.41.08-.61a.39.39,0,0,0-.08-.35,1.18,1.18,0,0,1,.27-.07l1.83,0a3,3,0,0,1,.32,0l.09,1.19-.12-.14-.09.22a2,2,0,0,1-.09-.62c0-.19,0-.39-.07-.58a1.48,1.48,0,0,0,0,.55c0,.2,0,.39,0,.59l-.24.06.14.41h0v-.31h.07c0,.16.08.33.14.49s.13.31.2.46l0,0-.18-.29a19.94,19.94,0,0,0,1.05,1.88l.06,0-.11-.23a.76.76,0,0,1-.1-.25.7.7,0,0,1,.1.1,2.77,2.77,0,0,1,.55,1.34c0,.5.06,1,.08,1.49,0,.26,0,.52,0,.78h0a.78.78,0,0,1,0-.17c0-.39,0-.79,0-1.18,0-.23,0-.46,0-.68a.22.22,0,0,0-.07-.14c0,.19,0,.38,0,.57s0,.38,0,.57a1,1,0,0,1-.07.57l-.06-.47h-.06v2h-.07a2.2,2.2,0,0,1,0-.23c0-.74,0-1.48,0-2.22a.75.75,0,0,0-.1-.48h-.05q0,1.4.05,2.81h-.05c-.07-.66,0-1.33,0-2h-.06q0,1,0,1.93h-.08V69.81h-.08v2.91h-.08q0-1.38,0-2.75H262c0,.08,0,.15,0,.23,0,.77,0,1.55,0,2.32,0,.08.06.22-.09.22s-.09-.14-.09-.23c0-.8,0-1.59,0-2.39,0-.1,0-.2,0-.3h-.06v2.91h-.86l0-.2-.05.2h-.05l0-.32h0l-.06.33h0l0-.23h0l0,.24h-.59c0-.07,0-.13,0-.19,0-.85,0-1.7,0-2.55a7.8,7.8,0,0,1,.15-1.71.17.17,0,0,0,0-.12,2.2,2.2,0,0,0-.09.33c0,.38-.1.77-.11,1.15,0,.95,0,1.89,0,2.84a.58.58,0,0,1-.05.26,10.74,10.74,0,0,1-.07-1.58c0-.53,0-1.07,0-1.6-.1,1.06,0,2.13-.06,3.19h-.07a.84.84,0,0,1,0-.17c0-1.11,0-2.22,0-3.34a4.64,4.64,0,0,1,.11-.67.46.46,0,0,0,0-.16,3.23,3.23,0,0,0-.21,1c0,1,0,2,0,3.07a.64.64,0,0,1,0,.27,3.41,3.41,0,0,1-.08-.93c0-.32,0-.63,0-.95s0-.65,0-1a8,8,0,0,0,0-1c0,.21-.07.43-.08.64,0,1-.06,2-.12,3V70.5H259q0,1.13,0,2.25h-.08a.64.64,0,0,1,0-.17c0-.45,0-.9,0-1.35l.07.35a13.56,13.56,0,0,1,.3-3.39h-.06l-.14.28-.05,0c0-.28.18-.53.2-.82-.06.18-.13.35-.19.53l-.25.76a5.88,5.88,0,0,1,.37-1.38,4.5,4.5,0,0,0-.59,2.18Zm-.88-1.3h-.06l-.15.18a3.47,3.47,0,0,0-.78,2.35c0,.69,0,1.39,0,2.08q0,1.88,0,3.76,0,1.21,0,2.43c0,1.6,0,3.2,0,4.8,0,.84,0,1.69,0,2.53a.76.76,0,0,0,.25.59s0,0,0-.06-.15-.28,0-.42,0-.06,0-.09c0-.46,0-.93,0-1.39q0-3.57,0-7.14c0-.76,0-1.51,0-2.27,0-1.58,0-3.17,0-4.75a3.54,3.54,0,0,1,.94-2.57c.09-.09.17-.2.25-.3a2.71,2.71,0,0,0-.62.64l0,0Zm2-2,0-.66a2.72,2.72,0,0,1-.1.66v-1h0a13.29,13.29,0,0,1-.17,2.42l.12-.24,0,.2a.29.29,0,0,0,.08-.17c0-.06,0-.08.08-.05l.16-.53a.75.75,0,0,1,.09-.12v.61h0l0-.86h.06v.51h.05v-.52a.34.34,0,0,1,.06.18c0,.06,0,.11,0,.17h0V65.9h0l0,.37h0l0-.36h0l0,.38h0v-.84h0l0,.36-.34-.07,0-.15h0l0,.16Zm2.77,16.93h.08c0-3.19-.06-6.38-.08-9.57Zm-.39-.76h0c0-.08,0-.17,0-.25,0-.3,0-.6,0-.9,0-1.41,0-2.82,0-4.23,0-.48,0-1,0-1.44s0-1.25,0-1.87a1,1,0,0,0,0-.18h0Zm.58.76h.07c0-2.5,0-5-.12-7.51Q262.69,78.9,262.72,82.65Zm.36-9.36v9.29C263.17,81.94,263.17,74,263.07,73.29Zm-.18,9.34H263q0-4.79,0-9.57h0Zm-3.49-2h0q0-3.79-.05-7.57h-.06Q259.37,76.83,259.4,80.62ZM258.58,82h0V77.84h0Zm3.35-2.11H262V76.17h0Q262,78,261.93,79.92Zm.41,1.56h0V76.56h0Zm-2.74-8.22h0v5.06h0Zm-.95-5h-.06a3.82,3.82,0,0,0-.39,1.62l.09-.35,0,.29h0Zm2.91,1.57h-.06q0,1.41,0,2.82A26.05,26.05,0,0,0,261.56,69.79Zm-2.77,5.5a10.09,10.09,0,0,0,0-2.24C258.77,73.79,258.71,74.54,258.79,75.29Zm.23,4.8h0v2.56h.06Zm2.5,6a9.19,9.19,0,0,0,0-2.18Zm.48-12.5h0v2h0Zm-.66-4.78.07,0-.19-.8h0v.21h0l-.09-.17-.06.21-.13-.3h0l.09.56.12-.13.1.17.1-.17ZM259.2,73h0a.28.28,0,0,0,0,.06q0,1.26.05,2.52h0Zm2.55.08h0v2.8h0Zm.08-5.62,0,0c.17.28.35.56.49.85s.25.6.37.9A4.08,4.08,0,0,0,261.82,67.5ZM259,73h-.08l.05,2.43h0Zm-.8,6.6h0v-3h0Zm1.76-7h0V69.93h0Zm1.76-3a3,3,0,0,0-.32-1.65c.07.28.16.55.21.82S261.7,69.35,261.74,69.62Zm-1.52.16h0v2.16h0Zm1.16,2.06h0c0-.67,0-1.34,0-2h-.07Zm1.75,14.39a4.45,4.45,0,0,0,0-1.21A2.75,2.75,0,0,0,263.13,86.23ZM260.31,68c-.23,0-.3.23-.27.67l.13-.46h0l0,.55h.06Zm0,16.88a3.75,3.75,0,0,0,0,1.26A7.87,7.87,0,0,0,260.36,84.85Zm2-11.78h0v2.48h0Zm-3.6,8.44a4.31,4.31,0,0,0,0-1.31Zm1.82-10.27a3.77,3.77,0,0,0,0-1.38Zm-1,8.29h0v2.34h0Zm.57,6.56h.06a4.62,4.62,0,0,0-.06-1.18Zm-2.83-5.54h0V78.28h0Zm2.51,5.38V84.47A3.85,3.85,0,0,0,259.83,85.93Z"/><path class="cls-2" d="M261.84,64.36l-2.74.05c0-.29,0-.58,0-.87,0-.64-.06-1.29-.07-1.93s0-1,0-1.48c0-.26,0-.52,0-.78a.38.38,0,0,1,.36-.46,9.51,9.51,0,0,1,2,0c.34,0,.4.16.4.44q0,1.88,0,3.76c0,.36,0,.72,0,1.08C261.85,64.21,261.84,64.29,261.84,64.36Zm-1.07-4.27h.07V59h.06l0,.5H261l0-.41a4,4,0,0,1,0,.54c0,.48,0,1,0,1.44a1.74,1.74,0,0,0,0,.25h.07V59.11h.07q0,.63,0,1.25h.06c.05-.39,0-.79,0-1.19h.05q0,2,.05,4.06h-.05c0-.3,0-.6,0-.89s0-.58,0-.88a3.74,3.74,0,0,0-.05-.87c-.08,1.2,0,2.39,0,3.59h-.06l-.05-.57h-.06v.44h-.06q0-.71-.06-1.41h0v1.56H261l-.05-.77h0v.83l.82,0c0-.1,0-.16,0-.23s0-.36,0-.54q0-2.06-.06-4.12c0-.09,0-.17,0-.26a.18.18,0,0,0-.18-.18l-1.12,0a.15.15,0,0,0-.12.08,1.16,1.16,0,0,0,0,.41h.06v-.39h0l0,.37h0l0-.3h0l.06.57h.05v-.59h.05l0,.4h0l0-.43h.07ZM259.42,63h-.07l0,.82a7,7,0,0,1-.12-.89c0-.3,0-.6,0-.9s0-.61,0-.92,0-.6,0-.9,0-.58,0-.87h0l.05.66h0V59c-.16,0-.19.09-.19.19s0,.3,0,.45c0,.47,0,.95,0,1.42,0,.27,0,.55,0,.82,0,.73,0,1.47,0,2.2,0,.07,0,.15,0,.25l.25-.08Zm1.6-.64V59.74H261C260.9,60.62,261,61.49,261,62.36Zm.14,1.09h0V61.53h0Z"/><path class="cls-2" d="M263.84,76.44c.08.27.09,8.06,0,8.39Z"/><path class="cls-2" d="M263.7,78v7.7h-.05V78Z"/><path class="cls-2" d="M263.67,69.69c0,.34,0,.68,0,1q0,2.52,0,5c0,.07,0,.15,0,.22h-.06V69.69Z"/><path class="cls-1" d="M258.67,69l-.2.72a4.5,4.5,0,0,1,.59-2.18,5.88,5.88,0,0,0-.37,1.38Z"/><path class="cls-2" d="M262,67.08l.84,1a2.46,2.46,0,0,1,.5,1,.43.43,0,0,1,0,.09.2.2,0,0,1,0,.06s-.05,0-.06-.07a3,3,0,0,0-.77-1.31l-.49-.61a.5.5,0,0,1-.05-.11Z"/><path class="cls-2" d="M263.44,68.88a6.61,6.61,0,0,0-1-1.37A2.65,2.65,0,0,1,263.44,68.88Z"/><path class="cls-1" d="M257.79,67.71l-.21.33,0,0a2.71,2.71,0,0,1,.62-.64c-.08.1-.16.2-.25.3a3.54,3.54,0,0,0-.94,2.57c0,1.58,0,3.17,0,4.75,0,.76,0,1.51,0,2.27q0,3.57,0,7.14c0,.46,0,.93,0,1.39,0,0,0,.08,0,.09s0,.28,0,.42,0,0,0,.06a.76.76,0,0,1-.25-.59c0-.84,0-1.69,0-2.53,0-1.6,0-3.2,0-4.8q0-1.22,0-2.43,0-1.88,0-3.76c0-.69,0-1.39,0-2.08a3.47,3.47,0,0,1,.78-2.35l.15-.18Zm-.45.79a3.06,3.06,0,0,0-.44,1.63c0,.94,0,1.88,0,2.81s0,1.74,0,2.6c0,.38,0,.77,0,1.15,0,.19,0,.38,0,.58H257c0-.11,0-.21,0-.32,0-.75,0-1.5,0-2.25,0-.53,0-1.06,0-1.58,0-.88,0-1.76,0-2.65a6.87,6.87,0,0,1,.09-1.13A6.53,6.53,0,0,1,257.34,68.5ZM257,78.26a49,49,0,0,0,0,5C257,81.57,257.06,79.91,257,78.26Z"/><path class="cls-1" d="M259.76,65.73h.36l0-.16h0l0,.15.34.07,0-.36h0v.84h0l0-.38h0l0,.36h0l0-.37h0v.38h0c0-.06,0-.11,0-.17a.34.34,0,0,0-.06-.18v.52h-.05v-.51h-.06l0,.86h0v-.61a.75.75,0,0,0-.09.12l-.16.53c-.06,0-.08,0-.08.05a.29.29,0,0,1-.08.17l0-.2-.12.24a13.29,13.29,0,0,0,.17-2.42h0v1a2.72,2.72,0,0,0,.1-.66Z"/><path class="cls-1" d="M262.53,82.66V73.09c0,3.19.08,6.38.08,9.57Z"/><path class="cls-1" d="M262.14,81.9V73.05h0a1,1,0,0,1,0,.18q0,.93,0,1.87c0,.48,0,1,0,1.44,0,1.41,0,2.82,0,4.23,0,.3,0,.6,0,.9,0,.08,0,.17,0,.25Z"/><path class="cls-1" d="M262.72,82.65q0-3.76-.05-7.52c.13,2.5.12,5,.12,7.51Z"/><path class="cls-1" d="M263.07,73.29c.09.7.09,8.65,0,9.29Z"/><path class="cls-1" d="M262.89,82.63V73.06h0q0,4.79,0,9.57Z"/><path class="cls-1" d="M259.4,80.62q0-3.79-.07-7.58h.06q0,3.79.05,7.57Z"/><path class="cls-1" d="M258.58,82V77.84h0V82Z"/><path class="cls-1" d="M261.93,79.92q0-1.87.06-3.75h0v3.75Z"/><path class="cls-1" d="M259.17,64.61a.39.39,0,0,1,.08.35c0,.2-.07.41-.08.61s-.15.21,0,.28c-.05.1,0,.25-.16.31s-.1.15-.14.23-.06.16-.09.24l0,.06a5.34,5.34,0,0,1-.4.41,3.91,3.91,0,0,0,.8-2.5Z"/><path class="cls-1" d="M262.34,81.48V76.56h0v4.93Z"/><path class="cls-1" d="M259.6,73.26v5.06h0V73.26Z"/><path class="cls-1" d="M258.65,68.22l-.31,1.55h0l0-.29-.09.35a3.82,3.82,0,0,1,.39-1.62Z"/><path class="cls-1" d="M261.56,69.79a26.05,26.05,0,0,1,0,2.82q0-1.41,0-2.82Z"/><path class="cls-1" d="M258.79,75.29c-.08-.75,0-1.5,0-2.24A10.09,10.09,0,0,1,258.79,75.29Z"/><path class="cls-1" d="M259,80.09l.06,2.56H259V80.1Z"/><path class="cls-1" d="M261.52,86.08V83.91A9.19,9.19,0,0,1,261.52,86.08Z"/><path class="cls-1" d="M262,73.58v2h0v-2Z"/><path class="cls-1" d="M261.34,68.8l-.09-.41-.1.17-.1-.17-.12.13-.09-.56h0l.13.3.06-.21.09.17h0V68h0l.19.8Z"/><path class="cls-1" d="M259.2,73v2.58h0q0-1.26-.05-2.52a.28.28,0,0,1,0-.06Z"/><path class="cls-1" d="M261.75,73.11v2.81h0v-2.8Z"/><path class="cls-1" d="M261.82,67.5a4.08,4.08,0,0,1,.82,1.78c-.12-.3-.22-.61-.37-.9s-.33-.57-.49-.85Z"/><path class="cls-1" d="M259,73v2.44h0L258.95,73Z"/><path class="cls-1" d="M258.22,79.63v-3h0v3Z"/><path class="cls-1" d="M260,72.59V69.93h0v2.66Z"/><path class="cls-1" d="M261.74,69.62c0-.28-.05-.55-.11-.82s-.14-.54-.21-.82A3,3,0,0,1,261.74,69.62Z"/><path class="cls-1" d="M260.22,69.78v2.15h0V69.78Z"/><path class="cls-1" d="M261.38,71.84l-.08-2h.07c0,.67,0,1.34,0,2Z"/><path class="cls-1" d="M263.13,86.23a2.75,2.75,0,0,1,0-1.21A4.45,4.45,0,0,1,263.13,86.23Z"/><path class="cls-1" d="M260.31,68l-.08.78h-.06l0-.55h0l-.13.46C260,68.19,260.08,68,260.31,68Z"/><path class="cls-1" d="M260.36,84.85a7.87,7.87,0,0,1,0,1.26A3.75,3.75,0,0,1,260.36,84.85Z"/><path class="cls-1" d="M262.37,73.06v2.47h0V73.05Z"/><path class="cls-1" d="M258.76,81.51V80.2A4.31,4.31,0,0,1,258.76,81.51Z"/><path class="cls-1" d="M260.59,71.24V69.85A3.77,3.77,0,0,1,260.59,71.24Z"/><path class="cls-1" d="M259.58,79.52v2.34h0V79.52Z"/><path class="cls-1" d="M260.15,86.08V84.9a4.62,4.62,0,0,1,.06,1.18Z"/><path class="cls-1" d="M257.32,80.54V78.28h0v2.26Z"/><path class="cls-1" d="M259.83,85.93a3.85,3.85,0,0,1,0-1.46Z"/><path class="cls-1" d="M260.78,60.1v-1h-.07l0,.43h0l0-.4h-.05v.59h-.05l-.06-.57h0l0,.3h0l0-.37h0v.39h-.06a1.16,1.16,0,0,1,0-.41.15.15,0,0,1,.12-.08l1.12,0a.18.18,0,0,1,.18.18c0,.09,0,.17,0,.26q0,2.06.06,4.12c0,.18,0,.36,0,.54s0,.14,0,.23l-.82,0v-.83h0l.05.77H261V62.65h0q0,.71.06,1.41h.06v-.44h.06l.05.57h.06c0-1.2-.09-2.39,0-3.59a3.74,3.74,0,0,1,.05.87c0,.29,0,.58,0,.88s0,.6,0,.89h.05q0-2-.05-4.06h-.05c0,.4,0,.8,0,1.19h-.06q0-.63,0-1.25h-.07v2.25h-.07a1.74,1.74,0,0,1,0-.25c0-.48,0-1,0-1.44a4,4,0,0,0,0-.54l0,.41h-.06l0-.5h-.06V60.1Z"/><path class="cls-1" d="M259.42,63l.07,1.29-.25.08c0-.1,0-.17,0-.25,0-.73,0-1.47,0-2.2,0-.27,0-.55,0-.82,0-.47,0-.94,0-1.42,0-.15,0-.3,0-.45s0-.19.19-.19v1h0l-.05-.66h0c0,.29,0,.58,0,.87s0,.6,0,.9,0,.61,0,.92,0,.6,0,.9a7,7,0,0,0,.12.89l0-.82Z"/><path class="cls-1" d="M261,62.36c0-.87-.12-1.74-.07-2.62H261Z"/><path class="cls-1" d="M261.16,63.45V61.53h0v1.91Z"/><path class="cls-2" d="M257.34,68.5a6.53,6.53,0,0,0-.26.85,6.87,6.87,0,0,0-.09,1.13c0,.88,0,1.77,0,2.65,0,.53,0,1.06,0,1.58,0,.75,0,1.5,0,2.25,0,.11,0,.21,0,.32H257c0-.19,0-.38,0-.58,0-.38,0-.77,0-1.15,0-.87,0-1.74,0-2.6s0-1.88,0-2.81A3.06,3.06,0,0,1,257.34,68.5Z"/><path class="cls-2" d="M257,78.26c.09,1.66,0,3.31,0,5A49,49,0,0,1,257,78.26Z"/><path class="cls-1" d="M221.81,85.7a.91.91,0,0,1-.29-.83,1.76,1.76,0,0,1,.1-.33,2.06,2.06,0,0,0,.11-.45c0-.83.06-1.65.05-2.48,0-.58-.05-1.17-.11-1.74a1.51,1.51,0,0,0-.7-1.15,8.93,8.93,0,0,1-1.51-1.29,2,2,0,0,1-.6-1.47,17.83,17.83,0,0,1,.2-2.64c.14-.89.33-1.78.49-2.67,0-.18.06-.36.08-.54a.33.33,0,0,1,.3-.34c.44-.06.88-.14,1.32-.16a16.87,16.87,0,0,1,2.88.12l.28.06a.38.38,0,0,1,.3.32c.25,1.26.53,2.51.76,3.78a7.48,7.48,0,0,1,.06,2.38,2.85,2.85,0,0,1-1.22,2c-.27.2-.53.42-.79.64a1.6,1.6,0,0,0-.51,1,8.63,8.63,0,0,0-.15,1.22,18.76,18.76,0,0,0,.13,3.14,1.37,1.37,0,0,0,.12.38,1,1,0,0,1,0,.93c-.1.19,0,.34.21.41l.49.11c.33.08.67.15,1,.25.15,0,.33.08.38.28s0,.31-.16.39a2,2,0,0,1-.45.14,13.5,13.5,0,0,1-4,.1,1.92,1.92,0,0,1-.81-.26c-.26-.17-.26-.38,0-.51a5.92,5.92,0,0,1,.74-.25c.3-.09.6-.15.9-.24A2.44,2.44,0,0,0,221.81,85.7Zm.38-16c-.65,0-1.13,0-1.6.08a4.31,4.31,0,0,0-.58.11.23.23,0,0,0-.18.19c-.13.64-.29,1.28-.4,1.92s-.22,1.41-.31,2.13c-.06.5-.09,1-.1,1.51a2.36,2.36,0,0,0,.89,2c.46.38.9.77,1.37,1.14a1.42,1.42,0,0,1,.57.85c0,.14,0,.28.06.42a16.37,16.37,0,0,1,0,3.87,3,3,0,0,1-.13.69,1,1,0,0,0,.09.95.23.23,0,0,1,0,.3.7.7,0,0,1-.28.2c-.29.09-.58.15-.87.23s-.53.12-.78.2a.25.25,0,0,0-.15.18c0,.07.08.14.14.2a.32.32,0,0,0,.15.06c.23,0,.47.1.7.12a13.65,13.65,0,0,0,2.67,0c.46,0,.92-.14,1.38-.22.08,0,.21-.11.2-.16a.6.6,0,0,0-.16-.27.28.28,0,0,0-.15-.06l-.49-.11c-.33-.08-.66-.15-1-.25a.37.37,0,0,1-.26-.53,1.07,1.07,0,0,0,0-.87.78.78,0,0,1-.09-.29c0-.7-.11-1.4-.13-2.1a11.77,11.77,0,0,1,.17-2.61,1.62,1.62,0,0,1,.73-1.12c.19-.12.36-.25.54-.38a3,3,0,0,0,1.31-2.57,11.38,11.38,0,0,0-.22-2.16c-.2-1-.42-2.08-.63-3.13-.06-.3-.1-.35-.42-.38Z"/><path class="cls-2" d="M222.19,69.7l2,.15c.32,0,.36.08.42.38.21,1,.43,2.08.63,3.13a11.38,11.38,0,0,1,.22,2.16,3,3,0,0,1-1.31,2.57c-.18.13-.36.26-.54.38a1.62,1.62,0,0,0-.73,1.12,11.77,11.77,0,0,0-.17,2.61c0,.7.08,1.4.13,2.1a.78.78,0,0,0,.09.29,1.07,1.07,0,0,1,0,.87.37.37,0,0,0,.26.53c.33.09.66.17,1,.25l.49.11a.28.28,0,0,1,.15.06.6.6,0,0,1,.16.27s-.12.14-.2.16c-.46.08-.92.18-1.38.22a13.65,13.65,0,0,1-2.67,0c-.24,0-.47-.08-.7-.12a.32.32,0,0,1-.15-.06c-.06-.06-.14-.13-.14-.2a.25.25,0,0,1,.15-.18c.26-.08.52-.14.78-.2s.59-.14.87-.23a.7.7,0,0,0,.28-.2.23.23,0,0,0,0-.3,1,1,0,0,1-.09-.95,3,3,0,0,0,.13-.69,16.37,16.37,0,0,0,0-3.87c0-.14,0-.28-.06-.42a1.42,1.42,0,0,0-.57-.85c-.46-.37-.91-.76-1.37-1.14a2.36,2.36,0,0,1-.89-2c0-.5,0-1,.1-1.51.08-.71.18-1.42.31-2.13s.27-1.28.4-1.92a.23.23,0,0,1,.18-.19,4.31,4.31,0,0,1,.58-.11C221.06,69.74,221.54,69.73,222.19,69.7Zm-.89,7.84.13.23a1.85,1.85,0,0,1,.1.18l.19.48a.26.26,0,0,0,.27.18c.26,0,.53,0,.79,0a1.34,1.34,0,0,0,.77-.21l1.08-.89a1.18,1.18,0,0,0,.22-.28,3.06,3.06,0,0,0,.48-1.8,14.9,14.9,0,0,0-.3-2.37c-.19-1-.4-1.94-.6-2.92,0-.13-.1-.14-.21-.13l-.52.08.47,2.77h0l-.42-2.7h.07l.3,1.4a.63.63,0,0,0,0-.31l-.2-1a.54.54,0,0,1,0-.14l.15.13.11-.12c0,.18.05.31.08.45.21,1,.42,1.94.62,2.91a10,10,0,0,1,.18,2.16c0,.07,0,.14,0,.22H225c-.06-.6-.12-1.21-.19-1.81s-.17-1.2-.28-1.8-.25-1.19-.38-1.79h-.06a29.27,29.27,0,0,1,.78,5.39c-1.54,0-3.06-.09-4.56,0l.18,0a3.42,3.42,0,0,0,.27,1.13,2.31,2.31,0,0,1-.13-1.13h.28c0,.26.06.5.11.74S221.21,77.24,221.3,77.54Zm1.43,6.9c0-.51-.1-1-.13-1.47a16.07,16.07,0,0,1,.13-3.3,2.39,2.39,0,0,1,.37-1c-.29,0-.54.05-.79,0s-.51,0-.76-.06l.42.79.22-.12,0-.4h0l.07.16,0-.09,0,.09.09-.16a.23.23,0,0,1,0,.16c0,.13-.1.26.08.35s0,.1,0,.15,0,.14,0,.21a33.87,33.87,0,0,0,0,4.13c0,.06,0,.13,0,.19s0,.15,0,.25l-.24,0,0-.43h0v.51Zm-1.58-6,0,0a2.38,2.38,0,0,0-.38-.4c-.17-.11-.16-.33-.33-.43l-.09-.07-.5-.33s0-.07-.06-.1l-.14-.29c-.09-.19-.19-.38-.27-.58a.76.76,0,0,1,0-.28c-.12-.07-.13-.07-.12-.24s0-.58.07-.87,0-.31,0-.46h0l-.12,1.4h0a7.17,7.17,0,0,1,.12-1.71c.06-.58.15-1.15.23-1.72a.4.4,0,0,0-.08.19l-.18,1.14a11.32,11.32,0,0,0-.19,2.07,2,2,0,0,0,.6,1.5c.44.41.89.8,1.34,1.2Zm2.34,7.92h.25l-.14.13.51-.06v.06l-.71.12v0l.77-.06a9.12,9.12,0,0,1-2.45.2,7.26,7.26,0,0,0,3-.3A2.23,2.23,0,0,0,223.49,86.36Zm.79-10.88a33.43,33.43,0,0,0-.69-4.89C223.83,72.21,224.16,73.83,224.28,75.47Zm-.38.17a25.34,25.34,0,0,0-.6-4.5C223.51,72.66,223.82,74.14,223.9,75.65Zm-2.11,9.27c0,.35.1.61.36.68a.65.65,0,0,0,.72-.24.71.71,0,0,0-.18-.79c0,.12.06.22.08.33.07.36,0,.53-.41.61l-.12,0a.27.27,0,0,1-.31-.17C221.87,85.2,221.82,85,221.78,84.92Zm-1.22-9.42h0l.17-2.72a12.28,12.28,0,0,0-.16,1.36C220.59,74.59,220.58,75,220.56,75.5Zm.2,0h.07q0-1.09.08-2.19h-.06Zm-1.13-3.85h0a3.82,3.82,0,0,0,.24-1.53Zm2.31,12.61a7.87,7.87,0,0,0,.17-2.26A21.25,21.25,0,0,1,221.94,84.23Zm-1.77-8.86h.07l.18-2.15h0Zm2.26,10.36s0,0,0,.05l-.17,0,.69.15-.16-.32-.7,0ZM221,73.64a17.18,17.18,0,0,0-.06,1.81H221Zm2.59,1.62h.07l-.23-1.91h0Zm-.81-2.67h0l.14,2.24h0Zm-.49,8.64h0l.05,2.18h0Zm2-9.07h-.05l.25,1.49A6.82,6.82,0,0,0,224.34,72.16Z"/><path class="cls-1" d="M221.3,77.54c-.08-.29-.18-.58-.25-.88s-.07-.48-.11-.74h-.28a2.31,2.31,0,0,0,.13,1.13,3.42,3.42,0,0,1-.27-1.13l-.18,0c1.51-.13,3-.05,4.56,0a29.27,29.27,0,0,0-.78-5.39h.06c.13.6.27,1.19.38,1.79s.2,1.2.28,1.8.13,1.21.19,1.81h.06c0-.07,0-.14,0-.22a10,10,0,0,0-.18-2.16c-.19-1-.41-1.94-.62-2.91,0-.14-.05-.27-.08-.45l-.11.12-.15-.13a.54.54,0,0,0,0,.14l.2,1a.63.63,0,0,1,0,.31l-.3-1.4h-.07l.42,2.7h0l-.47-2.77.52-.08c.1,0,.18,0,.21.13.2,1,.41,1.94.6,2.92a14.9,14.9,0,0,1,.3,2.37,3.06,3.06,0,0,1-.48,1.8,1.18,1.18,0,0,1-.22.28l-1.08.89a1.34,1.34,0,0,1-.77.21c-.26,0-.52,0-.79,0a.26.26,0,0,1-.27-.18l-.19-.48a1.85,1.85,0,0,0-.1-.18c-.06-.27-.12-.55-.17-.82s-.08-.45-.12-.68A3.39,3.39,0,0,0,221.3,77.54Zm1.18.83h0l.2-2.25h-.07l-.1,1.11h0c0-.13,0-.26,0-.39h0l0,.46c-.14-.42,0-.86-.08-1.28a8.16,8.16,0,0,0,0,2.34c.14-.2-.05-.42.11-.59Zm-1-1.15h0L221.27,76a4.3,4.3,0,0,0,.43,2.15c0-.36-.13-.72-.17-1.09s-.06-.74-.08-1.11h-.08Zm1.25,1A8.45,8.45,0,0,0,223,76h-.06Zm-.87-.27L221.63,76h-.05A5.82,5.82,0,0,0,221.85,77.95ZM223.62,76h-.06L223.27,78A6.43,6.43,0,0,0,223.62,76Zm-1.47,2.22h0V76A10.88,10.88,0,0,0,222.15,78.25Zm-.14-2.3a3.88,3.88,0,0,0,0,1.72Zm2.11.05-.52,1.88A5.63,5.63,0,0,0,224.12,76ZM223,77.56h0c0-.26.06-.53.09-.8a2.3,2.3,0,0,0,0-.79h-.07Zm-.35.21a5.07,5.07,0,0,0,.11-1.81Zm.53-.26a2.76,2.76,0,0,0,.18-1.46Zm-1.31,0c-.09-.49,0-1-.11-1.48A4.71,4.71,0,0,0,221.9,77.49Zm3-1.28-.59,1.26A2.38,2.38,0,0,0,224.94,76.22Z"/><path class="cls-1" d="M222.72,84.44h-.44v-.51h0l0,.43.24,0c0-.09,0-.17,0-.25s0-.12,0-.19a33.87,33.87,0,0,1,0-4.13c0-.07,0-.14,0-.21s0-.14,0-.15-.11-.22-.08-.35a.23.23,0,0,0,0-.16l-.09.16,0-.09,0,.09L222.2,79h0l0,.4-.22.12-.42-.79c.25,0,.51.06.76.06s.5,0,.79,0a2.39,2.39,0,0,0-.37,1,16.07,16.07,0,0,0-.13,3.3C222.63,83.45,222.68,83.93,222.72,84.44Z"/><path class="cls-1" d="M221.15,78.44l-.1-.05c-.45-.4-.9-.79-1.34-1.2a2,2,0,0,1-.6-1.5,11.32,11.32,0,0,1,.19-2.07l.18-1.14a.4.4,0,0,1,.08-.19c-.08.57-.17,1.15-.23,1.72a7.17,7.17,0,0,0-.12,1.71h0l.12-1.4h0c0,.15,0,.31,0,.46s-.05.58-.07.87,0,.16.12.24a.76.76,0,0,0,0,.28c.07.2.18.39.27.58l.14.29s0,.08.06.1l.5.33.09.07c.17.1.16.32.33.43a2.38,2.38,0,0,1,.38.4Z"/><path class="cls-1" d="M223.49,86.36a2.23,2.23,0,0,1,1.29.11,7.26,7.26,0,0,1-3,.3,9.12,9.12,0,0,0,2.45-.2l-.77.06v0l.71-.12v-.06l-.51.06.14-.13Z"/><path class="cls-1" d="M224.28,75.47c-.12-1.64-.45-3.26-.69-4.89A33.43,33.43,0,0,1,224.28,75.47Z"/><path class="cls-1" d="M223.9,75.65c-.08-1.51-.38-3-.6-4.5A25.34,25.34,0,0,1,223.9,75.65Z"/><path class="cls-1" d="M221.78,84.92c0,.12.09.28.15.43a.27.27,0,0,0,.31.17l.12,0c.36-.08.48-.25.41-.61,0-.1-.05-.21-.08-.33a.71.71,0,0,1,.18.79.65.65,0,0,1-.72.24C221.88,85.52,221.75,85.27,221.78,84.92Z"/><path class="cls-1" d="M220.56,75.5c0-.45,0-.91.06-1.36a12.28,12.28,0,0,1,.16-1.36l-.17,2.72Z"/><path class="cls-1" d="M220.76,75.46l.09-2.19h.06q0,1.09-.08,2.19Z"/><path class="cls-1" d="M219.63,71.62l.29-1.52a3.82,3.82,0,0,1-.24,1.53Z"/><path class="cls-1" d="M221.94,84.23a21.25,21.25,0,0,0,.17-2.26A7.87,7.87,0,0,1,221.94,84.23Z"/><path class="cls-1" d="M220.17,75.37l.22-2.15h0l-.18,2.15Z"/><path class="cls-1" d="M222.43,85.73l-.35,0,.7,0,.16.32-.69-.15.17,0S222.43,85.74,222.43,85.73Z"/><path class="cls-1" d="M221,73.64v1.81H221A17.18,17.18,0,0,1,221,73.64Z"/><path class="cls-1" d="M223.62,75.26l-.2-1.91h0l.23,1.91Z"/><path class="cls-1" d="M222.81,72.59l.16,2.24h0l-.14-2.24Z"/><path class="cls-2" d="M221.3,77.54a3.39,3.39,0,0,1-.17-1.27c0,.23.08.45.12.68s.12.55.17.82Z"/><path class="cls-1" d="M222.32,81.23l0,2.17h0l-.05-2.18Z"/><path class="cls-1" d="M224.34,72.16a6.82,6.82,0,0,1,.2,1.5l-.25-1.49Z"/><path class="cls-2" d="M222.48,78.37v-.61c-.17.17,0,.38-.11.59a8.16,8.16,0,0,1,0-2.34c.11.42-.05.85.08,1.28l0-.46h0c0,.13,0,.26,0,.39h0l.1-1.11h.07l-.2,2.25Z"/><path class="cls-2" d="M221.47,77.21l-.1-1.25h.08c0,.37,0,.74.08,1.11s.12.72.17,1.09a4.3,4.3,0,0,1-.43-2.15l.16,1.22Z"/><path class="cls-2" d="M222.72,78.22l.23-2.22H223A8.45,8.45,0,0,1,222.72,78.22Z"/><path class="cls-2" d="M221.85,77.95a5.82,5.82,0,0,1-.27-1.92h.05Z"/><path class="cls-2" d="M223.62,76a6.43,6.43,0,0,1-.35,1.95l.29-1.95Z"/><path class="cls-2" d="M222.15,78.25a10.88,10.88,0,0,1,0-2.27v2.27Z"/><path class="cls-2" d="M222,75.95v1.72A3.88,3.88,0,0,1,222,75.95Z"/><path class="cls-2" d="M224.12,76a5.63,5.63,0,0,1-.52,1.88Z"/><path class="cls-2" d="M223,77.56l.11-1.58h.07a2.3,2.3,0,0,1,0,.79c0,.27-.06.53-.09.8Z"/><path class="cls-2" d="M222.67,77.76l.11-1.81A5.07,5.07,0,0,1,222.67,77.76Z"/><path class="cls-2" d="M223.2,77.5l.18-1.46A2.76,2.76,0,0,1,223.2,77.5Z"/><path class="cls-2" d="M221.9,77.49a4.71,4.71,0,0,1-.11-1.48C221.91,76.5,221.8,77,221.9,77.49Z"/><path class="cls-2" d="M224.94,76.22a2.38,2.38,0,0,1-.59,1.26Z"/></g><g id="text"><text class="cls-3" transform="translate(50.63 18.02) scale(1.01 1)">THE BREUKELEN</text><text class="cls-4" transform="translate(117.89 42.47) scale(1.01 1)">WINES<tspan class="cls-5"><tspan x="8.14" y="39.2">RED</tspan></tspan><tspan class="cls-6"><tspan x="-117" y="55.2">JOSH CELLARS – PI N</tspan><tspan class="cls-7" x="-47.73" y="55.2">O</tspan><tspan class="cls-8" x="-42.35" y="55.2">T</tspan><tspan x="-38.43" y="55.2" xml:space="preserve"> NOIR, 2015..............................................................11</tspan><tspan class="cls-9" x="110.82" y="55.2">	</tspan><tspan x="135.01" y="55.2">42</tspan><tspan class="cls-10" x="-117" y="63.2">C</tspan><tspan x="-112.4" y="63.2">e</tspan><tspan class="cls-11" x="-108.7" y="63.2">n</tspan><tspan x="-104.84" y="63.2">t</tspan><tspan class="cls-12" x="-102.33" y="63.2">r</tspan><tspan x="-99.84" y="63.2">al </tspan><tspan class="cls-10" x="-92.92" y="63.2">C</tspan><tspan x="-88.31" y="63.2">oast</tspan><tspan x="-117" y="79.2">GRAFFIGN</tspan><tspan class="cls-13" x="-82.43" y="79.2">A</tspan><tspan x="-77.93" y="79.2" xml:space="preserve"> – MALB</tspan><tspan class="cls-14" x="-50.92" y="79.2">E</tspan><tspan x="-46.99" y="79.2">C, 2015...........................................................................12</tspan><tspan class="cls-15" x="109.33" y="79.2">	</tspan><tspan x="135.01" y="79.2">46</tspan><tspan class="cls-16" x="-117" y="87.2">A</tspan><tspan class="cls-17" x="-112.28" y="87.2">r</tspan><tspan class="cls-18" x="-109.81" y="87.2">g</tspan><tspan x="-106.23" y="87.2">e</tspan><tspan class="cls-11" x="-102.53" y="87.2">n</tspan><tspan x="-98.67" y="87.2">tina</tspan><tspan x="-117" y="103.2">HER</tspan><tspan class="cls-19" x="-103.23" y="103.2">D</tspan><tspan x="-98.04" y="103.2">ADE DO PESO –</tspan><tspan class="cls-13" x="-45.93" y="103.2"> </tspan><tspan x="-44.37" y="103.2">ALENTEJ</tspan><tspan class="cls-20" x="-15.52" y="103.2">O</tspan><tspan x="-10.1" y="103.2">, 2012.......................................................14</tspan><tspan class="cls-21" x="108.51" y="103.2">	</tspan><tspan x="135.01" y="103.2">55</tspan><tspan class="cls-20" x="-117" y="111.2">P</tspan><tspan x="-112.98" y="111.2">ortugal</tspan><tspan x="4.63" y="119.2">WHITE</tspan><tspan class="cls-7" x="-117" y="135.2">T</tspan><tspan x="-113.09" y="135.2">ORRE DE MEN</tspan><tspan class="cls-22" x="-65.84" y="135.2">A</tspan><tspan x="-61.23" y="135.2">GEM –</tspan><tspan class="cls-13" x="-39.72" y="135.2"> </tspan><tspan x="-38.16" y="135.2">A</tspan><tspan class="cls-23" x="-33.42" y="135.2">L</tspan><tspan class="cls-24" x="-30.45" y="135.2">V</tspan><tspan x="-26.09" y="135.2">ARINH</tspan><tspan class="cls-20" x="-4.31" y="135.2">O</tspan><tspan class="cls-25" x="1.11" y="135.2">, 2014.................................................10</tspan><tspan class="cls-26" x="109.8" y="135.2">	</tspan><tspan x="135.01" y="135.2">38</tspan><tspan class="cls-20" x="-117" y="143.2">P</tspan><tspan x="-112.98" y="143.2">ortugal</tspan><tspan class="cls-10" x="-117" y="159.2">B</tspan><tspan x="-112.55" y="159.2">A</tspan><tspan class="cls-11" x="-107.81" y="159.2">R</tspan><tspan x="-103.47" y="159.2">ONE FINI</tspan><tspan class="cls-27" x="-73.47" y="159.2"> </tspan><tspan class="cls-24" x="-71.93" y="159.2">V</tspan><tspan x="-67.57" y="159.2">AL</tspan><tspan class="cls-19" x="-59.23" y="159.2">D</tspan><tspan x="-54.04" y="159.2">ADIGE – PIN</tspan><tspan class="cls-28" x="-13.71" y="159.2">O</tspan><tspan class="cls-8" x="-8.33" y="159.2">T</tspan><tspan x="-4.41" y="159.2" xml:space="preserve"> GRIGI</tspan><tspan class="cls-29" x="15.91" y="159.2">O</tspan><tspan x="21.33" y="159.2">, 2015.....................................12</tspan><tspan class="cls-30" x="110.2" y="159.2">	</tspan><tspan x="135.01" y="159.2">46</tspan><tspan class="cls-31" x="-117" y="167.2">I</tspan><tspan x="-115.14" y="167.2">tal</tspan><tspan class="cls-32" x="-107.5" y="167.2">y</tspan><tspan x="-117" y="183.2">NA</tspan><tspan class="cls-33" x="-106.92" y="183.2">P</tspan><tspan class="cls-13" x="-103.07" y="183.2">A</tspan><tspan x="-98.56" y="183.2" xml:space="preserve"> CELLARS – </tspan><tspan class="cls-34" x="-60.3" y="183.2">S</tspan><tspan class="cls-35" x="-56.59" y="183.2">A</tspan><tspan x="-51.97" y="183.2">UVIGNON BLANC, 2015..............................................13</tspan><tspan class="cls-36" x="109.7" y="183.2">	</tspan><tspan x="135.01" y="183.2">50</tspan><tspan class="cls-37" x="-117" y="191.2">N</tspan><tspan x="-111.76" y="191.2">apa</tspan><tspan class="cls-27" x="-100.88" y="191.2"> </tspan><tspan class="cls-38" x="-99.34" y="191.2">V</tspan><tspan x="-95.12" y="191.2">all</tspan><tspan class="cls-39" x="-88.33" y="191.2">e</tspan><tspan class="cls-40" x="-84.73" y="191.2">y</tspan><tspan class="cls-11" x="7.1" y="199.2">R</tspan><tspan x="11.44" y="199.2">OSÉ</tspan><tspan x="-117" y="215.2">FLEURS DE PRAIRIE, 2015..................................................................................13</tspan><tspan class="cls-41" x="109.76" y="215.2">	</tspan><tspan x="135.01" y="215.2">50</tspan><tspan class="cls-10" x="-117" y="223.2">C</tspan><tspan class="cls-42" x="-112.4" y="223.2">o</tspan><tspan class="cls-43" x="-108.49" y="223.2">t</tspan><tspan x="-106" y="223.2">es </tspan><tspan class="cls-11" x="-97.48" y="223.2">D</tspan><tspan x="-92.2" y="223.2">e </tspan><tspan class="cls-44" x="-86.72" y="223.2">P</tspan><tspan class="cls-45" x="-82.58" y="223.2">r</tspan><tspan class="cls-46" x="-80.17" y="223.2">ov</tspan><tspan x="-72.79" y="223.2">en</tspan><tspan class="cls-42" x="-65.19" y="223.2">c</tspan><tspan x="-61.91" y="223.2">e, </tspan><tspan class="cls-47" x="-54.83" y="223.2">F</tspan><tspan class="cls-12" x="-51.17" y="223.2">r</tspan><tspan x="-48.68" y="223.2">an</tspan><tspan class="cls-48" x="-41.3" y="223.2">c</tspan><tspan x="-38.02" y="223.2">e</tspan><tspan x="-117" y="239.2">HOUSE</tspan><tspan class="cls-49" x="-93.07" y="239.2"> </tspan><tspan x="-91.37" y="239.2">WINES........................................................................................................7</tspan><tspan class="cls-50" x="106.9" y="239.2">	</tspan><tspan x="135.01" y="239.2">28</tspan><tspan class="cls-18" x="-117" y="247.2">(</tspan><tspan class="cls-45" x="-115.19" y="247.2">r</tspan><tspan x="-112.78" y="247.2">ed,</tspan><tspan class="cls-45" x="-103.58" y="247.2"> </tspan><tspan x="-101.93" y="247.2">whi</tspan><tspan class="cls-43" x="-90.85" y="247.2">t</tspan><tspan x="-88.35" y="247.2">e, </tspan><tspan class="cls-45" x="-81.28" y="247.2">r</tspan><tspan x="-78.87" y="247.2">osé and sparkling)</tspan></tspan></text><text class="cls-4" transform="translate(115.91 306.01) scale(1.01 1)">DRINKS<tspan class="cls-6"><tspan x="-114.82" y="37">FRESH MIMO</tspan><tspan class="cls-39" x="-70.94" y="37">S</tspan><tspan x="-67.23" y="37">A.........................................................................................................7</tspan><tspan x="-114.82" y="50">STR</tspan><tspan class="cls-47" x="-102.5" y="50">A</tspan><tspan x="-98.07" y="50">WBER</tspan><tspan class="cls-51" x="-77.86" y="50">R</tspan><tspan class="cls-52" x="-73.67" y="50">Y</tspan><tspan x="-69.76" y="50">-GINGER BELLINI............................................................................8</tspan><tspan x="-114.82" y="65">CAIPIRINHA...............................................................................................................10</tspan><tspan x="-114.82" y="80">STR</tspan><tspan class="cls-47" x="-102.5" y="80">A</tspan><tspan x="-98.07" y="80">WBER</tspan><tspan class="cls-51" x="-77.86" y="80">R</tspan><tspan class="cls-53" x="-73.67" y="80">Y</tspan><tspan x="-69.58" y="80" xml:space="preserve"> M</tspan><tspan class="cls-54" x="-61.29" y="80">O</tspan><tspan x="-55.94" y="80">JI</tspan><tspan class="cls-7" x="-51.02" y="80">T</tspan><tspan class="cls-55" x="-47.11" y="80">O</tspan><tspan x="-41.67" y="80">...........................................................................................11</tspan><tspan x="-114.82" y="95">OLD </tspan><tspan class="cls-56" x="-98.51" y="95">F</tspan><tspan x="-94.95" y="95">ASHION...........................................................................................................12</tspan><tspan x="-20.42" y="113.8">SIGN</tspan><tspan class="cls-57" x="-4.2" y="113.8">A</tspan><tspan x="0.04" y="113.8">TURE </tspan><tspan class="cls-46" x="19.54" y="113.8">C</tspan><tspan x="24.12" y="113.8">OCK</tspan><tspan class="cls-58" x="39.04" y="113.8">T</tspan><tspan x="42.68" y="113.8">AILS</tspan><tspan x="-114.82" y="130.6">NU BREUKELEN.........................................................................................................12</tspan><tspan class="cls-59" x="-114.82" y="138.6">(</tspan><tspan x="-113.08" y="138.6">a</tspan><tspan class="cls-12" x="-109.61" y="138.6">g</tspan><tspan x="-106.02" y="138.6">ed rum, ama</tspan><tspan class="cls-45" x="-68.31" y="138.6">r</tspan><tspan x="-65.9" y="138.6">o, apri</tspan><tspan class="cls-42" x="-46.92" y="138.6">co</tspan><tspan x="-39.74" y="138.6">t, peach and ca</tspan><tspan class="cls-60" x="6.21" y="138.6">r</tspan><tspan x="8.62" y="138.6">damo</tspan><tspan class="cls-61" x="25.75" y="138.6">m</tspan><tspan x="31.38" y="138.6">)</tspan><tspan x="-114.82" y="155">L</tspan><tspan class="cls-13" x="-111.23" y="155">A</tspan><tspan x="-106.72" y="155" xml:space="preserve"> MANA.....................................................................................................................12</tspan><tspan class="cls-59" x="-114.82" y="163">(</tspan><tspan class="cls-43" x="-113.08" y="163">t</tspan><tspan x="-110.59" y="163">equila, pineapple, gin</tspan><tspan class="cls-12" x="-46.39" y="163">g</tspan><tspan x="-42.81" y="163">e</tspan><tspan class="cls-62" x="-39.11" y="163">r</tspan><tspan x="-36.71" y="163" xml:space="preserve"> and nutmeg)</tspan><tspan x="-114.82" y="179.4">CAP</tspan><tspan class="cls-58" x="-101.2" y="179.4">T</tspan><tspan x="-97.56" y="179.4">AIN.......................................................................................................................12</tspan><tspan x="-114.82" y="187.4">(gin, car</tspan><tspan class="cls-45" x="-90.97" y="187.4">r</tspan><tspan class="cls-42" x="-88.57" y="187.4">o</tspan><tspan x="-84.66" y="187.4">t, gin</tspan><tspan class="cls-18" x="-69.55" y="187.4">g</tspan><tspan x="-65.96" y="187.4">e</tspan><tspan class="cls-63" x="-62.27" y="187.4">r</tspan><tspan x="-59.87" y="187.4" xml:space="preserve"> and cinnamo</tspan><tspan class="cls-61" x="-18.94" y="187.4">n</tspan><tspan x="-15.15" y="187.4">)</tspan><tspan x="-114.82" y="203.8">M</tspan><tspan class="cls-22" x="-108.32" y="203.8">A</tspan><tspan x="-103.71" y="203.8">GIC O</tspan><tspan class="cls-64" x="-84.57" y="203.8">F</tspan><tspan x="-80.77" y="203.8" xml:space="preserve"> SPRING....................................................................................................12</tspan><tspan class="cls-64" x="-114.82" y="211.8">(</tspan><tspan class="cls-46" x="-113.11" y="211.8">v</tspan><tspan x="-109.6" y="211.8">odka, cucumbe</tspan><tspan class="cls-65" x="-63.43" y="211.8">r</tspan><tspan x="-61.16" y="211.8">, mi</tspan><tspan class="cls-11" x="-50.35" y="211.8">n</tspan><tspan x="-46.49" y="211.8">t, bi</tspan><tspan class="cls-43" x="-35" y="211.8">tt</tspan><tspan x="-30.24" y="211.8">e</tspan><tspan class="cls-66" x="-26.54" y="211.8">r</tspan><tspan class="cls-67" x="-24.01" y="211.8">s</tspan><tspan x="-21.14" y="211.8">)</tspan><tspan x="-114.82" y="228.2">PINK</tspan><tspan class="cls-27" x="-98.68" y="228.2"> </tspan><tspan class="cls-68" x="-97.14" y="228.2">V</tspan><tspan class="cls-69" x="-92.54" y="228.2">O</tspan><tspan class="cls-58" x="-87.2" y="228.2">Y</tspan><tspan class="cls-70" x="-83.32" y="228.2">A</tspan><tspan x="-78.71" y="228.2">GE.............................................................................................................12</tspan><tspan class="cls-64" x="-114.82" y="236.2">(</tspan><tspan class="cls-46" x="-113.11" y="236.2">v</tspan><tspan x="-109.6" y="236.2">odka,</tspan><tspan class="cls-45" x="-93.08" y="236.2"> </tspan><tspan class="cls-71" x="-91.44" y="236.2">wa</tspan><tspan class="cls-43" x="-82.55" y="236.2">t</tspan><tspan x="-80.05" y="236.2">ermelon, lemon, mi</tspan><tspan class="cls-11" x="-21.65" y="236.2">n</tspan><tspan x="-17.79" y="236.2">t)</tspan></tspan></text><text></text></g></g></svg>