<?xml version="1.0" encoding="utf-8"?>
<!-- Generator: Adobe Illustrator 21.1.0, SVG Export Plug-In . SVG Version: 6.00 Build 0)  -->
<svg version="1.1" id="Layer_1" xmlns="http://www.w3.org/2000/svg" xmlns:xlink="http://www.w3.org/1999/xlink" x="0px" y="0px"
	 viewBox="0 0 595.3 841.9" style="enable-background:new 0 0 595.3 841.9;" xml:space="preserve">
<style type="text/css">
	.st0{fill-rule:evenodd;clip-rule:evenodd;}
	.st1{fill-rule:evenodd;clip-rule:evenodd;fill:none;}
</style>
<g>
	<g>
		<path class="st0" d="M281.6,447.8c-1.5-5.2-0.2-9.5,2.7-13.6c1.1-1.6,1.2-4.4,0.9-6.6c-1.9-12.8,1.4-23.9,10.1-33.1
			c10.7-11.3,21.7-22.4,32.9-33.2c30.9-30,62-59.9,93.1-89.7c19.9-19,40-37.8,59.9-56.8c7.4-7,14.2-14.6,21.4-21.9
			c8.4-8.5,17.3-16.6,28.8-20.7c8.8-3.1,17.7-4,27.1-0.2c5,2.1,9.8,3.8,13,8.3c7.3,10.3,9,20.9,4.2,32.9
			c-3.5,8.7-9.7,14.4-16.7,20.1c-7,5.7-13.4,12.1-19.8,18.5C482.4,308.6,425.8,365.4,369,422c-13.6,13.6-27.8,26.6-41.8,39.8
			c-2,1.9-4.8,3-7.2,4.5c-0.8,0.5-1.9,0.8-2.4,1.5c-2.9,4-6.9,5.2-11.8,4.8c-2.1,6-4.9,11.1-11.4,12.8c-0.2,0-0.5,0.1-0.5,0.2
			c-2.9,7-12.2,7.9-14.5,15.5c-0.3,0.9-1,1.7-1.7,2.3c-9.2,9-18,18.5-27.9,26.7c-6.7,5.6-12.5,11.7-18,18.3
			c-7.9,9.6-15.9,19.3-23.6,29.1c-2.1,2.7-3.2,6.1-4.9,9c-5.8,9.9-11.5,19.9-17.5,29.7c-3.1,5-6,10.8-10.6,14.1
			c-8,5.8-11.8,14.8-18.7,21.3c-8.4,7.8-16,16.8-26.6,21.6c-6.7,3.1-14,5.3-21.2,7.1c-9.6,2.3-17.3-3.1-24.6-8.2
			c-7.9-5.6-11.3-14.3-13.3-23.2c-0.8-3.5,0.2-7.7,1.5-11.2c2.2-6.1,4.5-12.3,7.9-17.7c9.1-14.5,21.7-25.8,35.8-35.4
			c7.5-5.1,14.4-10.8,21.8-15.9c6.6-4.6,13.4-9,20.3-13.1c17.4-10.3,32.4-23.4,46.1-38.1c12.6-13.5,25.2-27,37.9-40.4
			c5.1-5.3,10.6-9.6,18.2-11.7c3.6-1,6.6-5.4,8.9-9C272.1,451.9,275,447.9,281.6,447.8z M293.3,401c0.2,0,0.3,0.1,0.5,0.1
			c51.2-48.9,102.3-97.9,153.4-146.8c0.3,0.3,0.7,0.6,1,1c-1.2,1.3-2.3,2.6-3.6,3.9c-10.8,10.2-21.7,20.2-32.3,30.5
			c-38.8,37.6-77.5,75.3-116.3,112.9c-1.7,1.7-4.2,2.6-5.6,4.5c-5,6.6-4.1,20.8,1.6,26.6c8.7,9.1,17.6,18,26.7,27.2
			c1.7-1.2,3.4-2.1,4.7-3.4c16.9-16,33.9-31.9,50.4-48.3c55.7-55.5,111.2-111.3,166.7-167c8.8-8.8,17.7-17.6,26.3-26.7
			c6-6.3,7.4-13.9,4.4-23c-2.6,2-4.8,3.4-6.7,5.2c-13.5,12.9-26.8,26-40.2,38.9c-12.9,12.4-25.8,24.8-38.7,37.1
			c-1,1-2.2,1.8-3.4,2.7c2.2-3.7,5-6.5,7.9-9.2c19.6-19.1,39.1-38.2,58.7-57.1c7.1-6.9,14.6-13.5,22.5-20.9
			c-0.9-1.7-2.2-4.1-3.4-6.3c-1.1,0.4-1.3,0.4-1.4,0.5c-39.2,37.2-78.5,74.3-117.7,111.5c-0.4,0.4-1,0.6-1.5,0.9
			c-0.1,0-0.3-0.1-0.4-0.2c-0.2-0.1-0.3-0.3-0.3-0.3c39.7-37.9,79.3-75.8,119.1-113.6c-5.2-5-5.4-5.1-9.4-1.2
			c-14.4,13.7-28.7,27.3-43.1,41c-1,1-2.3,1.8-3.5,2.7c-0.3-0.4-0.5-0.7-0.8-1c15.6-16.6,33.8-30.4,49.3-47.3
			c-6.8-3.7-6.8-3.5-11.2,1.2c-6,6.3-12,12.5-18.3,18.5c-13.1,12.5-26.2,24.9-39.4,37.3c-0.6,0.5-1.4,0.8-2.1,1.1
			c-0.3-0.3-0.6-0.7-0.8-1c3.9-3.9,7.8-7.8,11.8-11.6c12.6-11.8,25.4-23.5,37.9-35.4c4.1-3.9,7.5-8.4,11.2-12.6
			c-0.4-0.4-0.8-0.8-1.2-1.2c-5.1,1.5-6.9,6.8-10.4,10c-4,3.6-7.4,7.8-11.2,11.6c-3.7,3.7-7.5,7.1-11.3,10.7
			c-3.8,3.5-7.7,7-11.4,10.6c-3.9,3.7-7.7,7.5-11.6,11.2c-3.5,3.5-7.1,7-10.6,10.5c-0.4-0.4-0.8-0.8-1.2-1.2
			c19.6-21.4,43.3-38.7,61.4-61.9c-2.5,0-5.2-0.2-7.2,0.9c-6.4,3.7-13.2,7.2-18.8,12c-8.8,7.7-16.6,16.5-25.1,24.6
			c-37.2,35.6-74.7,71-111.8,106.8c-25.9,24.9-51.4,50.3-77.1,75.5C297.4,395.7,295.4,398.4,293.3,401z M276.7,478.4
			c-0.5,0.6-1,1.2-1.5,1.8c-1.9-1-4.1-1.6-5.7-3c-1.7-1.5-3-3.6-4.3-5.5c-3-4.2-4.2-4.9-8.7-2.7c-3.7,1.8-7.5,4.1-10.4,7
			c-10,10.1-19.7,20.5-29.5,30.9c-0.2,0.2-0.2,0.7-0.7,2.1c7.7-7.6,14.6-14.4,21.6-21.2c-3.3,5-7.2,9.5-11.3,13.8
			c-3.7,3.9-7.5,7.7-11.3,11.5c-3.7,3.7-6.7,8.6-11.1,10.8c-5.1,2.5-6.5,7.3-9.9,10.7c-4.5,4.4-9.4,8.5-14.6,12.2
			c-9.9,7.2-20.1,14-30.3,21c-1.4,1-3,1.8-4.5,2.7c-0.2-0.4-0.5-0.7-0.7-1.1c4.7-3.4,9.5-6.8,14.3-10.3c-5.5,2.1-10.5,5-15.2,8.2
			c-3.2,2.2-5.8,5.2-9,7.4c-3.5,2.5-7.4,4.4-11.1,6.7c-2.1,1.3-3.1,3.1-2.7,5.6c2.2-0.9,4.2-1.6,6-2.6c5.3-2.9,12.1-2.9,15.2-9.8
			c1.5-3.5,5.9-3.2,8.8-0.2c1.5,1.5,2.5,3.5,3.9,5.1c1.3,1.4,2.9,2.6,4.6,4.1c1.2-2.4,2-4,3.2-6.5c1.6,1.8,2.6,3,3.7,4.2
			c0.9,1,1.8,2.3,2.9,2.7c2.1,0.7,2.9-1,3.6-2.7c1.1-2.5,2.4-4.8,3.6-7.1c-2.8-6.1-1.9-14.8,2.1-19.8c1.7-2.2,3.7-1.5,4.7,0.4
			c0.9,1.7,0.8,4,1.1,6c-0.5,0.1-0.9,0.2-1.4,0.2c-0.6-1.3-1.1-2.7-1.9-4.3c-4.8,8-4.8,8,0,10.9c2.4-1.9,4.6-4.2,7.2-5.6
			c2.4-1.3,3.6-2.6,3.1-5.4c-0.4-2.5,0.1-4.7,2.6-5.8c4-1.7,8-3.6,12.1-4.9c1.5-0.5,3.5,0.5,5.2,0.7c-0.4,1.9-0.4,4.3-1.5,5.7
			c-1.5,1.9-3.8,3-6.1,4.7c0.8,1.5,1.5,2.9,2.6,5c7.7-9.2,14.7-18.2,22.4-26.5c7.5-8.2,15.6-15.9,23.7-23.6
			c8-7.7,16.3-15.1,24.5-22.7c0.4,0.4,0.9,0.8,1.3,1.2c-1.3,1.4-2.5,3-3.9,4.3C254,513.9,233,531,216.7,552.7
			c-4,5.3-9.4,9.7-13.3,15c-5.3,7.2-9.9,14.9-14.6,22.5c-3.9,6.3-7.4,12.8-11.1,19.3c-0.2,0.3,0.1,0.9,0.4,2.1
			c0.8-1.1,1.2-1.7,1.6-2.3c12-18.5,22-38.3,37.1-54.6c12.3-13.2,24.7-26.3,37.3-39.2c5.5-5.6,11.4-10.9,17.1-16.3
			c3-2.8,5.2-6.7,10-6.9c0.7,0,1.4-1.2,1.9-1.8c-0.3-2-1.4-4.3-0.7-5.5c0.7-1.2,3.1-1.4,5-2.2c-6.7-6-13.4-12-20-17.9
			C267.8,471.3,272.9,474.4,276.7,478.4z M108.7,632.6c0.4-0.1,0.7-0.1,1.1-0.2c0.7,2.2,0.8,5,2.3,6.5c4.4,4.5,9.9,5.7,15.9,3.8
			c1.8-0.6,3.5-1.8,5.4-2c6.1-0.6,10.7-3.9,15.1-7.8c0.8-0.7,1.9-1.2,2.9-1.7c0.3,0.4,0.6,0.9,1,1.3c-3.8,3.1-7.5,6.3-11.3,9.4
			c0.4,0.5,0.8,1,1.3,1.6c2.1-1.7,4.5-3.1,6.1-5.1c4.6-5.8,9.6-11.3,12.2-18.6c1.7-4.9,5.4-8.6,6.6-14.1c1.5-7.3-1.4-12.5-5.9-16.5
			c-5.5-4.8-12.5-5.3-19.5-2.3c-2.2,0.9-4.6,1.4-7,2c-0.9,0.2-2,0.2-2.6,0.8c-5.2,5.1-10.3,10.3-15.4,15.4
			c-3.6,3.6-7.3,7.2-10.6,10.4c-0.2,3,0.3,6-0.7,8.3c-1.8,4.5-0.7,8.1,1.9,11.7c0.1,0.2,0.6,0.1,1.2,0.1
			C108.7,634.7,108.7,633.6,108.7,632.6z M280.5,452.6c-6.1,0.3-7.9,5.5-10.4,10.6c2.5,2.6,4.9,5,7.5,7.7c3.9-3.9,7.5-7.4,11.1-10.9
			c0.4,0.3,0.7,0.6,1,0.9c-3.1,3.4-6.2,6.8-9.3,10.2c0.4,0.3,0.7,0.6,1.1,0.9c2.9-2.9,6-5.6,8.7-8.7c2.8-3.1,1.8-5.2-2.3-6.7
			C285.3,455.8,283,454,280.5,452.6z M129.3,586.5c-9.5,1.7-30.4,21.6-32.5,30.5c10-9.3,17-21.1,29.2-27.5
			c-7.3,6.4-14.2,13.1-19.4,21.4c7.4-6.7,14.5-13.6,21.6-20.7C128.8,589.5,128.8,588.2,129.3,586.5z M286.7,438.8
			c-1.9,3.6,0,5.9,1.5,8c5.9,8.2,12.9,15.2,22.4,19.6c0.1-1.7-0.1-3.2-1-4.1C302.2,454.5,294.7,446.9,286.7,438.8z M174,618.5
			c-0.3-0.4-0.6-0.8-0.9-1.2c-1.4,1.1-3.4,1.9-4,3.4c-7.2,16-20.2,27-32.5,38.6C154.4,650.6,161.8,632.3,174,618.5z M78,639.7
			c9.4-15.8,18.9-31.4,32.5-44C96.6,605,80.5,628.1,78,639.7z M125.3,647.7c2.5,5.9,5.9,8.1,9.7,6.8c4.4-1.5,5.2-4.1,3.1-10.7
			C134,645,129.9,646.3,125.3,647.7z M95.9,630.2c8-2.6,10.3-7.7,6-14.2c-1.5,4.4-4.2,6.6-8.7,4.3C89.5,625.3,94.5,627.1,95.9,630.2
			z M314,460.6c-8-8.1-14.7-17.3-23.9-24.2C296.3,446.3,304,454.7,314,460.6z M183.2,589.6c-2.8,0.2-5.2-0.2-7,0.5
			c-2.2,0.9-4,2.8-6.4,4.5c-0.2,3.3,2.8,3.8,5.6,4.4c3,0.7,3.3-1.8,4.3-3.6C180.6,593.8,181.6,592.2,183.2,589.6z"/>
		<path class="st1" d="M293.3,401c2.2-2.5,4.2-5.3,6.6-7.6c25.6-25.2,51.1-50.6,77.1-75.5c37.1-35.8,74.6-71.2,111.8-106.8
			c8.5-8.1,16.3-16.9,25.1-24.6c5.6-4.8,12.3-8.3,18.8-12c2-1.1,4.7-1,7.2-0.9c-18.1,23.2-41.8,40.5-61.4,61.9
			c0.4,0.4,0.8,0.8,1.2,1.2c3.6-3.5,7.1-7,10.6-10.5c3.9-3.8,7.7-7.5,11.6-11.2c3.8-3.6,7.7-7,11.4-10.6c3.8-3.5,7.7-7,11.3-10.7
			c3.8-3.8,7.2-8,11.2-11.6c3.6-3.2,5.4-8.6,10.4-10c0.4,0.4,0.8,0.8,1.2,1.2c-3.7,4.2-7.2,8.7-11.2,12.6
			c-12.5,11.9-25.3,23.6-37.9,35.4c-4,3.8-7.9,7.7-11.8,11.6c0.3,0.3,0.6,0.7,0.8,1c0.7-0.4,1.5-0.6,2.1-1.1
			c13.1-12.4,26.3-24.8,39.4-37.3c6.2-6,12.3-12.2,18.3-18.5c4.5-4.7,4.5-4.8,11.2-1.2c-15.5,16.9-33.8,30.7-49.3,47.3
			c0.3,0.3,0.5,0.7,0.8,1c1.2-0.9,2.4-1.7,3.5-2.7c14.4-13.6,28.7-27.3,43.1-41c4.1-3.8,4.2-3.8,9.4,1.2
			c-39.7,37.9-79.4,75.8-119.1,113.6c0,0,0.2,0.2,0.3,0.3c0.1,0.1,0.3,0.2,0.4,0.2c0.5-0.3,1-0.5,1.5-0.9
			c39.2-37.1,78.5-74.3,117.7-111.5c0.1-0.1,0.4-0.1,1.4-0.5c1.2,2.2,2.5,4.6,3.4,6.3c-7.9,7.4-15.4,14-22.5,20.9
			c-19.6,19-39.2,38.1-58.7,57.1c-2.8,2.8-5.7,5.6-7.9,9.2c1.1-0.9,2.3-1.7,3.4-2.7c12.9-12.4,25.9-24.7,38.7-37.1
			c13.4-12.9,26.8-26,40.2-38.9c1.9-1.8,4.2-3.3,6.7-5.2c3,9.1,1.5,16.7-4.4,23c-8.6,9.1-17.5,17.9-26.3,26.7
			c-55.5,55.7-111,111.5-166.7,167c-16.5,16.4-33.6,32.2-50.4,48.3c-1.3,1.3-3,2.2-4.7,3.4c-9.1-9.2-18-18.2-26.7-27.2
			c-5.7-5.9-6.6-20-1.6-26.6c1.4-1.9,3.9-2.8,5.6-4.5c38.8-37.6,77.5-75.3,116.3-112.9c10.6-10.3,21.5-20.3,32.3-30.5
			c1.3-1.2,2.4-2.6,3.6-3.9c-0.4-0.3-0.7-0.7-1-1c-51.1,48.9-102.3,97.9-153.4,146.8C293.6,401.1,293.4,401,293.3,401z M373.5,370.6
			c0.5,0.5,1,1,1.5,1.5c59.1-57.6,120.9-112.3,179-170.8c-0.3-0.3-0.6-0.6-0.9-0.9C493.2,257.1,433.4,313.8,373.5,370.6z
			 M461.7,259.1c-0.5-0.4-0.9-0.9-1.4-1.3c-51.4,50.1-104,99.1-154.7,149.9c0.3,0.3,0.6,0.6,0.8,0.9
			C358.2,358.7,409.9,308.9,461.7,259.1z M414.8,296.6C373.6,337,330.2,375,290.4,416.7c0.4,0.4,0.7,0.7,1.1,1.1
			C332.6,377.3,373.7,336.9,414.8,296.6z M425.2,281.5c37.7-34.4,74.2-70.1,110.6-105.9C497.6,209.5,462.1,246.3,425.2,281.5z
			 M473.3,298.8c-0.2-0.2-0.5-0.5-0.7-0.7c-4.3,3.9-8.8,7.8-12.9,11.9c-26.4,25.7-52.7,51.6-79,77.4c-0.1,0.1,0,0.4,0,0.5
			c0.1,0.2,0.3,0.3,0.9,1.1C412.2,358.8,442.8,328.8,473.3,298.8z M404.4,325.2c-0.2-0.3-0.4-0.7-0.7-1c-1.5,1.4-2.9,2.9-4.4,4.3
			c-7.3,7.1-14.6,14.2-21.9,21.3c-21.2,20.6-42.4,41.3-63.6,61.9c-1.3,1.3-2.4,2.8-3.6,4.3c0.4,0.3,0.7,0.6,1.1,0.9
			C342.2,386.2,373.3,355.7,404.4,325.2z M553.7,176.7c-0.4-0.5-0.9-0.9-1.3-1.3c-31.7,30.2-63.3,60.4-94.9,90.7
			c0.4,0.4,0.8,0.8,1.2,1.2C490.3,237,522,206.8,553.7,176.7z M424.5,318.9c-0.4-0.4-0.9-0.8-1.3-1.2
			c-29.9,28.4-59.8,56.8-89.7,85.2c0.4,0.4,0.8,0.8,1.1,1.2C364.7,375.6,394.6,347.3,424.5,318.9z M560.9,182.2
			c-0.4-0.4-0.7-0.7-1.1-1.1c-31.9,29.3-62.8,59.5-93.8,89.8c0.3,0.3,0.6,0.7,0.9,1C498.3,242,529.6,212.1,560.9,182.2z M429,332.8
			c-0.2-0.2-0.5-0.4-0.7-0.7c-20.3,20-40.6,39.9-60.9,59.8c0.2,0.2,0.5,0.5,0.7,0.7C388.4,372.7,408.7,352.8,429,332.8z
			 M476.1,282.9c-0.4-0.4-0.9-0.9-1.3-1.3c-27.1,25.7-54.2,51.4-81.3,77c0.3,0.3,0.6,0.6,0.9,0.9C421.6,334,448.8,308.4,476.1,282.9
			z M372,350.1c-26.1,25.1-53.1,49-78.1,75c0.3,0.3,0.6,0.6,0.9,0.9C320.6,400.7,346.3,375.4,372,350.1z M353.5,350.6
			c-21.7,19.3-44,37.9-63,59.8c0.4,0.3,0.7,0.7,1,1C312.2,391.1,332.8,370.9,353.5,350.6z M520.7,183.8c-0.2-0.2-0.3-0.4-0.5-0.6
			c-22.8,22.4-45.5,44.7-68.3,67.1c0.2,0.2,0.4,0.4,0.6,0.6C475.2,228.5,497.9,206.1,520.7,183.8z M487.2,278.2
			c0.2,0.1,0.4,0.2,0.6,0.4c17.3-17,34.6-34,52-51.1c-0.1-0.2-0.3-0.3-0.4-0.5C521.9,244,504.5,261.1,487.2,278.2z M422.1,284.7
			c-0.2-0.3-0.5-0.5-0.8-0.8c-21.2,20.8-42.4,41.6-63.5,62.4c0.3,0.3,0.5,0.5,0.8,0.8C379.7,326.4,400.9,305.5,422.1,284.7z
			 M568.6,207.4c-12.9,9.5-23.6,21.4-34.8,32.8C546.8,230.6,557.2,218.4,568.6,207.4z M406.8,328.3c-0.2-0.3-0.4-0.5-0.7-0.8
			c-14.2,13.9-28.3,27.8-42.5,41.8c0.2,0.3,0.5,0.5,0.7,0.7C378.4,356.1,392.6,342.2,406.8,328.3z M462.1,268.7
			c0.3,0.2,0.7,0.5,1,0.7c14.3-13.9,29.1-27.3,42.9-41.8c-0.4-0.3-0.7-0.7-1-1C490.7,240.7,476.4,254.7,462.1,268.7z M409.2,319.3
			c11.1-9,21.9-18.3,31.3-28.9c-0.3-0.3-0.6-0.6-0.9-0.9C429.4,299.4,419.3,309.3,409.2,319.3z M473.4,242.9
			c-0.4-0.4-0.8-0.8-1.2-1.2c-9.5,9.4-19.1,18.7-28.6,28.1c0.2,0.2,0.3,0.3,0.5,0.5C453.8,261.1,463.6,252,473.4,242.9z
			 M514.9,259.3c-0.3-0.3-0.5-0.7-0.8-1c-9.9,9.7-19.8,19.4-29.7,29.2c0.3,0.3,0.6,0.6,0.9,0.9C495.1,278.7,505,269,514.9,259.3z"/>
		<path class="st1" d="M276.7,478.4c-3.7-4-8.8-7.2-9.3-13.5c6.7,5.9,13.3,11.9,20,17.9c-1.8,0.7-4.3,0.9-5,2.2
			c-0.7,1.2,0.4,3.4,0.7,5.5c-0.5,0.5-1.2,1.7-1.9,1.8c-4.8,0.3-7,4.1-10,6.9c-5.7,5.5-11.6,10.7-17.1,16.3
			c-12.6,13-25,26-37.3,39.2c-15.2,16.3-25.2,36.1-37.1,54.6c-0.4,0.6-0.8,1.1-1.6,2.3c-0.2-1.2-0.5-1.8-0.4-2.1
			c3.7-6.5,7.2-13,11.1-19.3c4.7-7.6,9.3-15.3,14.6-22.5c3.9-5.4,9.3-9.7,13.3-15c16.3-21.7,37.2-38.8,56.4-57.6
			c1.4-1.4,2.6-2.9,3.9-4.3c-0.4-0.4-0.9-0.8-1.3-1.2c-8.2,7.5-16.5,15-24.5,22.7c-8.1,7.7-16.1,15.4-23.7,23.6
			c-7.6,8.3-14.6,17.3-22.4,26.5c-1-2-1.8-3.4-2.6-5c2.3-1.7,4.6-2.8,6.1-4.7c1.1-1.4,1-3.8,1.5-5.7c-1.7-0.3-3.7-1.2-5.2-0.7
			c-4.1,1.3-8.1,3.2-12.1,4.9c-2.5,1.1-3.1,3.3-2.6,5.8c0.5,2.8-0.7,4.1-3.1,5.4c-2.6,1.4-4.8,3.7-7.2,5.6c-4.8-2.9-4.8-2.9,0-10.9
			c0.7,1.7,1.3,3,1.9,4.3c0.5-0.1,1-0.2,1.4-0.2c-0.3-2-0.2-4.3-1.1-6c-1-1.9-2.9-2.6-4.7-0.4c-4,5-4.9,13.7-2.1,19.8
			c-1.2,2.3-2.5,4.6-3.6,7.1c-0.7,1.7-1.5,3.4-3.6,2.7c-1.1-0.4-2-1.7-2.9-2.7c-1.1-1.2-2.2-2.4-3.7-4.2c-1.2,2.4-1.9,4-3.2,6.5
			c-1.7-1.5-3.3-2.7-4.6-4.1c-1.4-1.6-2.4-3.6-3.9-5.1c-2.9-3-7.3-3.3-8.8,0.2c-3.1,6.9-9.9,6.9-15.2,9.8c-1.9,1-3.9,1.7-6,2.6
			c-0.4-2.5,0.7-4.4,2.7-5.6c3.7-2.2,7.5-4.2,11.1-6.7c3.2-2.2,5.8-5.2,9-7.4c4.7-3.2,9.7-6.1,15.2-8.2c-4.7,3.4-9.5,6.8-14.3,10.3
			c0.2,0.4,0.5,0.7,0.7,1.1c1.5-0.9,3.1-1.7,4.5-2.7c10.1-6.9,20.3-13.8,30.3-21c5.1-3.7,10-7.8,14.6-12.2c3.4-3.4,4.9-8.2,9.9-10.7
			c4.4-2.2,7.4-7.1,11.1-10.8c3.8-3.8,7.6-7.6,11.3-11.5c4-4.3,8-8.7,11.3-13.8c-6.9,6.8-13.8,13.6-21.6,21.2
			c0.4-1.4,0.4-1.9,0.7-2.1c9.8-10.3,19.5-20.8,29.5-30.9c2.9-2.9,6.7-5.2,10.4-7c4.4-2.2,5.6-1.5,8.7,2.7c1.4,1.9,2.6,4,4.3,5.5
			c1.6,1.4,3.8,2,5.7,3C275.6,479.6,276.1,479,276.7,478.4z M273.9,488.5c-0.3-0.3-0.7-0.7-1-1c-20.5,19.3-42.2,37.4-59.2,60.2
			C233.8,527.9,253.8,508.2,273.9,488.5z M240.4,512.6c0.3,0.5,0.7,0.9,1,1.4c9.9-9.7,19.8-19.5,29.7-29.2
			C259.7,492.8,250.5,503.2,240.4,512.6z"/>
		<path class="st1" d="M108.7,632.6c0,1-0.1,2.1-0.1,3.1c-0.6-0.1-1.1,0-1.2-0.1c-2.6-3.6-3.6-7.3-1.9-11.7c0.9-2.4,0.5-5.3,0.7-8.3
			c3.3-3.2,7-6.8,10.6-10.4c5.2-5.1,10.2-10.3,15.4-15.4c0.6-0.6,1.7-0.6,2.6-0.8c2.3-0.7,4.8-1.1,7-2c6.9-3,14-2.5,19.5,2.3
			c4.5,4,7.5,9.2,5.9,16.5c-1.2,5.5-4.9,9.2-6.6,14.1c-2.6,7.3-7.6,12.8-12.2,18.6c-1.6,2.1-4,3.5-6.1,5.1c-0.4-0.5-0.8-1.1-1.3-1.6
			c3.8-3.1,7.5-6.3,11.3-9.4c-0.3-0.4-0.7-0.9-1-1.3c-1,0.6-2.1,1-2.9,1.7c-4.4,3.8-8.9,7.2-15.1,7.8c-1.8,0.2-3.6,1.4-5.4,2
			c-6,2-11.5,0.7-15.9-3.8c-1.5-1.5-1.6-4.3-2.3-6.5C109.5,632.4,109.1,632.5,108.7,632.6z M157.2,610.3c-4.5,4.4-8.9,8.9-13.5,13.2
			c-11.3,11-11.4,11-15.8,11c4.9-4.8,9.4-9.2,13.8-13.6c-0.4-0.4-0.8-0.8-1.1-1.2c-3.3,3.3-6.6,6.5-10,9.8c-0.3-0.3-0.5-0.6-0.8-0.9
			c8.7-10.1,19.1-18.6,27.2-29.2c-0.9-0.2-1.5,0-1.9,0.3c-11.2,11.6-22.3,23.3-33.5,34.8c-0.6,0.6-1.8,0.6-2.8,0.8
			c-0.1-0.4-0.3-0.7-0.4-1.1c4.4-4.8,8.8-9.7,13.3-14.5c-3.8,0.5-5.7,3.3-8,5.7c-2.3,2.3-4.7,4.5-7,6.8c-0.5-0.5-1-1-1.5-1.4
			c2.7-2.7,5.5-5.3,8.1-8.1c2.6-2.8,5-5.7,7.5-8.6c-0.4-0.4-0.8-0.8-1.2-1.1c-4.8,4.7-9.6,9.4-14.4,14.1c-0.5-0.3-1-0.6-1.4-0.8
			c0.6-2,0.9-4.1,2-5.8c2.9-4.4,6.2-8.6,9.3-12.9c-0.4-0.3-0.7-0.5-1.1-0.8c-2.9,3.8-5.8,7.7-8.6,11.6c-0.4-1.1-0.4-2.2,0-2.8
			c3.1-4.1,5.9-8.5,9.5-12.2c6.3-6.4,14.3-10.3,23-12.8c8.7-2.4,13.4,1.4,13.2,10.5c0,2.8-0.2,5.6-0.4,8.9c3-3.6,3.2-4.5,3-11.1
			c-0.3-7.5-5.9-11.9-13.2-11.2c-10.6,1.1-18.6,7-26.4,13.4c-6.4,5.2-10.8,11.8-13.2,19.8c-2.6,8.7,2.5,16.5,11.5,17.5
			c9.4,1.1,16.5-3.8,23.5-8.8c3.2-2.3,5.6-5.7,8.4-8.5c-0.5-0.5-0.9-0.9-1.4-1.4c-3.8,3.7-7.5,7.4-11.2,11c-0.3-0.3-0.6-0.7-0.9-1
			C146.1,623.1,153.8,618.4,157.2,610.3z"/>
		<path class="st1" d="M280.5,452.6c2.5,1.4,4.8,3.2,7.4,4.2c4.1,1.5,5.1,3.6,2.3,6.7c-2.8,3-5.8,5.8-8.7,8.7
			c-0.4-0.3-0.7-0.6-1.1-0.9c3.1-3.4,6.2-6.8,9.3-10.2c-0.4-0.3-0.7-0.6-1-0.9c-3.6,3.5-7.1,7-11.1,10.9c-2.6-2.7-5-5.1-7.5-7.7
			C272.6,458.2,274.4,452.9,280.5,452.6z"/>
		<path class="st1" d="M129.3,586.5c-0.5,1.7-0.5,3-1.1,3.6c-7,7.1-14.2,14-21.6,20.7c5.2-8.3,12.1-15,19.4-21.4
			c-12.2,6.4-19.2,18.2-29.2,27.5C98.9,608.1,119.8,588.3,129.3,586.5z"/>
		<path class="st1" d="M286.7,438.8c8,8.2,15.5,15.7,22.9,23.4c0.9,0.9,1.1,2.4,1,4.1c-9.5-4.4-16.5-11.4-22.4-19.6
			C286.7,444.7,284.8,442.4,286.7,438.8z"/>
		<path class="st1" d="M174,618.5c-12.2,13.8-19.5,32.1-37.4,40.8c12.3-11.6,25.3-22.6,32.5-38.6c0.6-1.4,2.6-2.3,4-3.4
			C173.3,617.6,173.7,618.1,174,618.5z"/>
		<path class="st1" d="M78,639.7c2.5-11.5,18.6-34.7,32.5-44C96.9,608.2,87.5,623.9,78,639.7z"/>
		<path class="st1" d="M125.3,647.7c4.5-1.4,8.6-2.6,12.7-3.9c2.1,6.6,1.3,9.2-3.1,10.7C131.2,655.8,127.8,653.6,125.3,647.7z"/>
		<path class="st1" d="M95.9,630.2c-1.3-3-6.4-4.9-2.7-9.9c4.5,2.3,7.2,0.1,8.7-4.3C106.2,622.5,103.8,627.6,95.9,630.2z"/>
		<path class="st1" d="M314,460.6c-10.1-6-17.7-14.4-23.9-24.2C299.3,443.3,306,452.6,314,460.6z"/>
		<path class="st1" d="M183.2,589.6c-1.6,2.6-2.6,4.2-3.6,5.9c-0.9,1.8-1.3,4.3-4.3,3.6c-2.8-0.7-5.8-1.1-5.6-4.4
			c2.4-1.8,4.2-3.6,6.4-4.5C178.1,589.3,180.4,589.7,183.2,589.6z"/>
		<path class="st0" d="M373.5,370.6c59.9-56.8,119.7-113.5,179.6-170.3c0.3,0.3,0.6,0.6,0.9,0.9c-58.1,58.5-120,113.2-179,170.8
			C374.5,371.5,374,371.1,373.5,370.6z"/>
		<path class="st0" d="M461.7,259.1c-51.8,49.8-103.5,99.7-155.3,149.5c-0.3-0.3-0.6-0.6-0.8-0.9c50.7-50.8,103.3-99.8,154.7-149.9
			C460.7,258.2,461.2,258.6,461.7,259.1z"/>
		<path class="st0" d="M414.8,296.6c-41.1,40.4-82.2,80.8-123.3,121.2c-0.4-0.4-0.7-0.7-1.1-1.1C330.2,375,373.6,337,414.8,296.6z"
			/>
		<path class="st0" d="M425.2,281.5c36.9-35.3,72.4-72,110.6-105.9C499.4,211.4,463,247.1,425.2,281.5z"/>
		<path class="st0" d="M473.3,298.8c-30.5,30-61.1,60-91.7,90.1c-0.7-0.8-0.8-0.9-0.9-1.1c0-0.1-0.1-0.4,0-0.5
			c26.3-25.8,52.6-51.6,79-77.4c4.2-4.1,8.6-7.9,12.9-11.9C472.9,298.3,473.1,298.6,473.3,298.8z"/>
		<path class="st0" d="M404.4,325.2c-31.1,30.5-62.1,61.1-93.2,91.6c-0.4-0.3-0.7-0.6-1.1-0.9c1.2-1.4,2.3-2.9,3.6-4.3
			c21.2-20.7,42.4-41.3,63.6-61.9c7.3-7.1,14.6-14.2,21.9-21.3c1.5-1.4,2.9-2.9,4.4-4.3C403.9,324.5,404.1,324.8,404.4,325.2z"/>
		<path class="st0" d="M553.7,176.7c-31.7,30.2-63.4,60.4-95.1,90.5c-0.4-0.4-0.8-0.8-1.2-1.2c31.7-30.2,63.3-60.4,94.9-90.7
			C552.8,175.8,553.3,176.2,553.7,176.7z"/>
		<path class="st0" d="M424.5,318.9c-29.9,28.4-59.9,56.8-89.8,85.2c-0.4-0.4-0.8-0.8-1.1-1.2c29.9-28.4,59.8-56.8,89.7-85.2
			C423.7,318,424.1,318.5,424.5,318.9z"/>
		<path class="st0" d="M560.9,182.2c-31.3,29.9-62.6,59.8-93.9,89.7c-0.3-0.3-0.6-0.7-0.9-1c30.9-30.3,61.9-60.5,93.8-89.8
			C560.2,181.5,560.6,181.8,560.9,182.2z"/>
		<path class="st0" d="M429,332.8c-20.3,20-40.6,39.9-60.9,59.9c-0.2-0.2-0.5-0.5-0.7-0.7c20.3-19.9,40.6-39.9,60.9-59.8
			C428.5,332.4,428.8,332.6,429,332.8z"/>
		<path class="st0" d="M476.1,282.9c-27.2,25.5-54.5,51.1-81.7,76.6c-0.3-0.3-0.6-0.6-0.9-0.9c27.1-25.7,54.2-51.4,81.3-77
			C475.2,282,475.6,282.5,476.1,282.9z"/>
		<path class="st0" d="M372,350.1c-25.7,25.3-51.5,50.6-77.2,75.8c-0.3-0.3-0.6-0.6-0.9-0.9C318.9,399.1,345.9,375.2,372,350.1z"/>
		<path class="st0" d="M353.5,350.6c-20.6,20.3-41.3,40.6-61.9,60.9c-0.3-0.4-0.7-0.7-1-1C309.5,388.4,331.7,369.9,353.5,350.6z"/>
		<path class="st0" d="M520.7,183.8c-22.8,22.4-45.5,44.7-68.3,67.1c-0.2-0.2-0.4-0.4-0.6-0.6c22.8-22.4,45.6-44.7,68.3-67.1
			C520.3,183.3,520.5,183.6,520.7,183.8z"/>
		<path class="st0" d="M487.2,278.2c17.4-17.1,34.7-34.1,52.1-51.2c0.2,0.2,0.3,0.3,0.4,0.5c-17.3,17-34.6,34-52,51.1
			C487.5,278.4,487.4,278.3,487.2,278.2z"/>
		<path class="st0" d="M422.1,284.7c-21.2,20.8-42.4,41.6-63.5,62.4c-0.3-0.3-0.5-0.5-0.8-0.8c21.2-20.8,42.4-41.6,63.5-62.4
			C421.6,284.2,421.8,284.5,422.1,284.7z"/>
		<path class="st0" d="M568.6,207.4c-11.5,11.1-21.9,23.3-34.8,32.8C545,228.7,555.7,216.8,568.6,207.4z"/>
		<path class="st0" d="M406.8,328.3c-14.2,13.9-28.3,27.8-42.5,41.7c-0.2-0.2-0.5-0.5-0.7-0.7c14.2-13.9,28.3-27.8,42.5-41.8
			C406.3,327.8,406.5,328.1,406.8,328.3z"/>
		<path class="st0" d="M462.1,268.7c14.3-14,28.6-28.1,42.8-42.1c0.4,0.3,0.7,0.7,1,1c-13.7,14.5-28.6,27.8-42.9,41.8
			C462.8,269.2,462.4,269,462.1,268.7z"/>
		<path class="st0" d="M409.2,319.3c10.1-10,20.2-19.9,30.4-29.8c0.3,0.3,0.6,0.6,0.9,0.9C431.1,301,420.3,310.3,409.2,319.3z"/>
		<path class="st0" d="M473.4,242.9c-9.8,9.1-19.6,18.2-29.3,27.3c-0.2-0.2-0.3-0.3-0.5-0.5c9.5-9.4,19-18.7,28.6-28.1
			C472.5,242.1,472.9,242.5,473.4,242.9z"/>
		<path class="st0" d="M514.9,259.3c-9.9,9.7-19.7,19.4-29.6,29.1c-0.3-0.3-0.6-0.6-0.9-0.9c9.9-9.7,19.8-19.4,29.7-29.2
			C514.3,258.7,514.6,259,514.9,259.3z"/>
		<path class="st0" d="M273.9,488.5c-20.1,19.7-40.2,39.5-60.2,59.2c17-22.8,38.7-40.9,59.2-60.2
			C273.2,487.8,273.6,488.1,273.9,488.5z"/>
		<path class="st0" d="M240.4,512.6c10.2-9.4,19.4-19.8,30.7-27.8c-9.9,9.7-19.8,19.5-29.7,29.2C241,513.5,240.7,513,240.4,512.6z"
			/>
		<path class="st0" d="M157.2,610.3c-3.4,8.1-11.2,12.8-16.5,19.5c0.3,0.3,0.6,0.7,0.9,1c3.7-3.7,7.5-7.3,11.2-11
			c0.5,0.5,0.9,0.9,1.4,1.4c-2.8,2.9-5.2,6.3-8.4,8.5c-7,4.9-14.1,9.8-23.5,8.8c-9-1-14.1-8.8-11.5-17.5c2.4-8,6.8-14.6,13.2-19.8
			c7.8-6.3,15.7-12.3,26.4-13.4c7.3-0.7,12.9,3.7,13.2,11.2c0.3,6.5,0,7.5-3,11.1c0.2-3.3,0.4-6.1,0.4-8.9c0.2-9.1-4.5-13-13.2-10.5
			c-8.6,2.5-16.6,6.3-23,12.8c-3.6,3.6-6.4,8.1-9.5,12.2c-0.5,0.6-0.5,1.7,0,2.8c2.9-3.9,5.8-7.7,8.6-11.6c0.3,0.3,0.7,0.5,1.1,0.8
			c-3.1,4.3-6.4,8.4-9.3,12.9c-1.1,1.6-1.3,3.8-2,5.8c0.5,0.3,0.9,0.6,1.4,0.8c4.8-4.7,9.6-9.4,14.4-14.1c0.4,0.4,0.8,0.8,1.2,1.1
			c-2.5,2.9-4.9,5.8-7.5,8.6c-2.6,2.8-5.4,5.4-8.1,8.1c0.5,0.5,1,0.9,1.5,1.4c2.3-2.3,4.8-4.5,7-6.8c2.3-2.4,4.3-5.1,8-5.7
			c-4.4,4.9-8.8,9.7-13.3,14.5c0.1,0.4,0.3,0.7,0.4,1.1c0.9-0.3,2.2-0.2,2.8-0.8c11.2-11.6,22.3-23.2,33.5-34.8
			c0.4-0.4,1-0.5,1.9-0.3c-8.1,10.6-18.6,19.1-27.2,29.2c0.2,0.3,0.5,0.6,0.8,0.9c3.3-3.3,6.6-6.5,10-9.8c0.4,0.4,0.8,0.8,1.1,1.2
			c-4.5,4.4-8.9,8.7-13.8,13.6c4.5,0,4.5,0,15.8-11C148.3,619.1,152.8,614.7,157.2,610.3z"/>
	</g>
	<g>
		<path class="st0" d="M192.5,321.8c6.4,6.4,13.1,12.7,19.2,19.4c2.1,2.3,3.8,3.7,7.4,1.9c-3.2-8.5-11.9-12.6-15.5-20.5
			c6,5.7,12.4,11,16.7,18.2c1.4,2.3,2.7,4.2,6.6,3.1c-6.2-6.8-12.1-13.2-17.9-19.6c0.3-0.3,0.7-0.6,1-1c5.9,5.9,11.8,11.8,17.7,17.7
			c0.2-0.2,0.4-0.4,0.6-0.6c-3.7-4.4-7.4-8.8-11.1-13.2c0.2-0.3,0.4-0.5,0.7-0.8c2,1.7,4,3.5,6,5.2c0.2-0.2,0.4-0.4,0.6-0.6
			c-6.4-6.4-12.8-12.8-19.3-19.3c1.1-0.7,1.6-1,1.6-1c8.3,7.7,16.9,15.1,22.9,24.9c0.8,1.3,2.4,2.2,3.7,3.3c0.4-0.4,0.8-0.8,1.1-1.2
			c-8.7-9.8-17.4-19.6-26.1-29.4c0.3-0.2,0.5-0.5,0.8-0.7c7.1,7.6,14.2,15.2,21.2,22.9c0.3-0.3,0.7-0.6,1-0.9
			c-8-8.8-16.1-17.6-24.1-26.4c5,1.2,7.7,5.2,11.1,8.4c3.5,3.3,6.9,6.8,10.8,9.7c-31.3-32.1-62.5-64.2-93.8-96.2
			c-0.4,0.3-0.7,0.7-1.1,1c5.5,5.9,10.9,12,16.6,17.8c13.9,14.3,28,28.4,42,42.6c2.7,2.8,5.2,5.8,7.8,8.8c0.4,0.4,0.8,0.9,1.1,1.4
			c1.9,2.9,3.5,5.9,1.7,9.3c-0.9,1.8-7.9,1.7-10.5-0.2c-3.6-2.7-7.1-5.6-10.3-8.6c-13.1-12.3-26-24.8-39-37.1
			c-4.9-4.7-10-9.2-15.1-13.8c-0.7-0.7-1.7-1.2-2.1-2c-2.8-4.9-6.9-8.1-12.9-11.1c10.3,10.3,19.9,19.9,29.5,29.5
			c-0.3,0.3-0.6,0.6-0.9,0.9c-6.8-6.8-13.6-13.6-20.4-20.4c-0.4,0.4-0.8,0.8-1.2,1.3c7.7,7.7,15.4,15.4,23.1,23.1
			c0.1,0.1-0.2,0.6-0.2,1c-5.4-2.6-86.1-87.1-90.4-95.6c4.9,5.5,9.6,11,14.6,16.3c5.2,5.5,10.7,10.8,16.1,16.1
			c0.4-0.3,0.7-0.7,1.1-1c-1.8-1.6-3.7-3.1-5.4-4.8c-1.8-1.8-3.4-3.7-5.1-5.7c-1.8-2.1-3.4-4.3-5.3-6.3c-1.7-1.8-3.5-3.5-5.3-5.3
			c0.3-0.4,0.6-0.9,0.9-1.3c1.3,0.7,2.8,1,3.7,2c3.6,3.8,7,7.9,10.6,11.8c1.9,2.1,4,4,6.5,5.5c-8-11.2-19.3-19.3-28.7-29.2
			c0.3-0.4,0.6-0.8,0.9-1.2c1.2,0.7,2.5,1.3,3.5,2.2c3.6,3.3,7.2,6.6,10.7,10c19.7,18.9,39.4,37.8,59.1,56.8
			c11.8,11.4,23.5,22.9,35.4,34.1c10.3,9.8,20.9,19.3,31.4,29c1.1,1,2.3,1.7,4,2.9c0.7-4.1-1.2-6.3-3.2-8.4
			c-12.7-13.3-25.3-26.6-38.1-39.8c-16.2-16.8-32.3-33.5-48.6-50.1c-5.3-5.4-11.1-10.5-16.4-16c-6.8-7-12.8-14.7-20.4-20.9
			c-2.6-2.1-4.2-5.3-6.6-8.4c3.8-2.1,6.5-1.3,9.3-0.4c6.1,2.1,10.8,6.1,15.6,10.2c6.3,5.5,13.1,10.4,19.5,15.8
			c6.5,5.5,13,11.2,19.3,17c8.4,7.6,16.7,15.3,24.8,23.2c19.2,18.6,38.3,37.2,57.2,56.2c5.3,5.4,9.5,11.9,14.4,17.7
			c11.4,13.6,13.3,29.8,13.4,46.6c0,2,0.8,4.2,1.7,6c11.7,22.2,27.9,41,45.3,58.8c7.3,7.5,14.8,14.8,22.2,22.3
			c12.8,13.1,25.1,26.8,38.4,39.3c22,20.5,44.7,40.4,69.7,57.3c15.7,10.6,31,21.9,47.4,31.2c13.6,7.7,26.4,16.4,38.8,25.8
			c10.2,7.7,18.3,17.4,25.1,28.3c4.5,7.2,7.7,14.7,8.9,23.2c1.8,13.3-6.8,31.4-20.6,38.1c-6.8,3.3-13.6,4.7-20.7,4.4
			c-3.2-0.1-6.5-2.3-9.5-4c-10.7-6.1-21.1-12.8-28.8-22.7c-5-6.4-9.4-13.4-14.1-20.2c-5.3-7.7-10.6-15.5-15.8-23.2
			c-4.1-6.2-8.1-12.4-12.3-18.5c-2.8-4.2-6-8.2-8.7-12.5c-24-37.6-53.3-70.8-83.7-103.2c-9.6-10.3-19.4-20.4-28.7-31
			c-12.1-13.7-25.2-26.3-38.3-38.9c-6.7-6.4-14.9-11.2-22.2-17.1c-7.3-5.9-16.1-9.3-23.9-14.2c-1.6-1-4.1-0.6-6.2-0.6
			c-14,0.2-27.5-1.9-38.5-11c-12.5-10.3-24.9-20.9-36.2-32.5c-17.4-17.9-33.8-36.8-50.6-55.4c-11.7-12.9-23.3-25.8-34.9-38.8
			c-7.5-8.4-15.1-16.8-22.2-25.5c-2.4-2.9-3.5-6.7-5.6-10.9c6.9-0.5,11.3,2.1,15.2,5.8c13.7,13.1,27.4,26.2,41.1,39.3
			c10.6,10.1,21.4,20,31.7,30.2c8.9,8.8,17.2,18.1,26,26.9c7.8,7.9,16,15.3,23.9,23.1c1.2,1.2,1.9,2.9,2.7,4.4
			c2.2,3.8,4.9,5,9.8,4.3c1.7-3.9-0.8-6.8-3-9.4c-5-6-10.1-11.9-15.6-17.5c-27.1-27.9-54.4-55.7-81.5-83.6
			c-9.4-9.7-18.5-19.7-27.7-29.5c-4.4-4.7-4.9-6.3-4.5-13c10.7,4.4,16.8,13.8,24.5,21.3c3.1,3,6,6,9.5,8.6c-1.8-3-6.5-3.7-6.5-9
			c13.3,12.8,25.9,25,38.8,37.1c5.7,5.3,11.9,10.1,17.5,15.5c9.1,8.7,18.1,17.7,26.9,26.7c10.2,10.5,20.2,21.2,30.3,31.8
			c2.1,2.2,4.1,4.1,7.8,2.7c0.5-5.4-2.8-8.8-6.1-12c-7.8-7.9-15.7-15.8-23.6-23.7c-2.5-2.5-4.9-5-7.3-7.6c-0.8-0.9-1.4-2.1-1.6-3.8
			c0.9,0.4,2,0.5,2.7,1.1c11.6,11.6,23.1,23.3,34.6,35c3.7,3.8,5,8.2,3.1,13.5c-4.2,1.8-7.3,0.6-10.8-2
			c-13.7-10-24.9-22.5-36.6-34.5c-3-3.1-6.5-5.6-9.7-8.5c-1.3-1.2-2.4-2.5-3.6-3.8c-1-1.2-1.8-2.6-2.9-3.6
			c-16.4-13.8-31.3-29.2-46.9-43.8c-10.5-9.9-20.3-20.4-30.5-30.6c-1.7-1.7-3.5-3.5-5.2-5.2c-0.4,0.3-0.8,0.6-1.3,0.9
			c0.6,1.2,0.9,2.7,1.8,3.7c9.6,10.2,19.3,20.5,29.2,30.5c3.1,3.1,7.4,4.9,10.7,7.9c14.2,13.2,28.2,26.5,42.2,39.8
			c0.8,0.8,1.4,1.7,1.3,3.3c-13.4-12.8-26.8-25.6-40.3-38.3c-0.4,0.4-0.7,0.7-1.1,1.1c2.4,2.4,4.9,4.8,7.3,7.3
			c21,21.3,42,42.6,62.9,63.9c4.9,5,9.5,10.4,14.1,15.7c2.6,3,4.5,6.4,4.3,10.6c-0.2,3.9-2.2,5.8-6,5c-1.1-0.2-2.4-0.5-3.3-1.2
			c-4.7-4-11.6-4.7-15.2-10.4c-0.2-0.4-1-0.4-1.8-0.3c15.2,15.4,32.8,28.2,46.8,44.9c-6.6-10.6-16.3-18.3-24.2-27.7
			c11,7.7,19.1,18.4,29,27.3c-7.4-10.8-17-19.5-25.9-29.2c0.8,0.4,1.9,0.6,2.5,1.2c8.7,8.9,17.5,17.9,26.1,26.9
			c1.6,1.7,2.9,3.9,6.3,1.9c-10.7-10.7-21.3-21.3-31.9-31.9c0.4-0.4,0.7-0.7,1.1-1.1c10.8,9.3,20.2,20.1,31,29.4
			c-2.5-7.6-10.5-9.8-15-15.5c-4.7-5.7-9.8-11-14.3-17.2c1.1,0.8,2.2,1.4,3.1,2.3c5.9,6,11.7,12,17.7,17.9c1.7,1.7,3.9,2.8,6.5,3.4
			c-9.3-9.3-18.6-18.6-27.9-27.9c0.2-0.3,0.4-0.7,0.7-1c1,0.5,2.2,0.8,2.9,1.5c4.5,4.6,8.8,9.4,13.4,14c3.5,3.5,7.3,6.7,11,10
			c0.3-0.3,0.6-0.6,0.9-1c-4.6-4.6-9.2-9.2-13.8-13.8c0.3-0.4,0.7-0.7,1-1.1c5.5,2.2,6.8,9.5,13.2,10.9c-3-3-5.9-5.9-9.8-9.7
			c6.8-0.3,7.5,5.4,10.8,7.5c0.3-0.3,0.6-0.6,0.9-0.9c-6.8-6.8-13.5-13.5-20.3-20.3c0.4-0.4,0.9-0.9,1.3-1.3
			c7.9,5.3,13,13.9,20.9,19.4c-5.2-8-12.3-14.4-18.6-21.4c0.3-0.3,0.5-0.5,0.8-0.8c6.6,6.6,13.2,13.2,19.9,19.9
			c0.3-0.3,0.6-0.5,0.8-0.8c-6.8-7.3-13.5-14.6-20.3-21.9C192,322,192.3,321.9,192.5,321.8z M166.6,353c-1.7-1.2-3.7-2.2-5.1-3.7
			c-7-7.7-13.7-15.6-20.8-23.1c-4.5-4.8-9.6-9-14.2-13.7c-10.8-10.9-20.9-22.7-32.4-32.8c-7.5-6.6-13.5-14.7-21.6-20.8
			c-6.3-4.8-11.2-11.3-16.9-17c-1.6-1.7-3.6-3.1-5.4-4.6c-0.3,0.3-0.6,0.7-0.9,1c27.8,30.7,53.5,63.4,83.6,92.1
			c0.1-0.8,0.3-1.4,0.5-2.5c3,3,5.8,5.7,8.4,8.4c5.8,6,11.4,12.2,17.3,18.2c3.7,3.7,7.7,7.1,11.5,10.7c0.5-0.5,0.9-0.9,1.4-1.4
			c-7.6-7.6-15.3-15.3-22.9-22.9c0.4-0.3,0.7-0.7,1.1-1c5.1,5.1,9.9,10.4,15.3,15.2c5.2,4.7,8.6,11.4,14.9,15c0.3-0.3,0.7-0.7,1-1
			c-5-5.3-10-10.7-15-16c6.2,6.2,12.4,12.4,18.5,18.5c0.4-0.5,0.9-0.9,1.3-1.4c-10-12.1-21.9-22.4-34.5-32
			C156.7,343.1,161.7,348.1,166.6,353z M366.2,498.9c0.3-0.4,0.6-0.7,0.9-1.1c1.1,0.9,2.2,1.7,3.3,2.7c7.2,6.3,14.4,12.7,21.7,18.8
			c10.2,8.5,20.8,16.6,30.8,25.2c8.1,7,15.7,14.7,23.7,21.8c3.1,2.8,7,4.7,10.5,7c0.4-0.5,0.7-1,1-1.5
			c-10.6-8.6-21.2-17.1-31.7-25.7c-2-1.6-5-3-5.5-5c-1.1-4.2-4.5-5.5-7.2-7.8c-18.5-15-37-30.1-55.5-45.1c-1.8-1.4-3.6-3.2-5.7-3.9
			c-4.9-1.5-11.4-7.3-13-11.8c-0.5-1.5-2.3-3.9-2.9-3.7c-3.4,1-4.5-1.8-6.1-3.4c-9.1-9-18.1-18-27.1-27.1
			c14,14.9,28.2,29.7,41.6,45.2c-3.4-2.4-6.3-5.2-9.1-8.1c-14.6-14.9-29.4-29.7-43.9-44.8c-6.3-6.6-11.8-13.9-18-20.5
			c-11.4-12.1-23-23.9-34.5-35.9c-0.2-0.2-0.1-0.7-0.1-1.4c1.2,0,2.4,0.1,3.5,0.1c0-0.4,0.1-0.7,0.1-1.1c-3.5-1.5-7-3.1-10.7-4.8
			c1.3-1.1,2-1.8,2.7-2.4c-0.1-0.4-0.2-0.8-0.3-1.3c-2-0.1-4.1-0.2-7.3-0.4c1.6,1.8,2.2,2.6,2.8,3.3c9.9,10.5,19.9,21,29.7,31.6
			c6.6,7.2,12.9,14.6,19.4,21.9c5.6,6.4,11.2,13,17,19.2c3.1,3.2,7,5.7,10.1,8.8c9.5,9.5,18.9,19.2,28.3,28.9
			c0.6,0.7,1.1,1.5,1.6,2.2c-0.2,0.1-0.4,0.3-0.6,0.4c-11.5-11.5-22.9-22.9-34.4-34.4c0.7,2.4,2.2,4.1,3.7,5.8
			c14.4,15.7,29.1,31.1,43,47.3c15.7,18.2,30.8,36.9,46,55.5c4.7,5.7,8.5,12.2,13.6,17.5c7.1,7.5,15.1,14.1,22.7,21.2
			c0.4,0.4,0.7,1,1,1.5c-0.4,0.3-0.7,0.6-1,0.9c-6.7-6.7-13.5-13.5-20.2-20.2c-0.3,0.3-0.6,0.6-1,0.8c1,1.6,2,3.2,3,4.8
			c5.7,8.6,15.1,13.3,21.8,20.9c0.8,0.9,2.4,1.2,4.8,2.3c-4.8-6.9-4.8-6.9-0.6-12.3c-2.8-1-5.7-1.6-8.2-2.9c-3.2-1.7-3-3.9,0-6.1
			c0.6-0.4,1.2-0.8,1.9-1.3c-3-4-6-7.2-11.2-7.9c-1.9-0.2-4.7-2-5.1-3.5c-1.5-5.8-6-9.7-8-15c-0.1-0.3,0.2-0.7,0.4-1.4
			c1.2-0.5,2.7-1,3.9-1.5c1.4-6.7-2.1-10.7-7-14.2c-3.2-2.2-6.2-4.8-9.1-7.3c-0.8-0.7-1.3-1.8-2-2.8c0.3-0.3,0.6-0.5,1-0.8
			c6,5.5,12,11,18,16.4c1.1,1,2.4,1.8,3.6,2.7c6.4,4.4,13.1,8.3,14.9,17c0.5,2.5,2.8,6.2,4.9,6.7c5.5,1.3,6.6,6,9.5,9.3
			c0.2,0.2,0.7,0,1,0c3.5-7.3-0.8-11.5-5.8-15.7c-17.5-14.7-34.9-29.4-52.5-44.2c-0.5,1.1-0.8,1.9-1.4,3.2
			c-2.8-4.3-5.4-8.2-7.8-11.7c-2.1,0.6-3.2,1.3-4.2,1.2c-0.6-0.1-1.5-2-1.3-2.1c3-3-0.5-4-1.8-5.3
			C370.3,502.1,368.2,500.6,366.2,498.9z M493.1,600.2c-10.2-8.5-12.2-9.8-24.1-12.1c-6.2-1.2-11.8,0.3-16.3,5.5
			c-4.5,5.2-6,11-3.8,17.2c2.8,7.7,6.7,15,13.1,20.5c2.8,2.4,5.4,5.1,8.5,7.2c3.5,2.3,7.3,5.3,11.2,5.7c6.8,0.6,13.9-0.6,18.6-6.3
			c3.4-4.1,6.6-8.5,4.1-14.5c-0.7-1.8,0.6-4.6-0.3-6.2C500.8,611.2,496.8,605.8,493.1,600.2z M227.4,317.1c0.5-0.5,1-1,1.5-1.6
			c-17.5-18.1-35-36.2-52.5-54.3c0.4-0.4,0.7-0.8,1.1-1.1c8.4,7.7,16.1,16,24.3,23.8c8.3,7.9,15,17.5,24.6,24
			c-28.7-30-56.5-60.9-88-87.9c10.7,11.4,21.3,22.7,32,34.1c-0.3,0.3-0.7,0.6-1,0.9c-12.1-12.1-24-24.5-36.5-36.3
			c-12.5-11.9-24.9-23.9-39.1-34C140.5,226.8,183.6,272.4,227.4,317.1z M467.7,641.7c-8.8-8.8-17.4-17.2-25.8-25.8
			c-4.1-4.2-7.5-9.1-13.4-11.5c0.4,0.7,0.6,1.2,0.9,1.7c3.7,6.1,9.1,10.5,14.3,15.3c5.5,5.1,10.5,10.8,15.7,16.2
			c-0.4,0.3-0.7,0.7-1.1,1c-6.6-6.6-13.1-13.1-19.7-19.7c-0.3,0.3-0.7,0.6-1,0.9c2.4,3.2,4.3,7.1,7.4,9.4
			c8.7,6.6,15.6,14.4,20.5,25.2c-2-1.2-3.4-2-4.7-2.8c4.1,5.7,8.9,10.5,15.2,13.9c-4.4-2.8-6.9-6.5-7.3-11.7c-0.1-1-1-2-1.8-2.9
			C462.7,645.9,462.7,645.6,467.7,641.7z M286.1,430.3c-19.6-23.5-54.3-60.2-58.7-61.7c3.1,3.7,6.6,7.1,9.9,10.5
			c4.2,4.3,8.7,8.5,12.4,13.2C260.6,406.2,273.2,418.4,286.1,430.3z M218.3,349.4c-6.8,1-9.7,4.9-9.2,11.3
			c0.7,9.4,5.2,16.2,11.5,15.5c-2.8-4.2-7.2-7-8.1-13C211.6,357.2,216.8,354.4,218.3,349.4z M495.8,648.6c-1.2,5.7-5,8.8-8.5,12.7
			c2.9-0.7,5.8-1.3,9-2.1c0.9-3.1,2.3-6.2,2.7-9.4c0.4-3.3-2.2-5.2-4.7-3.5c-3.1,2-6.7,3.9-7.8,8.1
			C493.1,657.8,490.7,648.5,495.8,648.6z M484.7,579.4c-0.3,0.3-0.5,0.6-0.8,0.9c2.7,2.1,5.3,4.2,8.1,6.3
			c10.1,7.8,21.2,14.5,27.8,26.1c0.4,0.6,1.5,0.8,2.2,1.2C512,599.5,499.6,588,484.7,579.4z M180.7,256.1c-0.3,0.3-0.6,0.5-0.8,0.8
			c13.4,13.4,26.9,26.9,40.3,40.3C208.7,281.9,194.1,269.5,180.7,256.1z M144.4,285c3,6.6,18.6,21.7,22.9,22.9
			C159.7,300.3,152.1,292.7,144.4,285z M224.2,367.3c-0.5,0.4-1,0.8-1.4,1.2c1.1,1.5,2,3.1,3.3,4.3c5.1,5.1,10.4,10,15.6,15
			c1.2,1.2,2.6,2.4,3.4,3.9c2.4,4.4,3.3,5.5,8.1,7.8C244.6,387.8,233.2,378.7,224.2,367.3z M513.6,619.4c2.5-2.7,1.3-4.3-0.3-5.8
			c-5.4-5.3-10.8-10.7-16.2-15.9c-1.6-1.5-3.5-2.6-5.3-3.9C497.7,603.5,508.7,608.4,513.6,619.4z M508.3,618.6
			c-0.9,5.8-0.2,10.4,3.2,12.8c1.5,1.1,5.5-1.1,8.4-1.9c0.1,0,0.1-0.3,0.4-1c-3.7,0.4-6-1-7.2-4.6
			C512.4,622.3,510.4,621,508.3,618.6z M35.5,217.7c0,5.6,1.3,6.9,5.6,4.8c-4.9-5.8-9.2-12.1-16.8-14.7
			C27.2,212.1,29.4,217.1,35.5,217.7z M447.9,583.8c-2.6,3-5.4,2.3-8,0.6c-3.5-2.3-6.3-1-9.7,0.7C438,590.7,445.4,590.2,447.9,583.8
			z M105,186.8c0.3-0.3,0.6-0.6,0.9-0.9c-8.1-7.3-15.7-15.3-26.3-19.4C88.1,173.2,96.6,180,105,186.8z M451.8,560.6
			c8.7,6,17.3,12.1,26.2,18.2C476.4,574.2,465,565.7,451.8,560.6z"/>
		<path class="st1" d="M366.2,498.9c2,1.7,4.1,3.2,5.9,5.1c1.3,1.4,4.8,2.3,1.8,5.3c-0.2,0.2,0.8,2.1,1.3,2.1c1,0.1,2.2-0.5,4.2-1.2
			c2.3,3.5,4.9,7.4,7.8,11.7c0.6-1.3,0.9-2.1,1.4-3.2c17.6,14.8,35,29.5,52.5,44.2c4.9,4.2,9.3,8.4,5.8,15.7c-0.3,0-0.8,0.1-1,0
			c-2.9-3.3-4.1-8-9.5-9.3c-2.1-0.5-4.4-4.1-4.9-6.7c-1.7-8.7-8.5-12.6-14.9-17c-1.2-0.9-2.5-1.7-3.6-2.7c-6-5.4-12-10.9-18-16.4
			c-0.3,0.3-0.6,0.5-1,0.8c0.6,0.9,1.1,2.1,2,2.8c3,2.5,6,5.1,9.1,7.3c4.9,3.5,8.5,7.5,7,14.2c-1.3,0.5-2.7,1-3.9,1.5
			c-0.2,0.7-0.5,1.1-0.4,1.4c2,5.3,6.6,9.3,8,15c0.4,1.5,3.2,3.3,5.1,3.5c5.2,0.7,8.2,3.9,11.2,7.9c-0.7,0.4-1.3,0.8-1.9,1.3
			c-3.1,2.2-3.2,4.4,0,6.1c2.5,1.3,5.4,2,8.2,2.9c-4.2,5.4-4.2,5.4,0.6,12.3c-2.4-1.1-4-1.4-4.8-2.3c-6.7-7.6-16.1-12.3-21.8-20.9
			c-1.1-1.6-2-3.2-3-4.8c0.3-0.3,0.7-0.6,1-0.8c6.7,6.7,13.4,13.5,20.2,20.2c0.3-0.3,0.7-0.6,1-0.9c-0.3-0.5-0.6-1.1-1-1.5
			c-7.6-7-15.6-13.7-22.7-21.2c-5.1-5.3-8.9-11.8-13.6-17.5c-15.2-18.6-30.3-37.3-46-55.5c-13.9-16.1-28.7-31.5-43-47.3
			c-1.5-1.7-3-3.4-3.7-5.8c11.5,11.5,22.9,22.9,34.4,34.4c0.2-0.1,0.4-0.3,0.6-0.4c-0.5-0.8-1-1.6-1.6-2.2
			c-9.4-9.7-18.8-19.3-28.3-28.9c-3.2-3.2-7.1-5.6-10.1-8.8c-5.9-6.2-11.4-12.8-17-19.2c-6.5-7.3-12.8-14.8-19.4-21.9
			c-9.8-10.6-19.8-21.1-29.7-31.6c-0.6-0.7-1.2-1.4-2.8-3.3c3.3,0.2,5.3,0.3,7.3,0.4c0.1,0.4,0.2,0.8,0.3,1.3
			c-0.7,0.6-1.4,1.2-2.7,2.4c3.7,1.6,7.2,3.2,10.7,4.8c0,0.4,0,0.8-0.1,1.1c-1.2,0-2.3,0-3.5-0.1c0,0.7-0.1,1.2,0.1,1.4
			c11.5,12,23.1,23.8,34.5,35.9c6.2,6.6,11.7,13.9,18,20.5c14.5,15.1,29.2,29.9,43.9,44.8c2.8,2.9,5.7,5.7,9.1,8.1
			c-13.4-15.5-27.5-30.3-41.6-45.2c9,9,18,18.1,27.1,27.1c1.6,1.6,2.7,4.4,6.1,3.4c0.6-0.2,2.4,2.2,2.9,3.7
			c1.6,4.5,8.1,10.2,13,11.8c2.1,0.7,3.9,2.4,5.7,3.9c18.5,15,37,30,55.5,45.1c2.7,2.2,6.1,3.6,7.2,7.8c0.5,2,3.5,3.4,5.5,5
			c10.6,8.6,21.2,17.1,31.7,25.7c-0.3,0.5-0.7,1-1,1.5c-3.5-2.3-7.4-4.3-10.5-7c-8.1-7.1-15.6-14.8-23.7-21.8
			c-10.1-8.6-20.6-16.7-30.8-25.2c-7.3-6.1-14.5-12.5-21.7-18.8c-1.1-0.9-2.2-1.8-3.3-2.7C366.8,498.2,366.5,498.6,366.2,498.9z"/>
		<path class="st1" d="M493.1,600.2c3.8,5.6,7.7,11.1,11.1,16.9c0.9,1.6-0.4,4.4,0.3,6.2c2.5,6.1-0.7,10.5-4.1,14.5
			c-4.8,5.7-11.9,6.9-18.6,6.3c-3.9-0.4-7.7-3.4-11.2-5.7c-3.1-2-5.7-4.7-8.5-7.2c-6.4-5.5-10.2-12.8-13.1-20.5
			c-2.3-6.2-0.7-12,3.8-17.2c4.5-5.2,10.1-6.7,16.3-5.5C480.9,590.3,482.9,591.6,493.1,600.2z M463.3,598.6c-0.3,0.4-0.6,0.7-0.9,1
			c11.1,10.2,22.2,20.4,33.4,30.6c-0.3,0.4-0.7,0.8-1,1.2c-2.5-2-5-4-7.5-6.1c-2.5-2.2-4.7-4.7-7.3-6.8c-2.3-1.9-3.6-5.3-8-4.5
			c7.5,7,15,14,22.3,20.7c7-3.1,9.3-5.8,7.6-11.6c-2.1-6.8-3.8-14.2-9.6-19c-4.3-3.6-8.8-7.2-13.8-9.8c-3.4-1.8-7.7-1.8-11.7-2.4
			c-0.9-0.1-2.4,0.9-2.7,1.7c-0.3,0.8,0.4,2.1,1,3c0.6,1,1.6,1.7,2.5,2.5c9,8.4,18,16.8,27,25.2c0.8,0.8,1.4,1.8,2.1,2.7
			C484.9,618.4,475.4,606.9,463.3,598.6z M487.4,638.8c-2.4-5.4-11.2-13.5-16.5-14.8c4.2,3.7,8.5,7.5,12.8,11.2
			c-0.2,0.4-0.5,0.7-0.7,1.1c-1.7-1-3.5-1.8-5-3c-5.5-4.7-10.9-9.4-16.3-14.3c-1.4-1.2-2.4-2.9-3.3-4.5c-2.6-4.4-2.8-9.4-2.4-14.7
			c-4.8,0.2-3.9,3.3-3.8,5.8c0.5,11.5,12.9,28.1,25.9,31.1C480.9,637.3,483.8,638,487.4,638.8z"/>
		<path class="st1" d="M166.4,353c5,5.3,10,10.7,15,16c-0.3,0.3-0.7,0.7-1,1c-6.3-3.6-9.7-10.3-14.9-15
			c-5.3-4.8-10.2-10.1-15.3-15.2c-0.4,0.3-0.7,0.7-1.1,1c7.7,7.6,15.3,15.3,22.9,22.9c-0.5,0.5-0.9,0.9-1.4,1.4
			c-3.9-3.6-7.9-7-11.5-10.7c-5.9-6-11.5-12.1-17.3-18.2c-2.6-2.8-5.4-5.4-8.4-8.4c-0.2,1.1-0.3,1.8-0.5,2.5
			c-30.1-28.8-55.8-61.4-83.6-92.1c0.3-0.4,0.6-0.7,0.9-1c1.8,1.5,3.7,2.9,5.4,4.6c5.6,5.7,10.6,12.3,16.9,17
			c8.1,6.1,14.1,14.2,21.6,20.8c11.5,10.1,21.6,21.8,32.4,32.8c4.6,4.7,9.8,8.9,14.2,13.7c7.1,7.6,13.8,15.5,20.8,23.1
			c1.4,1.5,3.4,2.5,5.1,3.7L166.4,353z"/>
		<path class="st1" d="M227.4,317.1c-43.8-44.8-86.8-90.4-133.5-132.3c14.1,10.1,26.5,22.1,39.1,34c12.5,11.8,24.3,24.2,36.5,36.3
			c0.3-0.3,0.7-0.6,1-0.9c-10.7-11.4-21.3-22.7-32-34.1c31.6,27,59.3,57.9,88,87.9c-9.6-6.5-16.3-16.1-24.6-24
			c-8.2-7.8-16-16.2-24.3-23.8c-0.4,0.4-0.7,0.7-1.1,1.1c17.5,18.1,35,36.2,52.5,54.3C228.4,316.1,227.9,316.6,227.4,317.1z"/>
		<path class="st1" d="M467.7,641.7c-4.9,3.9-4.9,4.2-0.8,9.1c0.7,0.9,1.7,1.9,1.8,2.9c0.3,5.2,2.9,8.9,7.3,11.7
			c-6.3-3.4-11.1-8.2-15.2-13.9c1.4,0.8,2.8,1.6,4.7,2.8c-4.9-10.7-11.8-18.6-20.5-25.2c-3.1-2.3-5-6.2-7.4-9.4
			c0.3-0.3,0.7-0.6,1-0.9c6.6,6.6,13.1,13.1,19.7,19.7c0.4-0.3,0.7-0.7,1.1-1c-5.2-5.4-10.2-11.1-15.7-16.2
			c-5.1-4.8-10.6-9.2-14.3-15.3c-0.3-0.5-0.5-1-0.9-1.7c5.9,2.4,9.3,7.3,13.4,11.5C450.3,624.5,458.9,632.9,467.7,641.7z"/>
		<path class="st1" d="M286.1,430.3c-12.9-11.9-25.5-24.1-36.4-38c-3.7-4.7-8.2-8.9-12.4-13.2c-3.4-3.5-6.8-6.8-9.9-10.5
			C231.8,370.1,266.5,406.8,286.1,430.3z"/>
		<path class="st1" d="M218.3,349.4c-1.5,5-6.7,7.8-5.8,13.9c0.9,6,5.3,8.7,8.1,13c-6.3,0.7-10.8-6.1-11.5-15.5
			C208.6,354.3,211.5,350.5,218.3,349.4z"/>
		<path class="st1" d="M495.8,648.6c-5.1-0.1-2.7,9.2-9.4,5.7c1.1-4.2,4.7-6.1,7.8-8.1c2.5-1.7,5.2,0.3,4.7,3.5
			c-0.4,3.2-1.8,6.3-2.7,9.4c-3.2,0.7-6.1,1.4-9,2.1C490.8,657.4,494.6,654.3,495.8,648.6z"/>
		<path class="st1" d="M484.7,579.4c15,8.6,27.3,20.1,37.3,34.5c-0.8-0.4-1.9-0.6-2.2-1.2c-6.5-11.6-17.7-18.3-27.8-26.1
			c-2.7-2.1-5.4-4.2-8.1-6.3C484.1,580,484.4,579.7,484.7,579.4z"/>
		<path class="st1" d="M180.7,256.1c13.4,13.5,28,25.8,39.5,41.1c-13.4-13.4-26.9-26.9-40.3-40.3
			C180.1,256.6,180.4,256.3,180.7,256.1z"/>
		<path class="st1" d="M144.4,285c7.7,7.6,15.3,15.3,22.9,22.9C163,306.7,147.4,291.6,144.4,285z"/>
		<path class="st1" d="M166.6,353c-5-5-9.9-9.9-14.9-14.9c12.6,9.6,24.5,19.8,34.5,32c-0.4,0.5-0.9,0.9-1.3,1.4
			c-6.2-6.2-12.4-12.4-18.5-18.5L166.6,353z"/>
		<path class="st1" d="M224.2,367.3c9,11.3,20.4,20.5,29,32.3c-4.8-2.3-5.7-3.4-8.1-7.8c-0.8-1.5-2.2-2.7-3.4-3.9
			c-5.2-5-10.5-9.9-15.6-15c-1.3-1.3-2.2-2.9-3.3-4.3C223.2,368.2,223.7,367.8,224.2,367.3z"/>
		<path class="st1" d="M513.6,619.4c-4.9-10.9-15.9-15.9-21.9-25.7c1.8,1.3,3.7,2.4,5.3,3.9c5.5,5.2,10.8,10.6,16.2,15.9
			C514.9,615.1,516.1,616.7,513.6,619.4z"/>
		<path class="st1" d="M508.3,618.6c2.1,2.3,4.1,3.6,4.7,5.4c1.2,3.6,3.5,5,7.2,4.6c-0.2,0.6-0.3,0.9-0.4,1c-2.9,0.8-6.9,3-8.4,1.9
			C508,629,507.3,624.5,508.3,618.6z"/>
		<path class="st1" d="M35.5,217.7c-6.1-0.6-8.3-5.6-11.2-9.9c7.6,2.6,12,8.8,16.8,14.7C36.9,224.5,35.5,223.3,35.5,217.7z"/>
		<path class="st1" d="M447.9,583.8c-2.5,6.4-9.9,6.9-17.7,1.3c3.4-1.7,6.2-2.9,9.7-0.7C442.5,586.1,445.3,586.8,447.9,583.8z"/>
		<path class="st1" d="M105,186.8c-8.5-6.8-16.9-13.6-25.4-20.4c10.6,4.1,18.1,12.2,26.3,19.4C105.6,186.2,105.3,186.5,105,186.8z"
			/>
		<path class="st1" d="M451.8,560.6c13.2,5.2,24.7,13.6,26.2,18.2C469.1,572.6,460.4,566.6,451.8,560.6z"/>
		<path class="st0" d="M463.3,598.6c12.1,8.3,21.6,19.7,33.6,28.4c-0.7-0.9-1.3-1.9-2.1-2.7c-9-8.4-18-16.8-27-25.2
			c-0.9-0.8-1.8-1.5-2.5-2.5c-0.6-0.9-1.3-2.2-1-3c0.3-0.8,1.8-1.8,2.7-1.7c3.9,0.5,8.3,0.6,11.7,2.4c5,2.6,9.5,6.2,13.8,9.8
			c5.8,4.9,7.5,12.3,9.6,19c1.8,5.8-0.6,8.6-7.6,11.6c-7.3-6.8-14.8-13.8-22.3-20.7c4.3-0.8,5.6,2.6,8,4.5c2.6,2.1,4.8,4.6,7.3,6.8
			c2.4,2.1,5,4.1,7.5,6.1c0.3-0.4,0.7-0.8,1-1.2c-11.1-10.2-22.3-20.4-33.4-30.6C462.7,599.3,463,599,463.3,598.6z M468,595.8
			c9.6,8.8,19.3,17.6,29.7,27C495.8,617.3,475,598.3,468,595.8z"/>
		<path class="st0" d="M487.4,638.8c-3.6-0.8-6.5-1.5-9.4-2.2c-13-3-25.4-19.6-25.9-31.1c-0.1-2.5-1-5.6,3.8-5.8
			c-0.5,5.3-0.3,10.2,2.4,14.7c0.9,1.6,2,3.3,3.3,4.5c5.3,4.9,10.8,9.6,16.3,14.3c1.5,1.2,3.3,2,5,3c0.2-0.4,0.5-0.7,0.7-1.1
			c-4.3-3.7-8.5-7.5-12.8-11.2C476.2,625.3,485,633.4,487.4,638.8z"/>
		<path class="st1" d="M468,595.8c7,2.5,27.8,21.6,29.7,27C487.3,613.3,477.6,604.6,468,595.8z"/>
	</g>
</g>
</svg>
