<?xml version="1.0" encoding="utf-8"?>
<!-- Generator: Adobe Illustrator 21.1.0, SVG Export Plug-In . SVG Version: 6.00 Build 0)  -->
<svg version="1.1" id="Layer_1" xmlns="http://www.w3.org/2000/svg" xmlns:xlink="http://www.w3.org/1999/xlink" x="0px" y="0px"
	 viewBox="0 0 612 792" style="enable-background:new 0 0 612 792;" xml:space="preserve">
<style type="text/css">
	.st0{fill:#232323;}
</style>
<g>
	<g>
		<path class="st0" d="M282.8,388.7c-14.7-0.3-29.5-2-43.4-5.9c-29.1-8.2-0.3-25.5,14.5-30.9c12.2-4.5,27.6-7.1,44.2-7.8
			c0,0,14.9,0.1,14.9,0c9.6,0.3,19.4,1.3,29,3c0.6,0.1,1.8,0.3,2.4,0.4l1.5-6.7c-1-0.2-2.6-0.6-3.6-0.8c-8.5-2-17.8-3.7-27.5-4.8
			c0,0-14.6-1.4-14.6-1.3c-30.6-1.8-62.9,2.8-84.5,22c-19.9,17.7,19.9,34.5,31.6,37.7c10.6,3,21.7,4.7,32.9,5.7
			c0.2,0,1.2,0.1,1.2,0.1l3.2-10.6C284.6,388.7,283.2,388.7,282.8,388.7z"/>
		<path class="st0" d="M439.7,399.9c-4.8-12.5-14.1-22.6-25.6-30.8c22.5-16.4,37.7-40.1,20.7-67c-21.9-34.7-74.5-48.9-112.3-63.2
			c-2.2-28.2-9.4-55.7-25.2-76.9c-8.2-11-20.2-15.7-33.4-15.7c-20.9,0-17.9,23.6-13.7,37c9.1,29.1,31.8,45.1,57.2,57.2
			c0.2,2.6,0.4,5.3,0.5,7.9c1,27.1-1.9,54.5-7.1,81.8c-0.1,0.3-0.3,1.8-0.4,2.1l14.6,1.2c0.1-0.5,0.4-2.3,0.5-2.7
			c1.1-5.5,2.1-10.9,3-16.4c3.4-20.4,5.5-43.7,4.5-67c31.5,12.8,107.5,29.9,104.1,74.1c-1.3,17.2-11.6,30-26,39.7
			c-12.1-6.6-25.5-11.7-38.1-15.5c1.9-9.6,3.8-19.3,5.6-28.9c0.9-4.7-14-12.8-15-7.5c-1.6,8.1-3.2,16.1-4.8,24.2l0.1,0l-0.7,3
			c-0.3,1.6-7.3,35.6-10,47.6c-12,2.2-23.3,3.5-32.1,4.2c-1.4,0.1-2.7,0.1-4.1,0.2c3.7-13.4,6.9-26.8,9.8-40.4
			c0.1-0.3,0.4-1.9,0.5-2.3l-14.8,0.2c-0.1,0.5-0.4,1.7-0.5,2.1c-3.1,13.6-6.7,27.2-10.8,40.7c-0.1,0-3.4,10.8-3.3,10.8
			c-9.9,31.6-21.7,62.5-33.1,92c-2,5.1,13,13.2,14.5,9.4c12.8-33,24.5-66.6,34.3-100.8c12.2,0,24.5-0.9,36.6-2.7
			c-9.8,42.8-21.5,85.1-36.5,126.6c-37.8,15.4-84.5,36-86.4,80.5c-0.5,12.5,15,22.5,26.2,22.2c32.2-0.6,46-25.1,58.3-51.7
			c6.1-13.3,11.5-26.8,16.7-40.4C381.6,506.5,468.3,474,439.7,399.9z M261.8,169c0.6-12.6,18.2-15.5,25.9-5.3
			c5.9,7.9,8.9,18.7,11.7,28.1c4,13,6.2,26.7,7.5,40.4C281.9,220.1,260.3,199.6,261.8,169z M290.6,546.2
			c-9.3,23.5-20.3,56.6-45.6,67c-36.6,15.1,0.2-41.8,11.7-50.1c8.9-6.5,21-12.6,34.6-18.7C291,545,290.8,545.6,290.6,546.2z
			 M356.2,380c2-9.5,3.9-19,5.7-28.5c11.8,3.4,23.1,7.8,32.9,13.5C383.2,371.7,369.7,376.5,356.2,380z M320.8,514.9
			c13.5-39.4,23.6-79.8,32.3-120.6c5.7-1.2,11.4-2.5,17-4c11.5-3.1,25-8.8,37.2-16.5c7.5,6.1,13.7,13,18,21
			C458.3,456.8,364.9,496.1,320.8,514.9z"/>
	</g>
	<path class="st0" d="M475.3,235c-41.2-41.2-95.9-63.8-154.1-63.8c-58.2,0-113,22.7-154.1,63.8c-41.2,41.2-63.8,95.9-63.8,154.1
		c0,58.2,22.7,113,63.8,154.1c41.2,41.2,95.9,63.8,154.1,63.8c58.2,0,113-22.7,154.1-63.8c41.2-41.2,63.8-95.9,63.8-154.1
		C539.1,330.9,516.5,276.2,475.3,235z M324.1,594.4c-113.2,0-205.2-92.1-205.2-205.2c0-113.2,92.1-205.2,205.2-205.2
		c113.2,0,205.2,92.1,205.2,205.2C529.3,502.3,437.2,594.4,324.1,594.4z"/>
</g>
</svg>
