<?xml version="1.0" encoding="utf-8"?>
<!-- Generator: Adobe Illustrator 21.1.0, SVG Export Plug-In . SVG Version: 6.00 Build 0)  -->
<svg version="1.1" xmlns="http://www.w3.org/2000/svg" xmlns:xlink="http://www.w3.org/1999/xlink" x="0px" y="0px"
	 viewBox="0 0 396 612" style="enable-background:new 0 0 396 612;" xml:space="preserve">
<style type="text/css">
	.st0{display:none;}
	.st1{display:inline;fill:#444545;}
	.st2{display:inline;fill:#757576;}
	.st3{fill-rule:evenodd;clip-rule:evenodd;}
	.st4{fill-rule:evenodd;clip-rule:evenodd;fill:none;}
	.st5{clip-path:url(#SVGID_2_);}
	.st6{clip-path:url(#SVGID_4_);fill:#232323;}
	.st7{clip-path:url(#SVGID_6_);}
	.st8{clip-path:url(#SVGID_8_);fill:#232323;}
	.st9{clip-path:url(#SVGID_10_);}
	.st10{clip-path:url(#SVGID_12_);fill:#232323;}
	.st11{clip-path:url(#SVGID_14_);}
	.st12{clip-path:url(#SVGID_16_);fill:#232323;}
	.st13{clip-path:url(#SVGID_18_);}
	.st14{clip-path:url(#SVGID_20_);fill:#232323;}
	.st15{fill:none;stroke:#000000;stroke-width:0.5;stroke-miterlimit:10;}
	.st16{fill:none;stroke:#000000;stroke-width:0.5;stroke-miterlimit:10;stroke-dasharray:0.5026,0.5026;}
	.st17{fill:none;}
	.st18{font-family:'Lato-Light';}
	.st19{font-size:9px;}
	.st20{font-family:'Lato-Regular';}
	.st21{font-size:21px;}
	.st22{font-size:12px;}
	.st23{font-family:'Lato-Thin';}
	.st24{font-size:7px;}
	.st25{fill:none;stroke:#000000;stroke-miterlimit:10;}
	.st26{fill:none;stroke:#000000;stroke-miterlimit:10;stroke-dasharray:1.0034,1.0034;}
	.st27{fill:none;stroke:#000000;stroke-width:0.25;stroke-miterlimit:10;}
	.st28{fill:#070808;}
</style>
<g id="backround" class="st0">
	<rect x="-0.9" class="st2" width="396.9" height="612"/>
</g>
<g id="graphics">
	<g>
		<g>
			<path class="st3" d="M201.7,95.2c-0.2,0.4-0.5,0.6-1,0.7c-0.2,0-0.3,0.2-0.4,0.3c-0.6,0.9-1.5,1.3-2.6,1.4c-1.3,0-2.6,0.1-4,0.1
				c-3.7,0-7.3-0.1-11-0.1c-2.3,0-4.7-0.1-7-0.1c-0.9,0-1.7,0-2.6,0.1c-1,0-2,0-3-0.5c-0.7-0.3-1.3-0.8-1.6-1.6
				c-0.2-0.4-0.4-0.8-0.3-1.3c0.2-1,0.7-1.8,1.7-2.2c0.7-0.3,1.4-0.3,2.2-0.2c0.8,0.1,1.5,0.1,2.3,0.1c6.8-0.1,13.6-0.1,20.4-0.2
				c1.6,0,3.3,0,4.9,0.1c0.2,0,0.5,0.1,0.7,0.2c0.1,0,0.2,0.1,0.2,0.1c0.4-0.1,0.7,0.1,1,0.4c0.5-0.2,1-0.4,1.5-0.1c0,0,0,0,0,0
				c0.6-0.2,1.2,0.2,1.8-0.1c0.1,0,0.2,0,0.2,0c1.1,0,2.2,0,3.3,0c0.7,0.1,1.5,0,2.2,0c1.1-0.1,2.1-0.2,3.2-0.4
				c0.3,0,0.6-0.2,0.8-0.3c0.9-0.3,1.9-0.5,2.8-0.7c0.5-0.1,1-0.3,1.5-0.2c0.8,0.1,1.6-0.2,2.4-0.2c1,0,2-0.1,2.9,0.3
				c0.6,0.2,1.2,0.5,1.7,0.8c0.7,0.4,0.9,1.2,1,1.9c0.2,0.8-0.2,1.5-0.6,2.2c-0.2,0.3-0.5,0.4-0.8,0.6c-0.5,0.2-1,0.5-1.5,0.6
				c-1.4,0.3-2.8,0.3-4.3,0c-0.8-0.1-1.5-0.2-2.3-0.3c-0.7-0.1-1.3-0.2-2-0.4c-1.7-0.4-3.3-0.5-5-0.4c-1.6,0.1-3.1,0.1-4.7,0.2
				c-0.6,0-1.2-0.1-1.8-0.4c-0.3-0.2-0.7-0.1-1.1,0C202.5,95.5,202.1,95.6,201.7,95.2z M198.2,97.3
				C198.2,97.3,198.2,97.3,198.2,97.3c-6-0.1-12-0.2-18-0.3c0,0,0-0.1,0-0.1c0.1,0,0.3,0,0.4,0c1.3,0,2.5,0.1,3.8,0.1
				c4.6,0,9.2,0.1,13.7,0.1c0.2,0,0.4,0.1,0.6,0.1c0.7-0.1,1.5-1,1.5-1.7c0-1,0-2.1,0-3.2c-0.2,0-0.3-0.1-0.5-0.1
				c-2,0-3.9-0.1-5.9-0.1c-6.7,0-13.3,0.1-20,0.2c-1.1,0-2.1,0-3.2,0.1c-0.7,0-1.3,0.4-1.6,1.1c0.3,0,0.5,0.1,0.7,0.1
				c1.6,0,3.2,0,4.7,0c1.5,0,3,0,4.5,0.1c0.1,0,0.2,0,0.4,0c-0.4,0.1-0.7,0.1-1,0.1c-2.3,0-4.6,0-6.9,0c-0.8,0-1.7,0-2.6-0.1
				c0,0.2-0.1,0.4-0.2,0.6c0.1,0,0.1,0.1,0.1,0.1c4.6,0.1,9.2,0.2,13.7,0.2c0,0,0.1,0,0.1,0c0,0,0,0,0,0c0,0,0,0,0,0
				c-4.6-0.1-9.3-0.1-13.9-0.2c0,0.6,0,0.6,0.5,0.6c1.7,0,3.4,0.1,5,0.1c0.1,0,0.2,0,0.4,0c0,0,0,0.1,0,0.1
				c-1.9,0.1-3.8-0.2-5.8-0.1c0.2,0.6,0.2,0.6,0.7,0.6c0.7,0,1.5,0,2.2,0c1.5,0,3.1,0.1,4.6,0.1c0.1,0,0.1,0,0.2,0.1
				c0,0,0,0.1,0,0.1c-0.5,0-0.9,0-1.4,0c-1.5,0-2.9-0.1-4.4-0.1c-0.5,0-1,0.1-1.4,0.1c0,0,0,0.1,0,0.1c0.4,0.2,0.8,0,1.2,0
				c0.5,0,0.9,0,1.4,0c0.4,0,0.9,0,1.3,0c0.4,0,0.9,0,1.3,0c0.5,0,0.9,0,1.4,0c0.4,0,0.8,0,1.3,0c0,0,0,0.1,0,0.1
				c-2.5,0.1-4.9-0.2-7.4,0.1c0.2,0.2,0.3,0.3,0.5,0.4c0.6,0.2,1.2,0.3,1.8,0.4c1,0.1,2,0,3,0c4.4,0.1,8.7,0.1,13.1,0.2
				c3,0,6.1,0,9.1,0C197.6,97.4,197.9,97.4,198.2,97.3z M203.8,93.7c0.1,0,0.1,0,0.2,0c0.1,0.2,0.2,0.3,0.2,0.5c0,0.2,0,0.4-0.1,0.6
				c-0.1,0.4,0,0.5,0.4,0.7c0.3,0.1,0.7,0.2,1,0.2c1.2,0,2.4-0.1,3.6-0.1c0,0,0.1,0,0.2-0.1c-0.9,0-1.7,0-2.6,0
				c0.5-0.1,1-0.1,1.5-0.2c0.5,0,0.9,0,1.4,0c0.4,0,0.9-0.1,1.3,0c0.5,0.1,0.8-0.1,1.2-0.1c0.5,0,1.1,0,1.6,0.1
				c1,0.2,2.1,0.3,3.1,0.5c0.1,0,0.3,0.1,0.4,0.1c0,0,0,0.1,0,0.1c-0.5-0.1-1-0.1-1.5-0.2c0.5,0.2,0.9,0.3,1.4,0.4
				c0.3,0.1,0.7,0,1,0.1c0.4,0.1,0.7,0.2,1.1,0.2c0.2,0,0.4,0,0.5-0.2c-0.2-0.1-0.3-0.1-0.5-0.2c-0.5-0.1-0.9-0.5-1.5-0.3
				c-0.3,0.1-0.5-0.2-0.5-0.5c0-0.2,0.1-0.4,0.1-0.5c0-0.2,0-0.3,0-0.5c-0.2,0.1-0.4,0.1-0.6,0.2c0-0.2,0-0.3,0-0.5
				c0-0.1,0-0.2,0-0.3c-0.1-0.2-0.2-0.1-0.4-0.1c-0.2,0.1-0.4,0.1-0.6,0.2c-0.2,0.5-0.8,1-1.3,1.1c-0.2,0-0.3-0.1-0.3-0.3
				c0-0.2,0.2-0.3,0.3-0.4c0,0,0.1,0,0.1,0.1c0,0.1-0.1,0.2-0.1,0.4c0.8-0.2,0.8-0.2,0.6-0.6c-0.3,0-0.5,0-0.8-0.1
				c-0.2-0.1-0.4-0.1-0.5,0.1c-0.1,0.2-0.3,0.3-0.5,0.2c-0.3-0.1-0.7-0.3-1-0.4c-0.1-0.1-0.2-0.2-0.3-0.3c0.1-0.1,0.3-0.2,0.4-0.3
				c0.2,0,0.4,0,0.6,0.1c0-0.1,0.1-0.3,0.1-0.4c-1,0.1-2,0.2-2.9,0.3c-0.9,0-1.9,0-2.8,0c-0.9,0-1.9-0.1-2.8-0.1c0,0,0-0.1,0-0.2
				c0.2,0,0.3,0,0.5,0c2.3,0,4.6,0.2,6.8-0.1c0.6-0.1,1.1,0,1.7-0.1c0.7-0.1,1.5-0.3,2.2-0.5c0.6-0.1,1.2-0.3,1.8-0.5
				c0,0,0-0.1,0.1-0.1c-0.1,0-0.2,0-0.2,0c-1.8,0.4-3.6,1-5.5,1.1c-1.5,0.1-3.1,0.1-4.6,0.2c-0.7,0-1.3,0-2,0c-0.3,0-0.7,0.1-1-0.2
				c0,0-0.2,0-0.2,0c-0.1,0.1-0.2,0.3-0.3,0.4c-0.1,0-0.3-0.1-0.4-0.2c0,0.8,0.1,1.5,0.1,2.2C203.9,94.6,203.8,94.2,203.8,93.7z
				 M223.1,94.4C223.1,94.3,223,94.3,223.1,94.4c0-0.2,0.2-0.4,0.2-0.6c0-0.5-0.3-0.9-0.7-1.2c-0.1-0.1-0.3-0.1-0.4-0.2
				c-0.4-0.3-0.9-0.4-1.4-0.4c-0.1,0-0.2,0-0.3-0.1c0,0,0-0.1,0-0.1c0.4,0,0.8,0.1,1.2,0.1c0-0.1,0-0.1,0-0.2c-0.2,0-0.5-0.1-0.7,0
				c-0.6,0.1-1.3,0.1-1.8,0.4c-0.4,0.2-0.8,0.2-1.2,0.5c-0.5,0.3-0.7,0.8-0.6,1.3c0,0.6,0.4,1,1,1.3c0.2,0.1,0.4,0.2,0.5,0.3
				c0.1,0,0.1,0.1,0.2,0.1c0.6,0,1.2,0,1.8,0c0.4,0,0.9,0,1.3,0c0.2-0.2,0.3-0.4,0.5-0.5c0.4-0.2,0.5-0.4,0.6-0.8c0,0,0,0-0.1-0.1
				C223.2,94.2,223.2,94.3,223.1,94.4z M202,95c0.4,0.3,0.8,0.1,1.3,0c0-0.3,0-0.6,0-0.9c-0.5,0-0.9,0-1.3,0c0,0,0-0.1,0-0.1
				c0.4,0,0.8,0,1.2-0.1c0,0,0-0.1,0-0.1c-0.3,0-0.7,0-1,0c-0.3,0-0.4,0.2-0.3,0.5C201.9,94.5,202,94.8,202,95z M219.1,95.9
				c0.7,0.4,3.1,0.5,3.8,0.1c-1.2,0-2.3,0.3-3.4-0.1c0.8,0,1.6,0,2.4-0.1c-0.8,0-1.7,0-2.5,0C219.3,95.7,219.2,95.8,219.1,95.9z
				 M200.8,95.5c0.3-0.1,0.3-0.4,0.4-0.6c0.1-0.8,0.1-1.7-0.2-2.5c-0.1,0.1-0.2,0.2-0.2,0.3C200.8,93.6,200.8,94.5,200.8,95.5z
				 M218.3,91.4c0,0,0,0.1,0,0.1c0.1,0,0.3,0.1,0.4,0c1.4-0.5,2.8-0.4,4.3-0.4C221.4,90.6,219.9,91.3,218.3,91.4z M225.4,95.7
				c-1.5,0.4-3,0.8-4.6,0.7C222.2,96.7,224.5,96.3,225.4,95.7z M223,92.5c0.2-0.5,0.1-0.8-0.2-1c-0.4-0.2-0.6-0.1-0.8,0.5
				C222.3,92.1,222.6,92.3,223,92.5z M223.7,95.2c-0.6-0.3-1.1-0.1-1.2,0.5c0.4-0.2,0.6-0.1,0.8,0.3
				C223.8,95.9,223.6,95.5,223.7,95.2z M200.5,92.6c0,0.9-0.1,1.9,0,2.8C200.7,94.5,200.7,93.5,200.5,92.6z M216,92.6
				c0.2,0.2,0.3,0.3,0.5,0.4c0.2,0.1,0.4,0.1,0.7,0.1c0.2-0.2,0.1-0.4-0.1-0.6c-0.1-0.2-0.3-0.1-0.5,0
				C216.5,92.5,216.3,92.5,216,92.6z"/>
			<path class="st4" d="M198.2,97.3c-0.3,0-0.6,0.1-0.8,0.1c-3,0-6.1,0-9.1,0c-4.4,0-8.7-0.1-13.1-0.2c-1,0-2,0.1-3,0
				c-0.6,0-1.2-0.2-1.8-0.4c-0.2,0-0.3-0.2-0.5-0.4c2.5-0.3,4.9,0,7.4-0.1c0,0,0-0.1,0-0.1c-0.4,0-0.8,0-1.3,0c-0.5,0-0.9,0-1.4,0
				c-0.4,0-0.9,0-1.3,0c-0.4,0-0.9,0-1.3,0c-0.5,0-0.9,0.1-1.4,0c-0.4,0-0.8,0.2-1.2,0c0,0,0-0.1,0-0.1c0.5,0,1-0.1,1.4-0.1
				c1.5,0,2.9,0.1,4.4,0.1c0.5,0,0.9,0,1.4,0c0,0,0-0.1,0-0.1c-0.1,0-0.1-0.1-0.2-0.1c-1.5,0-3.1-0.1-4.6-0.1c-0.7,0-1.5,0-2.2,0
				c-0.5,0-0.6,0-0.7-0.6c1.9-0.1,3.9,0.1,5.8,0.1c0,0,0-0.1,0-0.1c-0.1,0-0.2,0-0.4,0c-1.7,0-3.4-0.1-5-0.1c-0.5,0-0.5,0-0.5-0.6
				c4.6,0.1,9.3,0.1,13.9,0.2c0,0,0,0,0,0c0,0,0,0,0,0c0,0-0.1,0-0.1,0c-4.6-0.1-9.2-0.2-13.7-0.2c0,0,0,0-0.1-0.1
				c0.1-0.2,0.1-0.4,0.2-0.6c0.9,0,1.8,0.1,2.6,0.1c2.3,0,4.6,0,6.9,0c0.3,0,0.7,0,1-0.1c-0.1,0-0.2,0-0.4,0c-1.5,0-3,0-4.5-0.1
				c-1.6,0-3.2,0-4.7,0c-0.2,0-0.4-0.1-0.7-0.1c0.4-0.7,0.9-1.1,1.6-1.1c1.1,0,2.1,0,3.2-0.1c6.7-0.1,13.3-0.1,20-0.2
				c2,0,3.9,0,5.9,0.1c0.2,0,0.3,0,0.5,0.1c0,1.1,0,2.1,0,3.2c0,0.7-0.8,1.6-1.5,1.7c-0.2,0-0.4-0.1-0.6-0.1
				c-4.6,0-9.2-0.1-13.7-0.1c-1.3,0-2.5-0.1-3.8-0.1c-0.1,0-0.3,0-0.4,0c0,0,0,0.1,0,0.1C186.2,97.1,192.2,97.2,198.2,97.3
				C198.2,97.3,198.2,97.3,198.2,97.3z M191.5,94.5c0-0.1,0-0.1,0-0.2c-7,0-14-0.4-21-0.3c0,0,0,0.1,0,0.1
				C177.6,94.2,184.6,94.3,191.5,94.5z M179.6,95.9c0,0.1,0,0.1,0,0.2c6.1,0,12.2,0.2,18.2,0.1c0,0,0-0.1,0-0.1
				C191.8,96.1,185.7,96,179.6,95.9z M184.7,96.4c4.9,0,9.8,0.3,14.6,0.1c0,0,0-0.1,0-0.1C194.4,96.4,189.5,96.4,184.7,96.4z
				 M183.1,96.7c-4.3-0.2-8.6-0.2-13-0.2C174.5,96.8,178.8,96.7,183.1,96.7z M181.3,92.9C181.2,92.9,181.2,93,181.3,92.9
				c0.5,0.1,1,0.1,1.5,0.1c3.1,0,6.2,0,9.4,0c0,0,0,0,0,0c0,0,0,0,0-0.1C188.5,92.9,184.9,92.9,181.3,92.9z M187,95.4
				c0,0,0,0.1,0,0.1c0.2,0,0.3,0,0.5,0c0.9,0,1.7,0,2.6,0c2.5,0,5,0,7.5,0c0.2,0,0.3,0,0.5,0c0,0,0-0.1,0-0.1
				C194.4,95.4,190.7,95.4,187,95.4z M169.1,95.5c0,0.1,0,0.1,0,0.2c3.7,0.1,7.4,0.1,11.1,0.2c0,0,0-0.1,0-0.1
				C176.6,95.6,172.8,95.5,169.1,95.5z M185.4,94.6c0,0,0,0.1,0,0.1c3.5,0.1,7,0.1,10.5,0.2c0,0,0-0.1,0-0.1
				C192.4,94.7,188.9,94.6,185.4,94.6z M169,94.7c0,0,0,0.1,0,0.1c3.7,0.1,7.3,0.1,11,0.1c0,0,0-0.1,0-0.1
				C176.4,94.8,172.7,94.8,169,94.7z M185.9,93.5C186,93.5,186,93.5,185.9,93.5c2.4,0.1,4.8,0.1,7.2,0.1c0,0,0-0.1,0-0.1
				C190.8,93.5,188.4,93.5,185.9,93.5z M180.1,93.7c0,0.1,0,0.1,0,0.2c3.2,0.1,6.3,0.1,9.5,0.2c0,0,0-0.1,0-0.1
				C186.5,93.8,183.3,93.8,180.1,93.7z M190.4,95.8c3.1,0,6.1,0.2,9.2,0.1c0,0,0-0.1,0-0.1C196.5,95.8,193.5,95.8,190.4,95.8z
				 M191.6,96.8c2.5,0.1,4.9,0.3,7.4,0.1c0,0,0-0.1,0-0.1C196.5,96.8,194,96.8,191.6,96.8z M171.6,97C171.6,97,171.6,97,171.6,97
				c2.7,0.1,5.4,0.1,8.1,0.1c0,0,0,0,0-0.1C177,97,174.3,97,171.6,97z M179.2,93.3C179.2,93.3,179.2,93.3,179.2,93.3
				c-2.1-0.1-4.1-0.1-6.2-0.1c0,0,0,0,0,0.1C175.1,93.3,177.1,93.3,179.2,93.3z M183.5,96.7C183.5,96.8,183.5,96.8,183.5,96.7
				c2.5,0.1,5,0.1,7.5,0.1c0,0,0-0.1,0-0.1C188.5,96.7,186,96.7,183.5,96.7z M170.1,92.8c1.3,0.2,2.7,0.1,4,0.1
				C172.8,92.7,171.4,92.8,170.1,92.8z M187,95C187,95.1,187,95.1,187,95c1.7,0.1,3.4,0.1,5,0.1c0,0,0-0.1,0-0.1
				C190.4,95,188.7,95,187,95z M180.1,95.3c0,0,0-0.1,0-0.1c-1.7,0-3.4-0.1-5.1,0c0,0,0,0.1,0,0.1C176.8,95.3,178.4,95.3,180.1,95.3
				z M186.3,95.4c-1.2-0.1-2.4-0.2-3.6-0.1c0,0,0,0.1,0,0.1C183.9,95.4,185.1,95.4,186.3,95.4z M177.9,96.2c0,0,0,0.1,0,0.1
				c1.1,0,2.3,0,3.4,0c0,0,0,0,0-0.1C180.2,96.3,179.1,96.2,177.9,96.2z M176.4,92.8c0,0,0,0.1,0,0.1c1.2,0,2.4,0,3.5,0
				c0,0,0-0.1,0-0.1C178.7,92.8,177.6,92.8,176.4,92.8z"/>
			<path class="st4" d="M203.8,93.7c0,0.5,0.1,0.9-0.2,1.3c0-0.7-0.1-1.5-0.1-2.2c0.2,0.1,0.3,0.2,0.4,0.2c0.1,0,0.2-0.2,0.3-0.4
				c0.1,0,0.2,0,0.2,0c0.3,0.3,0.7,0.2,1,0.2c0.7,0,1.3,0,2,0c1.5,0,3.1-0.1,4.6-0.2c1.9-0.1,3.7-0.7,5.5-1.1c0.1,0,0.1,0,0.2,0
				c-0.1,0.1-0.1,0.1-0.1,0.1c-0.6,0.2-1.2,0.3-1.8,0.5c-0.7,0.2-1.5,0.4-2.2,0.5c-0.6,0.1-1.1,0-1.7,0.1c-2.3,0.3-4.6,0.1-6.8,0.1
				c-0.2,0-0.3,0-0.5,0c0,0,0,0.1,0,0.2c0.9,0,1.9,0.1,2.8,0.1c0.9,0,1.9,0,2.8,0c1,0,1.9-0.2,2.9-0.3c-0.1,0.2-0.1,0.3-0.1,0.4
				c-0.2,0-0.4-0.1-0.6-0.1c-0.2,0-0.3,0.2-0.4,0.3c0.1,0.1,0.2,0.3,0.3,0.3c0.3,0.2,0.7,0.3,1,0.4c0.2,0.1,0.4,0,0.5-0.2
				c0.1-0.2,0.3-0.2,0.5-0.1c0.2,0.1,0.5,0.1,0.8,0.1c0.1,0.5,0.1,0.5-0.6,0.6c0.1-0.1,0.1-0.3,0.1-0.4c0,0-0.1,0-0.1-0.1
				c-0.1,0.1-0.2,0.3-0.3,0.4c-0.1,0.2,0,0.3,0.3,0.3c0.5-0.1,1.1-0.5,1.3-1.1c0.2-0.1,0.4-0.1,0.6-0.2c0.1-0.1,0.3-0.1,0.4,0.1
				c0,0.1,0,0.2,0,0.3c0,0.1,0,0.3,0,0.5c0.2-0.1,0.4-0.1,0.6-0.2c0,0.2,0,0.4,0,0.5c0,0.2-0.1,0.4-0.1,0.5c0,0.3,0.2,0.6,0.5,0.5
				c0.6-0.2,1,0.2,1.5,0.3c0.2,0,0.3,0.1,0.5,0.2c-0.1,0.2-0.3,0.2-0.5,0.2c-0.4-0.1-0.7-0.2-1.1-0.2c-0.3-0.1-0.7,0-1-0.1
				c-0.5-0.1-0.9-0.2-1.4-0.4c0.5,0.1,1,0.1,1.5,0.2c0,0,0-0.1,0-0.1c-0.1,0-0.3-0.1-0.4-0.1c-1-0.2-2-0.4-3.1-0.5
				c-0.5-0.1-1.1-0.1-1.6-0.1c-0.4,0-0.8,0.2-1.2,0.1c-0.4-0.1-0.9,0-1.3,0c-0.5,0-0.9,0-1.4,0c-0.5,0-1,0.1-1.5,0.2
				c0.8,0,1.6,0,2.6,0c-0.1,0.1-0.1,0.1-0.2,0.1c-1.2,0-2.4,0.1-3.6,0.1c-0.3,0-0.7-0.1-1-0.2c-0.4-0.1-0.4-0.2-0.4-0.7
				c0-0.2,0.1-0.4,0.1-0.6c0-0.2-0.1-0.3-0.2-0.5C203.9,93.7,203.9,93.7,203.8,93.7z M204.6,93.3c0,0,0,0.1,0,0.1
				c2.4,0,4.8,0.2,7.2-0.1C209.3,93.3,206.9,93.3,204.6,93.3z M208,93.8c0,0,0-0.1,0-0.1c-1.2,0-2.4,0-3.5,0
				C205.7,93.8,206.8,93.8,208,93.8z"/>
			<path class="st4" d="M223.1,94.4c0.1-0.1,0.1-0.1,0.2-0.2c0,0,0.1,0.1,0.1,0.1c-0.1,0.4-0.2,0.6-0.6,0.8
				c-0.2,0.1-0.3,0.3-0.5,0.5c-0.4,0-0.8,0-1.3,0c-0.6,0-1.2,0-1.8,0c-0.1,0-0.1-0.1-0.2-0.1c-0.2-0.1-0.4-0.2-0.5-0.3
				c-0.6-0.2-1-0.7-1-1.3c0-0.5,0.1-1,0.6-1.3c0.4-0.3,0.8-0.3,1.2-0.5c0.6-0.3,1.2-0.3,1.8-0.4c0.2,0,0.4,0,0.7,0
				c0,0.1,0,0.1,0,0.2c-0.4,0-0.8-0.1-1.2-0.1c0,0,0,0.1,0,0.1c0.1,0,0.2,0.1,0.3,0.1c0.5,0,1,0.1,1.4,0.4c0.1,0.1,0.3,0.1,0.4,0.2
				c0.5,0.2,0.7,0.6,0.7,1.2C223.3,94,223.1,94.1,223.1,94.4C223,94.3,223.1,94.3,223.1,94.4z M218.8,92.8c0.5,0,1.1,0,1.6,0
				c1.3,0,1.3,0,1.6,0.3c-0.6,0-1.1,0-1.6,0c0,0,0,0.1,0,0.1c0.4,0,0.8,0,1.2,0c0,0,0,0.1,0,0.1c-1.1,0.1-2.3,0-3.4,0.1
				c0,0.1,0.1,0.1,0.1,0.1c1.4,0,2.7-0.1,4.1-0.1c0.1,0,0.1,0.1,0.2,0.1c0,0,0,0.1,0,0.1c-0.6,0-1.1,0.1-1.7,0.1
				c0.3,0.2,0.5,0.1,0.8,0.1c0.3,0,0.6,0,0.8,0c0,0.1,0,0.1,0,0.2c-0.3,0-0.6,0-1,0c-0.3,0-0.6,0-1,0.1c0,0,0,0.1,0,0.1
				c0.6,0,1.1,0,1.7,0c0,0,0,0.1,0,0.1c-0.2,0.1-0.3,0.2-0.5,0.2c-0.4,0.1-0.9,0.1-1.3,0.2c0,0,0,0.1,0,0.1c0.4-0.1,0.8-0.1,1.2-0.2
				c0,0.1-0.1,0.2-0.2,0.2c-0.4,0.1-0.9,0.2-1.3,0.2c-0.8,0-1.5-0.2-2.1-0.6c-0.7-0.4-0.7-0.9-0.2-1.4c0.2-0.2,0.3-0.3,0.6-0.5
				c-0.4,0-0.5,0.1-0.8,0.5c-0.4,0.5-0.4,1.1,0.1,1.4c0.7,0.6,1.5,0.7,2.4,0.7c0.7,0.1,1.4-0.1,2-0.4c0.7-0.4,0.8-1.1,0.3-1.7
				c-0.5-0.6-1.2-0.7-1.9-0.9c-0.3-0.1-0.7,0-1,0c0,0.1,0,0.1,0,0.2c0.4,0,0.9,0,1.3,0c0,0,0,0.1,0,0.1
				C220.3,92.7,219.5,92.6,218.8,92.8z"/>
			<path class="st4" d="M202,95c-0.1-0.2-0.1-0.5-0.2-0.7c-0.2-0.3-0.1-0.5,0.3-0.5c0.3,0,0.7,0,1,0c0,0,0,0.1,0,0.1
				c-0.4,0-0.8,0-1.2,0.1c0,0,0,0.1,0,0.1c0.4,0,0.8,0,1.3,0c0,0.3,0,0.6,0,0.9C202.8,95.1,202.4,95.4,202,95z"/>
			<path class="st4" d="M219.1,95.9c0.1-0.1,0.2-0.2,0.3-0.2c0.8,0,1.7,0,2.5,0c-0.8,0.2-1.6,0.2-2.4,0.1c1.1,0.3,2.2,0,3.4,0.1
				C222.2,96.4,219.8,96.3,219.1,95.9z"/>
			<path class="st4" d="M200.8,95.5c0-1,0-1.8,0-2.7c0-0.1,0.1-0.2,0.2-0.3c0.3,0.8,0.3,1.6,0.2,2.5
				C201.2,95.1,201.2,95.4,200.8,95.5z"/>
			<path class="st4" d="M218.3,91.4c1.6-0.1,3.1-0.8,4.7-0.2c-1.4,0-2.9-0.1-4.3,0.4c-0.1,0-0.3,0-0.4,0
				C218.3,91.5,218.3,91.4,218.3,91.4z"/>
			<path class="st4" d="M225.4,95.7c-0.8,0.5-3.2,1-4.6,0.7C222.4,96.5,223.9,96.1,225.4,95.7z"/>
			<path class="st4" d="M223,92.5c-0.4-0.2-0.7-0.3-1-0.5c0.3-0.5,0.5-0.6,0.8-0.5C223.1,91.7,223.2,92,223,92.5z"/>
			<path class="st4" d="M223.7,95.2c-0.1,0.3,0.1,0.7-0.4,0.7c-0.1-0.4-0.4-0.4-0.8-0.3C222.7,95.1,223.1,94.9,223.7,95.2z"/>
			<path class="st4" d="M200.5,92.6c0.3,0.9,0.2,1.9,0,2.8C200.3,94.5,200.5,93.5,200.5,92.6z"/>
			<path class="st4" d="M216,92.6c0.3-0.1,0.4-0.1,0.6-0.1c0.2-0.1,0.3-0.2,0.5,0c0.1,0.2,0.3,0.4,0.1,0.6c-0.3,0-0.5,0-0.7-0.1
				C216.3,92.9,216.2,92.7,216,92.6z"/>
			<path class="st3" d="M191.5,94.5c-7-0.1-14-0.2-21-0.4c0,0,0-0.1,0-0.1c7-0.1,14,0.3,21,0.3C191.5,94.3,191.5,94.4,191.5,94.5z"
				/>
			<path class="st3" d="M179.6,95.9c6.1,0.1,12.2,0.1,18.3,0.2c0,0,0,0.1,0,0.1c-6.1,0.1-12.2-0.1-18.2-0.1
				C179.6,96,179.6,96,179.6,95.9z"/>
			<path class="st3" d="M184.7,96.4c4.9,0,9.8,0,14.6,0c0,0,0,0.1,0,0.1C194.4,96.7,189.5,96.5,184.7,96.4z"/>
			<path class="st3" d="M183.1,96.7c-4.3-0.1-8.6,0.1-13-0.2C174.5,96.6,178.8,96.6,183.1,96.7z"/>
			<path class="st3" d="M181.3,92.9c3.6,0,7.3,0,10.9,0c0,0.1,0,0.1,0,0.1c0,0,0,0,0,0c-3.1,0-6.2,0-9.4,0
				C182.2,93,181.7,93,181.3,92.9C181.2,93,181.2,92.9,181.3,92.9z"/>
			<path class="st3" d="M187,95.4c3.7,0,7.4,0,11.1,0c0,0,0,0.1,0,0.1c-0.2,0-0.3,0-0.5,0c-2.5,0-5,0-7.5,0c-0.9,0-1.7,0-2.6,0
				c-0.2,0-0.3,0-0.5,0C187,95.4,187,95.4,187,95.4z"/>
			<path class="st3" d="M169.1,95.5c3.7,0.1,7.4,0.1,11.1,0.2c0,0,0,0.1,0,0.1c-3.7-0.1-7.4-0.1-11.1-0.2
				C169.1,95.6,169.1,95.5,169.1,95.5z"/>
			<path class="st3" d="M185.4,94.6c3.5,0.1,7,0.1,10.5,0.2c0,0,0,0.1,0,0.1c-3.5-0.1-7-0.1-10.5-0.2
				C185.4,94.7,185.4,94.6,185.4,94.6z"/>
			<path class="st3" d="M169,94.7c3.7,0.1,7.3,0.1,11,0.2c0,0,0,0.1,0,0.1c-3.7,0-7.3,0-11-0.1C169,94.8,169,94.8,169,94.7z"/>
			<path class="st3" d="M185.9,93.5c2.4,0,4.8,0,7.2,0c0,0,0,0.1,0,0.1C190.8,93.5,188.4,93.5,185.9,93.5
				C186,93.5,186,93.5,185.9,93.5z"/>
			<path class="st3" d="M180.1,93.7c3.2,0.1,6.3,0.1,9.5,0.2c0,0,0,0.1,0,0.1c-3.2-0.1-6.3-0.1-9.5-0.2
				C180.1,93.8,180.1,93.7,180.1,93.7z"/>
			<path class="st3" d="M190.4,95.8c3.1,0,6.1,0,9.2,0c0,0,0,0.1,0,0.1C196.5,96,193.5,95.8,190.4,95.8z"/>
			<path class="st3" d="M191.6,96.8c2.5,0,4.9,0,7.4,0c0,0,0,0.1,0,0.1C196.5,97.1,194,96.9,191.6,96.8z"/>
			<path class="st3" d="M171.6,97c2.7,0,5.4,0,8.1,0c0,0,0,0,0,0.1C177,97,174.3,97,171.6,97C171.6,97,171.6,97,171.6,97z"/>
			<path class="st3" d="M179.2,93.3c-2.1,0-4.1,0-6.2,0c0,0,0,0,0-0.1C175.1,93.3,177.1,93.3,179.2,93.3
				C179.2,93.3,179.2,93.3,179.2,93.3z"/>
			<path class="st3" d="M183.5,96.7c2.5,0,5,0,7.5,0c0,0,0,0.1,0,0.1C188.5,96.8,186,96.8,183.5,96.7
				C183.5,96.8,183.5,96.8,183.5,96.7z"/>
			<path class="st3" d="M170.1,92.8c1.3,0,2.7-0.1,4,0.1C172.8,92.9,171.4,93,170.1,92.8z"/>
			<path class="st3" d="M187,95c1.7,0,3.4,0,5,0c0,0,0,0.1,0,0.1C190.4,95.1,188.7,95.1,187,95C187,95.1,187,95.1,187,95z"/>
			<path class="st3" d="M180.1,95.3c-1.7,0-3.4,0-5.1,0c0,0,0-0.1,0-0.1c1.7-0.1,3.4,0,5.1,0C180.1,95.3,180.1,95.3,180.1,95.3z"/>
			<path class="st3" d="M186.3,95.4c-1.2,0-2.4,0-3.6,0c0,0,0-0.1,0-0.1C183.9,95.2,185.1,95.3,186.3,95.4z"/>
			<path class="st3" d="M177.9,96.2c1.1,0,2.3,0.1,3.4,0.1c0,0,0,0,0,0.1c-1.1,0-2.3,0-3.4,0C177.9,96.3,177.9,96.3,177.9,96.2z"/>
			<path class="st3" d="M176.4,92.8c1.2,0,2.3,0,3.5,0c0,0,0,0.1,0,0.1c-1.2,0-2.3,0-3.5,0C176.4,92.9,176.4,92.9,176.4,92.8z"/>
			<path class="st3" d="M204.6,93.3c2.4,0,4.8,0,7.2,0c-2.4,0.4-4.8,0.2-7.2,0.1C204.6,93.3,204.6,93.3,204.6,93.3z"/>
			<path class="st3" d="M208,93.8c-1.2,0-2.3,0-3.5-0.1c1.2,0,2.4,0,3.5,0C208,93.7,208,93.7,208,93.8z"/>
			<path class="st3" d="M218.8,92.8c0.7-0.3,1.4-0.1,2.2-0.2c0,0,0-0.1,0-0.1c-0.4,0-0.9,0-1.3,0c0-0.1,0-0.1,0-0.2
				c0.3,0,0.7-0.1,1,0c0.7,0.1,1.4,0.2,1.9,0.9c0.5,0.6,0.3,1.3-0.3,1.7c-0.6,0.3-1.3,0.5-2,0.4c-0.8-0.1-1.7-0.2-2.4-0.7
				c-0.5-0.4-0.6-1-0.1-1.4c0.4-0.4,0.4-0.4,0.8-0.5c-0.2,0.2-0.4,0.3-0.6,0.5c-0.6,0.5-0.5,1,0.2,1.4c0.7,0.4,1.4,0.6,2.1,0.6
				c0.4,0,0.9-0.1,1.3-0.2c0.1,0,0.1-0.1,0.2-0.2c-0.4,0.1-0.8,0.1-1.2,0.2c0,0,0-0.1,0-0.1c0.4-0.1,0.9-0.1,1.3-0.2
				c0.2,0,0.3-0.2,0.5-0.2c0,0,0-0.1,0-0.1c-0.6,0-1.1,0-1.7,0c0,0,0-0.1,0-0.1c0.3,0,0.6-0.1,1-0.1c0.3,0,0.6,0,1,0
				c0-0.1,0-0.1,0-0.2c-0.3,0-0.6,0-0.8,0c-0.3,0-0.6,0.1-0.8-0.1c0.6,0,1.1-0.1,1.7-0.1c0,0,0-0.1,0-0.1c-0.1,0-0.1-0.1-0.2-0.1
				c-1.4,0-2.7,0.1-4.1,0.1c0,0-0.1,0-0.1-0.1c1.1-0.2,2.3-0.1,3.4-0.1c0,0,0-0.1,0-0.1c-0.4,0-0.8,0-1.2,0c0,0,0-0.1,0-0.1
				c0.5,0,1.1,0,1.6,0c-0.3-0.3-0.3-0.3-1.6-0.3C219.9,92.8,219.4,92.8,218.8,92.8z"/>
		</g>
		<g>
			<path class="st3" d="M185.9,111.4c0.8,0,1.5,0,2.3,0c0.3,0,0.4,0,0.5-0.3c-0.7-0.3-1.4,0-2.1-0.3c0.7,0,1.4-0.1,2.1,0.1
				c0.2,0.1,0.4,0.1,0.6-0.2c-0.8,0-1.5-0.1-2.2-0.1c0,0,0-0.1,0-0.1c0.7,0,1.4,0,2.1,0c0,0,0,0,0-0.1c-0.5,0-1-0.1-1.4-0.1
				c0,0,0-0.1,0-0.1c0.2,0,0.4,0,0.7,0c0,0,0-0.1,0-0.1c-0.8,0-1.5,0-2.3,0c0-0.1,0-0.2,0-0.2c0.9,0,1.9-0.1,2.8,0.1
				c0.1,0,0.3,0,0.4,0c0,0,0-0.1,0-0.1c-1.1-0.1-2.2-0.1-3.3-0.2c0,0,0-0.1,0-0.1c0.9,0,1.7,0.1,2.6,0.1c0,0,0-0.1,0-0.1
				c-1,0-2-0.1-3-0.1c0.4-0.2,0.8-0.1,1.1-0.2c0.4,0,0.8,0,1.2-0.1c-3.7,0-7.5-0.1-11.2-0.1c0,0,0,0.1,0,0.1c0.7,0,1.4,0.1,2,0.1
				c1.7,0,3.3,0,5,0c0.3,0,0.7,0,1,0.1c0,0,0.1,0,0.1,0c0.3,0.1,0.5,0.1,0.6,0.4c0.1,0.2-0.4,0.6-0.6,0.6c-0.4,0.1-0.7,0.1-1.1,0.1
				c-1.5,0-3,0.1-4.5,0.1c-0.6,0-1.1,0.1-1.7,0.1c-0.1,0-0.2,0-0.2,0c-0.4-0.1-0.9-0.1-1.4,0.1c1.2,0,2.3,0,3.5,0c0,0,0,0.1,0,0.1
				c-0.8,0-1.6,0-2.4,0c0,0,0,0.1,0,0.1c0.9,0,1.8,0,2.7,0c0,0,0,0,0,0.1c-0.5,0.2-10.2-0.1-11-0.3c0.6,0,1.2,0.1,1.8,0.1
				c0.6,0,1.3,0,1.9,0c0,0,0-0.1,0-0.1c-0.2,0-0.4,0-0.6,0c-0.2,0-0.4,0-0.6,0c-0.2,0-0.5,0-0.7-0.1c-0.2,0-0.4,0-0.6,0
				c0,0,0-0.1,0-0.1c0.1,0,0.2-0.1,0.3-0.1c0.4,0,0.9,0,1.3,0.1c0.2,0,0.5,0,0.7-0.1c-1.1-0.2-2.3,0-3.4,0c0,0,0-0.1,0-0.1
				c0.1,0,0.2-0.1,0.3-0.1c0.4,0,0.8,0,1.2,0c2.3,0,4.6-0.1,6.8-0.1c1.4,0,2.7,0,4.1-0.1c1.2,0,2.4-0.1,3.6-0.1c0.1,0,0.2,0,0.4-0.1
				c-0.2-0.3-0.4-0.3-0.7-0.3c-1.5,0-3.1-0.1-4.6-0.1c-1.9,0-3.9-0.1-5.8-0.1c-0.6,0-1.3,0-1.9,0c-0.8,0-1.6-0.1-2.4,0
				c-0.3,0-0.6-0.1-0.9-0.1c0.1-0.3,0.3-0.5,0.5-0.6c0.5-0.2,1-0.3,1.5-0.3c0.7-0.1,1.4-0.2,2.1-0.2c0.7-0.1,1.4-0.1,2.1-0.1
				c0.9,0,1.9-0.1,2.8-0.1c2.2,0,4.5-0.1,6.7-0.1c0.6,0,1.3,0.1,1.9,0.2c1.5,0.1,2.5,1,3.5,2c0.1,0.1,0.3,0.2,0.5,0.3
				c2,0.6,4.1,0.8,6.1,0.8c0.9,0,1.7,0,2.6,0c1.5,0,3.1,0.1,4.6,0c2.5-0.1,5-0.3,7.5-0.7c1.5-0.3,3.1-0.5,4.6-1
				c1.3-0.3,2.5-0.6,3.8-0.8c1.1-0.1,2.1-0.1,3.2,0.2c0.7,0.2,1.3,0.4,1.9,0.8c0.9,0.7,1.5,2.2,1,3.5c-0.2,0.6-0.5,1.1-1,1.5
				c-0.2,0.2-0.5,0.2-0.8,0.3c-1,0.3-2,0.5-3,0.4c-0.7-0.1-1.3-0.2-2-0.4c-0.8-0.1-1.5-0.3-2.3-0.4c-0.6-0.1-1.2-0.3-1.8-0.4
				c-0.4-0.1-0.8-0.1-1.2-0.2c-3.6-0.8-7.3-1-11-1.2c-1.2,0-2.3-0.1-3.5-0.1c-1.5-0.1-3-0.1-4.6,0c-0.8,0-1.5,0.2-2.3,0.3
				c-0.8,0.1-1.5,0.4-2.2,0.6c-0.2,0-0.3,0.2-0.4,0.3c-0.8,0.8-1.7,1.5-2.9,1.6c-1.3,0.1-2.7,0.2-4,0.2c-2.1,0-4.2-0.2-6.2-0.3
				c-1.4-0.1-2.9-0.1-4.3-0.2c-0.9-0.1-1.9-0.1-2.8-0.2c-0.3,0-0.6-0.2-1-0.3c0.4-0.4,0.8-0.5,1.2-0.6c1.6,0,3.2-0.1,4.7-0.1
				c1.2,0,2.4-0.1,3.7-0.1c1,0,2.1,0.1,3.1,0.1c0.9,0,1.8,0,2.8,0c0.1,0,0.3,0.1,0.4,0.1c0.3,0.1,0.6,0,0.8-0.3
				c-0.1-0.3-0.4-0.4-0.7-0.4c-0.6-0.1-1.3-0.1-2-0.1c-3.2,0-6.5-0.1-9.7-0.1c-1.1,0-2.2-0.1-3.4-0.1c-0.5,0-0.7-0.1-1-0.5
				c0.9-0.4,1.8-0.2,2.7-0.2c0.4,0,0.7,0,1.1-0.1c-0.3-0.1-0.6,0.2-0.9-0.2c1.5,0,3-0.1,4.5-0.1c0.6,0,1.3-0.1,1.9-0.1
				c1.1,0,2.1,0,3.2,0c1.2,0,2.4,0.1,3.7,0.1c0.2,0,0.5,0,0.6-0.3c-0.3-0.4-0.7-0.3-1.1-0.4c-0.9,0-1.9,0-2.8,0c-0.3,0-0.6,0-0.9,0
				c-0.1,0-0.2,0-0.3-0.1c0.1,0,0.1-0.1,0.2-0.1c1.4,0,2.7,0,4.1,0c0.4,0,0.8,0.2,1,0.6c-0.1,0.3-0.4,0.5-0.8,0.5
				c-1.4,0.2-2.8,0.1-4.2,0.1c-0.4,0-0.7,0-1.1,0.1c-0.1,0-0.3,0-0.4,0c-0.1,0-0.3,0-0.4,0c-1.8,0.2-3.6,0.1-5.3,0.2
				c-1.2,0-2.4,0-3.6,0c-0.2,0-0.4,0-0.6,0c0,0,0,0.1,0,0.1c0.1,0,0.2,0.1,0.3,0.1c1.2,0,2.3,0.1,3.5,0.1c0.4,0,0.7-0.1,1.1-0.2
				c1.6-0.1,3.2-0.1,4.8-0.1c0.1,0,0.2,0,0.3,0.1c-1.5,0-3.1,0.1-4.6,0.1c0,0,0,0.1,0,0.1c0.3,0,0.6,0,0.9,0c2.5,0,5,0,7.5,0.1
				c0.6,0,1.2,0.1,1.8,0.1c0.3,0,0.6,0.1,0.9,0.4c0.2,0.2,0.2,0.5-0.1,0.6c-0.1,0.1-0.2,0.1-0.3,0.1c-0.5,0-1,0.4-1.5,0.3
				c0,0-0.1,0-0.1,0.1c1.8,0,3.6-0.3,5.4-0.1c-1-0.2-2-0.1-3.1-0.2c1.1-0.2,2.2,0,3.3-0.1c-1.1-0.2-2.2-0.2-3.2-0.2
				c0.1,0,0.1-0.1,0.2-0.1c1,0,2.1,0,3.1,0c0.2,0,0.4,0.1,0.5-0.3c-1.3,0-2.5,0-3.8,0c0,0,0-0.1,0-0.1c1.2-0.1,2.4,0,3.6-0.1
				c-0.6-0.3-1.2,0-1.8,0c-0.6-0.1-1.2-0.1-1.9-0.2c0.1,0,0.2,0,0.3,0c0.7,0,1.4,0,2.1,0c0.2,0,0.4-0.1,0.6-0.2c-1.1,0-2.2,0-3.3,0
				c0,0,0-0.1,0-0.1c0.1,0,0.2-0.1,0.3-0.1c0.5,0,1.1,0,1.6,0c0.4,0,0.8,0,1.2-0.1c0,0,0-0.1,0-0.1c-0.5,0-1.1,0-1.6,0
				c0,0,0-0.1,0-0.1c0.5-0.2,1,0.2,1.4-0.1c-0.3,0-0.7,0-1.1,0c0.4-0.4,0.8-0.1,1.1-0.2c0,0,0-0.1,0-0.1c-0.8,0-1.6,0-2.4,0
				c0-0.1,0-0.1,0-0.2c0.8-0.2,1.6,0,2.4-0.1c-0.8-0.2-1.6-0.1-2.4-0.2c0,0,0-0.1,0-0.1c0.8,0,1.6,0,2.3,0c0,0,0-0.1,0-0.1
				C187.5,111.6,186.7,111.5,185.9,111.4C185.9,111.5,185.9,111.5,185.9,111.4z M186.2,114.8c-0.2,0-0.3,0.1-0.5,0.1
				c-0.9,0-1.7-0.1-2.6-0.1c-0.5,0-1.1,0-1.6,0c-1.3,0-2.6-0.1-3.8,0c-0.8,0.1-1.7-0.1-2.5,0c-0.7,0.1-1.3,0-2,0c-0.2,0-0.4,0-0.6,0
				c0,0,0,0.1,0,0.1c3.4,0.2,6.9,0.6,10.4,0.5c0-0.1-0.1-0.1-0.1-0.2c0.4,0,0.7,0,1,0c0.7,0,1.4,0,2.1,0.1c0.4,0,0.9,0,1.3,0
				c0-0.1,0-0.1,0-0.2c-0.9,0-1.8,0-2.7,0c0,0,0-0.1,0-0.1c0.6,0,1.2,0,1.8,0c0.6,0,1.2,0.2,1.8,0c0,0,0-0.1,0-0.1
				C187.4,114.9,186.8,114.8,186.2,114.8c0.7,0,1.4,0,2.2,0c0-0.1,0-0.1,0-0.2c-1.3-0.1-2.6,0-3.9,0.1
				C185,114.8,185.6,114.8,186.2,114.8z M206.5,111.6c0,0,0-0.1,0-0.1c0.1,0,0.2,0,0.4,0c0.8-0.1,1.6-0.1,2.4-0.2
				c1.1-0.1,2.2-0.2,3.3-0.3c0.9-0.1,1.8-0.1,2.7-0.1c0.3,0,0.7-0.1,1-0.2c0-0.1,0-0.1,0-0.2c-1.1,0.1-2.3,0.2-3.4,0.4
				c-0.2,0-0.5,0.1-0.6,0c-0.3-0.2-0.6-0.1-0.9,0c-2,0.2-4,0.4-5.9,0.6c-0.2,0-0.4,0-0.6,0.1c-0.4,0.2-1.1,0.2-1.5,0.1
				c-0.1-0.1-0.4-0.1-0.4,0c-0.1,0.3-0.4,0.2-0.6,0.2c-1.1,0-2.1,0-3.2,0c1.7,0.1,3.4,0.1,5.1,0.2c-0.3,0.1-0.7,0.1-1,0.1
				c-1.7,0-3.5,0-5.2-0.1c-0.8,0-1.5-0.1-2.3-0.1c-1.4,0-2.8-0.1-4.1-0.1c0,0,0,0-0.1-0.1c0.1-0.1,0.1-0.1,0.2-0.2c0,0,0,0-0.1-0.1
				c-0.3,0.1-0.6,0.2-0.9,0.4c0-0.1,0-0.2,0-0.3c0,0-0.1,0-0.1-0.1c-0.1,0.1-0.3,0.2-0.5,0.4c0.2,0,0.3,0,0.4,0
				c1.2,0,2.4,0.1,3.6,0.1c0.8,0,1.6,0.1,2.4,0.2c0.7,0,1.4,0.1,2.1,0.1c0.4,0,0.7-0.1,1.1-0.1c1.1,0,2.2,0,3.4,0c0.1,0,0.2,0,0.2,0
				c0,0,0,0,0,0.1c-1.4,0-2.7,0-4.1,0c0.2,0.1,0.4,0.1,0.6,0.1c1.8,0.1,3.6,0.1,5.3,0.2c2,0.1,4,0.4,6,0.6c0.6,0.1,1.2,0.2,1.8,0.2
				c0.9,0,1.7-0.1,2.6-0.1c0,0,0.1,0,0.1,0c0,0,0,0.1,0,0.1c-0.8,0-1.6,0-2.4,0c0,0,0,0.1,0,0.1c0.2,0,0.3,0.1,0.5,0.1
				c0.8,0.2,1.7-0.1,2.5,0c0.1,0,0.2-0.1,0.4-0.2c-0.7-0.1-0.7-0.1-0.8-0.7c-0.2,0.1-0.4,0.2-0.7,0.3c-0.3,0.1-0.4,0-0.4-0.4
				c0-0.1,0-0.1,0-0.2c-0.4-0.1-0.8-0.1-1.1,0.2c-0.1,0.1-0.4,0.2-0.5,0.1c-0.4-0.3-0.9-0.2-1.4-0.4c0,0,0-0.1-0.1-0.1
				c0-0.1,0.1-0.2,0.1-0.3c-0.3-0.5-0.8-0.5-1.2-0.4c-0.3,0.1-0.6,0.1-1,0.1c-0.1,0-0.2,0-0.3,0c0,0,0-0.1,0-0.1
				c0.7,0,1.4-0.1,2-0.1c0.1,0,0.2,0,0.4-0.1c0.6-0.1,1.3-0.3,1.9,0.1c0.2,0.1,0.5,0.2,0.7,0.1c0.4-0.2,0.7,0,1.1,0c0,0,0,0,0.1-0.1
				c-0.2-0.6-0.7-0.6-1.3-0.6c-1.9,0.2-3.8,0.3-5.7,0.5c0,0.1,0.1,0.2,0.1,0.3c-0.4-0.1-0.8-0.2-1.1-0.2c-0.1,0.2-0.1,0.3-0.2,0.3
				c0,0-0.2,0-0.2,0c0-0.4-0.3-0.2-0.4-0.2C207,111.6,206.8,111.6,206.5,111.6z M220,110.1c-1.1,0.1-1.3,0.1-2.1,0.7
				c-0.4,0.3-0.7,0.7-0.6,1.3c0,0.6,0.3,1,0.8,1.2c0.6,0.3,1.3,0.5,2,0.4c0.3,0,0.6,0,0.9-0.1c0.3-0.1,0.7-0.1,1-0.3
				c0.4-0.4,0.8-0.8,0.7-1.5c0-0.4-0.1-0.9-0.6-1.1c-0.2-0.1-0.2-0.3-0.4-0.3C221.1,110.3,220.5,110.2,220,110.1z M187.7,109.1
				c0-0.1,0-0.1,0-0.2c-2.1,0-4.2-0.1-6.3-0.1c0,0,0-0.1,0-0.1c0.9,0,1.9,0,2.8,0c1,0,1.9,0.2,2.9,0c-3.5-0.1-6.9-0.3-10.4,0
				c1.3,0,2.6,0.1,3.9,0.1c0,0,0,0.1,0,0.1c-1.4,0-2.9,0-4.3,0c-1.4,0-2.9,0.1-4.3,0.3C177.2,108.9,182.4,109.1,187.7,109.1z
				 M220.9,114.1c-1,0-2,0-3,0c-0.5,0-1-0.1-1.5,0.1c0.1,0,0.1,0,0.2,0c0.6,0.1,1.2,0.1,1.7,0.1c0.6,0,1.3,0,1.9,0c0,0,0,0.1,0,0.1
				c-0.8,0-1.5,0-2.3,0c0,0,0,0.1,0,0.1c0.3,0,0.7,0.2,1,0.1c0.9-0.1,1.8-0.1,2.7,0.3c-0.2,0-0.3,0.1-0.4,0.1
				c0.6,0.1,1.1,0.1,1.7-0.1c-0.4,0.1-0.8,0-1.1-0.3c-0.1-0.1-0.2-0.1-0.3-0.1C220.9,114.6,220.9,114.6,220.9,114.1z M197.8,112.3
				c-2.5-0.2-6.7-0.3-7.1-0.2c0.4,0,0.8,0,1.2,0c0.5,0,1,0,1.5,0C194.9,112.4,196.3,112.4,197.8,112.3z M189,111.5
				c-0.3,0.5-0.3,0.9,0.1,1.2c0.6,0.5,1.3,0.6,1.6,0.2c-0.4-0.1-0.8,0-1.2-0.3C189.1,112.4,189.2,111.9,189,111.5z M223,112.8
				c0.3,0.4,0.2,0.8,0.2,1.2c0.1-0.2,0.3-0.4,0.4-0.7c-0.1-0.2-0.2-0.5-0.4-0.7c-0.2-0.2-0.4-0.2-0.5,0.1c-0.1,0.3-0.2,0.6,0,0.9
				C223.4,113.5,222.7,113.1,223,112.8z M218.3,109.4c0,0,0,0.1,0,0.1c0.3,0,0.6-0.1,0.8-0.1c1.1-0.1,2.1-0.4,3.2-0.1
				c0.1,0,0.1,0,0.2-0.1C221.1,109,219.7,109,218.3,109.4z M181.3,108.3C181.3,108.3,181.3,108.3,181.3,108.3
				c1.6,0.1,3.2,0.1,4.7,0.1C184.5,108.1,182.9,108.3,181.3,108.3z M180.9,112.1c0.6,0.2,2.4,0.2,2.7,0
				C182.7,112.1,181.8,112.1,180.9,112.1z M190.4,112.3c0,0.1,0,0.1,0,0.2c0.1,0,0.3,0.1,0.4,0.1c0.6,0,1.2,0,1.8,0
				c0.1,0,0.3,0,0.4,0c0.4,0.1,0.5,0.1,0.9,0C192.8,112.3,191.6,112.4,190.4,112.3z M222.3,110.1c0-0.3-0.2-0.3-0.4-0.3
				c-0.6,0-1.3,0-1.9,0c-0.2,0-0.4,0.1-0.5,0.1C220.5,110.1,221.4,109.7,222.3,110.1z M222,110.3c0.3,0.4,0.6,0.6,0.9,0.6
				c0.2,0,0.3-0.4,0.4-0.6c0,0,0,0,0-0.1c-0.2,0.2-0.4,0.3-0.7,0.2C222.4,110.3,222.2,110.3,222,110.3z M170.5,114.6
				c0.3,0.3,0.5,0.3,0.6,0c-0.6-0.1-1.3-0.2-1.9,0.1C169.7,114.7,170.1,114.9,170.5,114.6z M216.4,111.8c0,0.3-0.2,0.5-0.4,0.5
				c-0.3,0.1-0.4,0.3-0.5,0.6C216.2,112.8,216.6,112.4,216.4,111.8z M172.8,108.6c0,0,0-0.1,0-0.1c-0.9,0-1.8,0-2.7,0.4
				C171,108.8,171.9,108.7,172.8,108.6z M215.2,110.2c0.9-0.2,1.7-0.3,2.6-0.5C217.5,109.6,216.3,109.8,215.2,110.2z"/>
			<path class="st4" d="M206.5,111.6c0.2,0,0.4-0.1,0.6,0c0.2,0,0.4-0.1,0.4,0.2c0,0,0.2,0.1,0.2,0c0.1-0.1,0.1-0.2,0.2-0.3
				c0.3,0.1,0.7,0.1,1.1,0.2c0-0.1-0.1-0.2-0.1-0.3c1.9-0.2,3.8-0.3,5.7-0.5c0.5,0,1-0.1,1.3,0.6c0,0,0,0.1-0.1,0.1
				c-0.4,0-0.7-0.2-1.1,0c-0.2,0.1-0.5,0-0.7-0.1c-0.6-0.4-1.2-0.2-1.9-0.1c-0.1,0-0.2,0.1-0.4,0.1c-0.7,0-1.4,0.1-2,0.1
				c0,0,0,0.1,0,0.1c0.1,0,0.2,0.1,0.3,0c0.3,0,0.7-0.1,1-0.1c0.5-0.1,0.9-0.1,1.2,0.4c0,0.1-0.1,0.2-0.1,0.3c0,0.1,0,0.1,0.1,0.1
				c0.4,0.2,0.9,0.2,1.4,0.4c0.1,0.1,0.4,0,0.5-0.1c0.3-0.3,0.7-0.3,1.1-0.2c0,0.1,0,0.1,0,0.2c-0.1,0.3,0.1,0.4,0.4,0.4
				c0.2-0.1,0.4-0.2,0.7-0.3c0.1,0.6,0.1,0.6,0.8,0.7c-0.2,0.1-0.3,0.2-0.4,0.2c-0.8-0.1-1.7,0.2-2.5,0c-0.2,0-0.3-0.1-0.5-0.1
				c0,0,0-0.1,0-0.1c0.8,0,1.6,0,2.4,0c0,0,0-0.1,0-0.1c0,0-0.1,0-0.1,0c-0.9,0-1.7,0.1-2.6,0.1c-0.6,0-1.2-0.2-1.8-0.2
				c-2-0.2-4-0.4-6-0.6c-1.8-0.1-3.5-0.2-5.3-0.2c-0.2,0-0.4,0-0.6-0.1c1.4,0,2.7,0,4.1,0c0,0,0,0,0-0.1c-0.1,0-0.2,0-0.2,0
				c-1.1,0-2.2,0-3.4,0c-0.4,0-0.7,0.1-1.1,0.1c-0.7,0-1.4-0.1-2.1-0.1c-0.8-0.1-1.6-0.1-2.4-0.2c-1.2,0-2.4-0.1-3.6-0.1
				c-0.1,0-0.2,0-0.4,0c0.2-0.2,0.3-0.3,0.5-0.4c0,0,0.1,0,0.1,0.1c0,0.1,0,0.2,0,0.3c0.3-0.1,0.6-0.2,0.9-0.4c0,0,0,0,0.1,0.1
				c-0.1,0.1-0.1,0.1-0.2,0.2c0,0,0.1,0.1,0.1,0.1c1.4,0,2.8,0,4.1,0.1c0.8,0,1.5,0.1,2.3,0.1c1.7,0,3.5,0,5.2,0.1
				c0.3,0,0.7,0,1-0.1c-1.7-0.1-3.4-0.2-5.1-0.2c1.1,0,2.1,0,3.2,0c0.2,0,0.4,0.1,0.6-0.2c0,0,0.3,0,0.4,0c0.4,0.2,1.1,0.1,1.5-0.1
				c0.2-0.1,0.4-0.1,0.6-0.1c2-0.2,4-0.4,5.9-0.6c0.3,0,0.6-0.2,0.9,0c0.1,0.1,0.4,0,0.6,0c1.1-0.1,2.3-0.2,3.4-0.4c0,0,0,0.1,0,0.2
				c-0.3,0.1-0.7,0.2-1,0.2c-0.9,0.1-1.8,0-2.7,0.1c-1.1,0.1-2.2,0.2-3.3,0.3c-0.8,0.1-1.6,0.1-2.4,0.2c-0.1,0-0.2,0-0.4,0
				C206.5,111.6,206.5,111.6,206.5,111.6z"/>
			<path class="st4" d="M220,110.1c0.6,0.1,1.1,0.2,1.7,0.3c0.1,0,0.2,0.3,0.4,0.3c0.5,0.2,0.6,0.7,0.6,1.1c0.1,0.6-0.3,1.1-0.7,1.5
				c-0.3,0.2-0.7,0.3-1,0.3c-0.3,0.1-0.6,0.1-0.9,0.1c-0.7,0.1-1.4-0.2-2-0.4c-0.5-0.2-0.8-0.7-0.8-1.2c0-0.6,0.2-1,0.6-1.3
				C218.7,110.3,218.9,110.2,220,110.1z M218.1,111.8c0,0,0,0.1,0,0.1c1.3-0.1,2.5-0.1,3.8-0.2c0,0,0,0.1,0,0.1
				c-0.3,0-0.5,0.1-0.8,0.1c-0.3,0-0.6,0-0.8,0c-0.2,0-0.5-0.1-0.7,0.2c0.9,0,1.7-0.1,2.5-0.1c0.2-0.6,0.2-0.9-0.2-1.1
				c-0.5-0.3-1.1-0.6-1.7-0.6c-0.5,0-0.9,0.1-1.4,0.2c-0.3,0.1-0.6,0.3-0.8,0.5c-0.1,0-0.1,0.2-0.1,0.3c0,0.1,0.1,0.1,0.2,0.1
				c0.1,0,0.2,0,0.3,0c1,0,2-0.1,3.1-0.1c0.1,0,0.2,0,0.3,0C220.6,111.7,219.3,111.6,218.1,111.8z M221.9,112.7
				c-0.5-0.2-1.5-0.1-1.8,0.1c0.5,0,0.9-0.1,1.4-0.1c0,0,0,0.1,0,0.1c-0.2,0-0.3,0.1-0.5,0.1c-0.6,0.1-1.2,0.1-1.8,0.1
				c-0.2,0-0.3,0-0.5-0.1c-0.4-0.1-0.7-0.4-1-0.7c-0.3,0.3,0,0.4,0.1,0.6c0.7,0.6,2.4,0.9,3.4,0.3
				C221.5,113,221.7,112.9,221.9,112.7z"/>
			<path class="st4" d="M186.2,114.8c0.6,0,1.2,0,1.8,0.1c0,0,0,0.1,0,0.1c-0.6,0.2-1.2,0-1.8,0c-0.6,0-1.2,0-1.8,0c0,0,0,0.1,0,0.1
				c0.9,0,1.8,0,2.7,0c0,0.1,0,0.1,0,0.2c-0.4,0-0.9,0.1-1.3,0c-0.7,0-1.4,0-2.1-0.1c-0.3,0-0.6,0-1,0c0.1,0.1,0.1,0.1,0.1,0.2
				c-3.5,0.1-6.9-0.3-10.4-0.5c0,0,0-0.1,0-0.1c0.2,0,0.4,0,0.6,0c0.7,0,1.3,0.1,2,0c0.8-0.1,1.7,0,2.5,0c1.3-0.1,2.6,0,3.8,0
				c0.5,0,1.1-0.1,1.6,0c0.9,0,1.7,0.1,2.6,0.1C185.8,114.9,186,114.8,186.2,114.8L186.2,114.8z"/>
			<path class="st4" d="M187.7,109.1c-5.2-0.1-10.4-0.2-15.7,0.1c1.4-0.2,2.9-0.3,4.3-0.3c1.4,0,2.9,0,4.3,0c0,0,0-0.1,0-0.1
				c-1.3,0-2.6-0.1-3.9-0.1c3.5-0.3,6.9-0.1,10.4,0c-1,0.2-1.9,0-2.9,0c-0.9,0-1.9,0-2.8,0c0,0,0,0.1,0,0.1c2.1,0,4.2,0.1,6.3,0.1
				C187.6,109,187.7,109,187.7,109.1z"/>
			<path class="st4" d="M220.9,114.1c-0.1,0.5,0,0.5,0.5,0.6c0.1,0,0.2,0,0.3,0.1c0.3,0.3,0.7,0.4,1.1,0.3c-0.6,0.2-1.1,0.2-1.7,0.1
				c0.1,0,0.3-0.1,0.4-0.1c-0.9-0.3-1.8-0.4-2.7-0.3c-0.3,0-0.7-0.1-1-0.1c0,0,0-0.1,0-0.1c0.8,0,1.5,0,2.3,0c0,0,0-0.1,0-0.1
				c-0.6,0-1.3-0.1-1.9,0c-0.6,0-1.2,0.1-1.7-0.1c0,0-0.1,0-0.2,0c0.5-0.2,1-0.1,1.5-0.1C218.9,114.1,219.9,114.1,220.9,114.1z"/>
			<path class="st4" d="M197.8,112.3c-1.5,0.1-2.9,0.1-4.4-0.1c-0.5-0.1-1,0-1.5,0c-0.4,0-0.8,0-1.2,0
				C191,112,195.2,112.1,197.8,112.3z"/>
			<path class="st4" d="M189,111.5c0.2,0.4,0.1,0.9,0.5,1.2c0.4,0.3,0.8,0.2,1.2,0.3c-0.3,0.4-1,0.3-1.6-0.2
				C188.7,112.4,188.7,112,189,111.5z"/>
			<path class="st4" d="M223,112.8c-0.3,0.3,0.4,0.7-0.2,0.9c-0.2-0.3-0.1-0.6,0-0.9c0.1-0.2,0.3-0.3,0.5-0.1
				c0.2,0.2,0.3,0.5,0.4,0.7c-0.1,0.2-0.3,0.4-0.4,0.7C223.2,113.6,223.3,113.2,223,112.8z"/>
			<path class="st4" d="M218.3,109.4c1.4-0.4,2.8-0.4,4.2-0.2c-0.1,0-0.1,0.1-0.2,0.1c-1.1-0.3-2.1,0-3.2,0.1
				c-0.3,0-0.6,0.1-0.8,0.1C218.3,109.5,218.3,109.4,218.3,109.4z"/>
			<path class="st4" d="M181.3,108.3c1.6,0,3.2-0.1,4.7,0.1C184.5,108.4,182.9,108.4,181.3,108.3
				C181.3,108.3,181.3,108.3,181.3,108.3z"/>
			<path class="st4" d="M180.9,112.1c0.9,0,1.8,0,2.7,0C183.2,112.3,181.4,112.3,180.9,112.1z"/>
			<path class="st4" d="M186.2,114.8c-0.6,0-1.2,0-1.8,0c1.3-0.2,2.6-0.3,3.9-0.1c0,0.1,0,0.1,0,0.2
				C187.6,114.8,186.9,114.8,186.2,114.8L186.2,114.8z"/>
			<path class="st4" d="M190.4,112.3c1.2,0.1,2.4,0,3.6,0.2c-0.4,0.1-0.5,0.1-0.9,0c-0.1,0-0.3,0-0.4,0c-0.6,0-1.2,0-1.8,0
				c-0.1,0-0.3,0-0.4-0.1C190.4,112.4,190.4,112.3,190.4,112.3z"/>
			<path class="st4" d="M222.3,110.1c-0.9-0.4-1.9,0-2.8-0.2c0.2,0,0.4-0.1,0.5-0.1c0.6,0,1.3,0,1.9,0
				C222.2,109.7,222.3,109.7,222.3,110.1z"/>
			<path class="st4" d="M222,110.3c0.3,0,0.5,0,0.6,0c0.3,0.1,0.5,0.1,0.7-0.2c0,0.1,0,0.1,0,0.1c-0.1,0.2-0.2,0.6-0.4,0.6
				C222.6,110.9,222.3,110.7,222,110.3z"/>
			<path class="st4" d="M170.5,114.6c-0.4,0.3-0.8,0.2-1.2,0.1c0.6-0.3,1.2-0.2,1.9-0.1C171,114.9,170.8,114.9,170.5,114.6z"/>
			<path class="st4" d="M216.4,111.8c0.2,0.5-0.2,1-1,1.1c0.1-0.3,0.2-0.5,0.5-0.6C216.2,112.3,216.4,112.2,216.4,111.8z"/>
			<path class="st4" d="M172.8,108.6c-0.9,0.1-1.8,0.2-2.7,0.3c0.9-0.4,1.8-0.4,2.7-0.4C172.8,108.6,172.8,108.6,172.8,108.6z"/>
			<path class="st4" d="M215.2,110.2c1.1-0.5,2.3-0.7,2.6-0.5C217,109.9,216.1,110.1,215.2,110.2z"/>
			<path class="st3" d="M218.1,111.8c1.2-0.2,2.4-0.1,3.7-0.3c-0.1,0-0.2,0-0.3,0c-1,0-2,0.1-3.1,0.1c-0.1,0-0.2,0-0.3,0
				c-0.1,0-0.2-0.1-0.2-0.1c0-0.1,0-0.2,0.1-0.3c0.3-0.2,0.5-0.5,0.8-0.5c0.4-0.1,0.9-0.2,1.4-0.2c0.6-0.1,1.2,0.3,1.7,0.6
				c0.4,0.2,0.5,0.5,0.2,1.1c-0.8,0-1.7,0.1-2.5,0.1c0.2-0.3,0.5-0.2,0.7-0.2c0.3,0,0.6,0,0.8,0c0.3,0,0.5-0.1,0.8-0.1
				c0,0,0-0.1,0-0.1c-1.3,0.1-2.5,0.1-3.8,0.2C218.1,111.9,218.1,111.8,218.1,111.8z M218.2,111.4c1.1-0.1,2.2-0.1,3.3-0.2
				C221.2,111,218.8,111.1,218.2,111.4z"/>
			<path class="st3" d="M221.9,112.7c-0.3,0.2-0.5,0.3-0.7,0.4c-0.9,0.6-2.7,0.3-3.4-0.3c-0.2-0.1-0.4-0.3-0.1-0.6
				c0.3,0.3,0.6,0.6,1,0.7c0.2,0,0.3,0.1,0.5,0.1c0.6,0,1.2-0.1,1.8-0.1c0.2,0,0.3-0.1,0.5-0.1c0,0,0-0.1,0-0.1
				c-0.5,0-0.9,0.1-1.4,0.1C220.5,112.6,221.5,112.6,221.9,112.7z"/>
			<path class="st4" d="M218.2,111.4c0.6-0.3,2.9-0.4,3.3-0.2C220.4,111.2,219.3,111.3,218.2,111.4z"/>
		</g>
	</g>
	<g>
		<g>
			<defs>
				<rect id="SVGID_17_" x="116.1" y="551.8" width="29.3" height="37.9"/>
			</defs>
			<clipPath id="SVGID_2_">
				<use xlink:href="#SVGID_17_"  style="overflow:visible;"/>
			</clipPath>
			<g class="st5">
				<defs>
					<rect id="SVGID_19_" x="116.1" y="551.8" width="29.3" height="37.9"/>
				</defs>
				<clipPath id="SVGID_4_">
					<use xlink:href="#SVGID_19_"  style="overflow:visible;"/>
				</clipPath>
				<path class="st6" d="M129.1,569.7c-0.7,0-1.4-0.1-2.1-0.3c-1.4-0.4,0-1.2,0.7-1.5c0.6-0.2,1.3-0.3,2.1-0.4c0,0,0.7,0,0.7,0
					c0.5,0,0.9,0.1,1.4,0.1c0,0,0.1,0,0.1,0l0.1-0.3c0,0-0.1,0-0.2,0c-0.4-0.1-0.9-0.2-1.3-0.2c0,0-0.7-0.1-0.7-0.1
					c-1.5-0.1-3,0.1-4,1.1c-1,0.8,1,1.6,1.5,1.8c0.5,0.1,1,0.2,1.6,0.3c0,0,0.1,0,0.1,0L129.1,569.7
					C129.2,569.7,129.1,569.7,129.1,569.7"/>
				<path class="st6" d="M136.6,570.2c-0.2-0.6-0.7-1.1-1.2-1.5c1.1-0.8,1.8-1.9,1-3.2c-1-1.7-3.6-2.3-5.4-3
					c-0.1-1.3-0.4-2.7-1.2-3.7c-0.4-0.5-1-0.8-1.6-0.8c-1,0-0.9,1.1-0.7,1.8c0.4,1.4,1.5,2.2,2.7,2.7c0,0.1,0,0.3,0,0.4
					c0,1.3-0.1,2.6-0.3,3.9c0,0,0,0.1,0,0.1l0.7,0.1c0,0,0-0.1,0-0.1c0.1-0.3,0.1-0.5,0.1-0.8c0.2-1,0.3-2.1,0.2-3.2
					c1.5,0.6,5.1,1.4,5,3.5c-0.1,0.8-0.6,1.4-1.2,1.9c-0.6-0.3-1.2-0.6-1.8-0.7c0.1-0.5,0.2-0.9,0.3-1.4c0-0.2-0.7-0.6-0.7-0.4
					c-0.1,0.4-0.2,0.8-0.2,1.2l0,0l0,0.1c0,0.1-0.4,1.7-0.5,2.3c-0.6,0.1-1.1,0.2-1.5,0.2c-0.1,0-0.1,0-0.2,0
					c0.2-0.6,0.3-1.3,0.5-1.9c0,0,0-0.1,0-0.1l-0.7,0c0,0,0,0.1,0,0.1c-0.1,0.7-0.3,1.3-0.5,1.9c0,0-0.2,0.5-0.2,0.5
					c-0.5,1.5-1,3-1.6,4.4c-0.1,0.2,0.6,0.6,0.7,0.4c0.6-1.6,1.2-3.2,1.6-4.8c0.6,0,1.2,0,1.7-0.1c-0.5,2-1,4.1-1.7,6.1
					c-1.8,0.7-4,1.7-4.1,3.9c0,0.6,0.7,1.1,1.3,1.1c1.5,0,2.2-1.2,2.8-2.5c0.3-0.6,0.6-1.3,0.8-1.9
					C133.8,575.3,138,573.8,136.6,570.2 M128.1,559.2c0-0.6,0.9-0.7,1.2-0.3c0.3,0.4,0.4,0.9,0.6,1.3c0.2,0.6,0.3,1.3,0.4,1.9
					C129.1,561.6,128,560.7,128.1,559.2 M129.5,577.2c-0.4,1.1-1,2.7-2.2,3.2c-1.8,0.7,0-2,0.6-2.4
					C128.3,577.7,128.9,577.4,129.5,577.2C129.5,577.2,129.5,577.2,129.5,577.2 M132.6,569.3c0.1-0.5,0.2-0.9,0.3-1.4
					c0.6,0.2,1.1,0.4,1.6,0.6C133.9,568.9,133.3,569.1,132.6,569.3 M130.9,575.7c0.6-1.9,1.1-3.8,1.5-5.8c0.3-0.1,0.5-0.1,0.8-0.2
					c0.5-0.2,1.2-0.4,1.8-0.8c0.4,0.3,0.7,0.6,0.9,1C137.5,572.9,133,574.8,130.9,575.7"/>
				<path class="st6" d="M138.3,562.3c-2-2-4.6-3.1-7.4-3.1c-2.8,0-5.4,1.1-7.4,3.1c-2,2-3.1,4.6-3.1,7.4c0,2.8,1.1,5.4,3.1,7.4
					c2,2,4.6,3.1,7.4,3.1c2.8,0,5.4-1.1,7.4-3.1c2-2,3.1-4.6,3.1-7.4C141.4,566.9,140.3,564.3,138.3,562.3 M131.1,579.5
					c-5.4,0-9.8-4.4-9.8-9.8c0-5.4,4.4-9.8,9.8-9.8c5.4,0,9.8,4.4,9.8,9.8C140.9,575.1,136.5,579.5,131.1,579.5"/>
			</g>
		</g>
	</g>
</g>
<g id="text">
	<rect x="57.1" y="140.7" class="st17" width="279.5" height="394.3"/>
	<text transform="matrix(1 0 0 1 157.6035 147.2231)"><tspan x="0" y="0" class="st18 st19">SOUP OF THE DAY</tspan><tspan x="34" y="10.8" class="st18 st19">$8</tspan><tspan x="11.1" y="32.4" class="st18 st19">SANDWICH 1</tspan><tspan x="-62.9" y="43.2" class="st18 st19"> homemade granola, greek yogurt, berries and honey</tspan><tspan x="34" y="54" class="st18 st19">$9</tspan><tspan x="11.1" y="75.6" class="st18 st19">SANDWICH 2</tspan><tspan x="-62.9" y="86.4" class="st18 st19"> homemade granola, greek yogurt, berries and honey</tspan><tspan x="34" y="97.2" class="st18 st19">$9</tspan><tspan x="11.1" y="118.8" class="st18 st19">SANDWICH 3</tspan><tspan x="-62.9" y="129.6" class="st18 st19"> homemade granola, greek yogurt, berries and honey</tspan><tspan x="34" y="140.4" class="st18 st19">$9</tspan><tspan x="3.6" y="162" class="st18 st19">GRANOLA BOWL</tspan><tspan x="-62.9" y="172.8" class="st18 st19"> homemade granola, greek yogurt, berries and honey</tspan><tspan x="34" y="183.6" class="st18 st19">$9</tspan><tspan x="1.5" y="205.2" class="st18 st19">AVOCADO TOAST </tspan><tspan x="-53.3" y="216" class="st18 st19">served with an egg sunny side up, mixed greens</tspan><tspan x="31.4" y="226.8" class="st18 st19">$10</tspan><tspan x="4.7" y="248.4" class="st18 st19">VEGGIE NICOISE </tspan><tspan x="-95.8" y="259.2" class="st18 st19">asparagus, green beans, egg, arugula, rosemary potatoes dressed with </tspan><tspan x="22.8" y="270" class="st18 st19">balsamic</tspan><tspan x="31.4" y="280.8" class="st18 st19">$12</tspan><tspan x="5.1" y="302.4" class="st18 st19">CAPRESE SALAD </tspan><tspan x="-75.6" y="313.2" class="st18 st19">arugula, burrata, prosciutto di parma, dressed with balsamic</tspan><tspan x="31.4" y="324" class="st18 st19">$14</tspan><tspan x="-10.9" y="345.6" class="st18 st19">SMOKED TROUT SALAD </tspan><tspan x="-92.4" y="356.4" class="st18 st19">smoked trout, fresh mozzarella, scallions, vesuvio tomatoes, arugula, </tspan><tspan x="-3.2" y="367.2" class="st18 st19">dressed with balsamic</tspan><tspan x="31.4" y="378" class="st18 st19">$15</tspan></text>
	<text transform="matrix(1 0 0 1 114.2295 47.8521)"><tspan x="0" y="0" class="st20 st21">THE BREUKELEN</tspan><tspan x="42.4" y="28.8" class="st20 st22">LUNCH MENU</tspan></text>
	<rect x="121.9" y="568" class="st4" width="157.1" height="33"/>
	<text transform="matrix(1 0 0 1 143.0518 573.0605)" class="st23 st24">* VEGETARIAN OPTION, ^ VEGAN OPTION</text>
</g>
</svg>
